<svg width="950" height="63" viewBox="0 0 950 63" fill="none" xmlns="http://www.w3.org/2000/svg">
<mask id="path-1-outside-1_82_59" maskUnits="userSpaceOnUse" x="-1" y="-1" width="953" height="65" fill="black">
<rect fill="white" x="-1" y="-1" width="953" height="65"/>
<path d="M0.179001 62V1.1H17.6225C19.1885 1.1 20.914 1.2595 22.799 1.5785C24.684 1.8685 26.5545 2.4195 28.4105 3.2315C30.2955 4.0435 32.0065 5.2035 33.5435 6.7115C35.0805 8.2195 36.313 10.1625 37.241 12.5405C38.169 14.9185 38.633 17.862 38.633 21.371C38.633 24.851 38.169 27.7945 37.241 30.2015C36.313 32.6085 35.0805 34.595 33.5435 36.161C32.0065 37.727 30.2955 38.945 28.4105 39.815C26.5545 40.656 24.684 41.2505 22.799 41.5985C20.914 41.9175 19.1885 42.077 17.6225 42.077H8.8355V62H0.179001ZM8.8355 35.465H16.9265C18.2315 35.465 19.6235 35.291 21.1025 34.943C22.6105 34.595 24.0315 33.928 25.3655 32.942C26.6995 31.956 27.787 30.535 28.628 28.679C29.469 26.823 29.8895 24.387 29.8895 21.371C29.8895 18.355 29.469 15.948 28.628 14.15C27.787 12.323 26.6995 10.9455 25.3655 10.0175C24.0315 9.0895 22.6105 8.4805 21.1025 8.1905C19.6235 7.8715 18.2315 7.712 16.9265 7.712H8.8355V35.465ZM56.241 62V1.1H78.0345C79.5715 1.1 81.152 1.2595 82.776 1.5785C84.429 1.8685 86.024 2.376 87.561 3.101C89.098 3.826 90.4755 4.812 91.6935 6.059C92.9405 7.306 93.9265 8.8865 94.6515 10.8005C95.3765 12.7145 95.739 15.0055 95.739 17.6735C95.739 20.3995 95.3475 22.7485 94.5645 24.7205C93.8105 26.6635 92.7955 28.302 91.5195 29.636C90.2435 30.941 88.8225 31.985 87.2565 32.768C85.7195 33.522 84.139 34.073 82.515 34.421C80.92 34.74 79.4265 34.8995 78.0345 34.8995H64.854V62H56.241ZM87.648 62L75.9465 32.4635L84.4725 31.55L96.8265 62H87.648ZM64.854 28.4615H76.512C78.397 28.4615 80.137 28.1135 81.732 27.4175C83.356 26.7215 84.661 25.605 85.647 24.068C86.633 22.502 87.126 20.443 87.126 17.891C87.126 15.194 86.604 13.1205 85.56 11.6705C84.545 10.1915 83.211 9.162 81.558 8.582C79.905 8.002 78.1505 7.712 76.2945 7.712H64.854V28.4615ZM131.356 62.957C128.862 62.957 126.411 62.5945 124.004 61.8695C121.626 61.1155 119.393 59.9555 117.305 58.3895C115.246 56.8235 113.434 54.808 111.868 52.343C110.302 49.878 109.069 46.949 108.17 43.556C107.3 40.134 106.865 36.19 106.865 31.724C106.865 27.287 107.3 23.372 108.17 19.979C109.069 16.557 110.302 13.628 111.868 11.192C113.434 8.727 115.246 6.7115 117.305 5.1455C119.393 3.5795 121.626 2.434 124.004 1.709C126.411 0.954998 128.862 0.577997 131.356 0.577997C133.85 0.577997 136.286 0.954998 138.664 1.709C141.042 2.434 143.26 3.5795 145.319 5.1455C147.407 6.7115 149.22 8.727 150.757 11.192C152.323 13.628 153.555 16.557 154.454 19.979C155.353 23.372 155.803 27.287 155.803 31.724C155.803 36.19 155.353 40.134 154.454 43.556C153.555 46.949 152.323 49.878 150.757 52.343C149.22 54.808 147.407 56.8235 145.319 58.3895C143.26 59.9555 141.042 61.1155 138.664 61.8695C136.286 62.5945 133.85 62.957 131.356 62.957ZM131.356 56.2145C133.328 56.2145 135.242 55.7505 137.098 54.8225C138.954 53.8945 140.621 52.4445 142.1 50.4725C143.608 48.5005 144.797 45.9775 145.667 42.9035C146.566 39.8005 147.016 36.074 147.016 31.724C147.016 27.403 146.566 23.7055 145.667 20.6315C144.797 17.5285 143.608 15.0055 142.1 13.0625C140.621 11.0905 138.954 9.6405 137.098 8.7125C135.242 7.7845 133.328 7.3205 131.356 7.3205C129.384 7.3205 127.455 7.7845 125.57 8.7125C123.714 9.6405 122.032 11.0905 120.524 13.0625C119.045 15.0055 117.856 17.5285 116.957 20.6315C116.087 23.7055 115.652 27.403 115.652 31.724C115.652 36.074 116.087 39.8005 116.957 42.9035C117.856 45.9775 119.045 48.5005 120.524 50.4725C122.032 52.4445 123.714 53.8945 125.57 54.8225C127.455 55.7505 129.384 56.2145 131.356 56.2145ZM171.888 62V1.1H207.776V7.712H180.501V31.9415H203.73V38.5535H180.501V62H171.888ZM226.471 62V1.1H264.534V7.712H235.084V28.766H261.054V35.378H235.084V55.388H264.534V62H226.471ZM301.325 62.957C297.729 62.957 294.409 62.4495 291.364 61.4345C288.319 60.4195 285.709 58.955 283.534 57.041C281.388 55.127 279.836 52.836 278.879 50.168L287.188 46.5575C287.884 48.4135 288.928 50.0665 290.32 51.5165C291.712 52.9375 293.379 54.054 295.322 54.866C297.265 55.678 299.44 56.084 301.847 56.084C304.37 56.084 306.56 55.678 308.416 54.866C310.301 54.025 311.751 52.8505 312.766 51.3425C313.781 49.8345 314.288 48.022 314.288 45.905C314.288 44.31 313.853 42.889 312.983 41.642C312.142 40.366 310.982 39.264 309.503 38.336C308.024 37.379 306.371 36.567 304.544 35.9C302.746 35.204 300.905 34.624 299.02 34.16C296.352 33.464 293.901 32.623 291.668 31.637C289.464 30.651 287.536 29.462 285.883 28.07C284.259 26.649 282.997 24.967 282.098 23.024C281.228 21.081 280.793 18.8045 280.793 16.1945C280.793 14.1065 281.185 12.2215 281.968 10.5395C282.751 8.8575 283.824 7.393 285.187 6.146C286.579 4.899 288.159 3.8695 289.928 3.0575C291.726 2.2165 293.655 1.593 295.714 1.18699C297.773 0.780997 299.846 0.577997 301.934 0.577997C305.24 0.577997 308.3 1.071 311.113 2.057C313.926 3.014 316.304 4.348 318.247 6.059C320.19 7.741 321.524 9.655 322.249 11.801L314.114 15.455C313.505 13.744 312.606 12.294 311.417 11.105C310.257 9.916 308.836 9.017 307.154 8.408C305.501 7.77 303.66 7.451 301.63 7.451C300.093 7.451 298.614 7.6395 297.193 8.0165C295.801 8.3645 294.539 8.901 293.408 9.62599C292.306 10.322 291.422 11.2065 290.755 12.2795C290.117 13.3235 289.798 14.556 289.798 15.977C289.798 17.978 290.334 19.6745 291.407 21.0665C292.48 22.4585 293.959 23.633 295.844 24.59C297.758 25.518 299.962 26.301 302.456 26.939C304.399 27.461 306.357 28.07 308.329 28.766C310.33 29.433 312.215 30.245 313.984 31.202C315.782 32.159 317.377 33.3045 318.769 34.6385C320.19 35.9435 321.306 37.4805 322.118 39.2495C322.93 40.9895 323.336 42.9905 323.336 45.2525C323.336 47.6885 322.93 49.8635 322.118 51.7775C321.335 53.6915 320.248 55.359 318.856 56.78C317.464 58.172 315.84 59.332 313.984 60.26C312.128 61.159 310.112 61.826 307.937 62.261C305.791 62.725 303.587 62.957 301.325 62.957ZM340.857 62V55.388H353.429V7.712H340.857V1.1H374.7V7.712H362.042V55.388H374.7V62H340.857ZM414.276 62.957C411.782 62.957 409.331 62.5945 406.924 61.8695C404.546 61.1155 402.313 59.9555 400.225 58.3895C398.166 56.8235 396.354 54.808 394.788 52.343C393.222 49.878 391.989 46.949 391.09 43.556C390.22 40.134 389.785 36.19 389.785 31.724C389.785 27.287 390.22 23.372 391.09 19.979C391.989 16.557 393.222 13.628 394.788 11.192C396.354 8.727 398.166 6.7115 400.225 5.1455C402.313 3.5795 404.546 2.434 406.924 1.709C409.331 0.954998 411.782 0.577997 414.276 0.577997C416.77 0.577997 419.206 0.954998 421.584 1.709C423.962 2.434 426.18 3.5795 428.239 5.1455C430.327 6.7115 432.14 8.727 433.677 11.192C435.243 13.628 436.475 16.557 437.374 19.979C438.273 23.372 438.723 27.287 438.723 31.724C438.723 36.19 438.273 40.134 437.374 43.556C436.475 46.949 435.243 49.878 433.677 52.343C432.14 54.808 430.327 56.8235 428.239 58.3895C426.18 59.9555 423.962 61.1155 421.584 61.8695C419.206 62.5945 416.77 62.957 414.276 62.957ZM414.276 56.2145C416.248 56.2145 418.162 55.7505 420.018 54.8225C421.874 53.8945 423.541 52.4445 425.02 50.4725C426.528 48.5005 427.717 45.9775 428.587 42.9035C429.486 39.8005 429.936 36.074 429.936 31.724C429.936 27.403 429.486 23.7055 428.587 20.6315C427.717 17.5285 426.528 15.0055 425.02 13.0625C423.541 11.0905 421.874 9.6405 420.018 8.7125C418.162 7.7845 416.248 7.3205 414.276 7.3205C412.304 7.3205 410.375 7.7845 408.49 8.7125C406.634 9.6405 404.952 11.0905 403.444 13.0625C401.965 15.0055 400.776 17.5285 399.877 20.6315C399.007 23.7055 398.572 27.403 398.572 31.724C398.572 36.074 399.007 39.8005 399.877 42.9035C400.776 45.9775 401.965 48.5005 403.444 50.4725C404.952 52.4445 406.634 53.8945 408.49 54.8225C410.375 55.7505 412.304 56.2145 414.276 56.2145ZM449.414 62V1.1H462.116L484.954 54.431H483.518V1.1H492.131V62H480.995L457.636 8.843H458.027V62H449.414ZM550.803 62H541.886L537.971 46.601H517.265L513.35 62H504.432L520.44 1.1H534.795L550.803 62ZM527.052 7.712L518.657 39.989H536.579L528.183 7.712H527.052ZM562.452 62V1.1H571.108V55.388H594.685V62H562.452ZM671.245 62.957C667.649 62.957 664.329 62.4495 661.284 61.4345C658.239 60.4195 655.629 58.955 653.454 57.041C651.308 55.127 649.756 52.836 648.799 50.168L657.108 46.5575C657.804 48.4135 658.848 50.0665 660.24 51.5165C661.632 52.9375 663.299 54.054 665.242 54.866C667.185 55.678 669.36 56.084 671.767 56.084C674.29 56.084 676.48 55.678 678.336 54.866C680.221 54.025 681.671 52.8505 682.686 51.3425C683.701 49.8345 684.208 48.022 684.208 45.905C684.208 44.31 683.773 42.889 682.903 41.642C682.062 40.366 680.902 39.264 679.423 38.336C677.944 37.379 676.291 36.567 674.464 35.9C672.666 35.204 670.825 34.624 668.94 34.16C666.272 33.464 663.821 32.623 661.588 31.637C659.384 30.651 657.456 29.462 655.803 28.07C654.179 26.649 652.917 24.967 652.018 23.024C651.148 21.081 650.713 18.8045 650.713 16.1945C650.713 14.1065 651.105 12.2215 651.888 10.5395C652.671 8.8575 653.744 7.393 655.107 6.146C656.499 4.899 658.079 3.8695 659.848 3.0575C661.646 2.2165 663.575 1.593 665.634 1.18699C667.693 0.780997 669.766 0.577997 671.854 0.577997C675.16 0.577997 678.22 1.071 681.033 2.057C683.846 3.014 686.224 4.348 688.167 6.059C690.11 7.741 691.444 9.655 692.169 11.801L684.034 15.455C683.425 13.744 682.526 12.294 681.337 11.105C680.177 9.916 678.756 9.017 677.074 8.408C675.421 7.77 673.58 7.451 671.55 7.451C670.013 7.451 668.534 7.6395 667.113 8.0165C665.721 8.3645 664.459 8.901 663.328 9.62599C662.226 10.322 661.342 11.2065 660.675 12.2795C660.037 13.3235 659.718 14.556 659.718 15.977C659.718 17.978 660.254 19.6745 661.327 21.0665C662.4 22.4585 663.879 23.633 665.764 24.59C667.678 25.518 669.882 26.301 672.376 26.939C674.319 27.461 676.277 28.07 678.249 28.766C680.25 29.433 682.135 30.245 683.904 31.202C685.702 32.159 687.297 33.3045 688.689 34.6385C690.11 35.9435 691.226 37.4805 692.038 39.2495C692.85 40.9895 693.256 42.9905 693.256 45.2525C693.256 47.6885 692.85 49.8635 692.038 51.7775C691.255 53.6915 690.168 55.359 688.776 56.78C687.384 58.172 685.76 59.332 683.904 60.26C682.048 61.159 680.032 61.826 677.857 62.261C675.711 62.725 673.507 62.957 671.245 62.957ZM707.993 62V1.1H716.606V27.461H720.608L738.095 1.1H747.448L726.263 32.5505V28.8965L748.579 62H739.139L720.608 34.073H716.606V62H707.993ZM767.361 62V55.388H779.933V7.712H767.361V1.1H801.204V7.712H788.546V55.388H801.204V62H767.361ZM819.204 62V1.1H827.86V55.388H851.437V62H819.204ZM862.704 62V1.1H871.36V55.388H894.937V62H862.704ZM927.997 62.957C924.401 62.957 921.081 62.4495 918.036 61.4345C914.991 60.4195 912.381 58.955 910.206 57.041C908.06 55.127 906.508 52.836 905.551 50.168L913.86 46.5575C914.556 48.4135 915.6 50.0665 916.992 51.5165C918.384 52.9375 920.051 54.054 921.994 54.866C923.937 55.678 926.112 56.084 928.519 56.084C931.042 56.084 933.232 55.678 935.088 54.866C936.973 54.025 938.423 52.8505 939.438 51.3425C940.453 49.8345 940.96 48.022 940.96 45.905C940.96 44.31 940.525 42.889 939.655 41.642C938.814 40.366 937.654 39.264 936.175 38.336C934.696 37.379 933.043 36.567 931.216 35.9C929.418 35.204 927.577 34.624 925.692 34.16C923.024 33.464 920.573 32.623 918.34 31.637C916.136 30.651 914.208 29.462 912.555 28.07C910.931 26.649 909.669 24.967 908.77 23.024C907.9 21.081 907.465 18.8045 907.465 16.1945C907.465 14.1065 907.857 12.2215 908.64 10.5395C909.423 8.8575 910.496 7.393 911.859 6.146C913.251 4.899 914.831 3.8695 916.6 3.0575C918.398 2.2165 920.327 1.593 922.386 1.18699C924.445 0.780997 926.518 0.577997 928.606 0.577997C931.912 0.577997 934.972 1.071 937.785 2.057C940.598 3.014 942.976 4.348 944.919 6.059C946.862 7.741 948.196 9.655 948.921 11.801L940.786 15.455C940.177 13.744 939.278 12.294 938.089 11.105C936.929 9.916 935.508 9.017 933.826 8.408C932.173 7.77 930.332 7.451 928.302 7.451C926.765 7.451 925.286 7.6395 923.865 8.0165C922.473 8.3645 921.211 8.901 920.08 9.62599C918.978 10.322 918.094 11.2065 917.427 12.2795C916.789 13.3235 916.47 14.556 916.47 15.977C916.47 17.978 917.006 19.6745 918.079 21.0665C919.152 22.4585 920.631 23.633 922.516 24.59C924.43 25.518 926.634 26.301 929.128 26.939C931.071 27.461 933.029 28.07 935.001 28.766C937.002 29.433 938.887 30.245 940.656 31.202C942.454 32.159 944.049 33.3045 945.441 34.6385C946.862 35.9435 947.978 37.4805 948.79 39.2495C949.602 40.9895 950.008 42.9905 950.008 45.2525C950.008 47.6885 949.602 49.8635 948.79 51.7775C948.007 53.6915 946.92 55.359 945.528 56.78C944.136 58.172 942.512 59.332 940.656 60.26C938.8 61.159 936.784 61.826 934.609 62.261C932.463 62.725 930.259 62.957 927.997 62.957Z"/>
</mask>
<g filter="url(#filter0_i_82_59)">
<path d="M0.179001 62V1.1H17.6225C19.1885 1.1 20.914 1.2595 22.799 1.5785C24.684 1.8685 26.5545 2.4195 28.4105 3.2315C30.2955 4.0435 32.0065 5.2035 33.5435 6.7115C35.0805 8.2195 36.313 10.1625 37.241 12.5405C38.169 14.9185 38.633 17.862 38.633 21.371C38.633 24.851 38.169 27.7945 37.241 30.2015C36.313 32.6085 35.0805 34.595 33.5435 36.161C32.0065 37.727 30.2955 38.945 28.4105 39.815C26.5545 40.656 24.684 41.2505 22.799 41.5985C20.914 41.9175 19.1885 42.077 17.6225 42.077H8.8355V62H0.179001ZM8.8355 35.465H16.9265C18.2315 35.465 19.6235 35.291 21.1025 34.943C22.6105 34.595 24.0315 33.928 25.3655 32.942C26.6995 31.956 27.787 30.535 28.628 28.679C29.469 26.823 29.8895 24.387 29.8895 21.371C29.8895 18.355 29.469 15.948 28.628 14.15C27.787 12.323 26.6995 10.9455 25.3655 10.0175C24.0315 9.0895 22.6105 8.4805 21.1025 8.1905C19.6235 7.8715 18.2315 7.712 16.9265 7.712H8.8355V35.465ZM56.241 62V1.1H78.0345C79.5715 1.1 81.152 1.2595 82.776 1.5785C84.429 1.8685 86.024 2.376 87.561 3.101C89.098 3.826 90.4755 4.812 91.6935 6.059C92.9405 7.306 93.9265 8.8865 94.6515 10.8005C95.3765 12.7145 95.739 15.0055 95.739 17.6735C95.739 20.3995 95.3475 22.7485 94.5645 24.7205C93.8105 26.6635 92.7955 28.302 91.5195 29.636C90.2435 30.941 88.8225 31.985 87.2565 32.768C85.7195 33.522 84.139 34.073 82.515 34.421C80.92 34.74 79.4265 34.8995 78.0345 34.8995H64.854V62H56.241ZM87.648 62L75.9465 32.4635L84.4725 31.55L96.8265 62H87.648ZM64.854 28.4615H76.512C78.397 28.4615 80.137 28.1135 81.732 27.4175C83.356 26.7215 84.661 25.605 85.647 24.068C86.633 22.502 87.126 20.443 87.126 17.891C87.126 15.194 86.604 13.1205 85.56 11.6705C84.545 10.1915 83.211 9.162 81.558 8.582C79.905 8.002 78.1505 7.712 76.2945 7.712H64.854V28.4615ZM131.356 62.957C128.862 62.957 126.411 62.5945 124.004 61.8695C121.626 61.1155 119.393 59.9555 117.305 58.3895C115.246 56.8235 113.434 54.808 111.868 52.343C110.302 49.878 109.069 46.949 108.17 43.556C107.3 40.134 106.865 36.19 106.865 31.724C106.865 27.287 107.3 23.372 108.17 19.979C109.069 16.557 110.302 13.628 111.868 11.192C113.434 8.727 115.246 6.7115 117.305 5.1455C119.393 3.5795 121.626 2.434 124.004 1.709C126.411 0.954998 128.862 0.577997 131.356 0.577997C133.85 0.577997 136.286 0.954998 138.664 1.709C141.042 2.434 143.26 3.5795 145.319 5.1455C147.407 6.7115 149.22 8.727 150.757 11.192C152.323 13.628 153.555 16.557 154.454 19.979C155.353 23.372 155.803 27.287 155.803 31.724C155.803 36.19 155.353 40.134 154.454 43.556C153.555 46.949 152.323 49.878 150.757 52.343C149.22 54.808 147.407 56.8235 145.319 58.3895C143.26 59.9555 141.042 61.1155 138.664 61.8695C136.286 62.5945 133.85 62.957 131.356 62.957ZM131.356 56.2145C133.328 56.2145 135.242 55.7505 137.098 54.8225C138.954 53.8945 140.621 52.4445 142.1 50.4725C143.608 48.5005 144.797 45.9775 145.667 42.9035C146.566 39.8005 147.016 36.074 147.016 31.724C147.016 27.403 146.566 23.7055 145.667 20.6315C144.797 17.5285 143.608 15.0055 142.1 13.0625C140.621 11.0905 138.954 9.6405 137.098 8.7125C135.242 7.7845 133.328 7.3205 131.356 7.3205C129.384 7.3205 127.455 7.7845 125.57 8.7125C123.714 9.6405 122.032 11.0905 120.524 13.0625C119.045 15.0055 117.856 17.5285 116.957 20.6315C116.087 23.7055 115.652 27.403 115.652 31.724C115.652 36.074 116.087 39.8005 116.957 42.9035C117.856 45.9775 119.045 48.5005 120.524 50.4725C122.032 52.4445 123.714 53.8945 125.57 54.8225C127.455 55.7505 129.384 56.2145 131.356 56.2145ZM171.888 62V1.1H207.776V7.712H180.501V31.9415H203.73V38.5535H180.501V62H171.888ZM226.471 62V1.1H264.534V7.712H235.084V28.766H261.054V35.378H235.084V55.388H264.534V62H226.471ZM301.325 62.957C297.729 62.957 294.409 62.4495 291.364 61.4345C288.319 60.4195 285.709 58.955 283.534 57.041C281.388 55.127 279.836 52.836 278.879 50.168L287.188 46.5575C287.884 48.4135 288.928 50.0665 290.32 51.5165C291.712 52.9375 293.379 54.054 295.322 54.866C297.265 55.678 299.44 56.084 301.847 56.084C304.37 56.084 306.56 55.678 308.416 54.866C310.301 54.025 311.751 52.8505 312.766 51.3425C313.781 49.8345 314.288 48.022 314.288 45.905C314.288 44.31 313.853 42.889 312.983 41.642C312.142 40.366 310.982 39.264 309.503 38.336C308.024 37.379 306.371 36.567 304.544 35.9C302.746 35.204 300.905 34.624 299.02 34.16C296.352 33.464 293.901 32.623 291.668 31.637C289.464 30.651 287.536 29.462 285.883 28.07C284.259 26.649 282.997 24.967 282.098 23.024C281.228 21.081 280.793 18.8045 280.793 16.1945C280.793 14.1065 281.185 12.2215 281.968 10.5395C282.751 8.8575 283.824 7.393 285.187 6.146C286.579 4.899 288.159 3.8695 289.928 3.0575C291.726 2.2165 293.655 1.593 295.714 1.18699C297.773 0.780997 299.846 0.577997 301.934 0.577997C305.24 0.577997 308.3 1.071 311.113 2.057C313.926 3.014 316.304 4.348 318.247 6.059C320.19 7.741 321.524 9.655 322.249 11.801L314.114 15.455C313.505 13.744 312.606 12.294 311.417 11.105C310.257 9.916 308.836 9.017 307.154 8.408C305.501 7.77 303.66 7.451 301.63 7.451C300.093 7.451 298.614 7.6395 297.193 8.0165C295.801 8.3645 294.539 8.901 293.408 9.62599C292.306 10.322 291.422 11.2065 290.755 12.2795C290.117 13.3235 289.798 14.556 289.798 15.977C289.798 17.978 290.334 19.6745 291.407 21.0665C292.48 22.4585 293.959 23.633 295.844 24.59C297.758 25.518 299.962 26.301 302.456 26.939C304.399 27.461 306.357 28.07 308.329 28.766C310.33 29.433 312.215 30.245 313.984 31.202C315.782 32.159 317.377 33.3045 318.769 34.6385C320.19 35.9435 321.306 37.4805 322.118 39.2495C322.93 40.9895 323.336 42.9905 323.336 45.2525C323.336 47.6885 322.93 49.8635 322.118 51.7775C321.335 53.6915 320.248 55.359 318.856 56.78C317.464 58.172 315.84 59.332 313.984 60.26C312.128 61.159 310.112 61.826 307.937 62.261C305.791 62.725 303.587 62.957 301.325 62.957ZM340.857 62V55.388H353.429V7.712H340.857V1.1H374.7V7.712H362.042V55.388H374.7V62H340.857ZM414.276 62.957C411.782 62.957 409.331 62.5945 406.924 61.8695C404.546 61.1155 402.313 59.9555 400.225 58.3895C398.166 56.8235 396.354 54.808 394.788 52.343C393.222 49.878 391.989 46.949 391.09 43.556C390.22 40.134 389.785 36.19 389.785 31.724C389.785 27.287 390.22 23.372 391.09 19.979C391.989 16.557 393.222 13.628 394.788 11.192C396.354 8.727 398.166 6.7115 400.225 5.1455C402.313 3.5795 404.546 2.434 406.924 1.709C409.331 0.954998 411.782 0.577997 414.276 0.577997C416.77 0.577997 419.206 0.954998 421.584 1.709C423.962 2.434 426.18 3.5795 428.239 5.1455C430.327 6.7115 432.14 8.727 433.677 11.192C435.243 13.628 436.475 16.557 437.374 19.979C438.273 23.372 438.723 27.287 438.723 31.724C438.723 36.19 438.273 40.134 437.374 43.556C436.475 46.949 435.243 49.878 433.677 52.343C432.14 54.808 430.327 56.8235 428.239 58.3895C426.18 59.9555 423.962 61.1155 421.584 61.8695C419.206 62.5945 416.77 62.957 414.276 62.957ZM414.276 56.2145C416.248 56.2145 418.162 55.7505 420.018 54.8225C421.874 53.8945 423.541 52.4445 425.02 50.4725C426.528 48.5005 427.717 45.9775 428.587 42.9035C429.486 39.8005 429.936 36.074 429.936 31.724C429.936 27.403 429.486 23.7055 428.587 20.6315C427.717 17.5285 426.528 15.0055 425.02 13.0625C423.541 11.0905 421.874 9.6405 420.018 8.7125C418.162 7.7845 416.248 7.3205 414.276 7.3205C412.304 7.3205 410.375 7.7845 408.49 8.7125C406.634 9.6405 404.952 11.0905 403.444 13.0625C401.965 15.0055 400.776 17.5285 399.877 20.6315C399.007 23.7055 398.572 27.403 398.572 31.724C398.572 36.074 399.007 39.8005 399.877 42.9035C400.776 45.9775 401.965 48.5005 403.444 50.4725C404.952 52.4445 406.634 53.8945 408.49 54.8225C410.375 55.7505 412.304 56.2145 414.276 56.2145ZM449.414 62V1.1H462.116L484.954 54.431H483.518V1.1H492.131V62H480.995L457.636 8.843H458.027V62H449.414ZM550.803 62H541.886L537.971 46.601H517.265L513.35 62H504.432L520.44 1.1H534.795L550.803 62ZM527.052 7.712L518.657 39.989H536.579L528.183 7.712H527.052ZM562.452 62V1.1H571.108V55.388H594.685V62H562.452ZM671.245 62.957C667.649 62.957 664.329 62.4495 661.284 61.4345C658.239 60.4195 655.629 58.955 653.454 57.041C651.308 55.127 649.756 52.836 648.799 50.168L657.108 46.5575C657.804 48.4135 658.848 50.0665 660.24 51.5165C661.632 52.9375 663.299 54.054 665.242 54.866C667.185 55.678 669.36 56.084 671.767 56.084C674.29 56.084 676.48 55.678 678.336 54.866C680.221 54.025 681.671 52.8505 682.686 51.3425C683.701 49.8345 684.208 48.022 684.208 45.905C684.208 44.31 683.773 42.889 682.903 41.642C682.062 40.366 680.902 39.264 679.423 38.336C677.944 37.379 676.291 36.567 674.464 35.9C672.666 35.204 670.825 34.624 668.94 34.16C666.272 33.464 663.821 32.623 661.588 31.637C659.384 30.651 657.456 29.462 655.803 28.07C654.179 26.649 652.917 24.967 652.018 23.024C651.148 21.081 650.713 18.8045 650.713 16.1945C650.713 14.1065 651.105 12.2215 651.888 10.5395C652.671 8.8575 653.744 7.393 655.107 6.146C656.499 4.899 658.079 3.8695 659.848 3.0575C661.646 2.2165 663.575 1.593 665.634 1.18699C667.693 0.780997 669.766 0.577997 671.854 0.577997C675.16 0.577997 678.22 1.071 681.033 2.057C683.846 3.014 686.224 4.348 688.167 6.059C690.11 7.741 691.444 9.655 692.169 11.801L684.034 15.455C683.425 13.744 682.526 12.294 681.337 11.105C680.177 9.916 678.756 9.017 677.074 8.408C675.421 7.77 673.58 7.451 671.55 7.451C670.013 7.451 668.534 7.6395 667.113 8.0165C665.721 8.3645 664.459 8.901 663.328 9.62599C662.226 10.322 661.342 11.2065 660.675 12.2795C660.037 13.3235 659.718 14.556 659.718 15.977C659.718 17.978 660.254 19.6745 661.327 21.0665C662.4 22.4585 663.879 23.633 665.764 24.59C667.678 25.518 669.882 26.301 672.376 26.939C674.319 27.461 676.277 28.07 678.249 28.766C680.25 29.433 682.135 30.245 683.904 31.202C685.702 32.159 687.297 33.3045 688.689 34.6385C690.11 35.9435 691.226 37.4805 692.038 39.2495C692.85 40.9895 693.256 42.9905 693.256 45.2525C693.256 47.6885 692.85 49.8635 692.038 51.7775C691.255 53.6915 690.168 55.359 688.776 56.78C687.384 58.172 685.76 59.332 683.904 60.26C682.048 61.159 680.032 61.826 677.857 62.261C675.711 62.725 673.507 62.957 671.245 62.957ZM707.993 62V1.1H716.606V27.461H720.608L738.095 1.1H747.448L726.263 32.5505V28.8965L748.579 62H739.139L720.608 34.073H716.606V62H707.993ZM767.361 62V55.388H779.933V7.712H767.361V1.1H801.204V7.712H788.546V55.388H801.204V62H767.361ZM819.204 62V1.1H827.86V55.388H851.437V62H819.204ZM862.704 62V1.1H871.36V55.388H894.937V62H862.704ZM927.997 62.957C924.401 62.957 921.081 62.4495 918.036 61.4345C914.991 60.4195 912.381 58.955 910.206 57.041C908.06 55.127 906.508 52.836 905.551 50.168L913.86 46.5575C914.556 48.4135 915.6 50.0665 916.992 51.5165C918.384 52.9375 920.051 54.054 921.994 54.866C923.937 55.678 926.112 56.084 928.519 56.084C931.042 56.084 933.232 55.678 935.088 54.866C936.973 54.025 938.423 52.8505 939.438 51.3425C940.453 49.8345 940.96 48.022 940.96 45.905C940.96 44.31 940.525 42.889 939.655 41.642C938.814 40.366 937.654 39.264 936.175 38.336C934.696 37.379 933.043 36.567 931.216 35.9C929.418 35.204 927.577 34.624 925.692 34.16C923.024 33.464 920.573 32.623 918.34 31.637C916.136 30.651 914.208 29.462 912.555 28.07C910.931 26.649 909.669 24.967 908.77 23.024C907.9 21.081 907.465 18.8045 907.465 16.1945C907.465 14.1065 907.857 12.2215 908.64 10.5395C909.423 8.8575 910.496 7.393 911.859 6.146C913.251 4.899 914.831 3.8695 916.6 3.0575C918.398 2.2165 920.327 1.593 922.386 1.18699C924.445 0.780997 926.518 0.577997 928.606 0.577997C931.912 0.577997 934.972 1.071 937.785 2.057C940.598 3.014 942.976 4.348 944.919 6.059C946.862 7.741 948.196 9.655 948.921 11.801L940.786 15.455C940.177 13.744 939.278 12.294 938.089 11.105C936.929 9.916 935.508 9.017 933.826 8.408C932.173 7.77 930.332 7.451 928.302 7.451C926.765 7.451 925.286 7.6395 923.865 8.0165C922.473 8.3645 921.211 8.901 920.08 9.62599C918.978 10.322 918.094 11.2065 917.427 12.2795C916.789 13.3235 916.47 14.556 916.47 15.977C916.47 17.978 917.006 19.6745 918.079 21.0665C919.152 22.4585 920.631 23.633 922.516 24.59C924.43 25.518 926.634 26.301 929.128 26.939C931.071 27.461 933.029 28.07 935.001 28.766C937.002 29.433 938.887 30.245 940.656 31.202C942.454 32.159 944.049 33.3045 945.441 34.6385C946.862 35.9435 947.978 37.4805 948.79 39.2495C949.602 40.9895 950.008 42.9905 950.008 45.2525C950.008 47.6885 949.602 49.8635 948.79 51.7775C948.007 53.6915 946.92 55.359 945.528 56.78C944.136 58.172 942.512 59.332 940.656 60.26C938.8 61.159 936.784 61.826 934.609 62.261C932.463 62.725 930.259 62.957 927.997 62.957Z" fill="white"/>
</g>
<path d="M0.179001 62H-0.820999V63H0.179001V62ZM0.179001 1.1V0.0999959H-0.820999V1.1H0.179001ZM22.799 1.5785L22.6321 2.56448L22.6395 2.56573L22.6469 2.56687L22.799 1.5785ZM28.4105 3.2315L28.0097 4.14767L28.0149 4.14991L28.4105 3.2315ZM33.5435 6.7115L32.8432 7.42531L32.8432 7.42531L33.5435 6.7115ZM37.241 12.5405L38.1726 12.177L38.1726 12.177L37.241 12.5405ZM37.241 30.2015L38.1741 30.5612L38.1741 30.5612L37.241 30.2015ZM33.5435 36.161L32.8298 35.4605L32.8298 35.4605L33.5435 36.161ZM28.4105 39.815L28.8232 40.7259L28.8296 40.723L28.4105 39.815ZM22.799 41.5985L22.9659 42.5845L22.9732 42.5832L22.9805 42.5819L22.799 41.5985ZM8.8355 42.077V41.077H7.8355V42.077H8.8355ZM8.8355 62V63H9.8355V62H8.8355ZM8.8355 35.465H7.8355V36.465H8.8355V35.465ZM21.1025 34.943L20.8776 33.9686L20.8735 33.9696L21.1025 34.943ZM25.3655 32.942L24.7711 32.1378L24.7711 32.1378L25.3655 32.942ZM28.628 28.679L29.5389 29.0917L29.5389 29.0917L28.628 28.679ZM28.628 14.15L27.7196 14.5682L27.7222 14.5737L28.628 14.15ZM25.3655 10.0175L24.7944 10.8384L24.7944 10.8384L25.3655 10.0175ZM21.1025 8.1905L20.8917 9.16802L20.9026 9.17038L20.9137 9.1725L21.1025 8.1905ZM8.8355 7.712V6.712H7.8355V7.712H8.8355ZM1.179 62V1.1H-0.820999V62H1.179ZM0.179001 2.1H17.6225V0.0999959H0.179001V2.1ZM17.6225 2.1C19.122 2.1 20.7907 2.25285 22.6321 2.56448L22.9659 0.592517C21.0373 0.266144 19.255 0.0999959 17.6225 0.0999959V2.1ZM22.6469 2.56687C24.4411 2.84289 26.2282 3.36825 28.0097 4.14765L28.8113 2.31534C26.8808 1.47074 24.9269 0.894104 22.9511 0.590126L22.6469 2.56687ZM28.0149 4.14991C29.781 4.91072 31.3899 5.99942 32.8432 7.42531L34.2438 5.99769C32.6231 4.40757 30.81 3.17627 28.8061 2.31308L28.0149 4.14991ZM32.8432 7.42531C34.2622 8.81756 35.4234 10.6337 36.3094 12.904L38.1726 12.177C37.2026 9.69128 35.8988 7.62143 34.2438 5.99769L32.8432 7.42531ZM36.3094 12.904C37.1787 15.1316 37.633 17.9429 37.633 21.371H39.633C39.633 17.7811 39.1593 14.7054 38.1726 12.177L36.3094 12.904ZM37.633 21.371C37.633 24.7683 37.1792 27.5819 36.3079 29.8418L38.1741 30.5612C39.1588 28.0071 39.633 24.9337 39.633 21.371H37.633ZM36.3079 29.8418C35.4205 32.1435 34.2559 34.0075 32.8298 35.4605L34.2572 36.8615C35.9051 35.1825 37.2055 33.0735 38.1741 30.5612L36.3079 29.8418ZM32.8298 35.4605C31.3728 36.9451 29.7603 38.0906 27.9914 38.907L28.8296 40.723C30.8307 39.7994 32.6402 38.5089 34.2572 36.8615L32.8298 35.4605ZM27.9978 38.9041C26.211 39.7138 24.4179 40.2827 22.6175 40.6151L22.9805 42.5819C24.9501 42.2183 26.898 41.5982 28.8232 40.7259L27.9978 38.9041ZM22.6321 40.6125C20.7907 40.9241 19.122 41.077 17.6225 41.077V43.077C19.255 43.077 21.0373 42.9109 22.9659 42.5845L22.6321 40.6125ZM17.6225 41.077H8.8355V43.077H17.6225V41.077ZM7.8355 42.077V62H9.8355V42.077H7.8355ZM8.8355 61H0.179001V63H8.8355V61ZM8.8355 36.465H16.9265V34.465H8.8355V36.465ZM16.9265 36.465C18.32 36.465 19.7894 36.2793 21.3315 35.9164L20.8735 33.9696C19.4576 34.3027 18.143 34.465 16.9265 34.465V36.465ZM21.3274 35.9174C22.9783 35.5364 24.5237 34.8077 25.9599 33.7462L24.7711 32.1378C23.5393 33.0483 22.2427 33.6536 20.8776 33.9686L21.3274 35.9174ZM25.9599 33.7462C27.459 32.6381 28.6434 31.0679 29.5389 29.0917L27.7172 28.2663C26.9306 30.0021 25.94 31.2739 24.7711 32.1378L25.9599 33.7462ZM29.5389 29.0917C30.4599 27.0592 30.8895 24.4668 30.8895 21.371H28.8895C28.8895 24.3071 28.4782 26.5868 27.7171 28.2663L29.5389 29.0917ZM30.8895 21.371C30.8895 18.2776 30.4606 15.7078 29.5338 13.7263L27.7222 14.5737C28.4774 16.1882 28.8895 18.4324 28.8895 21.371H30.8895ZM29.5364 13.7319C28.6384 11.7811 27.4479 10.248 25.9366 9.19659L24.7944 10.8384C25.9511 11.643 26.9356 12.8648 27.7196 14.5681L29.5364 13.7319ZM25.9366 9.19659C24.4946 8.1935 22.9445 7.52641 21.2913 7.20849L20.9137 9.1725C22.2765 9.43458 23.5684 9.98549 24.7944 10.8384L25.9366 9.19659ZM21.3133 7.21297C19.7758 6.88134 18.3125 6.712 16.9265 6.712V8.712C18.1505 8.712 19.4713 8.86166 20.8917 9.16802L21.3133 7.21297ZM16.9265 6.712H8.8355V8.712H16.9265V6.712ZM7.8355 7.712V35.465H9.8355V7.712H7.8355ZM56.241 62H55.241V63H56.241V62ZM56.241 1.1V0.0999959H55.241V1.1H56.241ZM82.776 1.5785L82.5832 2.55975L82.5932 2.5617L82.6032 2.56345L82.776 1.5785ZM87.561 3.101L87.1344 4.00543L87.1344 4.00543L87.561 3.101ZM91.6935 6.059L90.9781 6.75779L90.9864 6.76611L91.6935 6.059ZM94.5645 24.7205L93.635 24.3515L93.6322 24.3587L94.5645 24.7205ZM91.5195 29.636L92.2345 30.3352L92.2421 30.3272L91.5195 29.636ZM87.2565 32.768L87.6969 33.6658L87.7037 33.6624L87.2565 32.768ZM82.515 34.421L82.7111 35.4017L82.7245 35.3988L82.515 34.421ZM64.854 34.8995V33.8995H63.854V34.8995H64.854ZM64.854 62V63H65.854V62H64.854ZM87.648 62L86.7183 62.3683L86.9685 63H87.648V62ZM75.9465 32.4635L75.84 31.4692L74.5325 31.6093L75.0168 32.8318L75.9465 32.4635ZM84.4725 31.55L85.3991 31.174L85.1157 30.4754L84.366 30.5557L84.4725 31.55ZM96.8265 62V63H98.3114L97.7531 61.624L96.8265 62ZM64.854 28.4615H63.854V29.4615H64.854V28.4615ZM81.732 27.4175L81.3381 26.4983L81.332 26.501L81.732 27.4175ZM85.647 24.068L86.4887 24.608L86.4932 24.6008L85.647 24.068ZM85.56 11.6705L84.7355 12.2363L84.7419 12.2456L84.7485 12.2548L85.56 11.6705ZM81.558 8.582L81.2269 9.5256L81.2269 9.5256L81.558 8.582ZM64.854 7.712V6.712H63.854V7.712H64.854ZM57.241 62V1.1H55.241V62H57.241ZM56.241 2.1H78.0345V0.0999959H56.241V2.1ZM78.0345 2.1C79.5021 2.1 81.0179 2.25227 82.5832 2.55975L82.9687 0.597249C81.2861 0.266722 79.6409 0.0999959 78.0345 0.0999959V2.1ZM82.6032 2.56345C84.1673 2.83785 85.677 3.31798 87.1344 4.00543L87.9876 2.19656C86.371 1.43401 84.6907 0.899142 82.9488 0.59354L82.6032 2.56345ZM87.1344 4.00543C88.5608 4.67829 89.8412 5.59372 90.9781 6.75774L92.4089 5.36026C91.1098 4.03027 89.6351 2.9737 87.9876 2.19656L87.1344 4.00543ZM90.9864 6.76611C92.1184 7.89813 93.0335 9.35205 93.7163 11.1547L95.5866 10.4463C94.8195 8.42094 93.7626 6.71387 92.4006 5.35189L90.9864 6.76611ZM93.7163 11.1547C94.3876 12.927 94.739 15.0917 94.739 17.6735H96.739C96.739 14.9193 96.3653 12.502 95.5866 10.4463L93.7163 11.1547ZM94.739 17.6735C94.739 20.3075 94.3602 22.5251 93.6351 24.3515L95.4939 25.0895C96.3347 22.9719 96.739 20.4915 96.739 17.6735H94.739ZM93.6322 24.3587C92.9197 26.195 91.971 27.7172 90.7968 28.9448L92.2421 30.3272C93.62 28.8868 94.7013 27.132 95.4968 25.0823L93.6322 24.3587ZM90.8045 28.9369C89.6029 30.1657 88.2716 31.1424 86.8093 31.8736L87.7037 33.6624C89.3734 32.8276 90.884 31.7163 92.2345 30.3351L90.8045 28.9369ZM86.8161 31.8702C85.3502 32.5893 83.8471 33.1128 82.3055 33.4432L82.7245 35.3988C84.4309 35.0331 86.0888 34.4547 87.6969 33.6658L86.8161 31.8702ZM82.3189 33.4404C80.7779 33.7486 79.3507 33.8995 78.0345 33.8995V35.8995C79.5022 35.8995 81.062 35.7314 82.7111 35.4016L82.3189 33.4404ZM78.0345 33.8995H64.854V35.8995H78.0345V33.8995ZM63.854 34.8995V62H65.854V34.8995H63.854ZM64.854 61H56.241V63H64.854V61ZM88.5777 61.6317L76.8762 32.0952L75.0168 32.8318L86.7183 62.3683L88.5777 61.6317ZM76.053 33.4578L84.579 32.5443L84.366 30.5557L75.84 31.4692L76.053 33.4578ZM83.5458 31.9259L95.8998 62.376L97.7531 61.624L85.3991 31.174L83.5458 31.9259ZM96.8265 61H87.648V63H96.8265V61ZM64.854 29.4615H76.512V27.4615H64.854V29.4615ZM76.512 29.4615C78.523 29.4615 80.4006 29.0895 82.1319 28.334L81.332 26.501C79.8734 27.1375 78.2709 27.4615 76.512 27.4615V29.4615ZM82.1259 28.3366C83.9402 27.5591 85.3985 26.3073 86.4887 24.608L84.8053 23.528C83.9234 24.9027 82.7718 25.8839 81.3381 26.4984L82.1259 28.3366ZM86.4932 24.6008C87.6109 22.8256 88.126 20.5627 88.126 17.891H86.126C86.126 20.3233 85.655 22.1784 84.8008 23.5352L86.4932 24.6008ZM88.126 17.891C88.126 15.0851 87.5861 12.7731 86.3715 11.0862L84.7485 12.2548C85.6219 13.4679 86.126 15.3029 86.126 17.891H88.126ZM86.3845 11.1047C85.2524 9.45503 83.7476 8.29051 81.8891 7.6384L81.2269 9.5256C82.6744 10.0335 83.8376 10.928 84.7355 12.2363L86.3845 11.1047ZM81.8891 7.6384C80.1235 7.0189 78.2565 6.712 76.2945 6.712V8.712C78.0445 8.712 79.6865 8.9851 81.2269 9.5256L81.8891 7.6384ZM76.2945 6.712H64.854V8.712H76.2945V6.712ZM63.854 7.712V28.4615H65.854V7.712H63.854ZM124.004 61.8695L123.702 62.8227L123.709 62.8249L123.716 62.827L124.004 61.8695ZM117.305 58.3895L116.7 59.1855L116.705 59.1895L117.305 58.3895ZM111.868 52.343L111.024 52.8792L111.024 52.8792L111.868 52.343ZM108.17 43.556L107.201 43.8024L107.204 43.8121L108.17 43.556ZM108.17 19.979L107.203 19.7249L107.202 19.7306L108.17 19.979ZM111.868 11.192L112.709 11.7328L112.712 11.7282L111.868 11.192ZM117.305 5.1455L116.705 4.34548L116.7 4.34955L117.305 5.1455ZM124.004 1.709L124.296 2.66556L124.303 2.66327L124.004 1.709ZM138.664 1.709L138.362 2.66229L138.372 2.66553L138.664 1.709ZM145.319 5.1455L144.714 5.94146L144.719 5.9455L145.319 5.1455ZM150.757 11.192L149.908 11.7211L149.916 11.7328L150.757 11.192ZM154.454 19.979L153.487 20.2331L153.488 20.2351L154.454 19.979ZM154.454 43.556L155.421 43.8121L155.422 43.8101L154.454 43.556ZM150.757 52.343L149.913 51.8067L149.908 51.8139L150.757 52.343ZM145.319 58.3895L144.719 57.5895L144.714 57.5936L145.319 58.3895ZM138.664 61.8695L138.956 62.8261L138.966 62.8227L138.664 61.8695ZM142.1 50.4725L141.306 49.865L141.3 49.8725L142.1 50.4725ZM145.667 42.9035L144.707 42.6252L144.705 42.6312L145.667 42.9035ZM145.667 20.6315L144.705 20.9015L144.708 20.9122L145.667 20.6315ZM142.1 13.0625L141.3 13.6625L141.305 13.6691L141.31 13.6756L142.1 13.0625ZM137.098 8.7125L136.651 9.60693L136.651 9.60693L137.098 8.7125ZM125.57 8.7125L125.129 7.81531L125.123 7.81807L125.57 8.7125ZM120.524 13.0625L119.73 12.455L119.729 12.4568L120.524 13.0625ZM116.957 20.6315L115.997 20.3532L115.995 20.3592L116.957 20.6315ZM116.957 42.9035L115.995 43.1735L115.998 43.1842L116.957 42.9035ZM120.524 50.4725L119.724 51.0725L119.73 51.0799L120.524 50.4725ZM125.57 54.8225L125.123 55.7169L125.129 55.7197L125.57 54.8225ZM131.356 61.957C128.96 61.957 126.607 61.609 124.293 60.912L123.716 62.827C126.216 63.58 128.763 63.957 131.356 63.957V61.957ZM124.307 60.9163C122.041 60.1978 119.908 59.0912 117.905 57.5895L116.705 59.1895C118.879 60.8198 121.212 62.0332 123.702 62.8227L124.307 60.9163ZM117.911 57.5936C115.958 56.1079 114.223 54.1845 112.712 51.8068L111.024 52.8792C112.645 55.4315 114.535 57.5391 116.7 59.1854L117.911 57.5936ZM112.712 51.8068C111.211 49.4437 110.015 46.6131 109.137 43.2999L107.204 43.8121C108.124 47.2849 109.393 50.3123 111.024 52.8792L112.712 51.8068ZM109.14 43.3096C108.295 39.9861 107.865 36.1277 107.865 31.724H105.865C105.865 36.2523 106.306 40.2819 107.201 43.8024L109.14 43.3096ZM107.865 31.724C107.865 27.3497 108.295 23.521 109.139 20.2274L107.202 19.7306C106.306 23.223 105.865 27.2243 105.865 31.724H107.865ZM109.138 20.2331C110.016 16.891 111.211 14.0633 112.709 11.7328L111.027 10.6512C109.393 13.1927 108.123 16.223 107.203 19.7249L109.138 20.2331ZM112.712 11.7282C114.223 9.35048 115.958 7.42707 117.911 5.94144L116.7 4.34955C114.535 5.99592 112.645 8.10351 111.024 10.6558L112.712 11.7282ZM117.905 5.9455C119.905 4.44568 122.035 3.35499 124.296 2.66553L123.713 0.752466C121.218 1.513 118.882 2.71332 116.705 4.3455L117.905 5.9455ZM124.303 2.66327C126.615 1.93923 128.965 1.578 131.356 1.578V-0.422003C128.759 -0.422003 126.208 -0.029235 123.706 0.754723L124.303 2.66327ZM131.356 1.578C133.747 1.578 136.081 1.93921 138.362 2.66223L138.966 0.755768C136.49 -0.0292195 133.953 -0.422003 131.356 -0.422003V1.578ZM138.372 2.66553C140.633 3.35461 142.745 4.44418 144.714 5.94144L145.925 4.34955C143.775 2.71482 141.451 1.51339 138.956 0.752466L138.372 2.66553ZM144.719 5.9455C146.698 7.42942 148.429 9.34917 149.908 11.7211L151.606 10.6629C150.01 8.10483 148.117 5.99358 145.919 4.3455L144.719 5.9455ZM149.916 11.7328C151.414 14.0633 152.609 16.891 153.487 20.2331L155.422 19.7249C154.502 16.223 153.232 13.1927 151.598 10.6512L149.916 11.7328ZM153.488 20.2351C154.36 23.526 154.803 27.3518 154.803 31.724H156.803C156.803 27.2222 156.347 23.218 155.421 19.7229L153.488 20.2351ZM154.803 31.724C154.803 36.1255 154.36 39.9812 153.487 43.3019L155.422 43.8101C156.347 40.2868 156.803 36.2545 156.803 31.724H154.803ZM153.488 43.2999C152.61 46.6131 151.414 49.4437 149.913 51.8068L151.601 52.8792C153.232 50.3123 154.501 47.2849 155.421 43.8121L153.488 43.2999ZM149.908 51.8139C148.429 54.1858 146.698 56.1056 144.719 57.5895L145.919 59.1895C148.117 57.5414 150.01 55.4302 151.606 52.8721L149.908 51.8139ZM144.714 57.5936C142.743 59.0927 140.626 60.1982 138.362 60.9163L138.966 62.8227C141.458 62.0328 143.778 60.8183 145.925 59.1854L144.714 57.5936ZM138.372 60.913C136.089 61.6091 133.751 61.957 131.356 61.957V63.957C133.948 63.957 136.483 63.5799 138.956 62.826L138.372 60.913ZM131.356 57.2145C133.491 57.2145 135.558 56.7106 137.545 55.7169L136.651 53.9281C134.926 54.7904 133.165 55.2145 131.356 55.2145V57.2145ZM137.545 55.7169C139.564 54.7076 141.346 53.1455 142.9 51.0725L141.3 49.8725C139.897 51.7435 138.344 53.0814 136.651 53.9281L137.545 55.7169ZM142.895 51.0799C144.498 48.9836 145.735 46.3379 146.63 43.1758L144.705 42.6312C143.86 45.6171 142.719 48.0174 141.306 49.865L142.895 51.0799ZM146.628 43.1818C147.56 39.9632 148.016 36.1379 148.016 31.724H146.016C146.016 36.0101 145.572 39.6378 144.707 42.6252L146.628 43.1818ZM148.016 31.724C148.016 27.3388 147.56 23.5415 146.627 20.3508L144.708 20.9122C145.573 23.8695 146.016 27.4672 146.016 31.724H148.016ZM146.63 20.3615C145.736 17.1707 144.498 14.5208 142.89 12.4494L141.31 13.6756C142.719 15.4902 143.859 17.8863 144.705 20.9015L146.63 20.3615ZM142.9 12.4625C141.346 10.3895 139.564 8.82738 137.545 7.81807L136.651 9.60693C138.344 10.4536 139.897 11.7915 141.3 13.6625L142.9 12.4625ZM137.545 7.81807C135.558 6.82437 133.491 6.3205 131.356 6.3205V8.3205C133.165 8.3205 134.926 8.74462 136.651 9.60693L137.545 7.81807ZM131.356 6.3205C129.221 6.3205 127.142 6.82421 125.129 7.81533L126.012 9.60967C127.769 8.74479 129.547 8.3205 131.356 8.3205V6.3205ZM125.123 7.81807C123.107 8.82616 121.313 10.3857 119.73 12.4551L121.319 13.6699C122.752 11.7953 124.322 10.4548 126.018 9.60693L125.123 7.81807ZM119.729 12.4568C118.155 14.5239 116.92 17.168 115.997 20.3532L117.918 20.9098C118.793 17.889 119.936 15.4871 121.32 13.6682L119.729 12.4568ZM115.995 20.3592C115.093 23.5467 114.652 27.341 114.652 31.724H116.652C116.652 27.465 117.082 23.8643 117.92 20.9038L115.995 20.3592ZM114.652 31.724C114.652 36.1357 115.093 39.958 115.995 43.1735L117.92 42.6335C117.082 39.643 116.652 36.0123 116.652 31.724H114.652ZM115.998 43.1842C116.921 46.3406 118.156 48.9806 119.724 51.0725L121.324 49.8725C119.935 48.0204 118.792 45.6144 117.917 42.6228L115.998 43.1842ZM119.73 51.0799C121.313 53.1493 123.107 54.7088 125.123 55.7169L126.018 53.9281C124.322 53.0802 122.752 51.7397 121.319 49.865L119.73 51.0799ZM125.129 55.7197C127.142 56.7108 129.221 57.2145 131.356 57.2145V55.2145C129.547 55.2145 127.769 54.7902 126.012 53.9253L125.129 55.7197ZM171.888 62H170.888V63H171.888V62ZM171.888 1.1V0.0999959H170.888V1.1H171.888ZM207.776 1.1H208.776V0.0999959H207.776V1.1ZM207.776 7.712V8.712H208.776V7.712H207.776ZM180.501 7.712V6.712H179.501V7.712H180.501ZM180.501 31.9415H179.501V32.9415H180.501V31.9415ZM203.73 31.9415H204.73V30.9415H203.73V31.9415ZM203.73 38.5535V39.5535H204.73V38.5535H203.73ZM180.501 38.5535V37.5535H179.501V38.5535H180.501ZM180.501 62V63H181.501V62H180.501ZM172.888 62V1.1H170.888V62H172.888ZM171.888 2.1H207.776V0.0999959H171.888V2.1ZM206.776 1.1V7.712H208.776V1.1H206.776ZM207.776 6.712H180.501V8.712H207.776V6.712ZM179.501 7.712V31.9415H181.501V7.712H179.501ZM180.501 32.9415H203.73V30.9415H180.501V32.9415ZM202.73 31.9415V38.5535H204.73V31.9415H202.73ZM203.73 37.5535H180.501V39.5535H203.73V37.5535ZM179.501 38.5535V62H181.501V38.5535H179.501ZM180.501 61H171.888V63H180.501V61ZM226.471 62H225.471V63H226.471V62ZM226.471 1.1V0.0999959H225.471V1.1H226.471ZM264.534 1.1H265.534V0.0999959H264.534V1.1ZM264.534 7.712V8.712H265.534V7.712H264.534ZM235.084 7.712V6.712H234.084V7.712H235.084ZM235.084 28.766H234.084V29.766H235.084V28.766ZM261.054 28.766H262.054V27.766H261.054V28.766ZM261.054 35.378V36.378H262.054V35.378H261.054ZM235.084 35.378V34.378H234.084V35.378H235.084ZM235.084 55.388H234.084V56.388H235.084V55.388ZM264.534 55.388H265.534V54.388H264.534V55.388ZM264.534 62V63H265.534V62H264.534ZM227.471 62V1.1H225.471V62H227.471ZM226.471 2.1H264.534V0.0999959H226.471V2.1ZM263.534 1.1V7.712H265.534V1.1H263.534ZM264.534 6.712H235.084V8.712H264.534V6.712ZM234.084 7.712V28.766H236.084V7.712H234.084ZM235.084 29.766H261.054V27.766H235.084V29.766ZM260.054 28.766V35.378H262.054V28.766H260.054ZM261.054 34.378H235.084V36.378H261.054V34.378ZM234.084 35.378V55.388H236.084V35.378H234.084ZM235.084 56.388H264.534V54.388H235.084V56.388ZM263.534 55.388V62H265.534V55.388H263.534ZM264.534 61H226.471V63H264.534V61ZM291.364 61.4345L291.68 60.4858L291.364 61.4345ZM283.534 57.041L282.868 57.7873L282.873 57.7917L283.534 57.041ZM278.879 50.168L278.481 49.2509L277.622 49.6241L277.938 50.5056L278.879 50.168ZM287.188 46.5575L288.124 46.2064L287.755 45.2209L286.789 45.6404L287.188 46.5575ZM290.32 51.5165L289.598 52.2091L289.606 52.2163L290.32 51.5165ZM295.322 54.866L295.708 53.9433L295.708 53.9433L295.322 54.866ZM308.416 54.866L308.817 55.7822L308.823 55.7792L308.416 54.866ZM312.766 51.3425L313.596 51.9009L313.596 51.9009L312.766 51.3425ZM312.983 41.642L312.148 42.1923L312.156 42.2033L312.163 42.2142L312.983 41.642ZM309.503 38.336L308.96 39.1757L308.972 39.1831L309.503 38.336ZM304.544 35.9L304.183 36.8326L304.192 36.836L304.201 36.8394L304.544 35.9ZM299.02 34.16L298.767 35.1277L298.781 35.131L299.02 34.16ZM291.668 31.637L291.26 32.5498L291.264 32.5518L291.668 31.637ZM285.883 28.07L285.224 28.8226L285.232 28.8288L285.239 28.8349L285.883 28.07ZM282.098 23.024L281.186 23.4327L281.191 23.4439L282.098 23.024ZM281.968 10.5395L281.061 10.1175L281.061 10.1175L281.968 10.5395ZM285.187 6.146L284.52 5.40112L284.512 5.40819L285.187 6.146ZM289.928 3.0575L290.346 3.96635L290.352 3.96331L289.928 3.0575ZM295.714 1.18699L295.52 0.205886L295.52 0.205886L295.714 1.18699ZM311.113 2.057L310.782 3.00075L310.791 3.00371L311.113 2.057ZM318.247 6.059L317.586 6.80952L317.592 6.81506L318.247 6.059ZM322.249 11.801L322.659 12.7132L323.487 12.3411L323.196 11.4809L322.249 11.801ZM314.114 15.455L313.172 15.7903L313.536 16.8112L314.524 16.3672L314.114 15.455ZM311.417 11.105L310.702 11.8034L310.71 11.8121L311.417 11.105ZM307.154 8.408L306.794 9.34092L306.804 9.34469L306.814 9.34826L307.154 8.408ZM297.193 8.0165L297.435 8.98664L297.442 8.9849L297.449 8.98306L297.193 8.0165ZM293.408 9.62599L293.942 10.4715L293.948 10.4679L293.408 9.62599ZM290.755 12.2795L289.906 11.7516L289.902 11.758L290.755 12.2795ZM295.844 24.59L295.392 25.4817L295.4 25.4858L295.408 25.4898L295.844 24.59ZM302.456 26.939L302.716 25.9732L302.704 25.9702L302.456 26.939ZM308.329 28.766L307.996 29.709L308.004 29.7119L308.013 29.7147L308.329 28.766ZM313.984 31.202L313.508 32.0816L313.514 32.0847L313.984 31.202ZM318.769 34.6385L318.077 35.3605L318.085 35.3678L318.093 35.375L318.769 34.6385ZM322.118 39.2495L321.21 39.6667L321.212 39.6724L322.118 39.2495ZM322.118 51.7775L321.198 51.3869L321.193 51.3989L322.118 51.7775ZM318.856 56.78L319.563 57.4871L319.57 57.4798L318.856 56.78ZM313.984 60.26L314.42 61.1601L314.431 61.1544L313.984 60.26ZM307.937 62.261L307.741 61.2804L307.734 61.2819L307.726 61.2836L307.937 62.261ZM301.325 61.957C297.824 61.957 294.612 61.463 291.68 60.4858L291.048 62.3832C294.206 63.436 297.635 63.957 301.325 63.957V61.957ZM291.68 60.4858C288.748 59.5085 286.259 58.1068 284.195 56.2903L282.873 57.7917C285.159 59.8032 287.89 61.3305 291.048 62.3832L291.68 60.4858ZM284.2 56.2947C282.176 54.4901 280.721 52.3389 279.821 49.8304L277.938 50.5056C278.952 53.3331 280.6 55.7639 282.868 57.7873L284.2 56.2947ZM279.278 51.0851L287.586 47.4746L286.789 45.6404L278.481 49.2509L279.278 51.0851ZM286.252 46.9086C286.996 48.8937 288.114 50.6624 289.599 52.209L291.041 50.824C289.742 49.4706 288.772 47.9333 288.124 46.2064L286.252 46.9086ZM289.606 52.2163C291.097 53.7383 292.878 54.9282 294.937 55.7887L295.708 53.9433C293.881 53.1798 292.327 52.1367 291.034 50.8167L289.606 52.2163ZM294.937 55.7887C297.018 56.6585 299.327 57.084 301.847 57.084V55.084C299.554 55.084 297.513 54.6975 295.708 53.9433L294.937 55.7887ZM301.847 57.084C304.476 57.084 306.807 56.6613 308.817 55.7822L308.015 53.9498C306.312 54.6947 304.265 55.084 301.847 55.084V57.084ZM308.823 55.7792C310.856 54.8725 312.462 53.5847 313.596 51.9009L311.936 50.7841C311.04 52.1163 309.746 53.1775 308.008 53.9528L308.823 55.7792ZM313.596 51.9009C314.739 50.202 315.288 48.1874 315.288 45.905H313.288C313.288 47.8566 312.823 49.467 311.936 50.7841L313.596 51.9009ZM315.288 45.905C315.288 44.116 314.797 42.4932 313.804 41.0698L312.163 42.2142C312.91 43.2848 313.288 44.504 313.288 45.905H315.288ZM313.818 41.0917C312.888 39.6803 311.618 38.4822 310.035 37.4889L308.972 39.1831C310.347 40.0458 311.397 41.0517 312.148 42.1923L313.818 41.0917ZM310.047 37.4964C308.499 36.4948 306.777 35.6507 304.887 34.9606L304.201 36.8394C305.965 37.4833 307.55 38.2632 308.96 39.1756L310.047 37.4964ZM304.905 34.9674C303.067 34.2559 301.185 33.6631 299.259 33.189L298.781 35.131C300.625 35.5849 302.425 36.1521 304.183 36.8326L304.905 34.9674ZM299.272 33.1924C296.65 32.5082 294.251 31.684 292.072 30.7222L291.264 32.5518C293.552 33.562 296.054 34.4198 298.768 35.1276L299.272 33.1924ZM292.077 30.7242C289.948 29.7719 288.101 28.6305 286.527 27.3051L285.239 28.8349C286.971 30.2935 288.981 31.5301 291.26 32.5498L292.077 30.7242ZM286.541 27.3174C285.022 25.9879 283.846 24.4189 283.006 22.6041L281.191 23.4439C282.149 25.5151 283.496 27.3101 285.224 28.8226L286.541 27.3174ZM283.011 22.6153C282.21 20.8265 281.793 18.6947 281.793 16.1945H279.793C279.793 18.9143 280.247 21.3355 281.186 23.4327L283.011 22.6153ZM281.793 16.1945C281.793 14.2339 282.16 12.4957 282.875 10.9615L281.061 10.1175C280.21 11.9473 279.793 13.9791 279.793 16.1945H281.793ZM282.875 10.9615C283.602 9.39849 284.597 8.04144 285.862 6.8838L284.512 5.40819C283.051 6.74455 281.9 8.31651 281.061 10.1175L282.875 10.9615ZM285.854 6.89083C287.168 5.71346 288.664 4.73826 290.346 3.96633L289.511 2.14867C287.655 3.00074 285.989 4.08453 284.52 5.40116L285.854 6.89083ZM290.352 3.96331C292.073 3.15855 293.923 2.55932 295.907 2.1681L295.52 0.205886C293.386 0.626671 291.38 1.27445 289.505 2.15169L290.352 3.96331ZM295.907 2.1681C297.903 1.77461 299.912 1.578 301.934 1.578V-0.422003C299.781 -0.422003 297.643 -0.212612 295.52 0.205886L295.907 2.1681ZM301.934 1.578C305.14 1.578 308.086 2.0558 310.782 3.00071L311.444 1.11329C308.513 0.086194 305.341 -0.422003 301.934 -0.422003V1.578ZM310.791 3.00371C313.497 3.92449 315.755 5.19749 317.586 6.80949L318.908 5.30851C316.852 3.49851 314.354 2.10351 311.435 1.11029L310.791 3.00371ZM317.592 6.81506C319.419 8.39642 320.641 10.1656 321.302 12.1211L323.196 11.4809C322.407 9.14435 320.961 7.08557 318.901 5.30294L317.592 6.81506ZM321.839 10.8888L313.705 14.5428L314.524 16.3672L322.659 12.7132L321.839 10.8888ZM315.057 15.1197C314.402 13.2802 313.427 11.7001 312.125 10.3979L310.71 11.8121C311.786 12.8879 312.609 14.2078 313.172 15.7903L315.057 15.1197ZM312.133 10.4067C310.86 9.10161 309.308 8.12403 307.495 7.46773L306.814 9.34826C308.365 9.90996 309.655 10.7304 310.702 11.8033L312.133 10.4067ZM307.514 7.47507C305.731 6.78677 303.765 6.451 301.63 6.451V8.451C303.555 8.451 305.272 8.75322 306.794 9.34092L307.514 7.47507ZM301.63 6.451C300.01 6.451 298.445 6.64975 296.936 7.04994L297.449 8.98306C298.783 8.62925 300.176 8.451 301.63 8.451V6.451ZM296.95 7.04635C295.46 7.41889 294.097 7.99664 292.869 8.78412L293.948 10.4679C294.982 9.80535 296.142 9.3101 297.435 8.98664L296.95 7.04635ZM292.874 8.78051C291.649 9.55455 290.655 10.5461 289.906 11.7516L291.604 12.8074C292.189 11.8669 292.964 11.0894 293.942 10.4715L292.874 8.78051ZM289.902 11.758C289.153 12.983 288.798 14.4022 288.798 15.977H290.798C290.798 14.7098 291.081 13.664 291.608 12.8009L289.902 11.758ZM288.798 15.977C288.798 18.1668 289.389 20.0862 290.615 21.677L292.199 20.456C291.28 19.2628 290.798 17.7892 290.798 15.977H288.798ZM290.615 21.677C291.796 23.2083 293.401 24.4708 295.392 25.4817L296.297 23.6983C294.518 22.7952 293.165 21.7087 292.199 20.456L290.615 21.677ZM295.408 25.4898C297.394 26.4524 299.663 27.2565 302.209 27.9078L302.704 25.9702C300.262 25.3455 298.123 24.5836 296.281 23.6902L295.408 25.4898ZM302.197 27.9048C304.114 28.4199 306.047 29.0212 307.996 29.709L308.662 27.823C306.667 27.1188 304.685 26.5021 302.716 25.9732L302.197 27.9048ZM308.013 29.7147C309.961 30.3642 311.793 31.1535 313.508 32.0815L314.46 30.3225C312.637 29.3365 310.699 28.5018 308.645 27.8173L308.013 29.7147ZM313.514 32.0847C315.236 33.001 316.755 34.0935 318.077 35.3605L319.461 33.9165C317.999 32.5155 316.328 31.317 314.454 30.3193L313.514 32.0847ZM318.093 35.375C319.415 36.5893 320.453 38.0174 321.21 39.6667L323.027 38.8323C322.16 36.9436 320.965 35.2977 319.445 33.902L318.093 35.375ZM321.212 39.6724C321.952 41.2584 322.336 43.1108 322.336 45.2525H324.336C324.336 42.8702 323.908 40.7206 323.025 38.8266L321.212 39.6724ZM322.336 45.2525C322.336 47.577 321.949 49.6158 321.198 51.3869L323.039 52.168C323.912 50.1112 324.336 47.8 324.336 45.2525H322.336ZM321.193 51.3989C320.457 53.198 319.439 54.7553 318.142 56.0802L319.57 57.4798C321.056 55.9627 322.214 54.185 323.044 52.1561L321.193 51.3989ZM318.149 56.0729C316.837 57.3849 315.302 58.483 313.537 59.3656L314.431 61.1544C316.378 60.181 318.091 58.9591 319.563 57.4871L318.149 56.0729ZM313.548 59.36C311.774 60.2194 309.84 60.8608 307.741 61.2804L308.134 63.2416C310.385 62.7912 312.482 62.0986 314.42 61.16L313.548 59.36ZM307.726 61.2836C305.652 61.7321 303.519 61.957 301.325 61.957V63.957C303.656 63.957 305.931 63.7179 308.149 63.2384L307.726 61.2836ZM340.857 62H339.857V63H340.857V62ZM340.857 55.388V54.388H339.857V55.388H340.857ZM353.429 55.388V56.388H354.429V55.388H353.429ZM353.429 7.712H354.429V6.712H353.429V7.712ZM340.857 7.712H339.857V8.712H340.857V7.712ZM340.857 1.1V0.0999959H339.857V1.1H340.857ZM374.7 1.1H375.7V0.0999959H374.7V1.1ZM374.7 7.712V8.712H375.7V7.712H374.7ZM362.042 7.712V6.712H361.042V7.712H362.042ZM362.042 55.388H361.042V56.388H362.042V55.388ZM374.7 55.388H375.7V54.388H374.7V55.388ZM374.7 62V63H375.7V62H374.7ZM341.857 62V55.388H339.857V62H341.857ZM340.857 56.388H353.429V54.388H340.857V56.388ZM354.429 55.388V7.712H352.429V55.388H354.429ZM353.429 6.712H340.857V8.712H353.429V6.712ZM341.857 7.712V1.1H339.857V7.712H341.857ZM340.857 2.1H374.7V0.0999959H340.857V2.1ZM373.7 1.1V7.712H375.7V1.1H373.7ZM374.7 6.712H362.042V8.712H374.7V6.712ZM361.042 7.712V55.388H363.042V7.712H361.042ZM362.042 56.388H374.7V54.388H362.042V56.388ZM373.7 55.388V62H375.7V55.388H373.7ZM374.7 61H340.857V63H374.7V61ZM406.924 61.8695L406.622 62.8227L406.629 62.8249L406.636 62.827L406.924 61.8695ZM400.225 58.3895L399.62 59.1855L399.625 59.1895L400.225 58.3895ZM394.788 52.343L393.944 52.8792L393.944 52.8792L394.788 52.343ZM391.09 43.556L390.121 43.8024L390.124 43.8121L391.09 43.556ZM391.09 19.979L390.123 19.7249L390.122 19.7306L391.09 19.979ZM394.788 11.192L395.629 11.7328L395.632 11.7282L394.788 11.192ZM400.225 5.1455L399.625 4.34548L399.62 4.34955L400.225 5.1455ZM406.924 1.709L407.216 2.66556L407.223 2.66327L406.924 1.709ZM421.584 1.709L421.282 2.66229L421.292 2.66553L421.584 1.709ZM428.239 5.1455L427.634 5.94146L427.639 5.9455L428.239 5.1455ZM433.677 11.192L432.828 11.7211L432.836 11.7328L433.677 11.192ZM437.374 19.979L436.407 20.2331L436.408 20.2351L437.374 19.979ZM437.374 43.556L438.341 43.8121L438.342 43.8101L437.374 43.556ZM433.677 52.343L432.833 51.8067L432.828 51.8139L433.677 52.343ZM428.239 58.3895L427.639 57.5895L427.634 57.5936L428.239 58.3895ZM421.584 61.8695L421.876 62.8261L421.886 62.8227L421.584 61.8695ZM425.02 50.4725L424.226 49.865L424.22 49.8725L425.02 50.4725ZM428.587 42.9035L427.627 42.6252L427.625 42.6312L428.587 42.9035ZM428.587 20.6315L427.624 20.9015L427.628 20.9122L428.587 20.6315ZM425.02 13.0625L424.22 13.6625L424.225 13.6691L424.23 13.6756L425.02 13.0625ZM420.018 8.7125L419.571 9.60693L419.571 9.60693L420.018 8.7125ZM408.49 8.7125L408.049 7.81531L408.043 7.81807L408.49 8.7125ZM403.444 13.0625L402.65 12.455L402.649 12.4568L403.444 13.0625ZM399.877 20.6315L398.917 20.3532L398.915 20.3592L399.877 20.6315ZM399.877 42.9035L398.914 43.1735L398.918 43.1842L399.877 42.9035ZM403.444 50.4725L402.644 51.0725L402.65 51.0799L403.444 50.4725ZM408.49 54.8225L408.043 55.7169L408.049 55.7197L408.49 54.8225ZM414.276 61.957C411.88 61.957 409.527 61.609 407.213 60.912L406.636 62.827C409.136 63.58 411.683 63.957 414.276 63.957V61.957ZM407.227 60.9163C404.961 60.1978 402.828 59.0912 400.825 57.5895L399.625 59.1895C401.799 60.8198 404.132 62.0332 406.622 62.8227L407.227 60.9163ZM400.831 57.5936C398.877 56.1079 397.143 54.1845 395.632 51.8068L393.944 52.8792C395.565 55.4315 397.455 57.5391 399.62 59.1854L400.831 57.5936ZM395.632 51.8068C394.131 49.4437 392.935 46.6131 392.057 43.2999L390.124 43.8121C391.044 47.2849 392.313 50.3123 393.944 52.8792L395.632 51.8068ZM392.06 43.3096C391.215 39.9861 390.785 36.1277 390.785 31.724H388.785C388.785 36.2523 389.226 40.2819 390.121 43.8024L392.06 43.3096ZM390.785 31.724C390.785 27.3497 391.215 23.521 392.059 20.2274L390.122 19.7306C389.226 23.223 388.785 27.2243 388.785 31.724H390.785ZM392.058 20.2331C392.936 16.891 394.131 14.0633 395.629 11.7328L393.947 10.6512C392.313 13.1927 391.043 16.223 390.123 19.7249L392.058 20.2331ZM395.632 11.7282C397.143 9.35048 398.877 7.42707 400.831 5.94144L399.62 4.34955C397.455 5.99592 395.565 8.10351 393.944 10.6558L395.632 11.7282ZM400.825 5.9455C402.825 4.44568 404.955 3.35499 407.216 2.66553L406.633 0.752466C404.138 1.513 401.802 2.71332 399.625 4.3455L400.825 5.9455ZM407.223 2.66327C409.535 1.93923 411.884 1.578 414.276 1.578V-0.422003C411.679 -0.422003 409.128 -0.029235 406.625 0.754723L407.223 2.66327ZM414.276 1.578C416.667 1.578 419.001 1.93921 421.282 2.66223L421.886 0.755768C419.41 -0.0292195 416.872 -0.422003 414.276 -0.422003V1.578ZM421.292 2.66553C423.552 3.35461 425.665 4.44418 427.634 5.94144L428.845 4.34955C426.695 2.71482 424.371 1.51339 421.876 0.752466L421.292 2.66553ZM427.639 5.9455C429.618 7.42942 431.349 9.34917 432.828 11.7211L434.525 10.6629C432.93 8.10483 431.037 5.99358 428.839 4.3455L427.639 5.9455ZM432.836 11.7328C434.334 14.0633 435.529 16.891 436.407 20.2331L438.342 19.7249C437.422 16.223 436.152 13.1927 434.518 10.6512L432.836 11.7328ZM436.408 20.2351C437.28 23.526 437.723 27.3518 437.723 31.724H439.723C439.723 27.2222 439.267 23.218 438.341 19.7229L436.408 20.2351ZM437.723 31.724C437.723 36.1255 437.28 39.9812 436.407 43.3019L438.342 43.8101C439.267 40.2868 439.723 36.2545 439.723 31.724H437.723ZM436.408 43.2999C435.53 46.6131 434.334 49.4437 432.833 51.8068L434.521 52.8792C436.152 50.3123 437.421 47.2849 438.341 43.8121L436.408 43.2999ZM432.828 51.8139C431.349 54.1858 429.618 56.1056 427.639 57.5895L428.839 59.1895C431.037 57.5414 432.93 55.4302 434.525 52.8721L432.828 51.8139ZM427.634 57.5936C425.663 59.0927 423.546 60.1982 421.282 60.9163L421.886 62.8227C424.377 62.0328 426.698 60.8183 428.845 59.1854L427.634 57.5936ZM421.292 60.913C419.009 61.6091 416.671 61.957 414.276 61.957V63.957C416.868 63.957 419.403 63.5799 421.876 62.826L421.292 60.913ZM414.276 57.2145C416.411 57.2145 418.478 56.7106 420.465 55.7169L419.571 53.9281C417.846 54.7904 416.085 55.2145 414.276 55.2145V57.2145ZM420.465 55.7169C422.484 54.7076 424.266 53.1455 425.82 51.0725L424.22 49.8725C422.817 51.7435 421.264 53.0814 419.571 53.9281L420.465 55.7169ZM425.815 51.0799C427.418 48.9836 428.655 46.3379 429.55 43.1758L427.625 42.6312C426.78 45.6171 425.639 48.0174 424.226 49.865L425.815 51.0799ZM429.548 43.1818C430.48 39.9632 430.936 36.1379 430.936 31.724H428.936C428.936 36.0101 428.492 39.6378 427.627 42.6252L429.548 43.1818ZM430.936 31.724C430.936 27.3388 430.48 23.5415 429.547 20.3508L427.628 20.9122C428.492 23.8695 428.936 27.4672 428.936 31.724H430.936ZM429.55 20.3615C428.656 17.1707 427.418 14.5208 425.81 12.4494L424.23 13.6756C425.639 15.4902 426.779 17.8863 427.625 20.9015L429.55 20.3615ZM425.82 12.4625C424.266 10.3895 422.484 8.82738 420.465 7.81807L419.571 9.60693C421.264 10.4536 422.817 11.7915 424.22 13.6625L425.82 12.4625ZM420.465 7.81807C418.478 6.82437 416.411 6.3205 414.276 6.3205V8.3205C416.085 8.3205 417.846 8.74462 419.571 9.60693L420.465 7.81807ZM414.276 6.3205C412.141 6.3205 410.062 6.82421 408.049 7.81533L408.932 9.60967C410.689 8.74479 412.467 8.3205 414.276 8.3205V6.3205ZM408.043 7.81807C406.027 8.82616 404.232 10.3857 402.65 12.4551L404.239 13.6699C405.672 11.7953 407.242 10.4548 408.938 9.60693L408.043 7.81807ZM402.649 12.4568C401.075 14.5239 399.84 17.168 398.917 20.3532L400.838 20.9098C401.713 17.889 402.856 15.4871 404.24 13.6682L402.649 12.4568ZM398.915 20.3592C398.013 23.5467 397.572 27.341 397.572 31.724H399.572C399.572 27.465 400.002 23.8643 400.84 20.9038L398.915 20.3592ZM397.572 31.724C397.572 36.1357 398.013 39.958 398.915 43.1735L400.84 42.6335C400.002 39.643 399.572 36.0123 399.572 31.724H397.572ZM398.918 43.1842C399.841 46.3406 401.075 48.9806 402.644 51.0725L404.244 49.8725C402.855 48.0204 401.712 45.6144 400.837 42.6228L398.918 43.1842ZM402.65 51.0799C404.232 53.1493 406.027 54.7088 408.043 55.7169L408.938 53.9281C407.242 53.0802 405.672 51.7397 404.239 49.865L402.65 51.0799ZM408.049 55.7197C410.062 56.7108 412.141 57.2145 414.276 57.2145V55.2145C412.467 55.2145 410.689 54.7902 408.932 53.9253L408.049 55.7197ZM449.414 62H448.414V63H449.414V62ZM449.414 1.1V0.0999959H448.414V1.1H449.414ZM462.116 1.1L463.036 0.706348L462.776 0.0999959H462.116V1.1ZM484.954 54.431V55.431H486.47L485.873 54.0374L484.954 54.431ZM483.518 54.431H482.518V55.431H483.518V54.431ZM483.518 1.1V0.0999959H482.518V1.1H483.518ZM492.131 1.1H493.131V0.0999959H492.131V1.1ZM492.131 62V63H493.131V62H492.131ZM480.995 62L480.08 62.4023L480.343 63H480.995V62ZM457.636 8.843V7.843H456.104L456.72 9.24531L457.636 8.843ZM458.027 8.843H459.027V7.843H458.027V8.843ZM458.027 62V63H459.027V62H458.027ZM450.414 62V1.1H448.414V62H450.414ZM449.414 2.1H462.116V0.0999959H449.414V2.1ZM461.197 1.49364L484.035 54.8246L485.873 54.0374L463.036 0.706348L461.197 1.49364ZM484.954 53.431H483.518V55.431H484.954V53.431ZM484.518 54.431V1.1H482.518V54.431H484.518ZM483.518 2.1H492.131V0.0999959H483.518V2.1ZM491.131 1.1V62H493.131V1.1H491.131ZM492.131 61H480.995V63H492.131V61ZM481.911 61.5977L458.551 8.44069L456.72 9.24531L480.08 62.4023L481.911 61.5977ZM457.636 9.843H458.027V7.843H457.636V9.843ZM457.027 8.843V62H459.027V8.843H457.027ZM458.027 61H449.414V63H458.027V61ZM550.803 62V63H552.1L551.771 61.7458L550.803 62ZM541.886 62L540.917 62.2464L541.108 63H541.886V62ZM537.971 46.601L538.94 46.3546L538.748 45.601H537.971V46.601ZM517.265 46.601V45.601H516.487L516.296 46.3546L517.265 46.601ZM513.35 62V63H514.127L514.319 62.2464L513.35 62ZM504.432 62L503.465 61.7458L503.136 63H504.432V62ZM520.44 1.1V0.0999959H519.669L519.473 0.845775L520.44 1.1ZM534.795 1.1L535.763 0.845775L535.566 0.0999959H534.795V1.1ZM527.052 7.712V6.712H526.279L526.085 7.46027L527.052 7.712ZM518.657 39.989L517.689 39.7373L517.363 40.989H518.657V39.989ZM536.579 39.989V40.989H537.872L537.547 39.7373L536.579 39.989ZM528.183 7.712L529.151 7.46027L528.957 6.712H528.183V7.712ZM550.803 61H541.886V63H550.803V61ZM542.855 61.7536L538.94 46.3546L537.002 46.8474L540.917 62.2464L542.855 61.7536ZM537.971 45.601H517.265V47.601H537.971V45.601ZM516.296 46.3546L512.381 61.7536L514.319 62.2464L518.234 46.8474L516.296 46.3546ZM513.35 61H504.432V63H513.35V61ZM505.4 62.2542L521.408 1.35422L519.473 0.845775L503.465 61.7458L505.4 62.2542ZM520.44 2.1H534.795V0.0999959H520.44V2.1ZM533.828 1.35422L549.836 62.2542L551.771 61.7458L535.763 0.845775L533.828 1.35422ZM526.085 7.46027L517.689 39.7373L519.625 40.2407L528.02 7.96373L526.085 7.46027ZM518.657 40.989H536.579V38.989H518.657V40.989ZM537.547 39.7373L529.151 7.46027L527.216 7.96373L535.611 40.2407L537.547 39.7373ZM528.183 6.712H527.052V8.712H528.183V6.712ZM562.452 62H561.452V63H562.452V62ZM562.452 1.1V0.0999959H561.452V1.1H562.452ZM571.108 1.1H572.108V0.0999959H571.108V1.1ZM571.108 55.388H570.108V56.388H571.108V55.388ZM594.685 55.388H595.685V54.388H594.685V55.388ZM594.685 62V63H595.685V62H594.685ZM563.452 62V1.1H561.452V62H563.452ZM562.452 2.1H571.108V0.0999959H562.452V2.1ZM570.108 1.1V55.388H572.108V1.1H570.108ZM571.108 56.388H594.685V54.388H571.108V56.388ZM593.685 55.388V62H595.685V55.388H593.685ZM594.685 61H562.452V63H594.685V61ZM661.284 61.4345L661.6 60.4858L661.284 61.4345ZM653.454 57.041L652.788 57.7873L652.793 57.7917L653.454 57.041ZM648.799 50.168L648.401 49.2509L647.542 49.6241L647.858 50.5056L648.799 50.168ZM657.108 46.5575L658.044 46.2064L657.675 45.2209L656.709 45.6404L657.108 46.5575ZM660.24 51.5165L659.518 52.2091L659.525 52.2163L660.24 51.5165ZM665.242 54.866L665.628 53.9433L665.628 53.9433L665.242 54.866ZM678.336 54.866L678.737 55.7822L678.743 55.7792L678.336 54.866ZM682.686 51.3425L683.515 51.9009L683.515 51.9009L682.686 51.3425ZM682.903 41.642L682.068 42.1923L682.076 42.2033L682.083 42.2142L682.903 41.642ZM679.423 38.336L678.88 39.1757L678.892 39.1831L679.423 38.336ZM674.464 35.9L674.103 36.8326L674.112 36.836L674.121 36.8394L674.464 35.9ZM668.94 34.16L668.687 35.1277L668.701 35.131L668.94 34.16ZM661.588 31.637L661.18 32.5498L661.184 32.5518L661.588 31.637ZM655.803 28.07L655.144 28.8226L655.151 28.8288L655.159 28.8349L655.803 28.07ZM652.018 23.024L651.106 23.4327L651.111 23.4439L652.018 23.024ZM651.888 10.5395L650.981 10.1175L650.981 10.1175L651.888 10.5395ZM655.107 6.146L654.44 5.40112L654.432 5.40819L655.107 6.146ZM659.848 3.0575L660.266 3.96635L660.272 3.96331L659.848 3.0575ZM665.634 1.18699L665.44 0.205886L665.44 0.205886L665.634 1.18699ZM681.033 2.057L680.702 3.00075L680.711 3.00371L681.033 2.057ZM688.167 6.059L687.506 6.80952L687.512 6.81506L688.167 6.059ZM692.169 11.801L692.579 12.7132L693.407 12.3411L693.116 11.4809L692.169 11.801ZM684.034 15.455L683.092 15.7903L683.456 16.8112L684.444 16.3672L684.034 15.455ZM681.337 11.105L680.622 11.8034L680.63 11.8121L681.337 11.105ZM677.074 8.408L676.714 9.34092L676.724 9.34469L676.734 9.34826L677.074 8.408ZM667.113 8.0165L667.355 8.98664L667.362 8.9849L667.369 8.98306L667.113 8.0165ZM663.328 9.62599L663.862 10.4715L663.868 10.4679L663.328 9.62599ZM660.675 12.2795L659.826 11.7516L659.822 11.758L660.675 12.2795ZM665.764 24.59L665.312 25.4817L665.32 25.4858L665.328 25.4898L665.764 24.59ZM672.376 26.939L672.636 25.9732L672.624 25.9702L672.376 26.939ZM678.249 28.766L677.916 29.709L677.924 29.7119L677.933 29.7147L678.249 28.766ZM683.904 31.202L683.428 32.0816L683.434 32.0847L683.904 31.202ZM688.689 34.6385L687.997 35.3605L688.005 35.3678L688.012 35.375L688.689 34.6385ZM692.038 39.2495L691.129 39.6667L691.132 39.6724L692.038 39.2495ZM692.038 51.7775L691.118 51.3869L691.113 51.3989L692.038 51.7775ZM688.776 56.78L689.483 57.4871L689.49 57.4798L688.776 56.78ZM683.904 60.26L684.34 61.1601L684.351 61.1544L683.904 60.26ZM677.857 62.261L677.661 61.2804L677.654 61.2819L677.646 61.2836L677.857 62.261ZM671.245 61.957C667.744 61.957 664.532 61.463 661.6 60.4858L660.968 62.3832C664.126 63.436 667.555 63.957 671.245 63.957V61.957ZM661.6 60.4858C658.668 59.5085 656.179 58.1068 654.114 56.2903L652.793 57.7917C655.079 59.8032 657.809 61.3305 660.968 62.3832L661.6 60.4858ZM654.119 56.2947C652.096 54.4901 650.64 52.3389 649.741 49.8304L647.858 50.5056C648.872 53.3331 650.52 55.7639 652.788 57.7873L654.119 56.2947ZM649.198 51.0851L657.506 47.4746L656.709 45.6404L648.401 49.2509L649.198 51.0851ZM656.172 46.9086C656.916 48.8937 658.034 50.6624 659.518 52.209L660.961 50.824C659.662 49.4706 658.692 47.9333 658.044 46.2064L656.172 46.9086ZM659.525 52.2163C661.016 53.7383 662.798 54.9282 664.857 55.7887L665.628 53.9433C663.801 53.1798 662.247 52.1367 660.954 50.8167L659.525 52.2163ZM664.857 55.7887C666.938 56.6585 669.247 57.084 671.767 57.084V55.084C669.474 55.084 667.433 54.6975 665.628 53.9433L664.857 55.7887ZM671.767 57.084C674.395 57.084 676.727 56.6613 678.737 55.7822L677.935 53.9498C676.232 54.6947 674.185 55.084 671.767 55.084V57.084ZM678.743 55.7792C680.776 54.8725 682.382 53.5847 683.515 51.9009L681.856 50.7841C680.96 52.1163 679.666 53.1775 677.928 53.9528L678.743 55.7792ZM683.515 51.9009C684.659 50.202 685.208 48.1874 685.208 45.905H683.208C683.208 47.8566 682.743 49.467 681.856 50.7841L683.515 51.9009ZM685.208 45.905C685.208 44.116 684.717 42.4932 683.723 41.0698L682.083 42.2142C682.83 43.2848 683.208 44.504 683.208 45.905H685.208ZM683.738 41.0917C682.808 39.6803 681.538 38.4822 679.955 37.4889L678.892 39.1831C680.267 40.0458 681.317 41.0517 682.068 42.1923L683.738 41.0917ZM679.967 37.4964C678.419 36.4948 676.697 35.6507 674.807 34.9606L674.121 36.8394C675.885 37.4833 677.47 38.2632 678.88 39.1756L679.967 37.4964ZM674.825 34.9674C672.987 34.2559 671.105 33.6631 669.179 33.189L668.701 35.131C670.545 35.5849 672.345 36.1521 674.103 36.8326L674.825 34.9674ZM669.192 33.1924C666.57 32.5082 664.17 31.684 661.992 30.7222L661.184 32.5518C663.472 33.562 665.974 34.4198 668.687 35.1276L669.192 33.1924ZM661.997 30.7242C659.868 29.7719 658.021 28.6305 656.447 27.3051L655.159 28.8349C656.891 30.2935 658.901 31.5301 661.18 32.5498L661.997 30.7242ZM656.461 27.3174C654.942 25.9879 653.766 24.4189 652.926 22.6041L651.111 23.4439C652.069 25.5151 653.416 27.3101 655.144 28.8226L656.461 27.3174ZM652.931 22.6153C652.13 20.8265 651.713 18.6947 651.713 16.1945H649.713C649.713 18.9143 650.167 21.3355 651.106 23.4327L652.931 22.6153ZM651.713 16.1945C651.713 14.2339 652.08 12.4957 652.794 10.9615L650.981 10.1175C650.129 11.9473 649.713 13.9791 649.713 16.1945H651.713ZM652.794 10.9615C653.522 9.39849 654.517 8.04144 655.782 6.8838L654.432 5.40819C652.971 6.74455 651.82 8.31651 650.981 10.1175L652.794 10.9615ZM655.774 6.89083C657.088 5.71346 658.584 4.73826 660.266 3.96633L659.431 2.14867C657.575 3.00074 655.909 4.08453 654.44 5.40116L655.774 6.89083ZM660.272 3.96331C661.993 3.15855 663.843 2.55932 665.827 2.1681L665.44 0.205886C663.306 0.626671 661.3 1.27445 659.425 2.15169L660.272 3.96331ZM665.827 2.1681C667.823 1.77461 669.832 1.578 671.854 1.578V-0.422003C669.701 -0.422003 667.563 -0.212612 665.44 0.205886L665.827 2.1681ZM671.854 1.578C675.06 1.578 678.006 2.0558 680.702 3.00071L681.364 1.11329C678.433 0.086194 675.261 -0.422003 671.854 -0.422003V1.578ZM680.711 3.00371C683.417 3.92449 685.675 5.19749 687.506 6.80949L688.828 5.30851C686.772 3.49851 684.274 2.10351 681.355 1.11029L680.711 3.00371ZM687.512 6.81506C689.339 8.39642 690.561 10.1656 691.221 12.1211L693.116 11.4809C692.327 9.14435 690.881 7.08557 688.821 5.30294L687.512 6.81506ZM691.759 10.8888L683.625 14.5428L684.444 16.3672L692.579 12.7132L691.759 10.8888ZM684.976 15.1197C684.322 13.2802 683.347 11.7001 682.044 10.3979L680.63 11.8121C681.706 12.8879 682.529 14.2078 683.092 15.7903L684.976 15.1197ZM682.053 10.4067C680.78 9.10161 679.227 8.12403 677.415 7.46773L676.734 9.34826C678.285 9.90996 679.575 10.7304 680.622 11.8033L682.053 10.4067ZM677.434 7.47507C675.651 6.78677 673.685 6.451 671.55 6.451V8.451C673.474 8.451 675.192 8.75322 676.714 9.34092L677.434 7.47507ZM671.55 6.451C669.93 6.451 668.365 6.64975 666.856 7.04994L667.369 8.98306C668.703 8.62925 670.095 8.451 671.55 8.451V6.451ZM666.87 7.04635C665.38 7.41889 664.017 7.99664 662.789 8.78412L663.868 10.4679C664.902 9.80535 666.062 9.3101 667.355 8.98664L666.87 7.04635ZM662.794 8.78051C661.569 9.55455 660.575 10.5461 659.826 11.7516L661.524 12.8074C662.109 11.8669 662.884 11.0894 663.862 10.4715L662.794 8.78051ZM659.822 11.758C659.073 12.983 658.718 14.4022 658.718 15.977H660.718C660.718 14.7098 661.001 13.664 661.528 12.8009L659.822 11.758ZM658.718 15.977C658.718 18.1668 659.309 20.0862 660.535 21.677L662.119 20.456C661.2 19.2628 660.718 17.7892 660.718 15.977H658.718ZM660.535 21.677C661.716 23.2083 663.321 24.4708 665.312 25.4817L666.217 23.6983C664.438 22.7952 663.085 21.7087 662.119 20.456L660.535 21.677ZM665.328 25.4898C667.313 26.4524 669.583 27.2565 672.129 27.9078L672.624 25.9702C670.182 25.3455 668.043 24.5836 666.201 23.6902L665.328 25.4898ZM672.117 27.9048C674.034 28.4199 675.967 29.0212 677.916 29.709L678.582 27.823C676.586 27.1188 674.604 26.5021 672.636 25.9732L672.117 27.9048ZM677.933 29.7147C679.881 30.3642 681.713 31.1535 683.428 32.0815L684.38 30.3225C682.557 29.3365 680.619 28.5018 678.565 27.8173L677.933 29.7147ZM683.434 32.0847C685.156 33.001 686.675 34.0935 687.997 35.3605L689.381 33.9165C687.919 32.5155 686.248 31.317 684.374 30.3193L683.434 32.0847ZM688.012 35.375C689.335 36.5893 690.372 38.0174 691.13 39.6667L692.947 38.8323C692.08 36.9436 690.885 35.2977 689.365 33.902L688.012 35.375ZM691.132 39.6724C691.872 41.2584 692.256 43.1108 692.256 45.2525H694.256C694.256 42.8702 693.828 40.7206 692.945 38.8266L691.132 39.6724ZM692.256 45.2525C692.256 47.577 691.869 49.6158 691.118 51.3869L692.959 52.168C693.832 50.1112 694.256 47.8 694.256 45.2525H692.256ZM691.113 51.3989C690.377 53.198 689.359 54.7553 688.061 56.0802L689.49 57.4798C690.976 55.9627 692.134 54.185 692.964 52.1561L691.113 51.3989ZM688.069 56.0729C686.757 57.3849 685.222 58.483 683.457 59.3656L684.351 61.1544C686.298 60.181 688.011 58.9591 689.483 57.4871L688.069 56.0729ZM683.468 59.36C681.694 60.2194 679.759 60.8608 677.661 61.2804L678.053 63.2416C680.305 62.7912 682.402 62.0986 684.34 61.16L683.468 59.36ZM677.646 61.2836C675.572 61.7321 673.438 61.957 671.245 61.957V63.957C673.576 63.957 675.851 63.7179 678.069 63.2384L677.646 61.2836ZM707.993 62H706.993V63H707.993V62ZM707.993 1.1V0.0999959H706.993V1.1H707.993ZM716.606 1.1H717.606V0.0999959H716.606V1.1ZM716.606 27.461H715.606V28.461H716.606V27.461ZM720.608 27.461V28.461H721.145L721.442 28.0138L720.608 27.461ZM738.095 1.1V0.0999959H737.559L737.262 0.547201L738.095 1.1ZM747.448 1.1L748.277 1.65866L749.327 0.0999959H747.448V1.1ZM726.263 32.5505H725.263V35.8251L727.093 33.1092L726.263 32.5505ZM726.263 28.8965L727.093 28.3375L725.263 25.6241V28.8965H726.263ZM748.579 62V63H750.459L749.408 61.441L748.579 62ZM739.139 62L738.306 62.5529L738.603 63H739.139V62ZM720.608 34.073L721.442 33.5201L721.145 33.073H720.608V34.073ZM716.606 34.073V33.073H715.606V34.073H716.606ZM716.606 62V63H717.606V62H716.606ZM708.993 62V1.1H706.993V62H708.993ZM707.993 2.1H716.606V0.0999959H707.993V2.1ZM715.606 1.1V27.461H717.606V1.1H715.606ZM716.606 28.461H720.608V26.461H716.606V28.461ZM721.442 28.0138L738.929 1.65279L737.262 0.547201L719.775 26.9082L721.442 28.0138ZM738.095 2.1H747.448V0.0999959H738.095V2.1ZM746.618 0.541331L725.434 31.9918L727.093 33.1092L748.277 1.65866L746.618 0.541331ZM727.263 32.5505V28.8965H725.263V32.5505H727.263ZM725.434 29.4555L747.75 62.559L749.408 61.441L727.093 28.3375L725.434 29.4555ZM748.579 61H739.139V63H748.579V61ZM739.973 61.4471L721.442 33.5201L719.775 34.6259L738.306 62.5529L739.973 61.4471ZM720.608 33.073H716.606V35.073H720.608V33.073ZM715.606 34.073V62H717.606V34.073H715.606ZM716.606 61H707.993V63H716.606V61ZM767.361 62H766.361V63H767.361V62ZM767.361 55.388V54.388H766.361V55.388H767.361ZM779.933 55.388V56.388H780.933V55.388H779.933ZM779.933 7.712H780.933V6.712H779.933V7.712ZM767.361 7.712H766.361V8.712H767.361V7.712ZM767.361 1.1V0.0999959H766.361V1.1H767.361ZM801.204 1.1H802.204V0.0999959H801.204V1.1ZM801.204 7.712V8.712H802.204V7.712H801.204ZM788.546 7.712V6.712H787.546V7.712H788.546ZM788.546 55.388H787.546V56.388H788.546V55.388ZM801.204 55.388H802.204V54.388H801.204V55.388ZM801.204 62V63H802.204V62H801.204ZM768.361 62V55.388H766.361V62H768.361ZM767.361 56.388H779.933V54.388H767.361V56.388ZM780.933 55.388V7.712H778.933V55.388H780.933ZM779.933 6.712H767.361V8.712H779.933V6.712ZM768.361 7.712V1.1H766.361V7.712H768.361ZM767.361 2.1H801.204V0.0999959H767.361V2.1ZM800.204 1.1V7.712H802.204V1.1H800.204ZM801.204 6.712H788.546V8.712H801.204V6.712ZM787.546 7.712V55.388H789.546V7.712H787.546ZM788.546 56.388H801.204V54.388H788.546V56.388ZM800.204 55.388V62H802.204V55.388H800.204ZM801.204 61H767.361V63H801.204V61ZM819.204 62H818.204V63H819.204V62ZM819.204 1.1V0.0999959H818.204V1.1H819.204ZM827.86 1.1H828.86V0.0999959H827.86V1.1ZM827.86 55.388H826.86V56.388H827.86V55.388ZM851.437 55.388H852.437V54.388H851.437V55.388ZM851.437 62V63H852.437V62H851.437ZM820.204 62V1.1H818.204V62H820.204ZM819.204 2.1H827.86V0.0999959H819.204V2.1ZM826.86 1.1V55.388H828.86V1.1H826.86ZM827.86 56.388H851.437V54.388H827.86V56.388ZM850.437 55.388V62H852.437V55.388H850.437ZM851.437 61H819.204V63H851.437V61ZM862.704 62H861.704V63H862.704V62ZM862.704 1.1V0.0999959H861.704V1.1H862.704ZM871.36 1.1H872.36V0.0999959H871.36V1.1ZM871.36 55.388H870.36V56.388H871.36V55.388ZM894.937 55.388H895.937V54.388H894.937V55.388ZM894.937 62V63H895.937V62H894.937ZM863.704 62V1.1H861.704V62H863.704ZM862.704 2.1H871.36V0.0999959H862.704V2.1ZM870.36 1.1V55.388H872.36V1.1H870.36ZM871.36 56.388H894.937V54.388H871.36V56.388ZM893.937 55.388V62H895.937V55.388H893.937ZM894.937 61H862.704V63H894.937V61ZM918.036 61.4345L918.352 60.4858L918.036 61.4345ZM910.206 57.041L909.54 57.7873L909.545 57.7917L910.206 57.041ZM905.551 50.168L905.153 49.2509L904.294 49.6241L904.61 50.5056L905.551 50.168ZM913.86 46.5575L914.796 46.2064L914.427 45.2209L913.461 45.6404L913.86 46.5575ZM916.992 51.5165L916.27 52.2091L916.277 52.2163L916.992 51.5165ZM921.994 54.866L922.38 53.9433L922.38 53.9433L921.994 54.866ZM935.088 54.866L935.489 55.7822L935.495 55.7792L935.088 54.866ZM939.438 51.3425L940.267 51.9009L940.267 51.9009L939.438 51.3425ZM939.655 41.642L938.82 42.1923L938.828 42.2033L938.835 42.2142L939.655 41.642ZM936.175 38.336L935.632 39.1757L935.644 39.1831L936.175 38.336ZM931.216 35.9L930.855 36.8326L930.864 36.836L930.873 36.8394L931.216 35.9ZM925.692 34.16L925.439 35.1277L925.453 35.131L925.692 34.16ZM918.34 31.637L917.932 32.5498L917.936 32.5518L918.34 31.637ZM912.555 28.07L911.896 28.8226L911.903 28.8288L911.911 28.8349L912.555 28.07ZM908.77 23.024L907.858 23.4327L907.863 23.4439L908.77 23.024ZM908.64 10.5395L907.733 10.1175L907.733 10.1175L908.64 10.5395ZM911.859 6.146L911.192 5.40112L911.184 5.40819L911.859 6.146ZM916.6 3.0575L917.017 3.96635L917.024 3.96331L916.6 3.0575ZM922.386 1.18699L922.192 0.205886L922.192 0.205886L922.386 1.18699ZM937.785 2.057L937.454 3.00075L937.463 3.00371L937.785 2.057ZM944.919 6.059L944.258 6.80952L944.264 6.81506L944.919 6.059ZM948.921 11.801L949.331 12.7132L950.159 12.3411L949.868 11.4809L948.921 11.801ZM940.786 15.455L939.844 15.7903L940.208 16.8112L941.196 16.3672L940.786 15.455ZM938.089 11.105L937.373 11.8034L937.382 11.8121L938.089 11.105ZM933.826 8.408L933.466 9.34092L933.476 9.34469L933.486 9.34826L933.826 8.408ZM923.865 8.0165L924.107 8.98664L924.114 8.9849L924.121 8.98306L923.865 8.0165ZM920.08 9.62599L920.614 10.4715L920.62 10.4679L920.08 9.62599ZM917.427 12.2795L916.577 11.7516L916.574 11.758L917.427 12.2795ZM922.516 24.59L922.064 25.4817L922.072 25.4858L922.08 25.4898L922.516 24.59ZM929.128 26.939L929.388 25.9732L929.376 25.9702L929.128 26.939ZM935.001 28.766L934.668 29.709L934.676 29.7119L934.685 29.7147L935.001 28.766ZM940.656 31.202L940.18 32.0816L940.186 32.0847L940.656 31.202ZM945.441 34.6385L944.749 35.3605L944.757 35.3678L944.764 35.375L945.441 34.6385ZM948.79 39.2495L947.881 39.6667L947.884 39.6724L948.79 39.2495ZM948.79 51.7775L947.87 51.3869L947.865 51.3989L948.79 51.7775ZM945.528 56.78L946.235 57.4871L946.242 57.4798L945.528 56.78ZM940.656 60.26L941.092 61.1601L941.103 61.1544L940.656 60.26ZM934.609 62.261L934.413 61.2804L934.406 61.2819L934.398 61.2836L934.609 62.261ZM927.997 61.957C924.496 61.957 921.284 61.463 918.352 60.4858L917.72 62.3832C920.878 63.436 924.307 63.957 927.997 63.957V61.957ZM918.352 60.4858C915.42 59.5085 912.931 58.1068 910.866 56.2903L909.545 57.7917C911.831 59.8032 914.561 61.3305 917.72 62.3832L918.352 60.4858ZM910.871 56.2947C908.848 54.4901 907.392 52.3389 906.493 49.8304L904.61 50.5056C905.624 53.3331 907.272 55.7639 909.54 57.7873L910.871 56.2947ZM905.95 51.0851L914.258 47.4746L913.461 45.6404L905.153 49.2509L905.95 51.0851ZM912.923 46.9086C913.668 48.8937 914.786 50.6624 916.27 52.209L917.713 50.824C916.414 49.4706 915.444 47.9333 914.796 46.2064L912.923 46.9086ZM916.277 52.2163C917.768 53.7383 919.55 54.9282 921.609 55.7887L922.38 53.9433C920.553 53.1798 918.999 52.1367 917.706 50.8167L916.277 52.2163ZM921.609 55.7887C923.69 56.6585 925.999 57.084 928.519 57.084V55.084C926.226 55.084 924.185 54.6975 922.38 53.9433L921.609 55.7887ZM928.519 57.084C931.147 57.084 933.479 56.6613 935.489 55.7822L934.687 53.9498C932.984 54.6947 930.937 55.084 928.519 55.084V57.084ZM935.495 55.7792C937.528 54.8725 939.134 53.5847 940.267 51.9009L938.608 50.7841C937.712 52.1163 936.418 53.1775 934.68 53.9528L935.495 55.7792ZM940.267 51.9009C941.411 50.202 941.96 48.1874 941.96 45.905H939.96C939.96 47.8566 939.495 49.467 938.608 50.7841L940.267 51.9009ZM941.96 45.905C941.96 44.116 941.468 42.4932 940.475 41.0698L938.835 42.2142C939.582 43.2848 939.96 44.504 939.96 45.905H941.96ZM940.49 41.0917C939.56 39.6803 938.29 38.4822 936.707 37.4889L935.644 39.1831C937.019 40.0458 938.069 41.0517 938.82 42.1923L940.49 41.0917ZM936.719 37.4964C935.171 36.4948 933.449 35.6507 931.559 34.9606L930.873 36.8394C932.637 37.4833 934.222 38.2632 935.632 39.1756L936.719 37.4964ZM931.577 34.9674C929.739 34.2559 927.857 33.6631 925.931 33.189L925.453 35.131C927.297 35.5849 929.097 36.1521 930.855 36.8326L931.577 34.9674ZM925.944 33.1924C923.322 32.5082 920.922 31.684 918.744 30.7222L917.936 32.5518C920.224 33.562 922.726 34.4198 925.439 35.1276L925.944 33.1924ZM918.749 30.7242C916.62 29.7719 914.773 28.6305 913.199 27.3051L911.911 28.8349C913.643 30.2935 915.653 31.5301 917.932 32.5498L918.749 30.7242ZM913.213 27.3174C911.694 25.9879 910.518 24.4189 909.678 22.6041L907.863 23.4439C908.821 25.5151 910.168 27.3101 911.896 28.8226L913.213 27.3174ZM909.683 22.6153C908.882 20.8265 908.465 18.6947 908.465 16.1945H906.465C906.465 18.9143 906.919 21.3355 907.858 23.4327L909.683 22.6153ZM908.465 16.1945C908.465 14.2339 908.832 12.4957 909.546 10.9615L907.733 10.1175C906.881 11.9473 906.465 13.9791 906.465 16.1945H908.465ZM909.546 10.9615C910.274 9.39849 911.268 8.04144 912.534 6.8838L911.184 5.40819C909.723 6.74455 908.572 8.31651 907.733 10.1175L909.546 10.9615ZM912.526 6.89083C913.84 5.71346 915.336 4.73826 917.017 3.96633L916.183 2.14867C914.327 3.00074 912.661 4.08453 911.192 5.40116L912.526 6.89083ZM917.024 3.96331C918.745 3.15855 920.595 2.55932 922.579 2.1681L922.192 0.205886C920.058 0.626671 918.052 1.27445 916.177 2.15169L917.024 3.96331ZM922.579 2.1681C924.575 1.77461 926.584 1.578 928.606 1.578V-0.422003C926.453 -0.422003 924.315 -0.212612 922.192 0.205886L922.579 2.1681ZM928.606 1.578C931.812 1.578 934.758 2.0558 937.454 3.00071L938.116 1.11329C935.185 0.086194 932.013 -0.422003 928.606 -0.422003V1.578ZM937.463 3.00371C940.169 3.92449 942.427 5.19749 944.258 6.80949L945.58 5.30851C943.524 3.49851 941.026 2.10351 938.107 1.11029L937.463 3.00371ZM944.264 6.81506C946.091 8.39642 947.313 10.1656 947.973 12.1211L949.868 11.4809C949.079 9.14435 947.633 7.08557 945.573 5.30294L944.264 6.81506ZM948.511 10.8888L940.377 14.5428L941.196 16.3672L949.331 12.7132L948.511 10.8888ZM941.728 15.1197C941.074 13.2802 940.099 11.7001 938.796 10.3979L937.382 11.8121C938.458 12.8879 939.281 14.2078 939.844 15.7903L941.728 15.1197ZM938.805 10.4067C937.532 9.10161 935.979 8.12403 934.167 7.46773L933.486 9.34826C935.037 9.90996 936.327 10.7304 937.374 11.8033L938.805 10.4067ZM934.186 7.47507C932.403 6.78677 930.437 6.451 928.302 6.451V8.451C930.226 8.451 931.944 8.75322 933.466 9.34092L934.186 7.47507ZM928.302 6.451C926.682 6.451 925.117 6.64975 923.608 7.04994L924.121 8.98306C925.455 8.62925 926.847 8.451 928.302 8.451V6.451ZM923.622 7.04635C922.132 7.41889 920.769 7.99664 919.541 8.78412L920.62 10.4679C921.654 9.80535 922.813 9.3101 924.107 8.98664L923.622 7.04635ZM919.546 8.78051C918.321 9.55455 917.327 10.5461 916.578 11.7516L918.276 12.8074C918.861 11.8669 919.636 11.0894 920.614 10.4715L919.546 8.78051ZM916.574 11.758C915.825 12.983 915.47 14.4022 915.47 15.977H917.47C917.47 14.7098 917.753 13.664 918.28 12.8009L916.574 11.758ZM915.47 15.977C915.47 18.1668 916.061 20.0862 917.287 21.677L918.871 20.456C917.952 19.2628 917.47 17.7892 917.47 15.977H915.47ZM917.287 21.677C918.468 23.2083 920.073 24.4708 922.064 25.4817L922.969 23.6983C921.19 22.7952 919.837 21.7087 918.871 20.456L917.287 21.677ZM922.08 25.4898C924.065 26.4524 926.335 27.2565 928.88 27.9078L929.376 25.9702C926.934 25.3455 924.795 24.5836 922.953 23.6902L922.08 25.4898ZM928.869 27.9048C930.786 28.4199 932.719 29.0212 934.668 29.709L935.334 27.823C933.338 27.1188 931.356 26.5021 929.388 25.9732L928.869 27.9048ZM934.685 29.7147C936.633 30.3642 938.464 31.1535 940.18 32.0815L941.132 30.3225C939.309 29.3365 937.37 28.5018 935.317 27.8173L934.685 29.7147ZM940.186 32.0847C941.907 33.001 943.427 34.0935 944.749 35.3605L946.133 33.9165C944.671 32.5155 943 31.317 941.126 30.3193L940.186 32.0847ZM944.764 35.375C946.087 36.5893 947.124 38.0174 947.881 39.6667L949.699 38.8323C948.832 36.9436 947.637 35.2977 946.117 33.902L944.764 35.375ZM947.884 39.6724C948.624 41.2584 949.008 43.1108 949.008 45.2525H951.008C951.008 42.8702 950.58 40.7206 949.696 38.8266L947.884 39.6724ZM949.008 45.2525C949.008 47.577 948.621 49.6158 947.87 51.3869L949.711 52.168C950.583 50.1112 951.008 47.8 951.008 45.2525H949.008ZM947.865 51.3989C947.129 53.198 946.111 54.7553 944.813 56.0802L946.242 57.4798C947.728 55.9627 948.886 54.185 949.716 52.1561L947.865 51.3989ZM944.821 56.0729C943.509 57.3849 941.974 58.483 940.209 59.3656L941.103 61.1544C943.05 60.181 944.763 58.9591 946.235 57.4871L944.821 56.0729ZM940.22 59.36C938.446 60.2194 936.511 60.8608 934.413 61.2804L934.805 63.2416C937.057 62.7912 939.154 62.0986 941.092 61.16L940.22 59.36ZM934.398 61.2836C932.323 61.7321 930.19 61.957 927.997 61.957V63.957C930.328 63.957 932.603 63.7179 934.821 63.2384L934.398 61.2836Z" fill="#FF0000" mask="url(#path-1-outside-1_82_59)"/>
<defs>
<filter id="filter0_i_82_59" x="0.179199" y="0.578003" width="949.829" height="66.379" filterUnits="userSpaceOnUse" color-interpolation-filters="sRGB">
<feFlood flood-opacity="0" result="BackgroundImageFix"/>
<feBlend mode="normal" in="SourceGraphic" in2="BackgroundImageFix" result="shape"/>
<feColorMatrix in="SourceAlpha" type="matrix" values="0 0 0 0 0 0 0 0 0 0 0 0 0 0 0 0 0 0 127 0" result="hardAlpha"/>
<feOffset dy="4"/>
<feGaussianBlur stdDeviation="2"/>
<feComposite in2="hardAlpha" operator="arithmetic" k2="-1" k3="1"/>
<feColorMatrix type="matrix" values="0 0 0 0 0 0 0 0 0 0 0 0 0 0 0 0 0 0 0.25 0"/>
<feBlend mode="normal" in2="shape" result="effect1_innerShadow_82_59"/>
</filter>
</defs>
</svg>
