<svg width="160" height="27" viewBox="0 0 160 27" fill="none" xmlns="http://www.w3.org/2000/svg">
<g filter="url(#filter0_i_102_56)">
<path d="M19.33 26H15.64L14.02 19.628H5.452L3.832 26H0.142L6.766 0.799998H12.706L19.33 26ZM9.502 3.536L6.028 16.892H13.444L9.97 3.536H9.502ZM25.6261 26V0.799998H32.8441C33.4921 0.799998 34.2061 0.865999 34.9861 0.997999C35.7661 1.118 36.5401 1.346 37.3081 1.682C38.0881 2.018 38.7961 2.498 39.4321 3.122C40.0681 3.746 40.5781 4.55 40.9621 5.534C41.3461 6.518 41.5381 7.736 41.5381 9.188C41.5381 10.628 41.3461 11.846 40.9621 12.842C40.5781 13.838 40.0681 14.66 39.4321 15.308C38.7961 15.956 38.0881 16.46 37.3081 16.82C36.5401 17.168 35.7661 17.414 34.9861 17.558C34.2061 17.69 33.4921 17.756 32.8441 17.756H29.2081V26H25.6261ZM29.2081 15.02H32.5561C33.0961 15.02 33.6721 14.948 34.2841 14.804C34.9081 14.66 35.4961 14.384 36.0481 13.976C36.6001 13.568 37.0501 12.98 37.3981 12.212C37.7461 11.444 37.9201 10.436 37.9201 9.188C37.9201 7.94 37.7461 6.944 37.3981 6.2C37.0501 5.444 36.6001 4.874 36.0481 4.49C35.4961 4.106 34.9081 3.854 34.2841 3.734C33.6721 3.602 33.0961 3.536 32.5561 3.536H29.2081V15.02ZM54.7281 26V3.536H47.3661V0.799998H65.6541V3.536H58.2921V26H54.7281ZM72.9402 26V23.264H78.1422V3.536H72.9402V0.799998H86.9442V3.536H81.7062V23.264H86.9442V26H72.9402ZM101.556 26V3.536H94.1943V0.799998H112.482V3.536H105.12V26H101.556ZM126.806 26.396C125.606 26.396 124.472 26.21 123.404 25.838C122.336 25.466 121.394 24.878 120.578 24.074C119.762 23.27 119.12 22.22 118.652 20.924C118.196 19.616 117.968 18.044 117.968 16.208V0.799998H121.532V16.046C121.532 17.762 121.742 19.172 122.162 20.276C122.594 21.38 123.2 22.202 123.98 22.742C124.772 23.27 125.714 23.534 126.806 23.534C127.898 23.534 128.834 23.27 129.614 22.742C130.406 22.202 131.006 21.38 131.414 20.276C131.834 19.172 132.044 17.762 132.044 16.046V0.799998H135.608V16.208C135.608 18.044 135.38 19.616 134.924 20.924C134.468 22.22 133.838 23.27 133.034 24.074C132.23 24.878 131.294 25.466 130.226 25.838C129.158 26.21 128.018 26.396 126.806 26.396ZM142.03 26V0.799998H148.6C149.452 0.799998 150.304 0.871999 151.156 1.016C152.008 1.148 152.836 1.388 153.64 1.736C154.444 2.084 155.188 2.564 155.872 3.176C156.568 3.788 157.174 4.556 157.69 5.48C158.218 6.404 158.626 7.52 158.914 8.828C159.214 10.124 159.364 11.648 159.364 13.4C159.364 15.14 159.214 16.664 158.914 17.972C158.626 19.28 158.218 20.396 157.69 21.32C157.174 22.244 156.568 23.012 155.872 23.624C155.188 24.236 154.444 24.716 153.64 25.064C152.836 25.412 152.008 25.658 151.156 25.802C150.304 25.934 149.452 26 148.6 26H142.03ZM145.594 23.264H148.33C149.35 23.264 150.298 23.108 151.174 22.796C152.062 22.484 152.848 21.956 153.532 21.212C154.216 20.468 154.744 19.46 155.116 18.188C155.5 16.916 155.692 15.32 155.692 13.4C155.692 11.48 155.5 9.884 155.116 8.612C154.744 7.34 154.216 6.332 153.532 5.588C152.848 4.844 152.062 4.316 151.174 4.004C150.298 3.692 149.35 3.536 148.33 3.536H145.594V23.264Z" fill="white"/>
</g>
<defs>
<filter id="filter0_i_102_56" x="0.141602" y="0.799988" width="159.223" height="29.596" filterUnits="userSpaceOnUse" color-interpolation-filters="sRGB">
<feFlood flood-opacity="0" result="BackgroundImageFix"/>
<feBlend mode="normal" in="SourceGraphic" in2="BackgroundImageFix" result="shape"/>
<feColorMatrix in="SourceAlpha" type="matrix" values="0 0 0 0 0 0 0 0 0 0 0 0 0 0 0 0 0 0 127 0" result="hardAlpha"/>
<feOffset dy="4"/>
<feGaussianBlur stdDeviation="2"/>
<feComposite in2="hardAlpha" operator="arithmetic" k2="-1" k3="1"/>
<feColorMatrix type="matrix" values="0 0 0 0 0 0 0 0 0 0 0 0 0 0 0 0 0 0 0.25 0"/>
<feBlend mode="normal" in2="shape" result="effect1_innerShadow_102_56"/>
</filter>
</defs>
</svg>
