<svg width="176" height="27" viewBox="0 0 176 27" fill="none" xmlns="http://www.w3.org/2000/svg">
<g filter="url(#filter0_i_101_33)">
<path d="M-0.00399968 26V0.799998H8.276C8.876 0.799998 9.512 0.847998 10.184 0.943999C10.868 1.028 11.528 1.196 12.164 1.448C12.812 1.688 13.394 2.036 13.91 2.492C14.438 2.948 14.858 3.542 15.17 4.274C15.482 4.994 15.638 5.888 15.638 6.956C15.638 8.168 15.416 9.194 14.972 10.034C14.528 10.862 14 11.504 13.388 11.96C12.788 12.416 12.242 12.692 11.75 12.788C12.206 12.836 12.71 12.986 13.262 13.238C13.826 13.478 14.372 13.844 14.9 14.336C15.428 14.816 15.86 15.434 16.196 16.19C16.544 16.934 16.718 17.84 16.718 18.908C16.718 20.42 16.43 21.71 15.854 22.778C15.29 23.834 14.486 24.638 13.442 25.19C12.398 25.73 11.162 26 9.734 26H-0.00399968ZM3.56 23.264H8.618C9.482 23.264 10.25 23.108 10.922 22.796C11.606 22.472 12.14 21.974 12.524 21.302C12.92 20.63 13.118 19.76 13.118 18.692C13.118 17.564 12.884 16.688 12.416 16.064C11.948 15.44 11.366 15.002 10.67 14.75C9.974 14.498 9.284 14.372 8.6 14.372H3.56V23.264ZM3.56 11.636H7.952C8.672 11.636 9.344 11.48 9.968 11.168C10.604 10.844 11.114 10.37 11.498 9.746C11.894 9.122 12.092 8.348 12.092 7.424C12.092 6.632 11.99 5.99 11.786 5.498C11.582 4.994 11.288 4.598 10.904 4.31C10.532 4.022 10.082 3.824 9.554 3.716C9.026 3.596 8.438 3.536 7.79 3.536H3.56V11.636ZM40.7441 26H37.0541L35.4341 19.628H26.8661L25.2461 26H21.5561L28.1801 0.799998H34.1201L40.7441 26ZM30.9161 3.536L27.4421 16.892H34.8581L31.3841 3.536H30.9161ZM55.4281 26.396C54.3961 26.396 53.3761 26.252 52.3681 25.964C51.3721 25.664 50.4301 25.196 49.5421 24.56C48.6541 23.924 47.8681 23.102 47.1841 22.094C46.5001 21.074 45.9661 19.856 45.5821 18.44C45.1981 17.012 45.0061 15.356 45.0061 13.472C45.0061 11.588 45.2041 9.938 45.6001 8.522C45.9961 7.094 46.5361 5.876 47.2201 4.868C47.9041 3.86 48.6901 3.044 49.5781 2.42C50.4781 1.784 51.4321 1.322 52.4401 1.034C53.4601 0.733999 54.4801 0.583999 55.5001 0.583999C56.5201 0.583999 57.4561 0.727999 58.3081 1.016C59.1721 1.292 59.9521 1.688 60.6481 2.204C61.3561 2.708 61.9681 3.308 62.4841 4.004C63.0001 4.688 63.4261 5.444 63.7621 6.272L60.6121 7.838C60.4201 7.322 60.1801 6.806 59.8921 6.29C59.6041 5.762 59.2501 5.282 58.8301 4.85C58.4221 4.406 57.9421 4.052 57.3901 3.788C56.8381 3.512 56.2081 3.374 55.5001 3.374C54.6601 3.374 53.8321 3.566 53.0161 3.95C52.2121 4.334 51.4801 4.934 50.8201 5.75C50.1721 6.554 49.6501 7.592 49.2541 8.864C48.8701 10.136 48.6781 11.672 48.6781 13.472C48.6781 15.272 48.8701 16.814 49.2541 18.098C49.6381 19.382 50.1541 20.432 50.8021 21.248C51.4501 22.052 52.1761 22.646 52.9801 23.03C53.7841 23.414 54.5941 23.606 55.4101 23.606C56.1301 23.606 56.7661 23.468 57.3181 23.192C57.8821 22.916 58.3741 22.562 58.7941 22.13C59.2141 21.686 59.5741 21.212 59.8741 20.708C60.1741 20.204 60.4201 19.712 60.6121 19.232L63.7621 20.834C63.4381 21.614 63.0121 22.346 62.4841 23.03C61.9681 23.702 61.3561 24.29 60.6481 24.794C59.9521 25.298 59.1661 25.694 58.2901 25.982C57.4141 26.258 56.4601 26.396 55.4281 26.396ZM69.7882 26V0.799998H73.3522V11.708H75.0082L82.2442 0.799998H86.1142L77.3482 13.814V12.302L86.5822 26H82.6762L75.0082 14.444H73.3522V26H69.7882ZM111.85 26V0.799998H127.6V3.536H115.414V12.248H126.16V14.984H115.414V23.264H127.6V26H111.85ZM133.86 26V0.799998H139.116L148.566 22.868H147.972V0.799998H151.536V26H146.928L137.262 4.004H137.424V26H133.86ZM158.03 26V0.799998H164.6C165.452 0.799998 166.304 0.871999 167.156 1.016C168.008 1.148 168.836 1.388 169.64 1.736C170.444 2.084 171.188 2.564 171.872 3.176C172.568 3.788 173.174 4.556 173.69 5.48C174.218 6.404 174.626 7.52 174.914 8.828C175.214 10.124 175.364 11.648 175.364 13.4C175.364 15.14 175.214 16.664 174.914 17.972C174.626 19.28 174.218 20.396 173.69 21.32C173.174 22.244 172.568 23.012 171.872 23.624C171.188 24.236 170.444 24.716 169.64 25.064C168.836 25.412 168.008 25.658 167.156 25.802C166.304 25.934 165.452 26 164.6 26H158.03ZM161.594 23.264H164.33C165.35 23.264 166.298 23.108 167.174 22.796C168.062 22.484 168.848 21.956 169.532 21.212C170.216 20.468 170.744 19.46 171.116 18.188C171.5 16.916 171.692 15.32 171.692 13.4C171.692 11.48 171.5 9.884 171.116 8.612C170.744 7.34 170.216 6.332 169.532 5.588C168.848 4.844 168.062 4.316 167.174 4.004C166.298 3.692 165.35 3.536 164.33 3.536H161.594V23.264Z" fill="white"/>
</g>
<defs>
<filter id="filter0_i_101_33" x="-0.00390625" y="0.583984" width="175.368" height="29.812" filterUnits="userSpaceOnUse" color-interpolation-filters="sRGB">
<feFlood flood-opacity="0" result="BackgroundImageFix"/>
<feBlend mode="normal" in="SourceGraphic" in2="BackgroundImageFix" result="shape"/>
<feColorMatrix in="SourceAlpha" type="matrix" values="0 0 0 0 0 0 0 0 0 0 0 0 0 0 0 0 0 0 127 0" result="hardAlpha"/>
<feOffset dy="4"/>
<feGaussianBlur stdDeviation="2"/>
<feComposite in2="hardAlpha" operator="arithmetic" k2="-1" k3="1"/>
<feColorMatrix type="matrix" values="0 0 0 0 0 0 0 0 0 0 0 0 0 0 0 0 0 0 0.25 0"/>
<feBlend mode="normal" in2="shape" result="effect1_innerShadow_101_33"/>
</filter>
</defs>
</svg>
