<svg width="1116" height="70" viewBox="0 0 1116 70" fill="none" xmlns="http://www.w3.org/2000/svg">
<mask id="path-1-outside-1_82_68" maskUnits="userSpaceOnUse" x="-1" y="-1" width="1119" height="72" fill="black">
<rect fill="white" x="-1" y="-1" width="1119" height="72"/>
<path d="M0.296 68V0.799995H9.848V60.704H35.864V68H0.296ZM53.528 68V60.704H67.4V8.096H53.528V0.799995H90.872V8.096H76.904V60.704H90.872V68H53.528ZM126.142 68L108.766 0.799995H118.558L133.678 60.704H134.062L149.134 0.799995H158.974L141.598 68H126.142ZM178.403 68V60.704H192.275V8.096H178.403V0.799995H215.747V8.096H201.779V60.704H215.747V68H178.403ZM235.753 68V0.799995H249.769L274.969 59.648H273.385V0.799995H282.889V68H270.601L244.825 9.344H245.257V68H235.753ZM323.918 69.056C321.422 69.056 318.878 68.688 316.286 67.952C313.694 67.216 311.214 66.032 308.846 64.4C306.478 62.768 304.35 60.624 302.462 57.968C300.574 55.28 299.086 52.016 297.998 48.176C296.91 44.336 296.366 39.808 296.366 34.592C296.366 29.472 296.894 25.008 297.95 21.2C299.038 17.36 300.494 14.112 302.318 11.456C304.174 8.768 306.27 6.608 308.606 4.976C310.974 3.312 313.454 2.112 316.046 1.376C318.67 0.607998 321.262 0.223997 323.822 0.223997C326.798 0.223997 329.534 0.591997 332.03 1.328C334.558 2.064 336.782 3.088 338.702 4.4C340.654 5.68 342.27 7.2 343.55 8.96C344.83 10.688 345.726 12.56 346.238 14.576L337.358 18.272C337.038 16.896 336.51 15.584 335.774 14.336C335.038 13.056 334.094 11.92 332.942 10.928C331.79 9.936 330.43 9.152 328.862 8.576C327.326 7.968 325.582 7.664 323.63 7.664C321.902 7.664 320.19 7.984 318.494 8.62399C316.798 9.264 315.198 10.272 313.694 11.648C312.19 12.992 310.846 14.72 309.662 16.832C308.51 18.944 307.598 21.472 306.926 24.416C306.286 27.36 305.966 30.752 305.966 34.592C305.966 39.456 306.494 43.6 307.55 47.024C308.606 50.448 309.998 53.248 311.726 55.424C313.486 57.568 315.438 59.136 317.582 60.128C319.726 61.12 321.87 61.616 324.014 61.616C326.126 61.616 328.094 61.216 329.918 60.416C331.742 59.616 333.326 58.384 334.67 56.72C336.046 55.024 337.102 52.88 337.838 50.288C338.606 47.664 338.99 44.528 338.99 40.88H323.342V33.44H348.11V38.672C348.11 43.056 347.678 46.928 346.814 50.288C345.95 53.616 344.75 56.464 343.214 58.832C341.678 61.2 339.886 63.152 337.838 64.688C335.79 66.192 333.582 67.296 331.214 68C328.878 68.704 326.446 69.056 323.918 69.056ZM413.716 68V60.704H427.588V8.096H413.716V0.799995H451.06V8.096H437.092V60.704H451.06V68H413.716ZM471.065 68V0.799995H485.081L510.281 59.648H508.697V0.799995H518.201V68H505.913L480.137 9.344H480.569V68H471.065ZM584.719 68V0.799995H606.799C608.399 0.799995 610.095 0.927996 611.887 1.184C613.711 1.408 615.471 1.856 617.167 2.528C618.895 3.168 620.447 4.09599 621.823 5.31199C623.231 6.528 624.351 8.112 625.183 10.064C626.015 11.984 626.431 14.368 626.431 17.216C626.431 20.448 625.839 23.184 624.655 25.424C623.471 27.632 622.063 29.344 620.431 30.56C618.831 31.776 617.375 32.512 616.063 32.768C617.279 32.896 618.623 33.296 620.095 33.968C621.599 34.608 623.055 35.584 624.463 36.896C625.871 38.176 627.023 39.824 627.919 41.84C628.847 43.824 629.311 46.24 629.311 49.088C629.311 53.12 628.543 56.56 627.007 59.408C625.503 62.224 623.359 64.368 620.575 65.84C617.791 67.28 614.495 68 610.687 68H584.719ZM594.223 60.704H607.711C610.015 60.704 612.063 60.288 613.855 59.456C615.679 58.592 617.103 57.264 618.127 55.472C619.183 53.68 619.711 51.36 619.711 48.512C619.711 45.504 619.087 43.168 617.839 41.504C616.591 39.84 615.039 38.672 613.183 38C611.327 37.328 609.487 36.992 607.663 36.992H594.223V60.704ZM594.223 29.696H605.935C607.855 29.696 609.647 29.28 611.311 28.448C613.007 27.584 614.367 26.32 615.391 24.656C616.447 22.992 616.975 20.928 616.975 18.464C616.975 16.352 616.703 14.64 616.159 13.328C615.615 11.984 614.831 10.928 613.807 10.16C612.815 9.392 611.615 8.864 610.207 8.576C608.799 8.256 607.231 8.096 605.503 8.096H594.223V29.696ZM693.38 68H683.54L679.22 51.008H656.372L652.052 68H642.212L659.876 0.799995H675.716L693.38 68ZM667.172 8.096L657.908 43.712H677.684L668.42 8.096H667.172ZM709.594 68V0.799995H733.642C735.338 0.799995 737.082 0.975996 738.874 1.328C740.698 1.648 742.458 2.208 744.154 3.008C745.85 3.80799 747.37 4.896 748.714 6.272C750.09 7.648 751.178 9.392 751.978 11.504C752.778 13.616 753.177 16.144 753.177 19.088C753.177 22.096 752.746 24.688 751.882 26.864C751.05 29.008 749.93 30.816 748.521 32.288C747.114 33.728 745.546 34.88 743.818 35.744C742.122 36.576 740.378 37.184 738.586 37.568C736.826 37.92 735.178 38.096 733.642 38.096H719.098V68H709.594ZM744.25 68L731.338 35.408L740.746 34.4L754.378 68H744.25ZM719.098 30.992H731.962C734.042 30.992 735.962 30.608 737.722 29.84C739.514 29.072 740.954 27.84 742.042 26.144C743.13 24.416 743.674 22.144 743.674 19.328C743.674 16.352 743.098 14.064 741.946 12.464C740.826 10.832 739.354 9.696 737.53 9.056C735.706 8.416 733.77 8.096 731.722 8.096H719.098V30.992ZM794.975 69.056C792.223 69.056 789.503 68.672 786.815 67.904C784.159 67.104 781.647 65.856 779.279 64.16C776.911 62.464 774.815 60.272 772.991 57.584C771.167 54.864 769.743 51.616 768.719 47.84C767.695 44.032 767.183 39.616 767.183 34.592C767.183 29.568 767.711 25.168 768.767 21.392C769.823 17.584 771.263 14.336 773.087 11.648C774.911 8.96 777.007 6.784 779.375 5.12C781.775 3.424 784.319 2.192 787.007 1.424C789.727 0.623997 792.447 0.223997 795.167 0.223997C797.887 0.223997 800.383 0.607998 802.655 1.376C804.959 2.112 807.039 3.168 808.895 4.544C810.783 5.888 812.415 7.488 813.791 9.344C815.167 11.168 816.303 13.184 817.199 15.392L808.799 19.568C808.287 18.192 807.647 16.816 806.879 15.44C806.111 14.032 805.167 12.752 804.047 11.6C802.959 10.416 801.679 9.472 800.207 8.768C798.735 8.032 797.055 7.664 795.167 7.664C792.927 7.664 790.719 8.176 788.543 9.2C786.399 10.224 784.447 11.824 782.687 14C780.959 16.144 779.567 18.912 778.511 22.304C777.487 25.696 776.975 29.792 776.975 34.592C776.975 39.392 777.487 43.504 778.511 46.928C779.535 50.352 780.911 53.152 782.639 55.328C784.367 57.472 786.303 59.056 788.447 60.08C790.591 61.104 792.751 61.616 794.927 61.616C796.847 61.616 798.543 61.248 800.015 60.512C801.519 59.776 802.831 58.832 803.951 57.68C805.071 56.496 806.031 55.232 806.831 53.888C807.631 52.544 808.287 51.232 808.799 49.952L817.199 54.224C816.335 56.304 815.199 58.256 813.791 60.08C812.415 61.872 810.783 63.44 808.895 64.784C807.039 66.128 804.943 67.184 802.607 67.952C800.271 68.688 797.727 69.056 794.975 69.056ZM834.997 68V0.799995H876.997V8.096H844.501V31.328H873.156V38.624H844.501V60.704H876.997V68H834.997ZM893.546 68V0.799995H903.098V60.704H929.114V68H893.546ZM965.354 69.056C962.602 69.056 959.898 68.656 957.242 67.856C954.618 67.024 952.154 65.744 949.85 64.016C947.578 62.288 945.578 60.064 943.85 57.344C942.122 54.624 940.762 51.392 939.77 47.648C938.81 43.872 938.33 39.52 938.33 34.592C938.33 29.696 938.81 25.376 939.77 21.632C940.762 17.856 942.122 14.624 943.85 11.936C945.578 9.216 947.578 6.992 949.85 5.264C952.154 3.536 954.618 2.272 957.242 1.472C959.898 0.639997 962.602 0.223997 965.354 0.223997C968.106 0.223997 970.794 0.639997 973.418 1.472C976.042 2.272 978.49 3.536 980.762 5.264C983.066 6.992 985.066 9.216 986.762 11.936C988.49 14.624 989.85 17.856 990.842 21.632C991.834 25.376 992.33 29.696 992.33 34.592C992.33 39.52 991.834 43.872 990.842 47.648C989.85 51.392 988.49 54.624 986.762 57.344C985.066 60.064 983.066 62.288 980.762 64.016C978.49 65.744 976.042 67.024 973.418 67.856C970.794 68.656 968.106 69.056 965.354 69.056ZM965.354 61.616C967.53 61.616 969.642 61.104 971.69 60.08C973.738 59.056 975.578 57.456 977.21 55.28C978.874 53.104 980.186 50.32 981.146 46.928C982.138 43.504 982.634 39.392 982.634 34.592C982.634 29.824 982.138 25.744 981.146 22.352C980.186 18.928 978.874 16.144 977.21 14C975.578 11.824 973.738 10.224 971.69 9.2C969.642 8.176 967.53 7.664 965.354 7.664C963.178 7.664 961.05 8.176 958.97 9.2C956.922 10.224 955.066 11.824 953.402 14C951.77 16.144 950.458 18.928 949.466 22.352C948.506 25.744 948.026 29.824 948.026 34.592C948.026 39.392 948.506 43.504 949.466 46.928C950.458 50.32 951.77 53.104 953.402 55.28C955.066 57.456 956.922 59.056 958.97 60.08C961.05 61.104 963.178 61.616 965.354 61.616ZM1004.13 68V0.799995H1018.14L1043.34 59.648H1041.76V0.799995H1051.26V68H1038.98L1013.2 9.344H1013.63V68H1004.13ZM1116.01 68H1106.17L1101.85 51.008H1079L1074.68 68H1064.84L1082.5 0.799995H1098.34L1116.01 68ZM1089.8 8.096L1080.53 43.712H1100.31L1091.05 8.096H1089.8Z"/>
</mask>
<g filter="url(#filter0_i_82_68)">
<path d="M0.296 68V0.799995H9.848V60.704H35.864V68H0.296ZM53.528 68V60.704H67.4V8.096H53.528V0.799995H90.872V8.096H76.904V60.704H90.872V68H53.528ZM126.142 68L108.766 0.799995H118.558L133.678 60.704H134.062L149.134 0.799995H158.974L141.598 68H126.142ZM178.403 68V60.704H192.275V8.096H178.403V0.799995H215.747V8.096H201.779V60.704H215.747V68H178.403ZM235.753 68V0.799995H249.769L274.969 59.648H273.385V0.799995H282.889V68H270.601L244.825 9.344H245.257V68H235.753ZM323.918 69.056C321.422 69.056 318.878 68.688 316.286 67.952C313.694 67.216 311.214 66.032 308.846 64.4C306.478 62.768 304.35 60.624 302.462 57.968C300.574 55.28 299.086 52.016 297.998 48.176C296.91 44.336 296.366 39.808 296.366 34.592C296.366 29.472 296.894 25.008 297.95 21.2C299.038 17.36 300.494 14.112 302.318 11.456C304.174 8.768 306.27 6.608 308.606 4.976C310.974 3.312 313.454 2.112 316.046 1.376C318.67 0.607998 321.262 0.223997 323.822 0.223997C326.798 0.223997 329.534 0.591997 332.03 1.328C334.558 2.064 336.782 3.088 338.702 4.4C340.654 5.68 342.27 7.2 343.55 8.96C344.83 10.688 345.726 12.56 346.238 14.576L337.358 18.272C337.038 16.896 336.51 15.584 335.774 14.336C335.038 13.056 334.094 11.92 332.942 10.928C331.79 9.936 330.43 9.152 328.862 8.576C327.326 7.968 325.582 7.664 323.63 7.664C321.902 7.664 320.19 7.984 318.494 8.62399C316.798 9.264 315.198 10.272 313.694 11.648C312.19 12.992 310.846 14.72 309.662 16.832C308.51 18.944 307.598 21.472 306.926 24.416C306.286 27.36 305.966 30.752 305.966 34.592C305.966 39.456 306.494 43.6 307.55 47.024C308.606 50.448 309.998 53.248 311.726 55.424C313.486 57.568 315.438 59.136 317.582 60.128C319.726 61.12 321.87 61.616 324.014 61.616C326.126 61.616 328.094 61.216 329.918 60.416C331.742 59.616 333.326 58.384 334.67 56.72C336.046 55.024 337.102 52.88 337.838 50.288C338.606 47.664 338.99 44.528 338.99 40.88H323.342V33.44H348.11V38.672C348.11 43.056 347.678 46.928 346.814 50.288C345.95 53.616 344.75 56.464 343.214 58.832C341.678 61.2 339.886 63.152 337.838 64.688C335.79 66.192 333.582 67.296 331.214 68C328.878 68.704 326.446 69.056 323.918 69.056ZM413.716 68V60.704H427.588V8.096H413.716V0.799995H451.06V8.096H437.092V60.704H451.06V68H413.716ZM471.065 68V0.799995H485.081L510.281 59.648H508.697V0.799995H518.201V68H505.913L480.137 9.344H480.569V68H471.065ZM584.719 68V0.799995H606.799C608.399 0.799995 610.095 0.927996 611.887 1.184C613.711 1.408 615.471 1.856 617.167 2.528C618.895 3.168 620.447 4.09599 621.823 5.31199C623.231 6.528 624.351 8.112 625.183 10.064C626.015 11.984 626.431 14.368 626.431 17.216C626.431 20.448 625.839 23.184 624.655 25.424C623.471 27.632 622.063 29.344 620.431 30.56C618.831 31.776 617.375 32.512 616.063 32.768C617.279 32.896 618.623 33.296 620.095 33.968C621.599 34.608 623.055 35.584 624.463 36.896C625.871 38.176 627.023 39.824 627.919 41.84C628.847 43.824 629.311 46.24 629.311 49.088C629.311 53.12 628.543 56.56 627.007 59.408C625.503 62.224 623.359 64.368 620.575 65.84C617.791 67.28 614.495 68 610.687 68H584.719ZM594.223 60.704H607.711C610.015 60.704 612.063 60.288 613.855 59.456C615.679 58.592 617.103 57.264 618.127 55.472C619.183 53.68 619.711 51.36 619.711 48.512C619.711 45.504 619.087 43.168 617.839 41.504C616.591 39.84 615.039 38.672 613.183 38C611.327 37.328 609.487 36.992 607.663 36.992H594.223V60.704ZM594.223 29.696H605.935C607.855 29.696 609.647 29.28 611.311 28.448C613.007 27.584 614.367 26.32 615.391 24.656C616.447 22.992 616.975 20.928 616.975 18.464C616.975 16.352 616.703 14.64 616.159 13.328C615.615 11.984 614.831 10.928 613.807 10.16C612.815 9.392 611.615 8.864 610.207 8.576C608.799 8.256 607.231 8.096 605.503 8.096H594.223V29.696ZM693.38 68H683.54L679.22 51.008H656.372L652.052 68H642.212L659.876 0.799995H675.716L693.38 68ZM667.172 8.096L657.908 43.712H677.684L668.42 8.096H667.172ZM709.594 68V0.799995H733.642C735.338 0.799995 737.082 0.975996 738.874 1.328C740.698 1.648 742.458 2.208 744.154 3.008C745.85 3.80799 747.37 4.896 748.714 6.272C750.09 7.648 751.178 9.392 751.978 11.504C752.778 13.616 753.177 16.144 753.177 19.088C753.177 22.096 752.746 24.688 751.882 26.864C751.05 29.008 749.93 30.816 748.521 32.288C747.114 33.728 745.546 34.88 743.818 35.744C742.122 36.576 740.378 37.184 738.586 37.568C736.826 37.92 735.178 38.096 733.642 38.096H719.098V68H709.594ZM744.25 68L731.338 35.408L740.746 34.4L754.378 68H744.25ZM719.098 30.992H731.962C734.042 30.992 735.962 30.608 737.722 29.84C739.514 29.072 740.954 27.84 742.042 26.144C743.13 24.416 743.674 22.144 743.674 19.328C743.674 16.352 743.098 14.064 741.946 12.464C740.826 10.832 739.354 9.696 737.53 9.056C735.706 8.416 733.77 8.096 731.722 8.096H719.098V30.992ZM794.975 69.056C792.223 69.056 789.503 68.672 786.815 67.904C784.159 67.104 781.647 65.856 779.279 64.16C776.911 62.464 774.815 60.272 772.991 57.584C771.167 54.864 769.743 51.616 768.719 47.84C767.695 44.032 767.183 39.616 767.183 34.592C767.183 29.568 767.711 25.168 768.767 21.392C769.823 17.584 771.263 14.336 773.087 11.648C774.911 8.96 777.007 6.784 779.375 5.12C781.775 3.424 784.319 2.192 787.007 1.424C789.727 0.623997 792.447 0.223997 795.167 0.223997C797.887 0.223997 800.383 0.607998 802.655 1.376C804.959 2.112 807.039 3.168 808.895 4.544C810.783 5.888 812.415 7.488 813.791 9.344C815.167 11.168 816.303 13.184 817.199 15.392L808.799 19.568C808.287 18.192 807.647 16.816 806.879 15.44C806.111 14.032 805.167 12.752 804.047 11.6C802.959 10.416 801.679 9.472 800.207 8.768C798.735 8.032 797.055 7.664 795.167 7.664C792.927 7.664 790.719 8.176 788.543 9.2C786.399 10.224 784.447 11.824 782.687 14C780.959 16.144 779.567 18.912 778.511 22.304C777.487 25.696 776.975 29.792 776.975 34.592C776.975 39.392 777.487 43.504 778.511 46.928C779.535 50.352 780.911 53.152 782.639 55.328C784.367 57.472 786.303 59.056 788.447 60.08C790.591 61.104 792.751 61.616 794.927 61.616C796.847 61.616 798.543 61.248 800.015 60.512C801.519 59.776 802.831 58.832 803.951 57.68C805.071 56.496 806.031 55.232 806.831 53.888C807.631 52.544 808.287 51.232 808.799 49.952L817.199 54.224C816.335 56.304 815.199 58.256 813.791 60.08C812.415 61.872 810.783 63.44 808.895 64.784C807.039 66.128 804.943 67.184 802.607 67.952C800.271 68.688 797.727 69.056 794.975 69.056ZM834.997 68V0.799995H876.997V8.096H844.501V31.328H873.156V38.624H844.501V60.704H876.997V68H834.997ZM893.546 68V0.799995H903.098V60.704H929.114V68H893.546ZM965.354 69.056C962.602 69.056 959.898 68.656 957.242 67.856C954.618 67.024 952.154 65.744 949.85 64.016C947.578 62.288 945.578 60.064 943.85 57.344C942.122 54.624 940.762 51.392 939.77 47.648C938.81 43.872 938.33 39.52 938.33 34.592C938.33 29.696 938.81 25.376 939.77 21.632C940.762 17.856 942.122 14.624 943.85 11.936C945.578 9.216 947.578 6.992 949.85 5.264C952.154 3.536 954.618 2.272 957.242 1.472C959.898 0.639997 962.602 0.223997 965.354 0.223997C968.106 0.223997 970.794 0.639997 973.418 1.472C976.042 2.272 978.49 3.536 980.762 5.264C983.066 6.992 985.066 9.216 986.762 11.936C988.49 14.624 989.85 17.856 990.842 21.632C991.834 25.376 992.33 29.696 992.33 34.592C992.33 39.52 991.834 43.872 990.842 47.648C989.85 51.392 988.49 54.624 986.762 57.344C985.066 60.064 983.066 62.288 980.762 64.016C978.49 65.744 976.042 67.024 973.418 67.856C970.794 68.656 968.106 69.056 965.354 69.056ZM965.354 61.616C967.53 61.616 969.642 61.104 971.69 60.08C973.738 59.056 975.578 57.456 977.21 55.28C978.874 53.104 980.186 50.32 981.146 46.928C982.138 43.504 982.634 39.392 982.634 34.592C982.634 29.824 982.138 25.744 981.146 22.352C980.186 18.928 978.874 16.144 977.21 14C975.578 11.824 973.738 10.224 971.69 9.2C969.642 8.176 967.53 7.664 965.354 7.664C963.178 7.664 961.05 8.176 958.97 9.2C956.922 10.224 955.066 11.824 953.402 14C951.77 16.144 950.458 18.928 949.466 22.352C948.506 25.744 948.026 29.824 948.026 34.592C948.026 39.392 948.506 43.504 949.466 46.928C950.458 50.32 951.77 53.104 953.402 55.28C955.066 57.456 956.922 59.056 958.97 60.08C961.05 61.104 963.178 61.616 965.354 61.616ZM1004.13 68V0.799995H1018.14L1043.34 59.648H1041.76V0.799995H1051.26V68H1038.98L1013.2 9.344H1013.63V68H1004.13ZM1116.01 68H1106.17L1101.85 51.008H1079L1074.68 68H1064.84L1082.5 0.799995H1098.34L1116.01 68ZM1089.8 8.096L1080.53 43.712H1100.31L1091.05 8.096H1089.8Z" fill="white"/>
</g>
<path d="M0.296 68H-0.704V69H0.296V68ZM0.296 0.799995V-0.200005H-0.704V0.799995H0.296ZM9.848 0.799995H10.848V-0.200005H9.848V0.799995ZM9.848 60.704H8.848V61.704H9.848V60.704ZM35.864 60.704H36.864V59.704H35.864V60.704ZM35.864 68V69H36.864V68H35.864ZM1.296 68V0.799995H-0.704V68H1.296ZM0.296 1.8H9.848V-0.200005H0.296V1.8ZM8.848 0.799995V60.704H10.848V0.799995H8.848ZM9.848 61.704H35.864V59.704H9.848V61.704ZM34.864 60.704V68H36.864V60.704H34.864ZM35.864 67H0.296V69H35.864V67ZM53.528 68H52.528V69H53.528V68ZM53.528 60.704V59.704H52.528V60.704H53.528ZM67.4 60.704V61.704H68.4V60.704H67.4ZM67.4 8.096H68.4V7.096H67.4V8.096ZM53.528 8.096H52.528V9.096H53.528V8.096ZM53.528 0.799995V-0.200005H52.528V0.799995H53.528ZM90.872 0.799995H91.872V-0.200005H90.872V0.799995ZM90.872 8.096V9.096H91.872V8.096H90.872ZM76.904 8.096V7.096H75.904V8.096H76.904ZM76.904 60.704H75.904V61.704H76.904V60.704ZM90.872 60.704H91.872V59.704H90.872V60.704ZM90.872 68V69H91.872V68H90.872ZM54.528 68V60.704H52.528V68H54.528ZM53.528 61.704H67.4V59.704H53.528V61.704ZM68.4 60.704V8.096H66.4V60.704H68.4ZM67.4 7.096H53.528V9.096H67.4V7.096ZM54.528 8.096V0.799995H52.528V8.096H54.528ZM53.528 1.8H90.872V-0.200005H53.528V1.8ZM89.872 0.799995V8.096H91.872V0.799995H89.872ZM90.872 7.096H76.904V9.096H90.872V7.096ZM75.904 8.096V60.704H77.904V8.096H75.904ZM76.904 61.704H90.872V59.704H76.904V61.704ZM89.872 60.704V68H91.872V60.704H89.872ZM90.872 67H53.528V69H90.872V67ZM126.142 68L125.173 68.2503L125.367 69H126.142V68ZM108.766 0.799995V-0.200005H107.474L107.797 1.05033L108.766 0.799995ZM118.558 0.799995L119.527 0.555267L119.336 -0.200005H118.558V0.799995ZM133.678 60.704L132.708 60.9487L132.899 61.704H133.678V60.704ZM134.062 60.704V61.704H134.841L135.031 60.948L134.062 60.704ZM149.134 0.799995V-0.200005H148.354L148.164 0.555997L149.134 0.799995ZM158.974 0.799995L159.942 1.05033L160.265 -0.200005H158.974V0.799995ZM141.598 68V69H142.372L142.566 68.2503L141.598 68ZM127.11 67.7497L109.734 0.549657L107.797 1.05033L125.173 68.2503L127.11 67.7497ZM108.766 1.8H118.558V-0.200005H108.766V1.8ZM117.588 1.04472L132.708 60.9487L134.647 60.4593L119.527 0.555267L117.588 1.04472ZM133.678 61.704H134.062V59.704H133.678V61.704ZM135.031 60.948L150.103 1.04399L148.164 0.555997L133.092 60.46L135.031 60.948ZM149.134 1.8H158.974V-0.200005H149.134V1.8ZM158.005 0.549657L140.629 67.7497L142.566 68.2503L159.942 1.05033L158.005 0.549657ZM141.598 67H126.142V69H141.598V67ZM178.403 68H177.403V69H178.403V68ZM178.403 60.704V59.704H177.403V60.704H178.403ZM192.275 60.704V61.704H193.275V60.704H192.275ZM192.275 8.096H193.275V7.096H192.275V8.096ZM178.403 8.096H177.403V9.096H178.403V8.096ZM178.403 0.799995V-0.200005H177.403V0.799995H178.403ZM215.747 0.799995H216.747V-0.200005H215.747V0.799995ZM215.747 8.096V9.096H216.747V8.096H215.747ZM201.779 8.096V7.096H200.779V8.096H201.779ZM201.779 60.704H200.779V61.704H201.779V60.704ZM215.747 60.704H216.747V59.704H215.747V60.704ZM215.747 68V69H216.747V68H215.747ZM179.403 68V60.704H177.403V68H179.403ZM178.403 61.704H192.275V59.704H178.403V61.704ZM193.275 60.704V8.096H191.275V60.704H193.275ZM192.275 7.096H178.403V9.096H192.275V7.096ZM179.403 8.096V0.799995H177.403V8.096H179.403ZM178.403 1.8H215.747V-0.200005H178.403V1.8ZM214.747 0.799995V8.096H216.747V0.799995H214.747ZM215.747 7.096H201.779V9.096H215.747V7.096ZM200.779 8.096V60.704H202.779V8.096H200.779ZM201.779 61.704H215.747V59.704H201.779V61.704ZM214.747 60.704V68H216.747V60.704H214.747ZM215.747 67H178.403V69H215.747V67ZM235.753 68H234.753V69H235.753V68ZM235.753 0.799995V-0.200005H234.753V0.799995H235.753ZM249.769 0.799995L250.688 0.406348L250.428 -0.200005H249.769V0.799995ZM274.969 59.648V60.648H276.485L275.888 59.2544L274.969 59.648ZM273.385 59.648H272.385V60.648H273.385V59.648ZM273.385 0.799995V-0.200005H272.385V0.799995H273.385ZM282.889 0.799995H283.889V-0.200005H282.889V0.799995ZM282.889 68V69H283.889V68H282.889ZM270.601 68L269.685 68.4023L269.948 69H270.601V68ZM244.825 9.344V8.344H243.293L243.909 9.74631L244.825 9.344ZM245.257 9.344H246.257V8.344H245.257V9.344ZM245.257 68V69H246.257V68H245.257ZM236.753 68V0.799995H234.753V68H236.753ZM235.753 1.8H249.769V-0.200005H235.753V1.8ZM248.849 1.19364L274.049 60.0416L275.888 59.2544L250.688 0.406348L248.849 1.19364ZM274.969 58.648H273.385V60.648H274.969V58.648ZM274.385 59.648V0.799995H272.385V59.648H274.385ZM273.385 1.8H282.889V-0.200005H273.385V1.8ZM281.889 0.799995V68H283.889V0.799995H281.889ZM282.889 67H270.601V69H282.889V67ZM271.516 67.5977L245.74 8.94169L243.909 9.74631L269.685 68.4023L271.516 67.5977ZM244.825 10.344H245.257V8.344H244.825V10.344ZM244.257 9.344V68H246.257V9.344H244.257ZM245.257 67H235.753V69H245.257V67ZM316.286 67.952L316.013 68.914L316.013 68.914L316.286 67.952ZM308.846 64.4L308.279 65.2234L308.279 65.2234L308.846 64.4ZM302.462 57.968L301.644 58.5428L301.647 58.5474L302.462 57.968ZM297.998 48.176L297.036 48.4486L297.998 48.176ZM297.95 21.2L296.988 20.9274L296.986 20.9328L297.95 21.2ZM302.318 11.456L301.495 10.8878L301.494 10.8899L302.318 11.456ZM308.606 4.976L309.179 5.79576L309.181 5.79419L308.606 4.976ZM316.046 1.376L316.319 2.338L316.327 2.33574L316.046 1.376ZM332.03 1.328L331.747 2.28717L331.75 2.28813L332.03 1.328ZM338.702 4.4L338.138 5.22564L338.146 5.23102L338.154 5.23624L338.702 4.4ZM343.55 8.96L342.741 9.54819L342.746 9.55523L343.55 8.96ZM346.238 14.576L346.622 15.4992L347.42 15.1672L347.207 14.3298L346.238 14.576ZM337.358 18.272L336.384 18.4985L336.652 19.6492L337.742 19.1952L337.358 18.272ZM335.774 14.336L334.907 14.8345L334.913 14.844L335.774 14.336ZM332.942 10.928L332.289 11.6858L332.289 11.6858L332.942 10.928ZM328.862 8.576L328.494 9.5058L328.506 9.51038L328.517 9.51467L328.862 8.576ZM318.494 8.62399L318.141 7.68839L318.141 7.68839L318.494 8.62399ZM313.694 11.648L314.36 12.3937L314.369 12.3858L313.694 11.648ZM309.662 16.832L308.79 16.343L308.784 16.3531L309.662 16.832ZM306.926 24.416L305.951 24.1934L305.949 24.2036L306.926 24.416ZM307.55 47.024L308.506 46.7293L308.506 46.7293L307.55 47.024ZM311.726 55.424L310.943 56.0459L310.948 56.0522L310.953 56.0585L311.726 55.424ZM317.582 60.128L317.162 61.0356L317.162 61.0356L317.582 60.128ZM334.67 56.72L333.893 56.09L333.892 56.0917L334.67 56.72ZM337.838 50.288L336.878 50.0071L336.876 50.0148L337.838 50.288ZM338.99 40.88H339.99V39.88H338.99V40.88ZM323.342 40.88H322.342V41.88H323.342V40.88ZM323.342 33.44V32.44H322.342V33.44H323.342ZM348.11 33.44H349.11V32.44H348.11V33.44ZM346.814 50.288L347.782 50.5393L347.782 50.537L346.814 50.288ZM343.214 58.832L342.375 58.2878L342.375 58.2878L343.214 58.832ZM337.838 64.688L338.43 65.494L338.438 65.488L337.838 64.688ZM331.214 68L330.929 67.0415L330.925 67.0425L331.214 68ZM323.918 68.056C321.521 68.056 319.069 67.7028 316.559 66.99L316.013 68.914C318.687 69.6732 321.323 70.056 323.918 70.056V68.056ZM316.559 66.99C314.079 66.2858 311.698 65.1508 309.413 63.5766L308.279 65.2234C310.73 66.9132 313.309 68.1462 316.013 68.914L316.559 66.99ZM309.413 63.5766C307.154 62.0191 305.106 59.962 303.277 57.3886L301.647 58.5474C303.594 61.286 305.802 63.5169 308.279 65.2234L309.413 63.5766ZM303.28 57.3932C301.469 54.8145 300.024 51.6578 298.96 47.9034L297.036 48.4486C298.148 52.3742 299.679 55.7455 301.644 58.5428L303.28 57.3932ZM298.96 47.9034C297.904 44.1744 297.366 39.7423 297.366 34.592H295.366C295.366 39.8736 295.916 44.4976 297.036 48.4486L298.96 47.9034ZM297.366 34.592C297.366 29.5372 297.888 25.1669 298.914 21.4672L296.986 20.9328C295.9 24.8491 295.366 29.4068 295.366 34.592H297.366ZM298.912 21.4726C299.977 17.7133 301.393 14.5699 303.142 12.0221L301.494 10.8899C299.595 13.654 298.099 17.0067 296.988 20.9274L298.912 21.4726ZM303.141 12.0242C304.939 9.42012 306.954 7.35027 309.179 5.79576L308.033 4.15624C305.586 5.86572 303.409 8.11587 301.495 10.8878L303.141 12.0242ZM309.181 5.79419C311.464 4.18992 313.843 3.04112 316.319 2.33797L315.773 0.414029C313.065 1.18288 310.484 2.43408 308.031 4.1578L309.181 5.79419ZM316.327 2.33574C318.866 1.59263 321.363 1.224 323.822 1.224V-0.776003C321.161 -0.776003 318.474 -0.376632 315.765 0.416262L316.327 2.33574ZM323.822 1.224C326.716 1.224 329.355 1.58181 331.747 2.28717L332.313 0.368828C329.713 -0.397814 326.88 -0.776003 323.822 -0.776003V1.224ZM331.75 2.28813C334.19 2.99846 336.316 3.98052 338.138 5.22564L339.266 3.57435C337.248 2.19548 334.926 1.12953 332.31 0.367861L331.75 2.28813ZM338.154 5.23624C340.012 6.45481 341.537 7.89281 342.741 9.54817L344.359 8.37183C343.003 6.50718 341.296 4.90519 339.25 3.56375L338.154 5.23624ZM342.746 9.55523C343.952 11.1824 344.79 12.9365 345.269 14.8222L347.207 14.3298C346.662 12.1835 345.708 10.1936 344.354 8.36477L342.746 9.55523ZM345.854 13.6528L336.974 17.3488L337.742 19.1952L346.622 15.4992L345.854 13.6528ZM338.332 18.0455C337.988 16.568 337.422 15.1613 336.635 13.828L334.913 14.844C335.598 16.0067 336.088 17.224 336.384 18.4985L338.332 18.0455ZM336.641 13.8375C335.847 12.4567 334.83 11.2337 333.595 10.1702L332.289 11.6858C333.358 12.6063 334.229 13.6553 334.907 14.8345L336.641 13.8375ZM333.595 10.1702C332.343 9.09259 330.876 8.2506 329.207 7.63733L328.517 9.51467C329.984 10.0534 331.237 10.7794 332.289 11.6858L333.595 10.1702ZM329.23 7.64619C327.558 6.98421 325.686 6.664 323.63 6.664V8.664C325.478 8.664 327.094 8.95178 328.494 9.5058L329.23 7.64619ZM323.63 6.664C321.776 6.664 319.944 7.00793 318.141 7.68839L318.847 9.5596C320.436 8.96006 322.028 8.664 323.63 8.664V6.664ZM318.141 7.68839C316.312 8.37852 314.605 9.45904 313.019 10.9102L314.369 12.3858C315.791 11.085 317.284 10.1495 318.847 9.5596L318.141 7.68839ZM313.028 10.9023C311.427 12.333 310.017 14.1534 308.79 16.343L310.534 17.321C311.675 15.2866 312.953 13.651 314.36 12.3937L313.028 10.9023ZM308.784 16.3531C307.579 18.5632 306.639 21.1817 305.951 24.1935L307.901 24.6385C308.557 21.7623 309.441 19.3248 310.54 17.3108L308.784 16.3531ZM305.949 24.2036C305.29 27.2333 304.966 30.699 304.966 34.592H306.966C306.966 30.805 307.282 27.4867 307.903 24.6284L305.949 24.2036ZM304.966 34.592C304.966 39.5228 305.501 43.772 306.594 47.3187L308.506 46.7293C307.487 43.428 306.966 39.3892 306.966 34.592H304.966ZM306.594 47.3187C307.677 50.8288 309.119 53.7488 310.943 56.0459L312.509 54.8021C310.877 52.7472 309.535 50.0672 308.506 46.7293L306.594 47.3187ZM310.953 56.0585C312.792 58.2988 314.859 59.9702 317.162 61.0356L318.002 59.2204C316.017 58.3018 314.18 56.8372 312.499 54.7895L310.953 56.0585ZM317.162 61.0356C319.424 62.0822 321.711 62.616 324.014 62.616V60.616C322.029 60.616 320.028 60.1578 318.002 59.2204L317.162 61.0356ZM324.014 62.616C326.256 62.616 328.361 62.1906 330.32 61.3318L329.516 59.5002C327.827 60.2414 325.996 60.616 324.014 60.616V62.616ZM330.32 61.3318C332.301 60.4628 334.011 59.1275 335.448 57.3483L333.892 56.0917C332.641 57.6405 331.183 58.7692 329.516 59.5002L330.32 61.3318ZM335.447 57.35C336.925 55.5273 338.035 53.2539 338.8 50.5612L336.876 50.0148C336.169 52.5061 335.167 54.5206 333.893 56.09L335.447 57.35ZM338.798 50.5689C339.6 47.829 339.99 44.5934 339.99 40.88H337.99C337.99 44.4625 337.612 47.499 336.878 50.0071L338.798 50.5689ZM338.99 39.88H323.342V41.88H338.99V39.88ZM324.342 40.88V33.44H322.342V40.88H324.342ZM323.342 34.44H348.11V32.44H323.342V34.44ZM347.11 33.44V38.672H349.11V33.44H347.11ZM347.11 38.672C347.11 42.9929 346.684 46.7784 345.846 50.039L347.782 50.537C348.672 47.0776 349.11 43.1191 349.11 38.672H347.11ZM345.846 50.0367C345.003 53.2827 343.841 56.0271 342.375 58.2878L344.053 59.3762C345.659 56.9009 346.897 53.9493 347.782 50.5393L345.846 50.0367ZM342.375 58.2878C340.896 60.5672 339.183 62.4294 337.238 63.888L338.438 65.488C340.589 63.8746 342.46 61.8328 344.053 59.3762L342.375 58.2878ZM337.246 63.882C335.288 65.3198 333.184 66.3712 330.929 67.0415L331.499 68.9585C333.98 68.2208 336.292 67.0642 338.43 65.494L337.246 63.882ZM330.925 67.0425C328.686 67.7173 326.352 68.056 323.918 68.056V70.056C326.54 70.056 329.07 69.6907 331.503 68.9575L330.925 67.0425ZM413.716 68H412.716V69H413.716V68ZM413.716 60.704V59.704H412.716V60.704H413.716ZM427.588 60.704V61.704H428.588V60.704H427.588ZM427.588 8.096H428.588V7.096H427.588V8.096ZM413.716 8.096H412.716V9.096H413.716V8.096ZM413.716 0.799995V-0.200005H412.716V0.799995H413.716ZM451.06 0.799995H452.06V-0.200005H451.06V0.799995ZM451.06 8.096V9.096H452.06V8.096H451.06ZM437.092 8.096V7.096H436.092V8.096H437.092ZM437.092 60.704H436.092V61.704H437.092V60.704ZM451.06 60.704H452.06V59.704H451.06V60.704ZM451.06 68V69H452.06V68H451.06ZM414.716 68V60.704H412.716V68H414.716ZM413.716 61.704H427.588V59.704H413.716V61.704ZM428.588 60.704V8.096H426.588V60.704H428.588ZM427.588 7.096H413.716V9.096H427.588V7.096ZM414.716 8.096V0.799995H412.716V8.096H414.716ZM413.716 1.8H451.06V-0.200005H413.716V1.8ZM450.06 0.799995V8.096H452.06V0.799995H450.06ZM451.06 7.096H437.092V9.096H451.06V7.096ZM436.092 8.096V60.704H438.092V8.096H436.092ZM437.092 61.704H451.06V59.704H437.092V61.704ZM450.06 60.704V68H452.06V60.704H450.06ZM451.06 67H413.716V69H451.06V67ZM471.065 68H470.065V69H471.065V68ZM471.065 0.799995V-0.200005H470.065V0.799995H471.065ZM485.081 0.799995L486 0.406348L485.741 -0.200005H485.081V0.799995ZM510.281 59.648V60.648H511.797L511.2 59.2544L510.281 59.648ZM508.697 59.648H507.697V60.648H508.697V59.648ZM508.697 0.799995V-0.200005H507.697V0.799995H508.697ZM518.201 0.799995H519.201V-0.200005H518.201V0.799995ZM518.201 68V69H519.201V68H518.201ZM505.913 68L504.997 68.4023L505.26 69H505.913V68ZM480.137 9.344V8.344H478.605L479.221 9.74631L480.137 9.344ZM480.569 9.344H481.569V8.344H480.569V9.344ZM480.569 68V69H481.569V68H480.569ZM472.065 68V0.799995H470.065V68H472.065ZM471.065 1.8H485.081V-0.200005H471.065V1.8ZM484.162 1.19364L509.362 60.0416L511.2 59.2544L486 0.406348L484.162 1.19364ZM510.281 58.648H508.697V60.648H510.281V58.648ZM509.697 59.648V0.799995H507.697V59.648H509.697ZM508.697 1.8H518.201V-0.200005H508.697V1.8ZM517.201 0.799995V68H519.201V0.799995H517.201ZM518.201 67H505.913V69H518.201V67ZM506.829 67.5977L481.053 8.94169L479.221 9.74631L504.997 68.4023L506.829 67.5977ZM480.137 10.344H480.569V8.344H480.137V10.344ZM479.569 9.344V68H481.569V9.344H479.569ZM480.569 67H471.065V69H480.569V67ZM584.719 68H583.719V69H584.719V68ZM584.719 0.799995V-0.200005H583.719V0.799995H584.719ZM611.887 1.184L611.745 2.17395L611.755 2.17534L611.765 2.17654L611.887 1.184ZM617.167 2.528L616.798 3.45768L616.809 3.46183L616.819 3.46574L617.167 2.528ZM621.823 5.31199L621.16 6.06137L621.169 6.06882L621.823 5.31199ZM625.183 10.064L624.263 10.4561L624.265 10.4616L625.183 10.064ZM624.655 25.424L625.536 25.8966L625.539 25.8913L624.655 25.424ZM620.431 30.56L619.833 29.7581L619.825 29.7638L620.431 30.56ZM616.063 32.768L615.871 31.7865L615.958 33.7625L616.063 32.768ZM620.095 33.968L619.679 34.8777L619.691 34.8831L619.703 34.8882L620.095 33.968ZM624.463 36.896L623.781 37.6277L623.79 37.6359L624.463 36.896ZM627.919 41.84L627.005 42.2461L627.009 42.2549L627.013 42.2637L627.919 41.84ZM627.007 59.408L626.126 58.9333L626.124 58.9369L627.007 59.408ZM620.575 65.84L621.034 66.7283L621.042 66.724L620.575 65.84ZM594.223 60.704H593.223V61.704H594.223V60.704ZM613.855 59.456L614.276 60.363L614.283 60.3597L613.855 59.456ZM618.127 55.472L617.265 54.9643L617.258 54.9759L618.127 55.472ZM617.839 41.504L618.639 40.904L618.639 40.904L617.839 41.504ZM613.183 38L612.842 38.9403L612.842 38.9403L613.183 38ZM594.223 36.992V35.992H593.223V36.992H594.223ZM594.223 29.696H593.223V30.696H594.223V29.696ZM611.311 28.448L611.758 29.3424L611.764 29.339L611.311 28.448ZM615.391 24.656L614.546 24.1201L614.539 24.1319L615.391 24.656ZM616.159 13.328L615.232 13.7032L615.235 13.711L616.159 13.328ZM613.807 10.16L613.194 10.9507L613.2 10.9554L613.207 10.96L613.807 10.16ZM610.207 8.576L609.985 9.55113L609.995 9.55354L610.006 9.55571L610.207 8.576ZM594.223 8.096V7.096H593.223V8.096H594.223ZM585.719 68V0.799995H583.719V68H585.719ZM584.719 1.8H606.799V-0.200005H584.719V1.8ZM606.799 1.8C608.346 1.8 609.994 1.92378 611.745 2.17395L612.028 0.194047C610.195 -0.0677921 608.451 -0.200005 606.799 -0.200005V1.8ZM611.765 2.17654C613.505 2.39024 615.182 2.81727 616.798 3.45768L617.535 1.59831C615.759 0.894721 613.916 0.425752 612.008 0.191453L611.765 2.17654ZM616.819 3.46574C618.432 4.06305 619.877 4.92731 621.16 6.06132L622.485 4.56267C621.016 3.26468 619.357 2.27294 617.514 1.59025L616.819 3.46574ZM621.169 6.06882C622.446 7.17197 623.482 8.6246 624.263 10.4561L626.102 9.6719C625.219 7.5994 624.015 5.88402 622.476 4.55517L621.169 6.06882ZM624.265 10.4616C625.027 12.2195 625.431 14.4583 625.431 17.216H627.431C627.431 14.2777 627.002 11.7485 626.1 9.66639L624.265 10.4616ZM625.431 17.216C625.431 20.3289 624.86 22.895 623.77 24.9567L625.539 25.8913C626.817 23.473 627.431 20.5671 627.431 17.216H625.431ZM623.773 24.9514C622.643 27.0594 621.323 28.6476 619.833 29.7581L621.028 31.3619C622.802 30.0404 624.298 28.2046 625.536 25.8966L623.773 24.9514ZM619.825 29.7638C618.291 30.9298 616.976 31.5708 615.871 31.7865L616.254 33.7495C617.773 33.4532 619.37 32.6222 621.036 31.3562L619.825 29.7638ZM615.958 33.7625C617.038 33.8762 618.276 34.2369 619.679 34.8777L620.51 33.0583C618.969 32.3551 617.519 31.9158 616.167 31.7735L615.958 33.7625ZM619.703 34.8882C621.083 35.4754 622.443 36.3811 623.781 37.6276L625.144 36.1644C623.666 34.7869 622.114 33.7406 620.486 33.0478L619.703 34.8882ZM623.79 37.6359C625.08 38.8089 626.156 40.3369 627.005 42.2461L628.832 41.4339C627.889 39.3111 626.661 37.5431 625.135 36.1561L623.79 37.6359ZM627.013 42.2637C627.863 44.0815 628.311 46.3442 628.311 49.088H630.311C630.311 46.1358 629.83 43.5665 628.824 41.4163L627.013 42.2637ZM628.311 49.088C628.311 52.9944 627.567 56.2628 626.126 58.9333L627.887 59.8827C629.518 56.8572 630.311 53.2456 630.311 49.088H628.311ZM626.124 58.9369C624.713 61.5796 622.712 63.5785 620.107 64.956L621.042 66.724C624.005 65.1575 626.292 62.8684 627.889 59.8791L626.124 58.9369ZM620.115 64.9518C617.5 66.3042 614.369 67 610.687 67V69C614.62 69 618.081 68.2558 621.034 66.7282L620.115 64.9518ZM610.687 67H584.719V69H610.687V67ZM594.223 61.704H607.711V59.704H594.223V61.704ZM607.711 61.704C610.136 61.704 612.332 61.2656 614.276 60.363L613.433 58.549C611.793 59.3104 609.893 59.704 607.711 59.704V61.704ZM614.283 60.3597C616.296 59.406 617.872 57.9336 618.995 55.9681L617.258 54.9759C616.333 56.5944 615.061 57.778 613.426 58.5523L614.283 60.3597ZM618.988 55.9797C620.162 53.9872 620.711 51.4753 620.711 48.512H618.711C618.711 51.2447 618.203 53.3728 617.265 54.9643L618.988 55.9797ZM620.711 48.512C620.711 45.3807 620.063 42.8031 618.639 40.904L617.039 42.104C618.11 43.5329 618.711 45.6273 618.711 48.512H620.711ZM618.639 40.904C617.28 39.0931 615.572 37.8017 613.523 37.0597L612.842 38.9403C614.505 39.5423 615.901 40.5869 617.039 42.104L618.639 40.904ZM613.523 37.0597C611.567 36.3515 609.612 35.992 607.663 35.992V37.992C609.361 37.992 611.086 38.3045 612.842 38.9403L613.523 37.0597ZM607.663 35.992H594.223V37.992H607.663V35.992ZM593.223 36.992V60.704H595.223V36.992H593.223ZM594.223 30.696H605.935V28.696H594.223V30.696ZM605.935 30.696C608.005 30.696 609.95 30.2461 611.758 29.3424L610.863 27.5536C609.343 28.3139 607.704 28.696 605.935 28.696V30.696ZM611.764 29.339C613.629 28.3893 615.125 26.9963 616.242 25.1801L614.539 24.1319C613.608 25.6437 612.384 26.7787 610.857 27.557L611.764 29.339ZM616.235 25.1918C617.415 23.3318 617.975 21.0704 617.975 18.464H615.975C615.975 20.7856 615.478 22.6521 614.546 24.1202L616.235 25.1918ZM617.975 18.464C617.975 16.2787 617.695 14.4225 617.082 12.945L615.235 13.711C615.71 14.8575 615.975 16.4253 615.975 18.464H617.975ZM617.085 12.9528C616.482 11.463 615.595 10.2511 614.407 9.36L613.207 10.96C614.066 11.6049 614.747 12.505 615.232 13.7032L617.085 12.9528ZM614.419 9.36927C613.289 8.49483 611.943 7.91047 610.407 7.59628L610.006 9.55571C611.286 9.81752 612.34 10.2892 613.194 10.9507L614.419 9.36927ZM610.428 7.60087C608.935 7.26149 607.291 7.096 605.503 7.096V9.096C607.17 9.096 608.662 9.25051 609.985 9.55113L610.428 7.60087ZM605.503 7.096H594.223V9.096H605.503V7.096ZM593.223 8.096V29.696H595.223V8.096H593.223ZM693.38 68V69H694.677L694.347 67.7458L693.38 68ZM683.54 68L682.571 68.2464L682.762 69H683.54V68ZM679.22 51.008L680.189 50.7616L679.998 50.008H679.22V51.008ZM656.372 51.008V50.008H655.594L655.403 50.7616L656.372 51.008ZM652.052 68V69H652.83L653.021 68.2464L652.052 68ZM642.212 68L641.245 67.7458L640.915 69H642.212V68ZM659.876 0.799995V-0.200005H659.105L658.909 0.545774L659.876 0.799995ZM675.716 0.799995L676.683 0.545774L676.487 -0.200005H675.716V0.799995ZM667.172 8.096V7.096H666.399L666.204 7.84427L667.172 8.096ZM657.908 43.712L656.94 43.4603L656.615 44.712H657.908V43.712ZM677.684 43.712V44.712H678.977L678.652 43.4603L677.684 43.712ZM668.42 8.096L669.388 7.84427L669.193 7.096H668.42V8.096ZM693.38 67H683.54V69H693.38V67ZM684.509 67.7536L680.189 50.7616L678.251 51.2544L682.571 68.2464L684.509 67.7536ZM679.22 50.008H656.372V52.008H679.22V50.008ZM655.403 50.7616L651.083 67.7536L653.021 68.2464L657.341 51.2544L655.403 50.7616ZM652.052 67H642.212V69H652.052V67ZM643.179 68.2542L660.843 1.05422L658.909 0.545774L641.245 67.7458L643.179 68.2542ZM659.876 1.8H675.716V-0.200005H659.876V1.8ZM674.749 1.05422L692.413 68.2542L694.347 67.7458L676.683 0.545774L674.749 1.05422ZM666.204 7.84427L656.94 43.4603L658.876 43.9637L668.14 8.34773L666.204 7.84427ZM657.908 44.712H677.684V42.712H657.908V44.712ZM678.652 43.4603L669.388 7.84427L667.452 8.34773L676.716 43.9637L678.652 43.4603ZM668.42 7.096H667.172V9.096H668.42V7.096ZM709.594 68H708.594V69H709.594V68ZM709.594 0.799995V-0.200005H708.594V0.799995H709.594ZM738.874 1.328L738.681 2.30925L738.691 2.3112L738.701 2.31295L738.874 1.328ZM744.154 3.008L743.727 3.91243L743.727 3.91243L744.154 3.008ZM748.714 6.272L747.998 6.97079L748.006 6.97911L748.714 6.272ZM751.882 26.864L750.952 26.495L750.949 26.5022L751.882 26.864ZM748.521 32.288L749.237 32.9872L749.244 32.9792L748.521 32.288ZM743.818 35.744L744.258 36.6418L744.265 36.6384L743.818 35.744ZM738.586 37.568L738.782 38.5487L738.795 38.5458L738.586 37.568ZM719.098 38.096V37.096H718.098V38.096H719.098ZM719.098 68V69H720.098V68H719.098ZM744.25 68L743.32 68.3683L743.57 69H744.25V68ZM731.338 35.408L731.231 34.4137L729.923 34.5538L730.408 35.7763L731.338 35.408ZM740.746 34.4L741.672 34.024L741.389 33.3254L740.639 33.4057L740.746 34.4ZM754.378 68V69H755.862L755.304 67.624L754.378 68ZM719.098 30.992H718.098V31.992H719.098V30.992ZM737.722 29.84L737.328 28.9208L737.322 28.9235L737.722 29.84ZM742.042 26.144L742.883 26.684L742.888 26.6768L742.042 26.144ZM741.946 12.464L741.121 13.0298L741.127 13.0391L741.134 13.0483L741.946 12.464ZM737.53 9.056L737.198 9.9996L737.198 9.9996L737.53 9.056ZM719.098 8.096V7.096H718.098V8.096H719.098ZM710.594 68V0.799995H708.594V68H710.594ZM709.594 1.8H733.642V-0.200005H709.594V1.8ZM733.642 1.8C735.268 1.8 736.947 1.96877 738.681 2.30925L739.066 0.346749C737.216 -0.0167781 735.407 -0.200005 733.642 -0.200005V1.8ZM738.701 2.31295C740.436 2.61735 742.11 3.14998 743.727 3.91243L744.58 2.10356C742.805 1.26601 740.959 0.678642 739.046 0.34304L738.701 2.31295ZM743.727 3.91243C745.312 4.66029 746.735 5.67772 747.998 6.97074L749.429 5.57326C748.004 4.11427 746.387 2.9557 744.58 2.10356L743.727 3.91243ZM748.006 6.97911C749.267 8.24013 750.285 9.85755 751.042 11.8582L752.913 11.1498C752.07 8.92644 750.912 7.05587 749.421 5.56489L748.006 6.97911ZM751.042 11.8582C751.789 13.8285 752.177 16.2302 752.177 19.088H754.177C754.177 16.0578 753.766 13.4035 752.913 11.1498L751.042 11.8582ZM752.177 19.088C752.177 22.004 751.758 24.4646 750.952 26.495L752.811 27.233C753.733 24.9114 754.177 22.188 754.177 19.088H752.177ZM750.949 26.5022C750.159 28.5395 749.105 30.2312 747.799 31.5968L749.244 32.9792C750.754 31.4008 751.94 29.4765 752.814 27.2258L750.949 26.5022ZM747.806 31.5889C746.473 32.9527 744.995 34.0374 743.37 34.8496L744.265 36.6384C746.096 35.7226 747.754 34.5033 749.237 32.9871L747.806 31.5889ZM743.377 34.8462C741.752 35.6433 740.086 36.2238 738.376 36.5902L738.795 38.5458C740.669 38.1441 742.491 37.5087 744.258 36.6418L743.377 34.8462ZM738.389 36.5874C736.683 36.9286 735.102 37.096 733.642 37.096V39.096C735.253 39.096 736.968 38.9114 738.782 38.5486L738.389 36.5874ZM733.642 37.096H719.098V39.096H733.642V37.096ZM718.098 38.096V68H720.098V38.096H718.098ZM719.098 67H709.594V69H719.098V67ZM745.179 67.6317L732.267 35.0397L730.408 35.7763L743.32 68.3683L745.179 67.6317ZM731.444 36.4023L740.852 35.3943L740.639 33.4057L731.231 34.4137L731.444 36.4023ZM739.819 34.7759L753.451 68.376L755.304 67.624L741.672 34.024L739.819 34.7759ZM754.378 67H744.25V69H754.378V67ZM719.098 31.992H731.962V29.992H719.098V31.992ZM731.962 31.992C734.168 31.992 736.225 31.584 738.121 30.7565L737.322 28.9235C735.698 29.632 733.915 29.992 731.962 29.992V31.992ZM738.115 30.7591C740.098 29.9096 741.691 28.5423 742.883 26.684L741.2 25.604C740.216 27.1377 738.929 28.2344 737.328 28.9209L738.115 30.7591ZM742.888 26.6768C744.107 24.7396 744.674 22.2637 744.674 19.328H742.674C742.674 22.0243 742.152 24.0924 741.195 25.6112L742.888 26.6768ZM744.674 19.328C744.674 16.2431 744.08 13.7166 742.757 11.8797L741.134 13.0483C742.115 14.4114 742.674 16.4609 742.674 19.328H744.674ZM742.77 11.8982C741.533 10.0955 739.89 8.82451 737.861 8.1124L737.198 9.9996C738.817 10.5675 740.118 11.5685 741.121 13.0298L742.77 11.8982ZM737.861 8.1124C735.924 7.4329 733.876 7.096 731.722 7.096V9.096C733.663 9.096 735.487 9.3991 737.198 9.9996L737.861 8.1124ZM731.722 7.096H719.098V9.096H731.722V7.096ZM718.098 8.096V30.992H720.098V8.096H718.098ZM786.815 67.904L786.527 68.8615L786.533 68.8636L786.54 68.8655L786.815 67.904ZM779.279 64.16L779.861 63.347L779.861 63.347L779.279 64.16ZM772.991 57.584L772.16 58.141L772.164 58.1455L772.991 57.584ZM768.719 47.84L767.753 48.0997L767.754 48.1017L768.719 47.84ZM768.767 21.392L769.73 21.6613L769.731 21.6592L768.767 21.392ZM779.375 5.12L779.95 5.93819L779.952 5.93666L779.375 5.12ZM787.007 1.424L787.282 2.38555L787.289 2.38336L787.007 1.424ZM802.655 1.376L802.335 2.32334L802.343 2.32603L802.351 2.32858L802.655 1.376ZM808.895 4.544L808.299 5.34731L808.307 5.35306L808.315 5.35866L808.895 4.544ZM813.791 9.344L812.988 9.93958L812.993 9.94624L813.791 9.344ZM817.199 15.392L817.644 16.2874L818.474 15.8748L818.126 15.016L817.199 15.392ZM808.799 19.568L807.862 19.9167L808.249 20.9581L809.244 20.4634L808.799 19.568ZM806.879 15.44L806.001 15.9189L806.006 15.9274L806.879 15.44ZM804.047 11.6L803.311 12.2766L803.32 12.287L803.33 12.2971L804.047 11.6ZM800.207 8.768L799.76 9.66242L799.768 9.66635L799.776 9.67013L800.207 8.768ZM788.543 9.2L788.117 8.29517L788.112 8.29764L788.543 9.2ZM782.687 14L781.909 13.3711L781.908 13.3725L782.687 14ZM778.511 22.304L777.556 22.0067L777.554 22.015L778.511 22.304ZM782.639 55.328L781.856 55.9499L781.86 55.9555L782.639 55.328ZM788.447 60.08L788.016 60.9824L788.016 60.9824L788.447 60.08ZM800.015 60.512L799.575 59.6138L799.568 59.6176L800.015 60.512ZM803.951 57.68L804.668 58.3771L804.677 58.3672L803.951 57.68ZM806.831 53.888L805.972 53.3765L805.972 53.3765L806.831 53.888ZM808.799 49.952L809.252 49.0606L808.277 48.5646L807.871 49.5806L808.799 49.952ZM817.199 54.224L818.123 54.6076L818.478 53.7524L817.652 53.3326L817.199 54.224ZM813.791 60.08L812.999 59.4689L812.998 59.471L813.791 60.08ZM808.895 64.784L808.315 63.9693L808.308 63.9741L808.895 64.784ZM802.607 67.952L802.908 68.9059L802.919 68.902L802.607 67.952ZM794.975 68.056C792.317 68.056 789.69 67.6854 787.09 66.9425L786.54 68.8655C789.316 69.6586 792.129 70.056 794.975 70.056V68.056ZM787.103 66.9465C784.558 66.1797 782.144 64.9822 779.861 63.347L778.697 64.973C781.15 66.7298 783.76 68.0283 786.527 68.8615L787.103 66.9465ZM779.861 63.347C777.6 61.7272 775.584 59.624 773.818 57.0225L772.164 58.1455C774.046 60.92 776.222 63.2008 778.697 64.973L779.861 63.347ZM773.822 57.027C772.069 54.4131 770.685 51.269 769.684 47.5783L767.754 48.1017C768.801 51.963 770.265 55.3149 772.16 58.141L773.822 57.027ZM769.685 47.5803C768.689 43.8764 768.183 39.551 768.183 34.592H766.183C766.183 39.681 766.701 44.1876 767.753 48.0997L769.685 47.5803ZM768.183 34.592C768.183 29.6349 768.704 25.3291 769.73 21.6613L767.804 21.1227C766.718 25.0069 766.183 29.5011 766.183 34.592H768.183ZM769.731 21.6592C770.764 17.9342 772.163 14.7904 773.914 12.2095L772.26 11.0865C770.363 13.8816 768.882 17.2338 767.803 21.1248L769.731 21.6592ZM773.914 12.2095C775.679 9.60946 777.692 7.52462 779.95 5.93819L778.8 4.30181C776.322 6.04337 774.143 8.31054 772.26 11.0865L773.914 12.2095ZM779.952 5.93666C782.265 4.30227 784.707 3.12104 787.282 2.38552L786.732 0.462472C783.931 1.26296 781.285 2.54573 778.798 4.30333L779.952 5.93666ZM787.289 2.38336C789.921 1.60917 792.546 1.224 795.167 1.224V-0.776003C792.348 -0.776003 789.533 -0.361173 786.725 0.46463L787.289 2.38336ZM795.167 1.224C797.793 1.224 800.179 1.59454 802.335 2.32334L802.975 0.428659C800.587 -0.378546 797.981 -0.776003 795.167 -0.776003V1.224ZM802.351 2.32858C804.555 3.03273 806.536 4.03975 808.299 5.34731L809.491 3.74069C807.542 2.29625 805.363 1.19126 802.959 0.423422L802.351 2.32858ZM808.315 5.35866C810.118 6.64199 811.674 8.16812 812.988 9.93956L814.594 8.74844C813.156 6.80787 811.448 5.134 809.475 3.72933L808.315 5.35866ZM812.993 9.94624C814.314 11.6978 815.408 13.6372 816.272 15.768L818.126 15.016C817.198 12.7308 816.02 10.6382 814.589 8.74176L812.993 9.94624ZM816.754 14.4965L808.354 18.6725L809.244 20.4634L817.644 16.2874L816.754 14.4965ZM809.736 19.2193C809.205 17.7922 808.543 16.3699 807.752 14.9526L806.006 15.9274C806.751 17.2621 807.369 18.5918 807.862 19.9167L809.736 19.2193ZM807.757 14.9611C806.945 13.4733 805.947 12.1199 804.764 10.9029L803.33 12.2971C804.387 13.3841 805.277 14.5907 806.001 15.9189L807.757 14.9611ZM804.783 10.9234C803.608 9.64404 802.224 8.62407 800.638 7.86586L799.776 9.67013C801.134 10.3199 802.31 11.188 803.311 12.2766L804.783 10.9234ZM800.654 7.87357C799.024 7.05857 797.187 6.664 795.167 6.664V8.664C796.923 8.664 798.446 9.00542 799.76 9.66242L800.654 7.87357ZM795.167 6.664C792.769 6.664 790.416 7.2132 788.117 8.29518L788.969 10.1048C791.022 9.1388 793.085 8.664 795.167 8.664V6.664ZM788.112 8.29764C785.812 9.39629 783.747 11.0997 781.909 13.3711L783.465 14.6289C785.147 12.5483 786.986 11.0517 788.974 10.1024L788.112 8.29764ZM781.908 13.3725C780.082 15.6384 778.639 18.5278 777.556 22.0068L779.466 22.6012C780.495 19.2962 781.836 16.6496 783.466 14.6275L781.908 13.3725ZM777.554 22.015C776.493 25.5273 775.975 29.7263 775.975 34.592H777.975C777.975 29.8577 778.481 25.8647 779.468 22.593L777.554 22.015ZM775.975 34.592C775.975 39.4581 776.493 43.6719 777.553 47.2145L779.469 46.6415C778.481 43.3361 777.975 39.3259 777.975 34.592H775.975ZM777.553 47.2145C778.603 50.7271 780.03 53.6502 781.856 55.9499L783.422 54.7061C781.792 52.6538 780.467 49.9769 779.469 46.6415L777.553 47.2145ZM781.86 55.9555C783.667 58.1975 785.717 59.8844 788.016 60.9824L788.878 59.1776C786.889 58.2276 785.067 56.7465 783.418 54.7005L781.86 55.9555ZM788.016 60.9824C790.282 62.0646 792.589 62.616 794.927 62.616V60.616C792.913 60.616 790.9 60.1434 788.878 59.1776L788.016 60.9824ZM794.927 62.616C796.976 62.616 798.83 62.2225 800.462 61.4064L799.568 59.6176C798.256 60.2735 796.718 60.616 794.927 60.616V62.616ZM800.455 61.4102C802.058 60.6258 803.464 59.615 804.668 58.3771L803.234 56.9829C802.198 58.049 800.98 58.9262 799.575 59.6138L800.455 61.4102ZM804.677 58.3672C805.846 57.1319 806.851 55.8094 807.69 54.3995L805.972 53.3765C805.211 54.6546 804.296 55.8601 803.225 56.9928L804.677 58.3672ZM807.69 54.3995C808.513 53.0165 809.194 51.6578 809.727 50.3234L807.871 49.5806C807.38 50.8062 806.749 52.0715 805.972 53.3765L807.69 54.3995ZM808.346 50.8433L816.746 55.1154L817.652 53.3326L809.252 49.0606L808.346 50.8433ZM816.276 53.8404C815.446 55.8372 814.355 57.713 812.999 59.4689L814.583 60.6911C816.043 58.799 817.224 56.7708 818.123 54.6076L816.276 53.8404ZM812.998 59.471C811.684 61.1822 810.124 62.6814 808.315 63.9693L809.475 65.5987C811.442 64.1986 813.146 62.5618 814.584 60.689L812.998 59.471ZM808.308 63.9741C806.542 65.2532 804.54 66.2639 802.295 67.002L802.919 68.902C805.346 68.1041 807.536 67.0028 809.482 65.5939L808.308 63.9741ZM802.306 66.9982C800.079 67.7001 797.637 68.056 794.975 68.056V70.056C797.817 70.056 800.463 69.6759 802.908 68.9058L802.306 66.9982ZM834.997 68H833.997V69H834.997V68ZM834.997 0.799995V-0.200005H833.997V0.799995H834.997ZM876.997 0.799995H877.997V-0.200005H876.997V0.799995ZM876.997 8.096V9.096H877.997V8.096H876.997ZM844.501 8.096V7.096H843.501V8.096H844.501ZM844.501 31.328H843.501V32.328H844.501V31.328ZM873.156 31.328H874.156V30.328H873.156V31.328ZM873.156 38.624V39.624H874.156V38.624H873.156ZM844.501 38.624V37.624H843.501V38.624H844.501ZM844.501 60.704H843.501V61.704H844.501V60.704ZM876.997 60.704H877.997V59.704H876.997V60.704ZM876.997 68V69H877.997V68H876.997ZM835.997 68V0.799995H833.997V68H835.997ZM834.997 1.8H876.997V-0.200005H834.997V1.8ZM875.997 0.799995V8.096H877.997V0.799995H875.997ZM876.997 7.096H844.501V9.096H876.997V7.096ZM843.501 8.096V31.328H845.501V8.096H843.501ZM844.501 32.328H873.156V30.328H844.501V32.328ZM872.156 31.328V38.624H874.156V31.328H872.156ZM873.156 37.624H844.501V39.624H873.156V37.624ZM843.501 38.624V60.704H845.501V38.624H843.501ZM844.501 61.704H876.997V59.704H844.501V61.704ZM875.997 60.704V68H877.997V60.704H875.997ZM876.997 67H834.997V69H876.997V67ZM893.546 68H892.546V69H893.546V68ZM893.546 0.799995V-0.200005H892.546V0.799995H893.546ZM903.098 0.799995H904.098V-0.200005H903.098V0.799995ZM903.098 60.704H902.098V61.704H903.098V60.704ZM929.114 60.704H930.114V59.704H929.114V60.704ZM929.114 68V69H930.114V68H929.114ZM894.546 68V0.799995H892.546V68H894.546ZM893.546 1.8H903.098V-0.200005H893.546V1.8ZM902.098 0.799995V60.704H904.098V0.799995H902.098ZM903.098 61.704H929.114V59.704H903.098V61.704ZM928.114 60.704V68H930.114V60.704H928.114ZM929.114 67H893.546V69H929.114V67ZM957.242 67.856L956.94 68.8092L956.947 68.8114L956.954 68.8135L957.242 67.856ZM949.85 64.016L949.245 64.812L949.25 64.816L949.85 64.016ZM943.85 57.344L943.006 57.8802L943.006 57.8802L943.85 57.344ZM939.77 47.648L938.801 47.8944L938.803 47.9041L939.77 47.648ZM939.77 21.632L938.803 21.3779L938.801 21.3836L939.77 21.632ZM943.85 11.936L944.691 12.4768L944.694 12.4722L943.85 11.936ZM949.85 5.264L949.25 4.46398L949.245 4.46805L949.85 5.264ZM957.242 1.472L957.534 2.42856L957.541 2.42627L957.242 1.472ZM973.418 1.472L973.116 2.42529L973.126 2.42853L973.418 1.472ZM980.762 5.264L980.157 6.05996L980.162 6.064L980.762 5.264ZM986.762 11.936L985.913 12.4651L985.921 12.4768L986.762 11.936ZM990.842 21.632L989.875 21.8861L989.875 21.8881L990.842 21.632ZM990.842 47.648L991.809 47.9041L991.809 47.9021L990.842 47.648ZM986.762 57.344L985.918 56.8077L985.913 56.8149L986.762 57.344ZM980.762 64.016L980.162 63.216L980.157 63.2201L980.762 64.016ZM973.418 67.856L973.71 68.8126L973.72 68.8092L973.418 67.856ZM977.21 55.28L976.416 54.6725L976.41 54.68L977.21 55.28ZM981.146 46.928L980.185 46.6497L980.184 46.6557L981.146 46.928ZM981.146 22.352L980.183 22.622L980.186 22.6327L981.146 22.352ZM977.21 14L976.41 14.6L976.415 14.6066L976.42 14.6131L977.21 14ZM971.69 9.2L971.243 10.0944L971.243 10.0944L971.69 9.2ZM958.97 9.2L958.528 8.30281L958.523 8.30557L958.97 9.2ZM953.402 14L952.608 13.3925L952.606 13.3943L953.402 14ZM949.466 22.352L948.505 22.0737L948.504 22.0797L949.466 22.352ZM949.466 46.928L948.503 47.198L948.506 47.2087L949.466 46.928ZM953.402 55.28L952.602 55.88L952.608 55.8874L953.402 55.28ZM958.97 60.08L958.523 60.9744L958.528 60.9772L958.97 60.08ZM965.354 68.056C962.7 68.056 960.094 67.6705 957.53 66.8985L956.954 68.8135C959.702 69.6415 962.504 70.056 965.354 70.056V68.056ZM957.544 66.9028C955.032 66.1063 952.668 64.8797 950.45 63.216L949.25 64.816C951.64 66.6083 954.204 67.9417 956.94 68.8092L957.544 66.9028ZM950.455 63.2201C948.289 61.5724 946.367 59.4405 944.694 56.8078L943.006 57.8802C944.789 60.6875 946.867 63.0036 949.245 64.8119L950.455 63.2201ZM944.694 56.8078C943.031 54.1897 941.708 51.0561 940.737 47.3919L938.803 47.9041C939.816 51.7279 941.213 55.0583 943.006 57.8802L944.694 56.8078ZM940.739 47.4016C939.804 43.7241 939.33 39.4577 939.33 34.592H937.33C937.33 39.5823 937.816 44.0199 938.801 47.8944L940.739 47.4016ZM939.33 34.592C939.33 29.7587 939.804 25.525 940.739 21.8804L938.801 21.3836C937.816 25.227 937.33 29.6333 937.33 34.592H939.33ZM940.737 21.8861C941.708 18.19 943.031 15.0593 944.691 12.4768L943.009 11.3952C941.213 14.1887 939.816 17.522 938.803 21.3779L940.737 21.8861ZM944.694 12.4722C946.367 9.83948 948.289 7.70757 950.455 6.05994L949.245 4.46805C946.867 6.27642 944.789 8.59251 943.006 11.3998L944.694 12.4722ZM950.45 6.064C952.666 4.40218 955.026 3.19299 957.534 2.42853L956.95 0.515466C954.21 1.351 951.642 2.66982 949.25 4.464L950.45 6.064ZM957.541 2.42627C960.101 1.62423 962.705 1.224 965.354 1.224V-0.776003C962.499 -0.776003 959.695 -0.344235 956.943 0.517723L957.541 2.42627ZM965.354 1.224C968.003 1.224 970.589 1.62421 973.116 2.42523L973.72 0.518768C970.999 -0.34422 968.209 -0.776003 965.354 -0.776003V1.224ZM973.126 2.42853C975.633 3.19261 977.975 4.40068 980.157 6.05994L981.367 4.46805C979.005 2.67132 976.451 1.35139 973.71 0.515466L973.126 2.42853ZM980.162 6.064C982.357 7.70992 984.275 9.83817 985.913 12.4651L987.611 11.4069C985.857 8.59383 983.775 6.27408 981.362 4.464L980.162 6.064ZM985.921 12.4768C987.581 15.0593 988.904 18.19 989.875 21.8861L991.809 21.3779C990.796 17.522 989.399 14.1887 987.603 11.3952L985.921 12.4768ZM989.875 21.8881C990.84 25.53 991.33 29.7608 991.33 34.592H993.33C993.33 29.6312 992.828 25.222 991.809 21.3759L989.875 21.8881ZM991.33 34.592C991.33 39.4555 990.84 43.7192 989.875 47.3939L991.809 47.9021C992.828 44.0248 993.33 39.5845 993.33 34.592H991.33ZM989.875 47.3919C988.904 51.0561 987.581 54.1897 985.918 56.8078L987.606 57.8802C989.399 55.0583 990.796 51.7279 991.809 47.9041L989.875 47.3919ZM985.913 56.8149C984.275 59.4418 982.357 61.5701 980.162 63.216L981.362 64.816C983.775 63.0059 985.857 60.6862 987.611 57.8731L985.913 56.8149ZM980.157 63.2201C977.972 64.8812 975.626 66.1067 973.116 66.9028L973.72 68.8092C976.458 67.9413 979.008 66.6068 981.367 64.8119L980.157 63.2201ZM973.126 66.8995C970.597 67.6706 968.007 68.056 965.354 68.056V70.056C968.205 70.056 970.991 69.6414 973.71 68.8125L973.126 66.8995ZM965.354 62.616C967.693 62.616 969.958 62.0641 972.137 60.9744L971.243 59.1856C969.326 60.1439 967.367 60.616 965.354 60.616V62.616ZM972.137 60.9744C974.348 59.8691 976.302 58.157 978.01 55.88L976.41 54.68C974.854 56.755 973.128 58.2429 971.243 59.1856L972.137 60.9744ZM978.004 55.8874C979.763 53.5871 981.123 50.6804 982.108 47.2003L980.184 46.6557C979.249 49.9596 977.985 52.6209 976.416 54.6725L978.004 55.8874ZM982.107 47.2063C983.132 43.6667 983.634 39.4559 983.634 34.592H981.634C981.634 39.3281 981.144 43.3413 980.186 46.6497L982.107 47.2063ZM983.634 34.592C983.634 29.7598 983.132 25.58 982.106 22.0713L980.186 22.6327C981.144 25.908 981.634 29.8882 981.634 34.592H983.634ZM982.109 22.082C981.124 18.5702 979.764 15.6593 978 13.3869L976.42 14.6131C977.984 16.6287 979.248 19.2858 980.183 22.622L982.109 22.082ZM978.01 13.4C976.302 11.123 974.348 9.41088 972.137 8.30557L971.243 10.0944C973.128 11.0371 974.854 12.525 976.41 14.6L978.01 13.4ZM972.137 8.30557C969.958 7.21587 967.693 6.664 965.354 6.664V8.664C967.367 8.664 969.326 9.13612 971.243 10.0944L972.137 8.30557ZM965.354 6.664C963.015 6.664 960.737 7.21571 958.528 8.30283L959.412 10.0972C961.363 9.13628 963.341 8.664 965.354 8.664V6.664ZM958.523 8.30557C956.315 9.40966 954.346 11.1192 952.608 13.3926L954.196 14.6074C955.786 12.5288 957.529 11.0383 959.417 10.0944L958.523 8.30557ZM952.606 13.3943C950.88 15.6624 949.521 18.5675 948.505 22.0737L950.427 22.6303C951.395 19.2885 952.66 16.6256 954.198 14.6057L952.606 13.3943ZM948.504 22.0797C947.512 25.5852 947.026 29.762 947.026 34.592H949.026C949.026 29.886 949.5 25.9028 950.428 22.6243L948.504 22.0797ZM947.026 34.592C947.026 39.4537 947.512 43.6615 948.503 47.198L950.429 46.658C949.5 43.3465 949.026 39.3303 949.026 34.592H947.026ZM948.506 47.2087C949.522 50.6831 950.88 53.5841 952.602 55.88L954.202 54.68C952.66 52.6239 951.394 49.9569 950.426 46.6473L948.506 47.2087ZM952.608 55.8874C954.346 58.1608 956.315 59.8703 958.523 60.9744L959.417 59.1856C957.529 58.2417 955.786 56.7512 954.196 54.6725L952.608 55.8874ZM958.528 60.9772C960.737 62.0643 963.015 62.616 965.354 62.616V60.616C963.341 60.616 961.363 60.1437 959.412 59.1828L958.528 60.9772ZM1004.13 68H1003.13V69H1004.13V68ZM1004.13 0.799995V-0.200005H1003.13V0.799995H1004.13ZM1018.14 0.799995L1019.06 0.406348L1018.8 -0.200005H1018.14V0.799995ZM1043.34 59.648V60.648H1044.86L1044.26 59.2544L1043.34 59.648ZM1041.76 59.648H1040.76V60.648H1041.76V59.648ZM1041.76 0.799995V-0.200005H1040.76V0.799995H1041.76ZM1051.26 0.799995H1052.26V-0.200005H1051.26V0.799995ZM1051.26 68V69H1052.26V68H1051.26ZM1038.98 68L1038.06 68.4023L1038.32 69H1038.98V68ZM1013.2 9.344V8.344H1011.67L1012.28 9.74631L1013.2 9.344ZM1013.63 9.344H1014.63V8.344H1013.63V9.344ZM1013.63 68V69H1014.63V68H1013.63ZM1005.13 68V0.799995H1003.13V68H1005.13ZM1004.13 1.8H1018.14V-0.200005H1004.13V1.8ZM1017.22 1.19364L1042.42 60.0416L1044.26 59.2544L1019.06 0.406348L1017.22 1.19364ZM1043.34 58.648H1041.76V60.648H1043.34V58.648ZM1042.76 59.648V0.799995H1040.76V59.648H1042.76ZM1041.76 1.8H1051.26V-0.200005H1041.76V1.8ZM1050.26 0.799995V68H1052.26V0.799995H1050.26ZM1051.26 67H1038.98V69H1051.26V67ZM1039.89 67.5977L1014.12 8.94169L1012.28 9.74631L1038.06 68.4023L1039.89 67.5977ZM1013.2 10.344H1013.63V8.344H1013.2V10.344ZM1012.63 9.344V68H1014.63V9.344H1012.63ZM1013.63 67H1004.13V69H1013.63V67ZM1116.01 68V69H1117.3L1116.97 67.7458L1116.01 68ZM1106.17 68L1105.2 68.2464L1105.39 69H1106.17V68ZM1101.85 51.008L1102.81 50.7616L1102.62 50.008H1101.85V51.008ZM1079 51.008V50.008H1078.22L1078.03 50.7616L1079 51.008ZM1074.68 68V69H1075.45L1075.65 68.2464L1074.68 68ZM1064.84 68L1063.87 67.7458L1063.54 69H1064.84V68ZM1082.5 0.799995V-0.200005H1081.73L1081.53 0.545774L1082.5 0.799995ZM1098.34 0.799995L1099.31 0.545774L1099.11 -0.200005H1098.34V0.799995ZM1089.8 8.096V7.096H1089.02L1088.83 7.84427L1089.8 8.096ZM1080.53 43.712L1079.57 43.4603L1079.24 44.712H1080.53V43.712ZM1100.31 43.712V44.712H1101.6L1101.28 43.4603L1100.31 43.712ZM1091.05 8.096L1092.01 7.84427L1091.82 7.096H1091.05V8.096ZM1116.01 67H1106.17V69H1116.01V67ZM1107.13 67.7536L1102.81 50.7616L1100.88 51.2544L1105.2 68.2464L1107.13 67.7536ZM1101.85 50.008H1079V52.008H1101.85V50.008ZM1078.03 50.7616L1073.71 67.7536L1075.65 68.2464L1079.97 51.2544L1078.03 50.7616ZM1074.68 67H1064.84V69H1074.68V67ZM1065.8 68.2542L1083.47 1.05422L1081.53 0.545774L1063.87 67.7458L1065.8 68.2542ZM1082.5 1.8H1098.34V-0.200005H1082.5V1.8ZM1097.37 1.05422L1115.04 68.2542L1116.97 67.7458L1099.31 0.545774L1097.37 1.05422ZM1088.83 7.84427L1079.57 43.4603L1081.5 43.9637L1090.76 8.34773L1088.83 7.84427ZM1080.53 44.712H1100.31V42.712H1080.53V44.712ZM1101.28 43.4603L1092.01 7.84427L1090.08 8.34773L1099.34 43.9637L1101.28 43.4603ZM1091.05 7.096H1089.8V9.096H1091.05V7.096Z" fill="#FF0000" mask="url(#path-1-outside-1_82_68)"/>
<defs>
<filter id="filter0_i_82_68" x="0.295898" y="0.223999" width="1115.71" height="72.832" filterUnits="userSpaceOnUse" color-interpolation-filters="sRGB">
<feFlood flood-opacity="0" result="BackgroundImageFix"/>
<feBlend mode="normal" in="SourceGraphic" in2="BackgroundImageFix" result="shape"/>
<feColorMatrix in="SourceAlpha" type="matrix" values="0 0 0 0 0 0 0 0 0 0 0 0 0 0 0 0 0 0 127 0" result="hardAlpha"/>
<feOffset dy="4"/>
<feGaussianBlur stdDeviation="2"/>
<feComposite in2="hardAlpha" operator="arithmetic" k2="-1" k3="1"/>
<feColorMatrix type="matrix" values="0 0 0 0 0 0 0 0 0 0 0 0 0 0 0 0 0 0 0.25 0"/>
<feBlend mode="normal" in2="shape" result="effect1_innerShadow_82_68"/>
</filter>
</defs>
</svg>
