<svg width="1258" height="70" viewBox="0 0 1258 70" fill="none" xmlns="http://www.w3.org/2000/svg">
<mask id="path-1-outside-1_82_68" maskUnits="userSpaceOnUse" x="-1" y="-1" width="1260" height="72" fill="black">
<rect fill="white" x="-1" y="-1" width="1260" height="72"/>
<path d="M17.704 68L0.328 0.799995H10.12L25.24 60.704H25.624L40.696 0.799995H50.536L33.16 68H17.704ZM69.9655 68V60.704H83.8375V8.096H69.9655V0.799995H107.31V8.096H93.3415V60.704H107.31V68H69.9655ZM142.579 68L125.203 0.799995H134.995L150.115 60.704H150.499L165.571 0.799995H175.411L158.035 68H142.579ZM194.841 68V60.704H208.713V8.096H194.841V0.799995H232.185V8.096H218.217V60.704H232.185V68H194.841ZM255.934 68V0.799995H297.934V8.096H265.438V31.328H294.094V38.624H265.438V60.704H297.934V68H255.934ZM314.628 68V0.799995H328.644L353.844 59.648H352.26V0.799995H361.764V68H349.476L323.7 9.344H324.132V68H314.628ZM379.081 68V0.799995H396.601C398.873 0.799995 401.145 0.991997 403.417 1.376C405.689 1.728 407.897 2.368 410.041 3.296C412.185 4.224 414.169 5.504 415.993 7.136C417.849 8.768 419.465 10.816 420.841 13.28C422.249 15.744 423.337 18.72 424.105 22.208C424.905 25.664 425.305 29.728 425.305 34.4C425.305 39.04 424.905 43.104 424.105 46.592C423.337 50.08 422.249 53.056 420.841 55.52C419.465 57.984 417.849 60.032 415.993 61.664C414.169 63.296 412.185 64.576 410.041 65.504C407.897 66.432 405.689 67.088 403.417 67.472C401.145 67.824 398.873 68 396.601 68H379.081ZM388.585 60.704H395.881C398.601 60.704 401.129 60.288 403.465 59.456C405.833 58.624 407.929 57.216 409.753 55.232C411.577 53.248 412.985 50.56 413.977 47.168C415.001 43.776 415.513 39.52 415.513 34.4C415.513 29.28 415.001 25.024 413.977 21.632C412.985 18.24 411.577 15.552 409.753 13.568C407.929 11.584 405.833 10.176 403.465 9.344C401.129 8.512 398.601 8.096 395.881 8.096H388.585V60.704ZM463.167 69.056C460.415 69.056 457.711 68.656 455.055 67.856C452.431 67.024 449.967 65.744 447.663 64.016C445.391 62.288 443.391 60.064 441.663 57.344C439.935 54.624 438.575 51.392 437.583 47.648C436.623 43.872 436.143 39.52 436.143 34.592C436.143 29.696 436.623 25.376 437.583 21.632C438.575 17.856 439.935 14.624 441.663 11.936C443.391 9.216 445.391 6.992 447.663 5.264C449.967 3.536 452.431 2.272 455.055 1.472C457.711 0.639997 460.415 0.223997 463.167 0.223997C465.919 0.223997 468.607 0.639997 471.231 1.472C473.855 2.272 476.303 3.536 478.575 5.264C480.879 6.992 482.879 9.216 484.575 11.936C486.303 14.624 487.663 17.856 488.655 21.632C489.647 25.376 490.143 29.696 490.143 34.592C490.143 39.52 489.647 43.872 488.655 47.648C487.663 51.392 486.303 54.624 484.575 57.344C482.879 60.064 480.879 62.288 478.575 64.016C476.303 65.744 473.855 67.024 471.231 67.856C468.607 68.656 465.919 69.056 463.167 69.056ZM463.167 61.616C465.343 61.616 467.455 61.104 469.503 60.08C471.551 59.056 473.391 57.456 475.023 55.28C476.687 53.104 477.999 50.32 478.959 46.928C479.951 43.504 480.447 39.392 480.447 34.592C480.447 29.824 479.951 25.744 478.959 22.352C477.999 18.928 476.687 16.144 475.023 14C473.391 11.824 471.551 10.224 469.503 9.2C467.455 8.176 465.343 7.664 463.167 7.664C460.991 7.664 458.863 8.176 456.783 9.2C454.735 10.224 452.879 11.824 451.215 14C449.583 16.144 448.271 18.928 447.279 22.352C446.319 25.744 445.839 29.824 445.839 34.592C445.839 39.392 446.319 43.504 447.279 46.928C448.271 50.32 449.583 53.104 451.215 55.28C452.879 57.456 454.735 59.056 456.783 60.08C458.863 61.104 460.991 61.616 463.167 61.616ZM553.684 68V0.799995H595.684V8.096H563.188V31.328H591.844V38.624H563.188V60.704H595.684V68H553.684ZM612.378 68V0.799995H626.394L651.594 59.648H650.01V0.799995H659.514V68H647.226L621.45 9.344H621.882V68H612.378ZM726.031 68V0.799995H748.111C749.711 0.799995 751.407 0.927996 753.199 1.184C755.023 1.408 756.783 1.856 758.479 2.528C760.207 3.168 761.759 4.09599 763.135 5.31199C764.543 6.528 765.663 8.112 766.495 10.064C767.327 11.984 767.743 14.368 767.743 17.216C767.743 20.448 767.151 23.184 765.967 25.424C764.783 27.632 763.375 29.344 761.743 30.56C760.143 31.776 758.687 32.512 757.375 32.768C758.591 32.896 759.935 33.296 761.407 33.968C762.911 34.608 764.367 35.584 765.775 36.896C767.183 38.176 768.335 39.824 769.231 41.84C770.159 43.824 770.623 46.24 770.623 49.088C770.623 53.12 769.855 56.56 768.319 59.408C766.815 62.224 764.671 64.368 761.887 65.84C759.103 67.28 755.807 68 751.999 68H726.031ZM735.535 60.704H749.023C751.327 60.704 753.375 60.288 755.167 59.456C756.991 58.592 758.415 57.264 759.439 55.472C760.495 53.68 761.023 51.36 761.023 48.512C761.023 45.504 760.399 43.168 759.151 41.504C757.903 39.84 756.351 38.672 754.495 38C752.639 37.328 750.799 36.992 748.975 36.992H735.535V60.704ZM735.535 29.696H747.247C749.167 29.696 750.959 29.28 752.623 28.448C754.319 27.584 755.679 26.32 756.703 24.656C757.759 22.992 758.287 20.928 758.287 18.464C758.287 16.352 758.015 14.64 757.471 13.328C756.927 11.984 756.143 10.928 755.119 10.16C754.127 9.392 752.927 8.864 751.519 8.576C750.111 8.256 748.543 8.096 746.815 8.096H735.535V29.696ZM834.693 68H824.853L820.533 51.008H797.685L793.365 68H783.525L801.189 0.799995H817.029L834.693 68ZM808.485 8.096L799.221 43.712H818.997L809.733 8.096H808.485ZM850.906 68V0.799995H874.954C876.65 0.799995 878.394 0.975996 880.186 1.328C882.01 1.648 883.77 2.208 885.466 3.008C887.162 3.80799 888.682 4.896 890.026 6.272C891.402 7.648 892.49 9.392 893.29 11.504C894.09 13.616 894.49 16.144 894.49 19.088C894.49 22.096 894.058 24.688 893.194 26.864C892.362 29.008 891.242 30.816 889.834 32.288C888.426 33.728 886.858 34.88 885.13 35.744C883.434 36.576 881.69 37.184 879.898 37.568C878.138 37.92 876.49 38.096 874.954 38.096H860.41V68H850.906ZM885.562 68L872.65 35.408L882.058 34.4L895.69 68H885.562ZM860.41 30.992H873.274C875.354 30.992 877.274 30.608 879.034 29.84C880.826 29.072 882.266 27.84 883.354 26.144C884.442 24.416 884.986 22.144 884.986 19.328C884.986 16.352 884.41 14.064 883.258 12.464C882.138 10.832 880.666 9.696 878.842 9.056C877.018 8.416 875.082 8.096 873.034 8.096H860.41V30.992ZM936.288 69.056C933.536 69.056 930.816 68.672 928.128 67.904C925.472 67.104 922.96 65.856 920.592 64.16C918.224 62.464 916.128 60.272 914.304 57.584C912.48 54.864 911.056 51.616 910.032 47.84C909.008 44.032 908.496 39.616 908.496 34.592C908.496 29.568 909.024 25.168 910.08 21.392C911.136 17.584 912.576 14.336 914.4 11.648C916.224 8.96 918.32 6.784 920.688 5.12C923.088 3.424 925.632 2.192 928.32 1.424C931.04 0.623997 933.76 0.223997 936.48 0.223997C939.2 0.223997 941.696 0.607998 943.968 1.376C946.272 2.112 948.352 3.168 950.208 4.544C952.096 5.888 953.728 7.488 955.104 9.344C956.48 11.168 957.616 13.184 958.512 15.392L950.112 19.568C949.6 18.192 948.96 16.816 948.192 15.44C947.424 14.032 946.48 12.752 945.36 11.6C944.272 10.416 942.992 9.472 941.52 8.768C940.048 8.032 938.368 7.664 936.48 7.664C934.24 7.664 932.032 8.176 929.856 9.2C927.712 10.224 925.76 11.824 924 14C922.272 16.144 920.88 18.912 919.824 22.304C918.8 25.696 918.288 29.792 918.288 34.592C918.288 39.392 918.8 43.504 919.824 46.928C920.848 50.352 922.224 53.152 923.952 55.328C925.68 57.472 927.616 59.056 929.76 60.08C931.904 61.104 934.064 61.616 936.24 61.616C938.16 61.616 939.856 61.248 941.328 60.512C942.832 59.776 944.144 58.832 945.264 57.68C946.384 56.496 947.344 55.232 948.144 53.888C948.944 52.544 949.6 51.232 950.112 49.952L958.512 54.224C957.648 56.304 956.512 58.256 955.104 60.08C953.728 61.872 952.096 63.44 950.208 64.784C948.352 66.128 946.256 67.184 943.92 67.952C941.584 68.688 939.04 69.056 936.288 69.056ZM976.309 68V0.799995H1018.31V8.096H985.813V31.328H1014.47V38.624H985.813V60.704H1018.31V68H976.309ZM1034.86 68V0.799995H1044.41V60.704H1070.43V68H1034.86ZM1106.67 69.056C1103.91 69.056 1101.21 68.656 1098.55 67.856C1095.93 67.024 1093.47 65.744 1091.16 64.016C1088.89 62.288 1086.89 60.064 1085.16 57.344C1083.43 54.624 1082.07 51.392 1081.08 47.648C1080.12 43.872 1079.64 39.52 1079.64 34.592C1079.64 29.696 1080.12 25.376 1081.08 21.632C1082.07 17.856 1083.43 14.624 1085.16 11.936C1086.89 9.216 1088.89 6.992 1091.16 5.264C1093.47 3.536 1095.93 2.272 1098.55 1.472C1101.21 0.639997 1103.91 0.223997 1106.67 0.223997C1109.42 0.223997 1112.11 0.639997 1114.73 1.472C1117.35 2.272 1119.8 3.536 1122.07 5.264C1124.38 6.992 1126.38 9.216 1128.07 11.936C1129.8 14.624 1131.16 17.856 1132.15 21.632C1133.15 25.376 1133.64 29.696 1133.64 34.592C1133.64 39.52 1133.15 43.872 1132.15 47.648C1131.16 51.392 1129.8 54.624 1128.07 57.344C1126.38 60.064 1124.38 62.288 1122.07 64.016C1119.8 65.744 1117.35 67.024 1114.73 67.856C1112.11 68.656 1109.42 69.056 1106.67 69.056ZM1106.67 61.616C1108.84 61.616 1110.95 61.104 1113 60.08C1115.05 59.056 1116.89 57.456 1118.52 55.28C1120.19 53.104 1121.5 50.32 1122.46 46.928C1123.45 43.504 1123.95 39.392 1123.95 34.592C1123.95 29.824 1123.45 25.744 1122.46 22.352C1121.5 18.928 1120.19 16.144 1118.52 14C1116.89 11.824 1115.05 10.224 1113 9.2C1110.95 8.176 1108.84 7.664 1106.67 7.664C1104.49 7.664 1102.36 8.176 1100.28 9.2C1098.23 10.224 1096.38 11.824 1094.71 14C1093.08 16.144 1091.77 18.928 1090.78 22.352C1089.82 25.744 1089.34 29.824 1089.34 34.592C1089.34 39.392 1089.82 43.504 1090.78 46.928C1091.77 50.32 1093.08 53.104 1094.71 55.28C1096.38 57.456 1098.23 59.056 1100.28 60.08C1102.36 61.104 1104.49 61.616 1106.67 61.616ZM1145.44 68V0.799995H1159.46L1184.66 59.648H1183.07V0.799995H1192.58V68H1180.29L1154.51 9.344H1154.94V68H1145.44ZM1257.32 68H1247.48L1243.16 51.008H1220.31L1215.99 68H1206.15L1223.81 0.799995H1239.65L1257.32 68ZM1231.11 8.096L1221.85 43.712H1241.62L1232.36 8.096H1231.11Z"/>
</mask>
<g filter="url(#filter0_i_82_68)">
<path d="M17.704 68L0.328 0.799995H10.12L25.24 60.704H25.624L40.696 0.799995H50.536L33.16 68H17.704ZM69.9655 68V60.704H83.8375V8.096H69.9655V0.799995H107.31V8.096H93.3415V60.704H107.31V68H69.9655ZM142.579 68L125.203 0.799995H134.995L150.115 60.704H150.499L165.571 0.799995H175.411L158.035 68H142.579ZM194.841 68V60.704H208.713V8.096H194.841V0.799995H232.185V8.096H218.217V60.704H232.185V68H194.841ZM255.934 68V0.799995H297.934V8.096H265.438V31.328H294.094V38.624H265.438V60.704H297.934V68H255.934ZM314.628 68V0.799995H328.644L353.844 59.648H352.26V0.799995H361.764V68H349.476L323.7 9.344H324.132V68H314.628ZM379.081 68V0.799995H396.601C398.873 0.799995 401.145 0.991997 403.417 1.376C405.689 1.728 407.897 2.368 410.041 3.296C412.185 4.224 414.169 5.504 415.993 7.136C417.849 8.768 419.465 10.816 420.841 13.28C422.249 15.744 423.337 18.72 424.105 22.208C424.905 25.664 425.305 29.728 425.305 34.4C425.305 39.04 424.905 43.104 424.105 46.592C423.337 50.08 422.249 53.056 420.841 55.52C419.465 57.984 417.849 60.032 415.993 61.664C414.169 63.296 412.185 64.576 410.041 65.504C407.897 66.432 405.689 67.088 403.417 67.472C401.145 67.824 398.873 68 396.601 68H379.081ZM388.585 60.704H395.881C398.601 60.704 401.129 60.288 403.465 59.456C405.833 58.624 407.929 57.216 409.753 55.232C411.577 53.248 412.985 50.56 413.977 47.168C415.001 43.776 415.513 39.52 415.513 34.4C415.513 29.28 415.001 25.024 413.977 21.632C412.985 18.24 411.577 15.552 409.753 13.568C407.929 11.584 405.833 10.176 403.465 9.344C401.129 8.512 398.601 8.096 395.881 8.096H388.585V60.704ZM463.167 69.056C460.415 69.056 457.711 68.656 455.055 67.856C452.431 67.024 449.967 65.744 447.663 64.016C445.391 62.288 443.391 60.064 441.663 57.344C439.935 54.624 438.575 51.392 437.583 47.648C436.623 43.872 436.143 39.52 436.143 34.592C436.143 29.696 436.623 25.376 437.583 21.632C438.575 17.856 439.935 14.624 441.663 11.936C443.391 9.216 445.391 6.992 447.663 5.264C449.967 3.536 452.431 2.272 455.055 1.472C457.711 0.639997 460.415 0.223997 463.167 0.223997C465.919 0.223997 468.607 0.639997 471.231 1.472C473.855 2.272 476.303 3.536 478.575 5.264C480.879 6.992 482.879 9.216 484.575 11.936C486.303 14.624 487.663 17.856 488.655 21.632C489.647 25.376 490.143 29.696 490.143 34.592C490.143 39.52 489.647 43.872 488.655 47.648C487.663 51.392 486.303 54.624 484.575 57.344C482.879 60.064 480.879 62.288 478.575 64.016C476.303 65.744 473.855 67.024 471.231 67.856C468.607 68.656 465.919 69.056 463.167 69.056ZM463.167 61.616C465.343 61.616 467.455 61.104 469.503 60.08C471.551 59.056 473.391 57.456 475.023 55.28C476.687 53.104 477.999 50.32 478.959 46.928C479.951 43.504 480.447 39.392 480.447 34.592C480.447 29.824 479.951 25.744 478.959 22.352C477.999 18.928 476.687 16.144 475.023 14C473.391 11.824 471.551 10.224 469.503 9.2C467.455 8.176 465.343 7.664 463.167 7.664C460.991 7.664 458.863 8.176 456.783 9.2C454.735 10.224 452.879 11.824 451.215 14C449.583 16.144 448.271 18.928 447.279 22.352C446.319 25.744 445.839 29.824 445.839 34.592C445.839 39.392 446.319 43.504 447.279 46.928C448.271 50.32 449.583 53.104 451.215 55.28C452.879 57.456 454.735 59.056 456.783 60.08C458.863 61.104 460.991 61.616 463.167 61.616ZM553.684 68V0.799995H595.684V8.096H563.188V31.328H591.844V38.624H563.188V60.704H595.684V68H553.684ZM612.378 68V0.799995H626.394L651.594 59.648H650.01V0.799995H659.514V68H647.226L621.45 9.344H621.882V68H612.378ZM726.031 68V0.799995H748.111C749.711 0.799995 751.407 0.927996 753.199 1.184C755.023 1.408 756.783 1.856 758.479 2.528C760.207 3.168 761.759 4.09599 763.135 5.31199C764.543 6.528 765.663 8.112 766.495 10.064C767.327 11.984 767.743 14.368 767.743 17.216C767.743 20.448 767.151 23.184 765.967 25.424C764.783 27.632 763.375 29.344 761.743 30.56C760.143 31.776 758.687 32.512 757.375 32.768C758.591 32.896 759.935 33.296 761.407 33.968C762.911 34.608 764.367 35.584 765.775 36.896C767.183 38.176 768.335 39.824 769.231 41.84C770.159 43.824 770.623 46.24 770.623 49.088C770.623 53.12 769.855 56.56 768.319 59.408C766.815 62.224 764.671 64.368 761.887 65.84C759.103 67.28 755.807 68 751.999 68H726.031ZM735.535 60.704H749.023C751.327 60.704 753.375 60.288 755.167 59.456C756.991 58.592 758.415 57.264 759.439 55.472C760.495 53.68 761.023 51.36 761.023 48.512C761.023 45.504 760.399 43.168 759.151 41.504C757.903 39.84 756.351 38.672 754.495 38C752.639 37.328 750.799 36.992 748.975 36.992H735.535V60.704ZM735.535 29.696H747.247C749.167 29.696 750.959 29.28 752.623 28.448C754.319 27.584 755.679 26.32 756.703 24.656C757.759 22.992 758.287 20.928 758.287 18.464C758.287 16.352 758.015 14.64 757.471 13.328C756.927 11.984 756.143 10.928 755.119 10.16C754.127 9.392 752.927 8.864 751.519 8.576C750.111 8.256 748.543 8.096 746.815 8.096H735.535V29.696ZM834.693 68H824.853L820.533 51.008H797.685L793.365 68H783.525L801.189 0.799995H817.029L834.693 68ZM808.485 8.096L799.221 43.712H818.997L809.733 8.096H808.485ZM850.906 68V0.799995H874.954C876.65 0.799995 878.394 0.975996 880.186 1.328C882.01 1.648 883.77 2.208 885.466 3.008C887.162 3.80799 888.682 4.896 890.026 6.272C891.402 7.648 892.49 9.392 893.29 11.504C894.09 13.616 894.49 16.144 894.49 19.088C894.49 22.096 894.058 24.688 893.194 26.864C892.362 29.008 891.242 30.816 889.834 32.288C888.426 33.728 886.858 34.88 885.13 35.744C883.434 36.576 881.69 37.184 879.898 37.568C878.138 37.92 876.49 38.096 874.954 38.096H860.41V68H850.906ZM885.562 68L872.65 35.408L882.058 34.4L895.69 68H885.562ZM860.41 30.992H873.274C875.354 30.992 877.274 30.608 879.034 29.84C880.826 29.072 882.266 27.84 883.354 26.144C884.442 24.416 884.986 22.144 884.986 19.328C884.986 16.352 884.41 14.064 883.258 12.464C882.138 10.832 880.666 9.696 878.842 9.056C877.018 8.416 875.082 8.096 873.034 8.096H860.41V30.992ZM936.288 69.056C933.536 69.056 930.816 68.672 928.128 67.904C925.472 67.104 922.96 65.856 920.592 64.16C918.224 62.464 916.128 60.272 914.304 57.584C912.48 54.864 911.056 51.616 910.032 47.84C909.008 44.032 908.496 39.616 908.496 34.592C908.496 29.568 909.024 25.168 910.08 21.392C911.136 17.584 912.576 14.336 914.4 11.648C916.224 8.96 918.32 6.784 920.688 5.12C923.088 3.424 925.632 2.192 928.32 1.424C931.04 0.623997 933.76 0.223997 936.48 0.223997C939.2 0.223997 941.696 0.607998 943.968 1.376C946.272 2.112 948.352 3.168 950.208 4.544C952.096 5.888 953.728 7.488 955.104 9.344C956.48 11.168 957.616 13.184 958.512 15.392L950.112 19.568C949.6 18.192 948.96 16.816 948.192 15.44C947.424 14.032 946.48 12.752 945.36 11.6C944.272 10.416 942.992 9.472 941.52 8.768C940.048 8.032 938.368 7.664 936.48 7.664C934.24 7.664 932.032 8.176 929.856 9.2C927.712 10.224 925.76 11.824 924 14C922.272 16.144 920.88 18.912 919.824 22.304C918.8 25.696 918.288 29.792 918.288 34.592C918.288 39.392 918.8 43.504 919.824 46.928C920.848 50.352 922.224 53.152 923.952 55.328C925.68 57.472 927.616 59.056 929.76 60.08C931.904 61.104 934.064 61.616 936.24 61.616C938.16 61.616 939.856 61.248 941.328 60.512C942.832 59.776 944.144 58.832 945.264 57.68C946.384 56.496 947.344 55.232 948.144 53.888C948.944 52.544 949.6 51.232 950.112 49.952L958.512 54.224C957.648 56.304 956.512 58.256 955.104 60.08C953.728 61.872 952.096 63.44 950.208 64.784C948.352 66.128 946.256 67.184 943.92 67.952C941.584 68.688 939.04 69.056 936.288 69.056ZM976.309 68V0.799995H1018.31V8.096H985.813V31.328H1014.47V38.624H985.813V60.704H1018.31V68H976.309ZM1034.86 68V0.799995H1044.41V60.704H1070.43V68H1034.86ZM1106.67 69.056C1103.91 69.056 1101.21 68.656 1098.55 67.856C1095.93 67.024 1093.47 65.744 1091.16 64.016C1088.89 62.288 1086.89 60.064 1085.16 57.344C1083.43 54.624 1082.07 51.392 1081.08 47.648C1080.12 43.872 1079.64 39.52 1079.64 34.592C1079.64 29.696 1080.12 25.376 1081.08 21.632C1082.07 17.856 1083.43 14.624 1085.16 11.936C1086.89 9.216 1088.89 6.992 1091.16 5.264C1093.47 3.536 1095.93 2.272 1098.55 1.472C1101.21 0.639997 1103.91 0.223997 1106.67 0.223997C1109.42 0.223997 1112.11 0.639997 1114.73 1.472C1117.35 2.272 1119.8 3.536 1122.07 5.264C1124.38 6.992 1126.38 9.216 1128.07 11.936C1129.8 14.624 1131.16 17.856 1132.15 21.632C1133.15 25.376 1133.64 29.696 1133.64 34.592C1133.64 39.52 1133.15 43.872 1132.15 47.648C1131.16 51.392 1129.8 54.624 1128.07 57.344C1126.38 60.064 1124.38 62.288 1122.07 64.016C1119.8 65.744 1117.35 67.024 1114.73 67.856C1112.11 68.656 1109.42 69.056 1106.67 69.056ZM1106.67 61.616C1108.84 61.616 1110.95 61.104 1113 60.08C1115.05 59.056 1116.89 57.456 1118.52 55.28C1120.19 53.104 1121.5 50.32 1122.46 46.928C1123.45 43.504 1123.95 39.392 1123.95 34.592C1123.95 29.824 1123.45 25.744 1122.46 22.352C1121.5 18.928 1120.19 16.144 1118.52 14C1116.89 11.824 1115.05 10.224 1113 9.2C1110.95 8.176 1108.84 7.664 1106.67 7.664C1104.49 7.664 1102.36 8.176 1100.28 9.2C1098.23 10.224 1096.38 11.824 1094.71 14C1093.08 16.144 1091.77 18.928 1090.78 22.352C1089.82 25.744 1089.34 29.824 1089.34 34.592C1089.34 39.392 1089.82 43.504 1090.78 46.928C1091.77 50.32 1093.08 53.104 1094.71 55.28C1096.38 57.456 1098.23 59.056 1100.28 60.08C1102.36 61.104 1104.49 61.616 1106.67 61.616ZM1145.44 68V0.799995H1159.46L1184.66 59.648H1183.07V0.799995H1192.58V68H1180.29L1154.51 9.344H1154.94V68H1145.44ZM1257.32 68H1247.48L1243.16 51.008H1220.31L1215.99 68H1206.15L1223.81 0.799995H1239.65L1257.32 68ZM1231.11 8.096L1221.85 43.712H1241.62L1232.36 8.096H1231.11Z" fill="white"/>
</g>
<path d="M17.704 68L16.7358 68.2503L16.9297 69H17.704V68ZM0.328001 0.799995V-0.200005H-0.96346L-0.640158 1.05033L0.328001 0.799995ZM10.12 0.799995L11.0896 0.555267L10.899 -0.200005H10.12V0.799995ZM25.24 60.704L24.2704 60.9487L24.461 61.704H25.24V60.704ZM25.624 60.704V61.704H26.4036L26.5938 60.948L25.624 60.704ZM40.696 0.799995V-0.200005H39.9164L39.7262 0.555998L40.696 0.799995ZM50.536 0.799995L51.5042 1.05033L51.8275 -0.200005H50.536V0.799995ZM33.16 68V69H33.9343L34.1282 68.2503L33.16 68ZM18.6722 67.7497L1.29616 0.549658L-0.640158 1.05033L16.7358 68.2503L18.6722 67.7497ZM0.328001 1.8H10.12V-0.200005H0.328001V1.8ZM9.15041 1.04472L24.2704 60.9487L26.2096 60.4593L11.0896 0.555267L9.15041 1.04472ZM25.24 61.704H25.624V59.704H25.24V61.704ZM26.5938 60.948L41.6658 1.04399L39.7262 0.555998L24.6542 60.46L26.5938 60.948ZM40.696 1.8H50.536V-0.200005H40.696V1.8ZM49.5678 0.549658L32.1918 67.7497L34.1282 68.2503L51.5042 1.05033L49.5678 0.549658ZM33.16 67H17.704V69H33.16V67ZM69.9655 68H68.9655V69H69.9655V68ZM69.9655 60.704V59.704H68.9655V60.704H69.9655ZM83.8375 60.704V61.704H84.8375V60.704H83.8375ZM83.8375 8.096H84.8375V7.096H83.8375V8.096ZM69.9655 8.096H68.9655V9.096H69.9655V8.096ZM69.9655 0.799995V-0.200005H68.9655V0.799995H69.9655ZM107.31 0.799995H108.31V-0.200005H107.31V0.799995ZM107.31 8.096V9.096H108.31V8.096H107.31ZM93.3415 8.096V7.096H92.3415V8.096H93.3415ZM93.3415 60.704H92.3415V61.704H93.3415V60.704ZM107.31 60.704H108.31V59.704H107.31V60.704ZM107.31 68V69H108.31V68H107.31ZM70.9655 68V60.704H68.9655V68H70.9655ZM69.9655 61.704H83.8375V59.704H69.9655V61.704ZM84.8375 60.704V8.096H82.8375V60.704H84.8375ZM83.8375 7.096H69.9655V9.096H83.8375V7.096ZM70.9655 8.096V0.799995H68.9655V8.096H70.9655ZM69.9655 1.8H107.31V-0.200005H69.9655V1.8ZM106.31 0.799995V8.096H108.31V0.799995H106.31ZM107.31 7.096H93.3415V9.096H107.31V7.096ZM92.3415 8.096V60.704H94.3415V8.096H92.3415ZM93.3415 61.704H107.31V59.704H93.3415V61.704ZM106.31 60.704V68H108.31V60.704H106.31ZM107.31 67H69.9655V69H107.31V67ZM142.579 68L141.611 68.2503L141.805 69H142.579V68ZM125.203 0.799995V-0.200005H123.912L124.235 1.05033L125.203 0.799995ZM134.995 0.799995L135.965 0.555267L135.774 -0.200005H134.995V0.799995ZM150.115 60.704L149.145 60.9487L149.336 61.704H150.115V60.704ZM150.499 60.704V61.704H151.279L151.469 60.948L150.499 60.704ZM165.571 0.799995V-0.200005H164.791L164.601 0.555998L165.571 0.799995ZM175.411 0.799995L176.379 1.05033L176.702 -0.200005H175.411V0.799995ZM158.035 68V69H158.809L159.003 68.2503L158.035 68ZM143.547 67.7497L126.171 0.549658L124.235 1.05033L141.611 68.2503L143.547 67.7497ZM125.203 1.8H134.995V-0.200005H125.203V1.8ZM134.025 1.04472L149.145 60.9487L151.085 60.4593L135.965 0.555267L134.025 1.04472ZM150.115 61.704H150.499V59.704H150.115V61.704ZM151.469 60.948L166.541 1.04399L164.601 0.555998L149.529 60.46L151.469 60.948ZM165.571 1.8H175.411V-0.200005H165.571V1.8ZM174.443 0.549658L157.067 67.7497L159.003 68.2503L176.379 1.05033L174.443 0.549658ZM158.035 67H142.579V69H158.035V67ZM194.84 68H193.84V69H194.84V68ZM194.84 60.704V59.704H193.84V60.704H194.84ZM208.712 60.704V61.704H209.712V60.704H208.712ZM208.712 8.096H209.712V7.096H208.712V8.096ZM194.84 8.096H193.84V9.096H194.84V8.096ZM194.84 0.799995V-0.200005H193.84V0.799995H194.84ZM232.185 0.799995H233.185V-0.200005H232.185V0.799995ZM232.185 8.096V9.096H233.185V8.096H232.185ZM218.217 8.096V7.096H217.217V8.096H218.217ZM218.217 60.704H217.217V61.704H218.217V60.704ZM232.185 60.704H233.185V59.704H232.185V60.704ZM232.185 68V69H233.185V68H232.185ZM195.84 68V60.704H193.84V68H195.84ZM194.84 61.704H208.712V59.704H194.84V61.704ZM209.712 60.704V8.096H207.712V60.704H209.712ZM208.712 7.096H194.84V9.096H208.712V7.096ZM195.84 8.096V0.799995H193.84V8.096H195.84ZM194.84 1.8H232.185V-0.200005H194.84V1.8ZM231.185 0.799995V8.096H233.185V0.799995H231.185ZM232.185 7.096H218.217V9.096H232.185V7.096ZM217.217 8.096V60.704H219.217V8.096H217.217ZM218.217 61.704H232.185V59.704H218.217V61.704ZM231.185 60.704V68H233.185V60.704H231.185ZM232.185 67H194.84V69H232.185V67ZM255.934 68H254.934V69H255.934V68ZM255.934 0.799995V-0.200005H254.934V0.799995H255.934ZM297.934 0.799995H298.934V-0.200005H297.934V0.799995ZM297.934 8.096V9.096H298.934V8.096H297.934ZM265.438 8.096V7.096H264.438V8.096H265.438ZM265.438 31.328H264.438V32.328H265.438V31.328ZM294.094 31.328H295.094V30.328H294.094V31.328ZM294.094 38.624V39.624H295.094V38.624H294.094ZM265.438 38.624V37.624H264.438V38.624H265.438ZM265.438 60.704H264.438V61.704H265.438V60.704ZM297.934 60.704H298.934V59.704H297.934V60.704ZM297.934 68V69H298.934V68H297.934ZM256.934 68V0.799995H254.934V68H256.934ZM255.934 1.8H297.934V-0.200005H255.934V1.8ZM296.934 0.799995V8.096H298.934V0.799995H296.934ZM297.934 7.096H265.438V9.096H297.934V7.096ZM264.438 8.096V31.328H266.438V8.096H264.438ZM265.438 32.328H294.094V30.328H265.438V32.328ZM293.094 31.328V38.624H295.094V31.328H293.094ZM294.094 37.624H265.438V39.624H294.094V37.624ZM264.438 38.624V60.704H266.438V38.624H264.438ZM265.438 61.704H297.934V59.704H265.438V61.704ZM296.934 60.704V68H298.934V60.704H296.934ZM297.934 67H255.934V69H297.934V67ZM314.628 68H313.628V69H314.628V68ZM314.628 0.799995V-0.200005H313.628V0.799995H314.628ZM328.643 0.799995L329.563 0.406347L329.303 -0.200005H328.643V0.799995ZM353.844 59.648V60.648H355.36L354.763 59.2543L353.844 59.648ZM352.259 59.648H351.259V60.648H352.259V59.648ZM352.259 0.799995V-0.200005H351.259V0.799995H352.259ZM361.763 0.799995H362.763V-0.200005H361.763V0.799995ZM361.763 68V69H362.763V68H361.763ZM349.475 68L348.56 68.4023L348.823 69H349.475V68ZM323.699 9.344V8.344H322.168L322.784 9.74631L323.699 9.344ZM324.132 9.344H325.132V8.344H324.132V9.344ZM324.132 68V69H325.132V68H324.132ZM315.628 68V0.799995H313.628V68H315.628ZM314.628 1.8H328.643V-0.200005H314.628V1.8ZM327.724 1.19364L352.924 60.0416L354.763 59.2543L329.563 0.406347L327.724 1.19364ZM353.844 58.648H352.259V60.648H353.844V58.648ZM353.259 59.648V0.799995H351.259V59.648H353.259ZM352.259 1.8H361.763V-0.200005H352.259V1.8ZM360.763 0.799995V68H362.763V0.799995H360.763ZM361.763 67H349.475V69H361.763V67ZM350.391 67.5977L324.615 8.94169L322.784 9.74631L348.56 68.4023L350.391 67.5977ZM323.699 10.344H324.132V8.344H323.699V10.344ZM323.132 9.344V68H325.132V9.344H323.132ZM324.132 67H314.628V69H324.132V67ZM379.081 68H378.081V69H379.081V68ZM379.081 0.799995V-0.200005H378.081V0.799995H379.081ZM403.417 1.376L403.25 2.36211L403.264 2.36421L403.417 1.376ZM410.041 3.296L410.438 2.37827L410.041 3.296ZM415.993 7.136L415.326 7.88127L415.333 7.88697L415.993 7.136ZM420.841 13.28L419.968 13.7676L419.973 13.7761L420.841 13.28ZM424.105 22.208L423.128 22.423L423.131 22.4335L424.105 22.208ZM424.105 46.592L423.13 46.3684L423.128 46.377L424.105 46.592ZM420.841 55.52L419.973 55.0238L419.968 55.0324L420.841 55.52ZM415.993 61.664L415.333 60.913L415.326 60.9188L415.993 61.664ZM410.041 65.504L410.438 66.4217L410.041 65.504ZM403.417 67.472L403.57 68.4603L403.584 68.458L403.417 67.472ZM388.585 60.704H387.585V61.704H388.585V60.704ZM403.465 59.456L403.134 58.5125L403.129 58.514L403.465 59.456ZM409.753 55.232L409.017 54.5552L409.753 55.232ZM413.977 47.168L413.02 46.879L413.017 46.8873L413.977 47.168ZM413.977 21.632L413.017 21.9127L413.02 21.921L413.977 21.632ZM409.753 13.568L409.017 14.2448L409.753 13.568ZM403.465 9.344L403.129 10.286L403.134 10.2875L403.465 9.344ZM388.585 8.096V7.096H387.585V8.096H388.585ZM380.081 68V0.799995H378.081V68H380.081ZM379.081 1.8H396.601V-0.200005H379.081V1.8ZM396.601 1.8C398.816 1.8 401.033 1.98719 403.25 2.36201L403.584 0.389984C401.257 -0.0031929 398.93 -0.200005 396.601 -0.200005V1.8ZM403.264 2.36421C405.451 2.70298 407.577 3.31895 409.644 4.21372L410.438 2.37827C408.217 1.41704 405.927 0.753017 403.57 0.387789L403.264 2.36421ZM409.644 4.21372C411.685 5.09707 413.578 6.3174 415.326 7.88124L416.66 6.39076C414.76 4.6906 412.685 3.35093 410.438 2.37827L409.644 4.21372ZM415.333 7.88697C417.092 9.43407 418.64 11.3889 419.968 13.7676L421.714 12.7924C420.29 10.2431 418.606 8.10193 416.653 6.38503L415.333 7.88697ZM419.973 13.7761C421.32 16.1332 422.377 19.0094 423.128 22.423L425.082 21.993C424.297 18.4306 423.178 15.3548 421.709 12.7839L419.973 13.7761ZM423.131 22.4335C423.909 25.7965 424.305 29.7815 424.305 34.4H426.305C426.305 29.6745 425.901 25.5315 425.079 21.9825L423.131 22.4335ZM424.305 34.4C424.305 38.9856 423.909 42.9717 423.13 46.3684L425.08 46.8156C425.901 43.2363 426.305 39.0943 426.305 34.4H424.305ZM423.128 46.377C422.377 49.7906 421.32 52.6668 419.973 55.0239L421.709 56.0161C423.178 53.4452 424.297 50.3694 425.082 46.807L423.128 46.377ZM419.968 55.0324C418.64 57.4111 417.092 59.3659 415.333 60.913L416.653 62.415C418.606 60.6981 420.29 58.5569 421.714 56.0076L419.968 55.0324ZM415.326 60.9188C413.578 62.4826 411.685 63.7029 409.644 64.5863L410.438 66.4217C412.685 65.4491 414.76 64.1094 416.66 62.4092L415.326 60.9188ZM409.644 64.5863C407.573 65.4828 405.442 66.1156 403.25 66.486L403.584 68.458C405.936 68.0604 408.221 67.3812 410.438 66.4217L409.644 64.5863ZM403.264 66.4838C401.042 66.828 398.821 67 396.601 67V69C398.925 69 401.248 68.82 403.57 68.4602L403.264 66.4838ZM396.601 67H379.081V69H396.601V67ZM388.585 61.704H395.881V59.704H388.585V61.704ZM395.881 61.704C398.704 61.704 401.347 61.2719 403.801 60.398L403.129 58.514C400.911 59.3041 398.498 59.704 395.881 59.704V61.704ZM403.796 60.3995C406.331 59.5091 408.563 58.0044 410.489 55.9088L409.017 54.5552C407.295 56.4276 405.335 57.7389 403.134 58.5125L403.796 60.3995ZM410.489 55.9088C412.444 53.7821 413.915 50.9441 414.937 47.4487L413.017 46.8873C412.055 50.1759 410.71 52.7139 409.017 54.5552L410.489 55.9088ZM414.934 47.457C415.996 43.9398 416.513 39.5784 416.513 34.4H414.513C414.513 39.4616 414.006 43.6122 413.02 46.879L414.934 47.457ZM416.513 34.4C416.513 29.2216 415.996 24.8602 414.934 21.343L413.02 21.921C414.006 25.1878 414.513 29.3384 414.513 34.4H416.513ZM414.937 21.3513C413.915 17.8559 412.444 15.0179 410.489 12.8912L409.017 14.2448C410.71 16.0861 412.055 18.6241 413.017 21.9127L414.937 21.3513ZM410.489 12.8912C408.563 10.7956 406.331 9.29087 403.796 8.40054L403.134 10.2875C405.335 11.0611 407.295 12.3724 409.017 14.2448L410.489 12.8912ZM403.801 8.40197C401.347 7.52806 398.704 7.096 395.881 7.096V9.096C398.498 9.096 400.911 9.49593 403.129 10.286L403.801 8.40197ZM395.881 7.096H388.585V9.096H395.881V7.096ZM387.585 8.096V60.704H389.585V8.096H387.585ZM455.055 67.856L454.752 68.8092L454.759 68.8114L454.766 68.8135L455.055 67.856ZM447.663 64.016L447.057 64.812L447.062 64.816L447.663 64.016ZM441.663 57.344L440.818 57.8802L441.663 57.344ZM437.582 47.648L436.613 47.8944L436.616 47.9041L437.582 47.648ZM437.582 21.632L436.615 21.3779L436.614 21.3836L437.582 21.632ZM441.663 11.936L442.504 12.4768L442.507 12.4722L441.663 11.936ZM447.663 5.264L447.062 4.46398L447.057 4.46805L447.663 5.264ZM455.055 1.472L455.346 2.42856L455.353 2.42627L455.055 1.472ZM471.23 1.472L470.928 2.42529L470.939 2.42853L471.23 1.472ZM478.574 5.264L477.969 6.05996L477.974 6.064L478.574 5.264ZM484.574 11.936L483.726 12.4651L483.733 12.4768L484.574 11.936ZM488.655 21.632L487.687 21.8861L487.688 21.8881L488.655 21.632ZM488.655 47.648L489.621 47.9041L489.622 47.9021L488.655 47.648ZM484.574 57.344L483.73 56.8077L483.726 56.8149L484.574 57.344ZM478.574 64.016L477.974 63.216L477.969 63.2201L478.574 64.016ZM471.23 67.856L471.522 68.8126L471.533 68.8092L471.23 67.856ZM475.022 55.28L474.228 54.6725L474.223 54.68L475.022 55.28ZM478.958 46.928L477.998 46.6497L477.996 46.6557L478.958 46.928ZM478.958 22.352L477.996 22.622L477.999 22.6327L478.958 22.352ZM475.022 14L474.223 14.6L474.227 14.6066L474.233 14.6131L475.022 14ZM469.503 9.2L469.055 10.0944V10.0944L469.503 9.2ZM456.783 9.2L456.341 8.30281L456.335 8.30557L456.783 9.2ZM451.215 14L450.42 13.3925L450.419 13.3943L451.215 14ZM447.279 22.352L446.318 22.0737L446.316 22.0797L447.279 22.352ZM447.279 46.928L446.316 47.198L446.319 47.2087L447.279 46.928ZM451.215 55.28L450.414 55.88L450.42 55.8875L451.215 55.28ZM456.783 60.08L456.335 60.9744L456.341 60.9772L456.783 60.08ZM463.167 68.056C460.513 68.056 457.906 67.6705 455.343 66.8985L454.766 68.8135C457.515 69.6415 460.316 70.056 463.167 70.056V68.056ZM455.357 66.9028C452.845 66.1063 450.481 64.8797 448.263 63.216L447.062 64.816C449.452 66.6083 452.016 67.9417 454.752 68.8092L455.357 66.9028ZM448.268 63.2201C446.102 61.5724 444.179 59.4405 442.507 56.8078L440.818 57.8802C442.602 60.6875 444.679 63.0036 447.057 64.8119L448.268 63.2201ZM442.507 56.8078C440.843 54.1897 439.52 51.0561 438.549 47.3919L436.616 47.9041C437.629 51.7279 439.026 55.0583 440.818 57.8802L442.507 56.8078ZM438.552 47.4016C437.617 43.7241 437.142 39.4577 437.142 34.592H435.142C435.142 39.5823 435.628 44.0199 436.613 47.8944L438.552 47.4016ZM437.142 34.592C437.142 29.7587 437.617 25.525 438.551 21.8804L436.614 21.3836C435.628 25.227 435.142 29.6333 435.142 34.592H437.142ZM438.55 21.8861C439.521 18.19 440.843 15.0593 442.504 12.4768L440.821 11.3952C439.026 14.1887 437.628 17.522 436.615 21.3779L438.55 21.8861ZM442.507 12.4722C444.179 9.83948 446.102 7.70757 448.268 6.05994L447.057 4.46805C444.679 6.27642 442.602 8.59251 440.818 11.3998L442.507 12.4722ZM448.263 6.064C450.478 4.40218 452.839 3.19299 455.346 2.42853L454.763 0.515465C452.022 1.351 449.455 2.66982 447.062 4.464L448.263 6.064ZM455.353 2.42627C457.914 1.62423 460.517 1.224 463.167 1.224V-0.776003C460.312 -0.776003 457.507 -0.344234 454.756 0.517723L455.353 2.42627ZM463.167 1.224C465.816 1.224 468.402 1.62421 470.928 2.42523L471.533 0.518768C468.811 -0.344219 466.021 -0.776003 463.167 -0.776003V1.224ZM470.939 2.42853C473.445 3.19261 475.788 4.40068 477.969 6.05994L479.18 4.46805C476.818 2.67132 474.264 1.35139 471.522 0.515465L470.939 2.42853ZM477.974 6.064C480.169 7.70992 482.088 9.83817 483.726 12.4651L485.423 11.4069C483.669 8.59383 481.588 6.27408 479.174 4.464L477.974 6.064ZM483.733 12.4768C485.394 15.0593 486.716 18.19 487.687 21.8861L489.622 21.3779C488.609 17.522 487.211 14.1887 485.416 11.3952L483.733 12.4768ZM487.688 21.8881C488.653 25.53 489.143 29.7608 489.143 34.592H491.143C491.143 29.6312 490.64 25.222 489.621 21.3759L487.688 21.8881ZM489.143 34.592C489.143 39.4555 488.653 43.7192 487.687 47.3939L489.622 47.9021C490.64 44.0248 491.143 39.5845 491.143 34.592H489.143ZM487.688 47.3919C486.717 51.0561 485.394 54.1897 483.73 56.8078L485.419 57.8802C487.211 55.0583 488.608 51.7279 489.621 47.9041L487.688 47.3919ZM483.726 56.8149C482.088 59.4418 480.169 61.5701 477.974 63.216L479.174 64.816C481.588 63.0059 483.669 60.6862 485.423 57.8731L483.726 56.8149ZM477.969 63.2201C475.785 64.8812 473.439 66.1067 470.928 66.9028L471.533 68.8092C474.27 67.9413 476.82 66.6068 479.18 64.8119L477.969 63.2201ZM470.939 66.8995C468.41 67.6706 465.82 68.056 463.167 68.056V70.056C466.017 70.056 468.803 69.6414 471.522 68.8125L470.939 66.8995ZM463.167 62.616C465.506 62.616 467.77 62.0641 469.95 60.9744L469.055 59.1856C467.139 60.1439 465.179 60.616 463.167 60.616V62.616ZM469.95 60.9744C472.16 59.8691 474.115 58.157 475.823 55.88L474.223 54.68C472.666 56.755 470.941 58.2429 469.055 59.1856L469.95 60.9744ZM475.817 55.8875C477.576 53.5871 478.936 50.6804 479.921 47.2003L477.996 46.6557C477.061 49.9596 475.797 52.6209 474.228 54.6725L475.817 55.8875ZM479.919 47.2063C480.944 43.6667 481.447 39.4559 481.447 34.592H479.447C479.447 39.3281 478.957 43.3413 477.998 46.6497L479.919 47.2063ZM481.447 34.592C481.447 29.7598 480.944 25.58 479.918 22.0713L477.999 22.6327C478.957 25.908 479.447 29.8882 479.447 34.592H481.447ZM479.921 22.082C478.937 18.5702 477.576 15.6593 475.812 13.3869L474.233 14.6131C475.797 16.6287 477.06 19.2858 477.996 22.622L479.921 22.082ZM475.823 13.4C474.115 11.123 472.16 9.41088 469.95 8.30557L469.055 10.0944C470.941 11.0371 472.666 12.525 474.223 14.6L475.823 13.4ZM469.95 8.30557C467.77 7.21587 465.506 6.664 463.167 6.664V8.664C465.179 8.664 467.139 9.13612 469.055 10.0944L469.95 8.30557ZM463.167 6.664C460.827 6.664 458.549 7.21571 456.341 8.30283L457.224 10.0972C459.176 9.13629 461.154 8.664 463.167 8.664V6.664ZM456.335 8.30557C454.127 9.40966 452.159 11.1192 450.42 13.3926L452.009 14.6074C453.598 12.5288 455.342 11.0383 457.23 10.0944L456.335 8.30557ZM450.419 13.3943C448.692 15.6624 447.334 18.5675 446.318 22.0737L448.239 22.6303C449.207 19.2885 450.473 16.6256 452.01 14.6057L450.419 13.3943ZM446.316 22.0797C445.324 25.5852 444.839 29.762 444.839 34.592H446.839C446.839 29.886 447.313 25.9028 448.241 22.6243L446.316 22.0797ZM444.839 34.592C444.839 39.4537 445.324 43.6615 446.316 47.198L448.241 46.658C447.313 43.3465 446.839 39.3303 446.839 34.592H444.839ZM446.319 47.2087C447.335 50.6831 448.693 53.5841 450.414 55.88L452.014 54.68C450.472 52.6239 449.206 49.9569 448.238 46.6473L446.319 47.2087ZM450.42 55.8875C452.159 58.1608 454.127 59.8703 456.335 60.9744L457.23 59.1856C455.342 58.2417 453.598 56.7512 452.009 54.6725L450.42 55.8875ZM456.341 60.9772C458.549 62.0643 460.827 62.616 463.167 62.616V60.616C461.154 60.616 459.176 60.1437 457.224 59.1828L456.341 60.9772ZM553.684 68H552.684V69H553.684V68ZM553.684 0.799995V-0.200005H552.684V0.799995H553.684ZM595.684 0.799995H596.684V-0.200005H595.684V0.799995ZM595.684 8.096V9.096H596.684V8.096H595.684ZM563.188 8.096V7.096H562.188V8.096H563.188ZM563.188 31.328H562.188V32.328H563.188V31.328ZM591.844 31.328H592.844V30.328H591.844V31.328ZM591.844 38.624V39.624H592.844V38.624H591.844ZM563.188 38.624V37.624H562.188V38.624H563.188ZM563.188 60.704H562.188V61.704H563.188V60.704ZM595.684 60.704H596.684V59.704H595.684V60.704ZM595.684 68V69H596.684V68H595.684ZM554.684 68V0.799995H552.684V68H554.684ZM553.684 1.8H595.684V-0.200005H553.684V1.8ZM594.684 0.799995V8.096H596.684V0.799995H594.684ZM595.684 7.096H563.188V9.096H595.684V7.096ZM562.188 8.096V31.328H564.188V8.096H562.188ZM563.188 32.328H591.844V30.328H563.188V32.328ZM590.844 31.328V38.624H592.844V31.328H590.844ZM591.844 37.624H563.188V39.624H591.844V37.624ZM562.188 38.624V60.704H564.188V38.624H562.188ZM563.188 61.704H595.684V59.704H563.188V61.704ZM594.684 60.704V68H596.684V60.704H594.684ZM595.684 67H553.684V69H595.684V67ZM612.378 68H611.378V69H612.378V68ZM612.378 0.799995V-0.200005H611.378V0.799995H612.378ZM626.393 0.799995L627.313 0.406347L627.053 -0.200005H626.393V0.799995ZM651.594 59.648V60.648H653.11L652.513 59.2543L651.594 59.648ZM650.01 59.648H649.01V60.648H650.01V59.648ZM650.01 0.799995V-0.200005H649.01V0.799995H650.01ZM659.513 0.799995H660.513V-0.200005H659.513V0.799995ZM659.513 68V69H660.513V68H659.513ZM647.226 68L646.31 68.4023L646.573 69H647.226V68ZM621.45 9.344V8.344H619.918L620.534 9.74631L621.45 9.344ZM621.882 9.344H622.882V8.344H621.882V9.344ZM621.882 68V69H622.882V68H621.882ZM613.378 68V0.799995H611.378V68H613.378ZM612.378 1.8H626.393V-0.200005H612.378V1.8ZM625.474 1.19364L650.674 60.0416L652.513 59.2543L627.313 0.406347L625.474 1.19364ZM651.594 58.648H650.01V60.648H651.594V58.648ZM651.01 59.648V0.799995H649.01V59.648H651.01ZM650.01 1.8H659.513V-0.200005H650.01V1.8ZM658.513 0.799995V68H660.513V0.799995H658.513ZM659.513 67H647.226V69H659.513V67ZM648.141 67.5977L622.365 8.94169L620.534 9.74631L646.31 68.4023L648.141 67.5977ZM621.45 10.344H621.882V8.344H621.45V10.344ZM620.882 9.344V68H622.882V9.344H620.882ZM621.882 67H612.378V69H621.882V67ZM726.031 68H725.031V69H726.031V68ZM726.031 0.799995V-0.200005H725.031V0.799995H726.031ZM753.199 1.184L753.058 2.17395L753.067 2.17534L753.077 2.17654L753.199 1.184ZM758.479 2.528L758.111 3.45768L758.121 3.46183L758.132 3.46574L758.479 2.528ZM763.135 5.31199L762.473 6.06137L762.481 6.06882L763.135 5.31199ZM766.495 10.064L765.575 10.4561L765.577 10.4616L766.495 10.064ZM765.967 25.424L766.848 25.8966L766.851 25.8913L765.967 25.424ZM761.743 30.56L761.146 29.7581L761.138 29.7638L761.743 30.56ZM757.375 32.768L757.183 31.7865L757.27 33.7625L757.375 32.768ZM761.407 33.968L760.992 34.8777L761.004 34.8831L761.015 34.8882L761.407 33.968ZM765.775 36.896L765.093 37.6277L765.102 37.6359L765.775 36.896ZM769.231 41.84L768.317 42.2461L768.321 42.2549L768.325 42.2637L769.231 41.84ZM768.319 59.408L767.439 58.9333L767.437 58.9369L768.319 59.408ZM761.887 65.84L762.346 66.7283L762.354 66.724L761.887 65.84ZM735.535 60.704H734.535V61.704H735.535V60.704ZM755.167 59.456L755.588 60.363L755.595 60.3597L755.167 59.456ZM759.439 55.472L758.577 54.9643L758.571 54.9759L759.439 55.472ZM759.151 41.504L759.951 40.904V40.904L759.151 41.504ZM754.495 38L754.155 38.9403L754.495 38ZM735.535 36.992V35.992H734.535V36.992H735.535ZM735.535 29.696H734.535V30.696H735.535V29.696ZM752.623 28.448L753.07 29.3424L753.077 29.339L752.623 28.448ZM756.703 24.656L755.859 24.1201L755.851 24.1319L756.703 24.656ZM757.471 13.328L756.544 13.7032L756.547 13.711L757.471 13.328ZM755.119 10.16L754.507 10.9507L754.513 10.9554L754.519 10.96L755.119 10.16ZM751.519 8.576L751.297 9.55113L751.308 9.55354L751.319 9.55571L751.519 8.576ZM735.535 8.096V7.096H734.535V8.096H735.535ZM727.031 68V0.799995H725.031V68H727.031ZM726.031 1.8H748.111V-0.200005H726.031V1.8ZM748.111 1.8C749.658 1.8 751.306 1.92378 753.058 2.17395L753.34 0.194046C751.508 -0.0677929 749.764 -0.200005 748.111 -0.200005V1.8ZM753.077 2.17654C754.817 2.39024 756.494 2.81727 758.111 3.45768L758.847 1.59831C757.072 0.894722 755.229 0.425751 753.321 0.191452L753.077 2.17654ZM758.132 3.46574C759.744 4.06305 761.19 4.92731 762.473 6.06132L763.797 4.56267C762.328 3.26468 760.67 2.27294 758.826 1.59025L758.132 3.46574ZM762.481 6.06882C763.759 7.17197 764.794 8.6246 765.575 10.4561L767.415 9.6719C766.532 7.5994 765.327 5.88402 763.789 4.55517L762.481 6.06882ZM765.577 10.4616C766.339 12.2195 766.743 14.4583 766.743 17.216H768.743C768.743 14.2777 768.315 11.7485 767.413 9.66639L765.577 10.4616ZM766.743 17.216C766.743 20.3289 766.173 22.895 765.083 24.9567L766.851 25.8913C768.129 23.473 768.743 20.5671 768.743 17.216H766.743ZM765.086 24.9514C763.955 27.0594 762.636 28.6476 761.146 29.7581L762.34 31.3619C764.114 30.0404 765.611 28.2046 766.848 25.8966L765.086 24.9514ZM761.138 29.7638C759.604 30.9298 758.289 31.5708 757.183 31.7865L757.567 33.7495C759.085 33.4532 760.682 32.6222 762.348 31.3562L761.138 29.7638ZM757.27 33.7625C758.351 33.8762 759.588 34.2369 760.992 34.8777L761.822 33.0583C760.282 32.3551 758.831 31.9158 757.48 31.7735L757.27 33.7625ZM761.015 34.8882C762.395 35.4754 763.756 36.3811 765.093 37.6276L766.457 36.1644C764.978 34.7869 763.427 33.7406 761.799 33.0478L761.015 34.8882ZM765.102 37.6359C766.393 38.8089 767.469 40.3369 768.317 42.2461L770.145 41.4339C769.201 39.3111 767.973 37.5431 766.448 36.1561L765.102 37.6359ZM768.325 42.2637C769.175 44.0815 769.623 46.3442 769.623 49.088H771.623C771.623 46.1358 771.143 43.5665 770.137 41.4163L768.325 42.2637ZM769.623 49.088C769.623 52.9944 768.879 56.2628 767.439 58.9333L769.199 59.8827C770.831 56.8572 771.623 53.2456 771.623 49.088H769.623ZM767.437 58.9369C766.026 61.5796 764.025 63.5785 761.42 64.956L762.354 66.724C765.317 65.1575 767.604 62.8684 769.201 59.8791L767.437 58.9369ZM761.428 64.9518C758.813 66.3042 755.681 67 751.999 67V69C755.933 69 759.393 68.2558 762.346 66.7282L761.428 64.9518ZM751.999 67H726.031V69H751.999V67ZM735.535 61.704H749.023V59.704H735.535V61.704ZM749.023 61.704C751.448 61.704 753.644 61.2656 755.588 60.363L754.746 58.549C753.106 59.3104 751.206 59.704 749.023 59.704V61.704ZM755.595 60.3597C757.608 59.406 759.184 57.9336 760.307 55.9681L758.571 54.9759C757.646 56.5944 756.374 57.778 754.739 58.5523L755.595 60.3597ZM760.301 55.9797C761.475 53.9872 762.023 51.4753 762.023 48.512H760.023C760.023 51.2447 759.515 53.3728 758.577 54.9643L760.301 55.9797ZM762.023 48.512C762.023 45.3807 761.375 42.8031 759.951 40.904L758.351 42.104C759.423 43.5329 760.023 45.6273 760.023 48.512H762.023ZM759.951 40.904C758.593 39.0931 756.885 37.8017 754.835 37.0597L754.155 38.9403C755.817 39.5423 757.213 40.5869 758.351 42.104L759.951 40.904ZM754.835 37.0597C752.879 36.3515 750.924 35.992 748.975 35.992V37.992C750.674 37.992 752.399 38.3045 754.155 38.9403L754.835 37.0597ZM748.975 35.992H735.535V37.992H748.975V35.992ZM734.535 36.992V60.704H736.535V36.992H734.535ZM735.535 30.696H747.247V28.696H735.535V30.696ZM747.247 30.696C749.317 30.696 751.263 30.2461 753.07 29.3424L752.176 27.5536C750.655 28.3139 749.017 28.696 747.247 28.696V30.696ZM753.077 29.339C754.941 28.3893 756.437 26.9963 757.555 25.1801L755.851 24.1319C754.921 25.6437 753.697 26.7787 752.169 27.557L753.077 29.339ZM757.547 25.1918C758.728 23.3318 759.287 21.0704 759.287 18.464H757.287C757.287 20.7856 756.79 22.6521 755.859 24.1202L757.547 25.1918ZM759.287 18.464C759.287 16.2787 759.007 14.4225 758.395 12.945L756.547 13.711C757.023 14.8575 757.287 16.4253 757.287 18.464H759.287ZM758.398 12.9528C757.795 11.463 756.907 10.2511 755.719 9.36L754.519 10.96C755.379 11.6049 756.059 12.505 756.544 13.7032L758.398 12.9528ZM755.731 9.36927C754.602 8.49483 753.255 7.91047 751.719 7.59628L751.319 9.55571C752.599 9.81752 753.652 10.2892 754.507 10.9507L755.731 9.36927ZM751.741 7.60087C750.247 7.26149 748.603 7.096 746.815 7.096V9.096C748.483 9.096 749.975 9.25051 751.297 9.55113L751.741 7.60087ZM746.815 7.096H735.535V9.096H746.815V7.096ZM734.535 8.096V29.696H736.535V8.096H734.535ZM834.693 68V69H835.989L835.66 67.7458L834.693 68ZM824.852 68L823.883 68.2464L824.075 69H824.852V68ZM820.533 51.008L821.502 50.7616L821.31 50.008H820.533V51.008ZM797.685 51.008V50.008H796.907L796.715 50.7616L797.685 51.008ZM793.365 68V69H794.142L794.334 68.2464L793.365 68ZM783.524 68L782.557 67.7458L782.228 69H783.524V68ZM801.188 0.799995V-0.200005H800.417L800.221 0.545774L801.188 0.799995ZM817.029 0.799995L817.996 0.545774L817.8 -0.200005H817.029V0.799995ZM808.484 8.096V7.096H807.711L807.517 7.84427L808.484 8.096ZM799.221 43.712L798.253 43.4603L797.927 44.712H799.221V43.712ZM818.997 43.712V44.712H820.29L819.964 43.4603L818.997 43.712ZM809.732 8.096L810.7 7.84427L810.506 7.096H809.732V8.096ZM834.693 67H824.852V69H834.693V67ZM825.822 67.7536L821.502 50.7616L819.563 51.2544L823.883 68.2464L825.822 67.7536ZM820.533 50.008H797.685V52.008H820.533V50.008ZM796.715 50.7616L792.395 67.7536L794.334 68.2464L798.654 51.2544L796.715 50.7616ZM793.365 67H783.524V69H793.365V67ZM784.492 68.2542L802.156 1.05422L800.221 0.545774L782.557 67.7458L784.492 68.2542ZM801.188 1.8H817.029V-0.200005H801.188V1.8ZM816.061 1.05422L833.725 68.2542L835.66 67.7458L817.996 0.545774L816.061 1.05422ZM807.517 7.84427L798.253 43.4603L800.188 43.9637L809.452 8.34773L807.517 7.84427ZM799.221 44.712H818.997V42.712H799.221V44.712ZM819.964 43.4603L810.7 7.84427L808.765 8.34773L818.029 43.9637L819.964 43.4603ZM809.732 7.096H808.484V9.096H809.732V7.096ZM850.906 68H849.906V69H850.906V68ZM850.906 0.799995V-0.200005H849.906V0.799995H850.906ZM880.186 1.328L879.993 2.30925L880.003 2.3112L880.013 2.31295L880.186 1.328ZM885.466 3.008L885.039 3.91243L885.466 3.008ZM890.026 6.272L889.311 6.97079L889.319 6.97911L890.026 6.272ZM893.194 26.864L892.265 26.495L892.262 26.5022L893.194 26.864ZM889.834 32.288L890.549 32.9872L890.557 32.9792L889.834 32.288ZM885.13 35.744L885.57 36.6418L885.577 36.6384L885.13 35.744ZM879.898 37.568L880.094 38.5487L880.108 38.5458L879.898 37.568ZM860.41 38.096V37.096H859.41V38.096H860.41ZM860.41 68V69H861.41V68H860.41ZM885.562 68L884.632 68.3683L884.883 69H885.562V68ZM872.65 35.408L872.543 34.4137L871.236 34.5538L871.72 35.7763L872.65 35.408ZM882.058 34.4L882.985 34.024L882.701 33.3254L881.951 33.4057L882.058 34.4ZM895.69 68V69H897.175L896.617 67.624L895.69 68ZM860.41 30.992H859.41V31.992H860.41V30.992ZM879.034 29.84L878.64 28.9208L878.634 28.9235L879.034 29.84ZM883.354 26.144L884.196 26.684L884.2 26.6768L883.354 26.144ZM883.258 12.464L882.433 13.0298L882.44 13.0391L882.446 13.0483L883.258 12.464ZM878.842 9.056L878.511 9.9996L878.842 9.056ZM860.41 8.096V7.096H859.41V8.096H860.41ZM851.906 68V0.799995H849.906V68H851.906ZM850.906 1.8H874.954V-0.200005H850.906V1.8ZM874.954 1.8C876.581 1.8 878.26 1.96877 879.993 2.30925L880.379 0.346748C878.528 -0.0167789 876.719 -0.200005 874.954 -0.200005V1.8ZM880.013 2.31295C881.748 2.61735 883.423 3.14998 885.039 3.91243L885.893 2.10356C884.117 1.26601 882.272 0.678642 880.359 0.34304L880.013 2.31295ZM885.039 3.91243C886.625 4.66029 888.048 5.67772 889.311 6.97074L890.741 5.57326C889.316 4.11427 887.699 2.9557 885.893 2.10356L885.039 3.91243ZM889.319 6.97911C890.58 8.24013 891.597 9.85755 892.355 11.8582L894.225 11.1498C893.383 8.92644 892.224 7.05587 890.733 5.56489L889.319 6.97911ZM892.355 11.8582C893.101 13.8285 893.49 16.2302 893.49 19.088H895.49C895.49 16.0578 895.079 13.4035 894.225 11.1498L892.355 11.8582ZM893.49 19.088C893.49 22.004 893.071 24.4646 892.265 26.495L894.123 27.233C895.045 24.9114 895.49 22.188 895.49 19.088H893.49ZM892.262 26.5022C891.471 28.5395 890.418 30.2312 889.111 31.5968L890.557 32.9792C892.066 31.4008 893.253 29.4765 894.126 27.2258L892.262 26.5022ZM889.119 31.5889C887.785 32.9527 886.307 34.0374 884.683 34.8496L885.577 36.6384C887.409 35.7226 889.067 34.5033 890.549 32.9871L889.119 31.5889ZM884.69 34.8462C883.065 35.6433 881.398 36.2239 879.688 36.5902L880.108 38.5458C881.982 38.1441 883.803 37.5087 885.57 36.6418L884.69 34.8462ZM879.702 36.5874C877.996 36.9286 876.414 37.096 874.954 37.096V39.096C876.566 39.096 878.28 38.9114 880.094 38.5486L879.702 36.5874ZM874.954 37.096H860.41V39.096H874.954V37.096ZM859.41 38.096V68H861.41V38.096H859.41ZM860.41 67H850.906V69H860.41V67ZM886.492 67.6317L873.58 35.0397L871.72 35.7763L884.632 68.3683L886.492 67.6317ZM872.757 36.4023L882.165 35.3943L881.951 33.4057L872.543 34.4137L872.757 36.4023ZM881.131 34.7759L894.763 68.376L896.617 67.624L882.985 34.024L881.131 34.7759ZM895.69 67H885.562V69H895.69V67ZM860.41 31.992H873.274V29.992H860.41V31.992ZM873.274 31.992C875.48 31.992 877.538 31.584 879.434 30.7565L878.634 28.9235C877.01 29.632 875.228 29.992 873.274 29.992V31.992ZM879.428 30.7591C881.41 29.9096 883.004 28.5423 884.196 26.684L882.512 25.604C881.528 27.1377 880.242 28.2344 878.64 28.9209L879.428 30.7591ZM884.2 26.6768C885.42 24.7396 885.986 22.2637 885.986 19.328H883.986C883.986 22.0243 883.464 24.0924 882.508 25.6112L884.2 26.6768ZM885.986 19.328C885.986 16.2431 885.392 13.7166 884.07 11.8797L882.446 13.0483C883.428 14.4114 883.986 16.4609 883.986 19.328H885.986ZM884.083 11.8982C882.845 10.0955 881.203 8.82451 879.173 8.1124L878.511 9.9996C880.129 10.5675 881.431 11.5685 882.433 13.0298L884.083 11.8982ZM879.173 8.1124C877.237 7.4329 875.188 7.096 873.034 7.096V9.096C874.976 9.096 876.799 9.3991 878.511 9.9996L879.173 8.1124ZM873.034 7.096H860.41V9.096H873.034V7.096ZM859.41 8.096V30.992H861.41V8.096H859.41ZM928.128 67.904L927.839 68.8615L927.846 68.8636L927.853 68.8655L928.128 67.904ZM920.591 64.16L921.174 63.347L920.591 64.16ZM914.304 57.584L913.473 58.141L913.476 58.1455L914.304 57.584ZM910.031 47.84L909.066 48.0997L909.066 48.1017L910.031 47.84ZM910.08 21.392L911.043 21.6613L911.043 21.6592L910.08 21.392ZM920.688 5.12L921.262 5.93819L921.265 5.93666L920.688 5.12ZM928.32 1.424L928.594 2.38555L928.602 2.38336L928.32 1.424ZM943.968 1.376L943.647 2.32334L943.655 2.32603L943.663 2.32858L943.968 1.376ZM950.208 4.544L949.612 5.34731L949.62 5.35306L949.628 5.35866L950.208 4.544ZM955.104 9.344L954.3 9.93958L954.305 9.94624L955.104 9.344ZM958.511 15.392L958.957 16.2874L959.787 15.8748L959.438 15.016L958.511 15.392ZM950.112 19.568L949.174 19.9167L949.562 20.9581L950.557 20.4634L950.112 19.568ZM948.192 15.44L947.314 15.9189L947.318 15.9274L948.192 15.44ZM945.359 11.6L944.623 12.2766L944.633 12.287L944.643 12.2971L945.359 11.6ZM941.52 8.768L941.072 9.66242L941.08 9.66635L941.088 9.67013L941.52 8.768ZM929.856 9.2L929.43 8.29517L929.424 8.29764L929.856 9.2ZM924 14L923.222 13.3711L923.221 13.3725L924 14ZM919.823 22.304L918.869 22.0067L918.866 22.015L919.823 22.304ZM923.951 55.328L923.168 55.9499L923.173 55.9555L923.951 55.328ZM929.76 60.08L929.328 60.9824H929.329L929.76 60.08ZM941.328 60.512L940.888 59.6137L940.88 59.6176L941.328 60.512ZM945.263 57.68L945.981 58.3771L945.99 58.3672L945.263 57.68ZM948.143 53.888L947.284 53.3765L948.143 53.888ZM950.112 49.952L950.565 49.0606L949.589 48.5646L949.183 49.5806L950.112 49.952ZM958.511 54.224L959.435 54.6076L959.79 53.7524L958.965 53.3326L958.511 54.224ZM955.104 60.08L954.312 59.4689L954.31 59.471L955.104 60.08ZM950.208 64.784L949.628 63.9693L949.621 63.9741L950.208 64.784ZM943.919 67.952L944.22 68.9059L944.232 68.902L943.919 67.952ZM936.287 68.056C933.63 68.056 931.002 67.6854 928.402 66.9425L927.853 68.8655C930.629 69.6586 933.441 70.056 936.287 70.056V68.056ZM928.416 66.9465C925.87 66.1797 923.457 64.9822 921.174 63.347L920.009 64.973C922.462 66.7298 925.073 68.0283 927.839 68.8615L928.416 66.9465ZM921.174 63.347C918.912 61.7272 916.896 59.624 915.131 57.0225L913.476 58.1455C915.359 60.92 917.535 63.2008 920.009 64.973L921.174 63.347ZM915.134 57.027C913.381 54.4131 911.998 51.269 910.997 47.5783L909.066 48.1017C910.113 51.963 911.578 55.3149 913.473 58.141L915.134 57.027ZM910.997 47.5803C910.001 43.8764 909.495 39.551 909.495 34.592H907.495C907.495 39.681 908.014 44.1876 909.066 48.0997L910.997 47.5803ZM909.495 34.592C909.495 29.6349 910.017 25.3291 911.043 21.6613L909.116 21.1227C908.03 25.0069 907.495 29.5011 907.495 34.592H909.495ZM911.043 21.6592C912.076 17.9342 913.476 14.7904 915.227 12.2095L913.572 11.0865C911.675 13.8816 910.195 17.2338 909.116 21.1248L911.043 21.6592ZM915.227 12.2095C916.991 9.60946 919.005 7.52462 921.262 5.93819L920.113 4.30181C917.634 6.04337 915.456 8.31054 913.572 11.0865L915.227 12.2095ZM921.265 5.93666C923.577 4.30227 926.02 3.12104 928.594 2.38552L928.045 0.462473C925.243 1.26295 922.598 2.54573 920.11 4.30333L921.265 5.93666ZM928.602 2.38336C931.234 1.60917 933.859 1.224 936.479 1.224V-0.776003C933.66 -0.776003 930.845 -0.361172 928.037 0.46463L928.602 2.38336ZM936.479 1.224C939.105 1.224 941.491 1.59454 943.647 2.32334L944.288 0.428659C941.9 -0.378546 939.294 -0.776003 936.479 -0.776003V1.224ZM943.663 2.32858C945.868 3.03273 947.848 4.03975 949.612 5.34731L950.803 3.74069C948.855 2.29625 946.675 1.19127 944.272 0.423422L943.663 2.32858ZM949.628 5.35866C951.43 6.64199 952.987 8.16812 954.3 9.93956L955.907 8.74844C954.468 6.80787 952.761 5.134 950.787 3.72933L949.628 5.35866ZM954.305 9.94624C955.627 11.6978 956.72 13.6372 957.585 15.768L959.438 15.016C958.511 12.7308 957.332 10.6382 955.902 8.74176L954.305 9.94624ZM958.066 14.4965L949.666 18.6726L950.557 20.4634L958.957 16.2874L958.066 14.4965ZM951.049 19.2193C950.518 17.7922 949.856 16.3699 949.065 14.9526L947.318 15.9274C948.063 17.2621 948.681 18.5918 949.174 19.9167L951.049 19.2193ZM949.069 14.9611C948.258 13.4733 947.26 12.1199 946.076 10.9029L944.643 12.2971C945.699 13.3841 946.589 14.5907 947.314 15.9188L949.069 14.9611ZM946.096 10.9234C944.92 9.64404 943.536 8.62407 941.951 7.86586L941.088 9.67013C942.447 10.3199 943.623 11.188 944.623 12.2766L946.096 10.9234ZM941.967 7.87357C940.337 7.05857 938.5 6.664 936.479 6.664V8.664C938.235 8.664 939.758 9.00542 941.072 9.66242L941.967 7.87357ZM936.479 6.664C934.082 6.664 931.729 7.2132 929.43 8.29518L930.281 10.1048C932.334 9.1388 934.397 8.664 936.479 8.664V6.664ZM929.424 8.29764C927.124 9.39629 925.059 11.0997 923.222 13.3711L924.777 14.6289C926.46 12.5483 928.299 11.0517 930.286 10.1024L929.424 8.29764ZM923.221 13.3725C921.395 15.6384 919.952 18.5278 918.869 22.0068L920.778 22.6012C921.807 19.2962 923.148 16.6496 924.778 14.6275L923.221 13.3725ZM918.866 22.015C917.806 25.5273 917.287 29.7263 917.287 34.592H919.287C919.287 29.8577 919.793 25.8647 920.781 22.593L918.866 22.015ZM917.287 34.592C917.287 39.4581 917.806 43.6719 918.865 47.2145L920.782 46.6415C919.793 43.3361 919.287 39.3259 919.287 34.592H917.287ZM918.865 47.2145C919.916 50.7271 921.342 53.6502 923.168 55.9499L924.735 54.7061C923.105 52.6538 921.779 49.9769 920.782 46.6415L918.865 47.2145ZM923.173 55.9555C924.98 58.1975 927.03 59.8844 929.328 60.9824L930.19 59.1776C928.201 58.2276 926.379 56.7465 924.73 54.7005L923.173 55.9555ZM929.329 60.9824C931.595 62.0646 933.901 62.616 936.24 62.616V60.616C934.226 60.616 932.212 60.1434 930.19 59.1776L929.329 60.9824ZM936.24 62.616C938.289 62.616 940.142 62.2225 941.775 61.4064L940.88 59.6176C939.569 60.2735 938.03 60.616 936.24 60.616V62.616ZM941.767 61.4102C943.37 60.6258 944.777 59.615 945.98 58.3771L944.547 56.9829C943.51 58.049 942.293 58.9262 940.888 59.6138L941.767 61.4102ZM945.99 58.3672C947.158 57.1319 948.164 55.8094 949.003 54.3995L947.284 53.3765C946.523 54.6546 945.609 55.8601 944.537 56.9928L945.99 58.3672ZM949.003 54.3995C949.826 53.0165 950.506 51.6578 951.04 50.3234L949.183 49.5806C948.693 50.8062 948.061 52.0715 947.284 53.3765L949.003 54.3995ZM949.658 50.8434L958.058 55.1153L958.965 53.3326L950.565 49.0606L949.658 50.8434ZM957.588 53.8404C956.759 55.8372 955.667 57.713 954.312 59.4689L955.895 60.6911C957.356 58.799 958.536 56.7708 959.435 54.6076L957.588 53.8404ZM954.31 59.471C952.996 61.1822 951.437 62.6814 949.628 63.9693L950.787 65.5987C952.754 64.1986 954.459 62.5618 955.897 60.689L954.31 59.471ZM949.621 63.9741C947.854 65.2532 945.852 66.2639 943.607 67.002L944.232 68.902C946.659 68.1041 948.849 67.0028 950.794 65.5939L949.621 63.9741ZM943.619 66.9982C941.391 67.7001 938.95 68.056 936.287 68.056V70.056C939.129 70.056 941.776 69.6759 944.22 68.9058L943.619 66.9982ZM976.309 68H975.309V69H976.309V68ZM976.309 0.799995V-0.200005H975.309V0.799995H976.309ZM1018.31 0.799995H1019.31V-0.200005H1018.31V0.799995ZM1018.31 8.096V9.096H1019.31V8.096H1018.31ZM985.813 8.096V7.096H984.813V8.096H985.813ZM985.813 31.328H984.813V32.328H985.813V31.328ZM1014.47 31.328H1015.47V30.328H1014.47V31.328ZM1014.47 38.624V39.624H1015.47V38.624H1014.47ZM985.813 38.624V37.624H984.813V38.624H985.813ZM985.813 60.704H984.813V61.704H985.813V60.704ZM1018.31 60.704H1019.31V59.704H1018.31V60.704ZM1018.31 68V69H1019.31V68H1018.31ZM977.309 68V0.799995H975.309V68H977.309ZM976.309 1.8H1018.31V-0.200005H976.309V1.8ZM1017.31 0.799995V8.096H1019.31V0.799995H1017.31ZM1018.31 7.096H985.813V9.096H1018.31V7.096ZM984.813 8.096V31.328H986.813V8.096H984.813ZM985.813 32.328H1014.47V30.328H985.813V32.328ZM1013.47 31.328V38.624H1015.47V31.328H1013.47ZM1014.47 37.624H985.813V39.624H1014.47V37.624ZM984.813 38.624V60.704H986.813V38.624H984.813ZM985.813 61.704H1018.31V59.704H985.813V61.704ZM1017.31 60.704V68H1019.31V60.704H1017.31ZM1018.31 67H976.309V69H1018.31V67ZM1034.86 68H1033.86V69H1034.86V68ZM1034.86 0.799995V-0.200005H1033.86V0.799995H1034.86ZM1044.41 0.799995H1045.41V-0.200005H1044.41V0.799995ZM1044.41 60.704H1043.41V61.704H1044.41V60.704ZM1070.43 60.704H1071.43V59.704H1070.43V60.704ZM1070.43 68V69H1071.43V68H1070.43ZM1035.86 68V0.799995H1033.86V68H1035.86ZM1034.86 1.8H1044.41V-0.200005H1034.86V1.8ZM1043.41 0.799995V60.704H1045.41V0.799995H1043.41ZM1044.41 61.704H1070.43V59.704H1044.41V61.704ZM1069.43 60.704V68H1071.43V60.704H1069.43ZM1070.43 67H1034.86V69H1070.43V67ZM1098.55 67.856L1098.25 68.8092L1098.26 68.8114L1098.27 68.8135L1098.55 67.856ZM1091.16 64.016L1090.56 64.812L1090.56 64.816L1091.16 64.016ZM1085.16 57.344L1084.32 57.8802L1085.16 57.344ZM1081.08 47.648L1080.11 47.8944L1080.12 47.9041L1081.08 47.648ZM1081.08 21.632L1080.12 21.3779L1080.11 21.3836L1081.08 21.632ZM1085.16 11.936L1086 12.4768L1086.01 12.4722L1085.16 11.936ZM1091.16 5.264L1090.56 4.46398L1090.56 4.46805L1091.16 5.264ZM1098.55 1.472L1098.85 2.42856L1098.85 2.42627L1098.55 1.472ZM1114.73 1.472L1114.43 2.42529L1114.44 2.42853L1114.73 1.472ZM1122.07 5.264L1121.47 6.05996L1121.47 6.064L1122.07 5.264ZM1128.07 11.936L1127.23 12.4651L1127.23 12.4768L1128.07 11.936ZM1132.15 21.632L1131.19 21.8861L1131.19 21.8881L1132.15 21.632ZM1132.15 47.648L1133.12 47.9041L1133.12 47.9021L1132.15 47.648ZM1128.07 57.344L1127.23 56.8077L1127.23 56.8149L1128.07 57.344ZM1122.07 64.016L1121.47 63.216L1121.47 63.2201L1122.07 64.016ZM1114.73 67.856L1115.02 68.8126L1115.03 68.8092L1114.73 67.856ZM1118.52 55.28L1117.73 54.6725L1117.72 54.68L1118.52 55.28ZM1122.46 46.928L1121.5 46.6497L1121.5 46.6557L1122.46 46.928ZM1122.46 22.352L1121.5 22.622L1121.5 22.6327L1122.46 22.352ZM1118.52 14L1117.72 14.6L1117.73 14.6066L1117.73 14.6131L1118.52 14ZM1113 9.2L1112.56 10.0944V10.0944L1113 9.2ZM1100.28 9.2L1099.84 8.30281L1099.84 8.30557L1100.28 9.2ZM1094.71 14L1093.92 13.3925L1093.92 13.3943L1094.71 14ZM1090.78 22.352L1089.82 22.0737L1089.82 22.0797L1090.78 22.352ZM1090.78 46.928L1089.82 47.198L1089.82 47.2087L1090.78 46.928ZM1094.71 55.28L1093.91 55.88L1093.92 55.8875L1094.71 55.28ZM1100.28 60.08L1099.84 60.9744L1099.84 60.9772L1100.28 60.08ZM1106.67 68.056C1104.01 68.056 1101.41 67.6705 1098.84 66.8985L1098.27 68.8135C1101.01 69.6415 1103.82 70.056 1106.67 70.056V68.056ZM1098.86 66.9028C1096.34 66.1063 1093.98 64.8797 1091.76 63.216L1090.56 64.816C1092.95 66.6083 1095.52 67.9417 1098.25 68.8092L1098.86 66.9028ZM1091.77 63.2201C1089.6 61.5724 1087.68 59.4405 1086.01 56.8078L1084.32 57.8802C1086.1 60.6875 1088.18 63.0036 1090.56 64.8119L1091.77 63.2201ZM1086.01 56.8078C1084.34 54.1897 1083.02 51.0561 1082.05 47.3919L1080.12 47.9041C1081.13 51.7279 1082.53 55.0583 1084.32 57.8802L1086.01 56.8078ZM1082.05 47.4016C1081.12 43.7241 1080.64 39.4577 1080.64 34.592H1078.64C1078.64 39.5823 1079.13 44.0199 1080.11 47.8944L1082.05 47.4016ZM1080.64 34.592C1080.64 29.7587 1081.12 25.525 1082.05 21.8804L1080.11 21.3836C1079.13 25.227 1078.64 29.6333 1078.64 34.592H1080.64ZM1082.05 21.8861C1083.02 18.19 1084.34 15.0593 1086 12.4768L1084.32 11.3952C1082.53 14.1887 1081.13 17.522 1080.12 21.3779L1082.05 21.8861ZM1086.01 12.4722C1087.68 9.83948 1089.6 7.70757 1091.77 6.05994L1090.56 4.46805C1088.18 6.27642 1086.1 8.59251 1084.32 11.3998L1086.01 12.4722ZM1091.76 6.064C1093.98 4.40218 1096.34 3.19299 1098.85 2.42853L1098.26 0.515465C1095.52 1.351 1092.95 2.66982 1090.56 4.464L1091.76 6.064ZM1098.85 2.42627C1101.41 1.62423 1104.02 1.224 1106.67 1.224V-0.776003C1103.81 -0.776003 1101.01 -0.344234 1098.26 0.517723L1098.85 2.42627ZM1106.67 1.224C1109.32 1.224 1111.9 1.62421 1114.43 2.42523L1115.03 0.518768C1112.31 -0.344219 1109.52 -0.776003 1106.67 -0.776003V1.224ZM1114.44 2.42853C1116.95 3.19261 1119.29 4.40068 1121.47 6.05994L1122.68 4.46805C1120.32 2.67132 1117.76 1.35139 1115.02 0.515465L1114.44 2.42853ZM1121.47 6.064C1123.67 7.70992 1125.59 9.83817 1127.23 12.4651L1128.92 11.4069C1127.17 8.59383 1125.09 6.27408 1122.67 4.464L1121.47 6.064ZM1127.23 12.4768C1128.89 15.0593 1130.22 18.19 1131.19 21.8861L1133.12 21.3779C1132.11 17.522 1130.71 14.1887 1128.92 11.3952L1127.23 12.4768ZM1131.19 21.8881C1132.15 25.53 1132.64 29.7608 1132.64 34.592H1134.64C1134.64 29.6312 1134.14 25.222 1133.12 21.3759L1131.19 21.8881ZM1132.64 34.592C1132.64 39.4555 1132.15 43.7192 1131.19 47.3939L1133.12 47.9021C1134.14 44.0248 1134.64 39.5845 1134.64 34.592H1132.64ZM1131.19 47.3919C1130.22 51.0561 1128.89 54.1897 1127.23 56.8078L1128.92 57.8802C1130.71 55.0583 1132.11 51.7279 1133.12 47.9041L1131.19 47.3919ZM1127.23 56.8149C1125.59 59.4418 1123.67 61.5701 1121.47 63.216L1122.67 64.816C1125.09 63.0059 1127.17 60.6862 1128.92 57.8731L1127.23 56.8149ZM1121.47 63.2201C1119.29 64.8812 1116.94 66.1067 1114.43 66.9028L1115.03 68.8092C1117.77 67.9413 1120.32 66.6068 1122.68 64.8119L1121.47 63.2201ZM1114.44 66.8995C1111.91 67.6706 1109.32 68.056 1106.67 68.056V70.056C1109.52 70.056 1112.3 69.6414 1115.02 68.8125L1114.44 66.8995ZM1106.67 62.616C1109.01 62.616 1111.27 62.0641 1113.45 60.9744L1112.56 59.1856C1110.64 60.1439 1108.68 60.616 1106.67 60.616V62.616ZM1113.45 60.9744C1115.66 59.8691 1117.61 58.157 1119.32 55.88L1117.72 54.68C1116.17 56.755 1114.44 58.2429 1112.56 59.1856L1113.45 60.9744ZM1119.32 55.8875C1121.08 53.5871 1122.44 50.6804 1123.42 47.2003L1121.5 46.6557C1120.56 49.9596 1119.3 52.6209 1117.73 54.6725L1119.32 55.8875ZM1123.42 47.2063C1124.44 43.6667 1124.95 39.4559 1124.95 34.592H1122.95C1122.95 39.3281 1122.46 43.3413 1121.5 46.6497L1123.42 47.2063ZM1124.95 34.592C1124.95 29.7598 1124.44 25.58 1123.42 22.0713L1121.5 22.6327C1122.46 25.908 1122.95 29.8882 1122.95 34.592H1124.95ZM1123.42 22.082C1122.44 18.5702 1121.08 15.6593 1119.31 13.3869L1117.73 14.6131C1119.3 16.6287 1120.56 19.2858 1121.5 22.622L1123.42 22.082ZM1119.32 13.4C1117.61 11.123 1115.66 9.41088 1113.45 8.30557L1112.56 10.0944C1114.44 11.0371 1116.17 12.525 1117.72 14.6L1119.32 13.4ZM1113.45 8.30557C1111.27 7.21587 1109.01 6.664 1106.67 6.664V8.664C1108.68 8.664 1110.64 9.13612 1112.56 10.0944L1113.45 8.30557ZM1106.67 6.664C1104.33 6.664 1102.05 7.21571 1099.84 8.30283L1100.72 10.0972C1102.68 9.13629 1104.65 8.664 1106.67 8.664V6.664ZM1099.84 8.30557C1097.63 9.40966 1095.66 11.1192 1093.92 13.3926L1095.51 14.6074C1097.1 12.5288 1098.84 11.0383 1100.73 10.0944L1099.84 8.30557ZM1093.92 13.3943C1092.19 15.6624 1090.83 18.5675 1089.82 22.0737L1091.74 22.6303C1092.71 19.2885 1093.97 16.6256 1095.51 14.6057L1093.92 13.3943ZM1089.82 22.0797C1088.82 25.5852 1088.34 29.762 1088.34 34.592H1090.34C1090.34 29.886 1090.81 25.9028 1091.74 22.6243L1089.82 22.0797ZM1088.34 34.592C1088.34 39.4537 1088.82 43.6615 1089.82 47.198L1091.74 46.658C1090.81 43.3465 1090.34 39.3303 1090.34 34.592H1088.34ZM1089.82 47.2087C1090.83 50.6831 1092.19 53.5841 1093.91 55.88L1095.51 54.68C1093.97 52.6239 1092.71 49.9569 1091.74 46.6473L1089.82 47.2087ZM1093.92 55.8875C1095.66 58.1608 1097.63 59.8703 1099.84 60.9744L1100.73 59.1856C1098.84 58.2417 1097.1 56.7512 1095.51 54.6725L1093.92 55.8875ZM1099.84 60.9772C1102.05 62.0643 1104.33 62.616 1106.67 62.616V60.616C1104.65 60.616 1102.68 60.1437 1100.72 59.1828L1099.84 60.9772ZM1145.44 68H1144.44V69H1145.44V68ZM1145.44 0.799995V-0.200005H1144.44V0.799995H1145.44ZM1159.46 0.799995L1160.38 0.406347L1160.12 -0.200005H1159.46V0.799995ZM1184.66 59.648V60.648H1186.17L1185.58 59.2543L1184.66 59.648ZM1183.07 59.648H1182.07V60.648H1183.07V59.648ZM1183.07 0.799995V-0.200005H1182.07V0.799995H1183.07ZM1192.58 0.799995H1193.58V-0.200005H1192.58V0.799995ZM1192.58 68V69H1193.58V68H1192.58ZM1180.29 68L1179.37 68.4023L1179.64 69H1180.29V68ZM1154.51 9.344V8.344H1152.98L1153.6 9.74631L1154.51 9.344ZM1154.94 9.344H1155.94V8.344H1154.94V9.344ZM1154.94 68V69H1155.94V68H1154.94ZM1146.44 68V0.799995H1144.44V68H1146.44ZM1145.44 1.8H1159.46V-0.200005H1145.44V1.8ZM1158.54 1.19364L1183.74 60.0416L1185.58 59.2543L1160.38 0.406347L1158.54 1.19364ZM1184.66 58.648H1183.07V60.648H1184.66V58.648ZM1184.07 59.648V0.799995H1182.07V59.648H1184.07ZM1183.07 1.8H1192.58V-0.200005H1183.07V1.8ZM1191.58 0.799995V68H1193.58V0.799995H1191.58ZM1192.58 67H1180.29V69H1192.58V67ZM1181.2 67.5977L1155.43 8.94169L1153.6 9.74631L1179.37 68.4023L1181.2 67.5977ZM1154.51 10.344H1154.94V8.344H1154.51V10.344ZM1153.94 9.344V68H1155.94V9.344H1153.94ZM1154.94 67H1145.44V69H1154.94V67ZM1257.32 68V69H1258.61L1258.28 67.7458L1257.32 68ZM1247.48 68L1246.51 68.2464L1246.7 69H1247.48V68ZM1243.16 51.008L1244.13 50.7616L1243.94 50.008H1243.16V51.008ZM1220.31 51.008V50.008H1219.53L1219.34 50.7616L1220.31 51.008ZM1215.99 68V69H1216.77L1216.96 68.2464L1215.99 68ZM1206.15 68L1205.18 67.7458L1204.85 69H1206.15V68ZM1223.81 0.799995V-0.200005H1223.04L1222.85 0.545774L1223.81 0.799995ZM1239.65 0.799995L1240.62 0.545774L1240.42 -0.200005H1239.65V0.799995ZM1231.11 8.096V7.096H1230.34L1230.14 7.84427L1231.11 8.096ZM1221.85 43.712L1220.88 43.4603L1220.55 44.712H1221.85V43.712ZM1241.62 43.712V44.712H1242.91L1242.59 43.4603L1241.62 43.712ZM1232.36 8.096L1233.33 7.84427L1233.13 7.096H1232.36V8.096ZM1257.32 67H1247.48V69H1257.32V67ZM1248.45 67.7536L1244.13 50.7616L1242.19 51.2544L1246.51 68.2464L1248.45 67.7536ZM1243.16 50.008H1220.31V52.008H1243.16V50.008ZM1219.34 50.7616L1215.02 67.7536L1216.96 68.2464L1221.28 51.2544L1219.34 50.7616ZM1215.99 67H1206.15V69H1215.99V67ZM1207.12 68.2542L1224.78 1.05422L1222.85 0.545774L1205.18 67.7458L1207.12 68.2542ZM1223.81 1.8H1239.65V-0.200005H1223.81V1.8ZM1238.69 1.05422L1256.35 68.2542L1258.28 67.7458L1240.62 0.545774L1238.69 1.05422ZM1230.14 7.84427L1220.88 43.4603L1222.81 43.9637L1232.08 8.34773L1230.14 7.84427ZM1221.85 44.712H1241.62V42.712H1221.85V44.712ZM1242.59 43.4603L1233.33 7.84427L1231.39 8.34773L1240.65 43.9637L1242.59 43.4603ZM1232.36 7.096H1231.11V9.096H1232.36V7.096Z" fill="#FF0000" mask="url(#path-1-outside-1_82_68)"/>
<defs>
<filter id="filter0_i_82_68" x="0.327881" y="0.223999" width="1256.99" height="72.832" filterUnits="userSpaceOnUse" color-interpolation-filters="sRGB">
<feFlood flood-opacity="0" result="BackgroundImageFix"/>
<feBlend mode="normal" in="SourceGraphic" in2="BackgroundImageFix" result="shape"/>
<feColorMatrix in="SourceAlpha" type="matrix" values="0 0 0 0 0 0 0 0 0 0 0 0 0 0 0 0 0 0 127 0" result="hardAlpha"/>
<feOffset dy="4"/>
<feGaussianBlur stdDeviation="2"/>
<feComposite in2="hardAlpha" operator="arithmetic" k2="-1" k3="1"/>
<feColorMatrix type="matrix" values="0 0 0 0 0 0 0 0 0 0 0 0 0 0 0 0 0 0 0.25 0"/>
<feBlend mode="normal" in2="shape" result="effect1_innerShadow_82_68"/>
</filter>
</defs>
</svg>
