<svg width="1142" height="86" viewBox="0 0 1142 86" fill="none" xmlns="http://www.w3.org/2000/svg">
<mask id="path-1-outside-1_82_60" maskUnits="userSpaceOnUse" x="-1" y="-2" width="1144" height="89" fill="black">
<rect fill="white" x="-1" y="-2" width="1144" height="89"/>
<path d="M0.456001 84V16.8H17.976C20.248 16.8 22.52 16.992 24.792 17.376C27.064 17.728 29.272 18.368 31.416 19.296C33.56 20.224 35.544 21.504 37.368 23.136C39.224 24.768 40.84 26.816 42.216 29.28C43.624 31.744 44.712 34.72 45.48 38.208C46.28 41.664 46.68 45.728 46.68 50.4C46.68 55.04 46.28 59.104 45.48 62.592C44.712 66.08 43.624 69.056 42.216 71.52C40.84 73.984 39.224 76.032 37.368 77.664C35.544 79.296 33.56 80.576 31.416 81.504C29.272 82.432 27.064 83.088 24.792 83.472C22.52 83.824 20.248 84 17.976 84H0.456001ZM9.96 76.704H17.256C19.976 76.704 22.504 76.288 24.84 75.456C27.208 74.624 29.304 73.216 31.128 71.232C32.952 69.248 34.36 66.56 35.352 63.168C36.376 59.776 36.888 55.52 36.888 50.4C36.888 45.28 36.376 41.024 35.352 37.632C34.36 34.24 32.952 31.552 31.128 29.568C29.304 27.584 27.208 26.176 24.84 25.344C22.504 24.512 19.976 24.096 17.256 24.096H9.96V76.704ZM65.9655 84V76.704H79.8375V24.096H65.9655V16.8H103.31V24.096H89.3415V76.704H103.31V84H65.9655ZM147.219 85.056C143.251 85.056 139.587 84.496 136.227 83.376C132.867 82.256 129.987 80.64 127.587 78.528C125.219 76.416 123.507 73.888 122.451 70.944L131.619 66.96C132.387 69.008 133.539 70.832 135.075 72.432C136.611 74 138.451 75.232 140.595 76.128C142.739 77.024 145.139 77.472 147.795 77.472C150.579 77.472 152.995 77.024 155.043 76.128C157.123 75.2 158.723 73.904 159.843 72.24C160.963 70.576 161.523 68.576 161.523 66.24C161.523 64.48 161.043 62.912 160.083 61.536C159.155 60.128 157.875 58.912 156.243 57.888C154.611 56.832 152.787 55.936 150.771 55.2C148.787 54.432 146.755 53.792 144.675 53.28C141.731 52.512 139.027 51.584 136.563 50.496C134.131 49.408 132.003 48.096 130.179 46.56C128.387 44.992 126.995 43.136 126.003 40.992C125.043 38.848 124.563 36.336 124.563 33.456C124.563 31.152 124.995 29.072 125.859 27.216C126.723 25.36 127.907 23.744 129.411 22.368C130.947 20.992 132.691 19.856 134.643 18.96C136.627 18.032 138.755 17.344 141.027 16.896C143.299 16.448 145.587 16.224 147.891 16.224C151.539 16.224 154.915 16.768 158.019 17.856C161.123 18.912 163.747 20.384 165.891 22.272C168.035 24.128 169.507 26.24 170.307 28.608L161.331 32.64C160.659 30.752 159.667 29.152 158.355 27.84C157.075 26.528 155.507 25.536 153.651 24.864C151.827 24.16 149.795 23.808 147.555 23.808C145.859 23.808 144.227 24.016 142.659 24.432C141.123 24.816 139.731 25.408 138.483 26.208C137.267 26.976 136.291 27.952 135.555 29.136C134.851 30.288 134.499 31.648 134.499 33.216C134.499 35.424 135.091 37.296 136.275 38.832C137.459 40.368 139.091 41.664 141.171 42.72C143.283 43.744 145.715 44.608 148.467 45.312C150.611 45.888 152.771 46.56 154.947 47.328C157.155 48.064 159.235 48.96 161.187 50.016C163.171 51.072 164.931 52.336 166.467 53.808C168.035 55.248 169.267 56.944 170.163 58.896C171.059 60.816 171.507 63.024 171.507 65.52C171.507 68.208 171.059 70.608 170.163 72.72C169.299 74.832 168.099 76.672 166.563 78.24C165.027 79.776 163.235 81.056 161.187 82.08C159.139 83.072 156.915 83.808 154.515 84.288C152.147 84.8 149.715 85.056 147.219 85.056ZM189.497 84V16.8H231.497V24.096H199.001V47.328H227.656V54.624H199.001V76.704H231.497V84H189.497ZM248.19 84V16.8H262.206L287.406 75.648H285.822V16.8H295.326V84H283.038L257.262 25.344H257.694V84H248.19ZM276.942 11.136C275.438 11.136 274.206 10.832 273.246 10.224C272.286 9.616 271.406 8.976 270.606 8.304C269.934 7.728 269.262 7.232 268.59 6.816C267.918 6.368 267.134 6.144 266.238 6.144C264.67 6.144 263.438 6.70399 262.542 7.82399C261.678 8.944 261.07 9.888 260.718 10.656L256.494 7.152C256.686 6.512 257.182 5.648 257.982 4.56C258.814 3.44 259.902 2.432 261.246 1.536C262.59 0.639997 264.158 0.191998 265.95 0.191998C267.39 0.191998 268.606 0.495996 269.598 1.10399C270.59 1.67999 271.486 2.32 272.286 3.024C272.99 3.632 273.678 4.16 274.35 4.608C275.054 5.056 275.854 5.27999 276.75 5.27999C278.286 5.27999 279.502 4.70399 280.398 3.55199C281.294 2.39999 281.902 1.43999 282.222 0.671997L286.302 4.27199C286.11 4.94399 285.646 5.824 284.91 6.912C284.174 7.968 283.15 8.944 281.838 9.84C280.526 10.704 278.894 11.136 276.942 11.136ZM360.068 84H350.228L345.908 67.008H323.06L318.74 84H308.9L326.564 16.8H342.404L360.068 84ZM333.86 24.096L324.596 59.712H344.372L335.108 24.096H333.86ZM375.081 84V16.8H392.601C394.873 16.8 397.145 16.992 399.417 17.376C401.689 17.728 403.897 18.368 406.041 19.296C408.185 20.224 410.169 21.504 411.993 23.136C413.849 24.768 415.465 26.816 416.841 29.28C418.249 31.744 419.337 34.72 420.105 38.208C420.905 41.664 421.305 45.728 421.305 50.4C421.305 55.04 420.905 59.104 420.105 62.592C419.337 66.08 418.249 69.056 416.841 71.52C415.465 73.984 413.849 76.032 411.993 77.664C410.169 79.296 408.185 80.576 406.041 81.504C403.897 82.432 401.689 83.088 399.417 83.472C397.145 83.824 394.873 84 392.601 84H375.081ZM384.585 76.704H391.881C394.601 76.704 397.129 76.288 399.465 75.456C401.833 74.624 403.929 73.216 405.753 71.232C407.577 69.248 408.985 66.56 409.977 63.168C411.001 59.776 411.513 55.52 411.513 50.4C411.513 45.28 411.001 41.024 409.977 37.632C408.985 34.24 407.577 31.552 405.753 29.568C403.929 27.584 401.833 26.176 399.465 25.344C397.129 24.512 394.601 24.096 391.881 24.096H384.585V76.704ZM459.167 85.056C456.415 85.056 453.711 84.656 451.055 83.856C448.431 83.024 445.967 81.744 443.663 80.016C441.391 78.288 439.391 76.064 437.663 73.344C435.935 70.624 434.575 67.392 433.583 63.648C432.623 59.872 432.143 55.52 432.143 50.592C432.143 45.696 432.623 41.376 433.583 37.632C434.575 33.856 435.935 30.624 437.663 27.936C439.391 25.216 441.391 22.992 443.663 21.264C445.967 19.536 448.431 18.272 451.055 17.472C453.711 16.64 456.415 16.224 459.167 16.224C461.919 16.224 464.607 16.64 467.231 17.472C469.855 18.272 472.303 19.536 474.575 21.264C476.879 22.992 478.879 25.216 480.575 27.936C482.303 30.624 483.663 33.856 484.655 37.632C485.647 41.376 486.143 45.696 486.143 50.592C486.143 55.52 485.647 59.872 484.655 63.648C483.663 67.392 482.303 70.624 480.575 73.344C478.879 76.064 476.879 78.288 474.575 80.016C472.303 81.744 469.855 83.024 467.231 83.856C464.607 84.656 461.919 85.056 459.167 85.056ZM459.167 77.616C461.343 77.616 463.455 77.104 465.503 76.08C467.551 75.056 469.391 73.456 471.023 71.28C472.687 69.104 473.999 66.32 474.959 62.928C475.951 59.504 476.447 55.392 476.447 50.592C476.447 45.824 475.951 41.744 474.959 38.352C473.999 34.928 472.687 32.144 471.023 30C469.391 27.824 467.551 26.224 465.503 25.2C463.455 24.176 461.343 23.664 459.167 23.664C456.991 23.664 454.863 24.176 452.783 25.2C450.735 26.224 448.879 27.824 447.215 30C445.583 32.144 444.271 34.928 443.279 38.352C442.319 41.744 441.839 45.824 441.839 50.592C441.839 55.392 442.319 59.504 443.279 62.928C444.271 66.32 445.583 69.104 447.215 71.28C448.879 73.456 450.735 75.056 452.783 76.08C454.863 77.104 456.991 77.616 459.167 77.616ZM501.156 84V16.8H525.204C526.9 16.8 528.644 16.976 530.436 17.328C532.26 17.648 534.02 18.208 535.716 19.008C537.412 19.808 538.932 20.896 540.276 22.272C541.652 23.648 542.74 25.392 543.54 27.504C544.34 29.616 544.74 32.144 544.74 35.088C544.74 38.096 544.308 40.688 543.444 42.864C542.612 45.008 541.492 46.816 540.084 48.288C538.676 49.728 537.108 50.88 535.38 51.744C533.684 52.576 531.94 53.184 530.148 53.568C528.388 53.92 526.74 54.096 525.204 54.096H510.66V84H501.156ZM535.812 84L522.9 51.408L532.308 50.4L545.94 84H535.812ZM510.66 46.992H523.524C525.604 46.992 527.524 46.608 529.284 45.84C531.076 45.072 532.516 43.84 533.604 42.144C534.692 40.416 535.236 38.144 535.236 35.328C535.236 32.352 534.66 30.064 533.508 28.464C532.388 26.832 530.916 25.696 529.092 25.056C527.268 24.416 525.332 24.096 523.284 24.096H510.66V46.992ZM614.33 84V16.8H653.93V24.096H623.834V50.832H649.466V58.128H623.834V84H614.33ZM674.031 84V16.8H698.079C699.775 16.8 701.519 16.976 703.311 17.328C705.135 17.648 706.895 18.208 708.591 19.008C710.287 19.808 711.807 20.896 713.151 22.272C714.527 23.648 715.615 25.392 716.415 27.504C717.215 29.616 717.615 32.144 717.615 35.088C717.615 38.096 717.183 40.688 716.319 42.864C715.487 45.008 714.367 46.816 712.959 48.288C711.551 49.728 709.983 50.88 708.255 51.744C706.559 52.576 704.815 53.184 703.023 53.568C701.263 53.92 699.615 54.096 698.079 54.096H683.535V84H674.031ZM708.687 84L695.775 51.408L705.183 50.4L718.815 84H708.687ZM683.535 46.992H696.399C698.479 46.992 700.399 46.608 702.159 45.84C703.951 45.072 705.391 43.84 706.479 42.144C707.567 40.416 708.111 38.144 708.111 35.328C708.111 32.352 707.535 30.064 706.383 28.464C705.263 26.832 703.791 25.696 701.967 25.056C700.143 24.416 698.207 24.096 696.159 24.096H683.535V46.992ZM756.917 85.056C754.165 85.056 751.461 84.656 748.805 83.856C746.181 83.024 743.717 81.744 741.413 80.016C739.141 78.288 737.141 76.064 735.413 73.344C733.685 70.624 732.325 67.392 731.333 63.648C730.373 59.872 729.893 55.52 729.893 50.592C729.893 45.696 730.373 41.376 731.333 37.632C732.325 33.856 733.685 30.624 735.413 27.936C737.141 25.216 739.141 22.992 741.413 21.264C743.717 19.536 746.181 18.272 748.805 17.472C751.461 16.64 754.165 16.224 756.917 16.224C759.669 16.224 762.357 16.64 764.981 17.472C767.605 18.272 770.053 19.536 772.325 21.264C774.629 22.992 776.629 25.216 778.325 27.936C780.053 30.624 781.413 33.856 782.405 37.632C783.397 41.376 783.893 45.696 783.893 50.592C783.893 55.52 783.397 59.872 782.405 63.648C781.413 67.392 780.053 70.624 778.325 73.344C776.629 76.064 774.629 78.288 772.325 80.016C770.053 81.744 767.605 83.024 764.981 83.856C762.357 84.656 759.669 85.056 756.917 85.056ZM756.917 77.616C759.093 77.616 761.205 77.104 763.253 76.08C765.301 75.056 767.141 73.456 768.773 71.28C770.437 69.104 771.749 66.32 772.709 62.928C773.701 59.504 774.197 55.392 774.197 50.592C774.197 45.824 773.701 41.744 772.709 38.352C771.749 34.928 770.437 32.144 768.773 30C767.141 27.824 765.301 26.224 763.253 25.2C761.205 24.176 759.093 23.664 756.917 23.664C754.741 23.664 752.613 24.176 750.533 25.2C748.485 26.224 746.629 27.824 744.965 30C743.333 32.144 742.021 34.928 741.029 38.352C740.069 41.744 739.589 45.824 739.589 50.592C739.589 55.392 740.069 59.504 741.029 62.928C742.021 66.32 743.333 69.104 744.965 71.28C746.629 73.456 748.485 75.056 750.533 76.08C752.613 77.104 754.741 77.616 756.917 77.616ZM795.69 84V16.8H809.706L834.906 75.648H833.322V16.8H842.826V84H830.538L804.762 25.344H805.194V84H795.69ZM877.088 84V24.096H857.456V16.8H906.224V24.096H886.592V84H877.088ZM972.309 84V16.8H1014.31V24.096H981.813V47.328H1010.47V54.624H981.813V76.704H1014.31V84H972.309ZM1031 84V16.8H1045.02L1070.22 75.648H1068.63V16.8H1078.14V84H1065.85L1040.07 25.344H1040.51V84H1031ZM1095.46 84V16.8H1112.98C1115.25 16.8 1117.52 16.992 1119.79 17.376C1122.06 17.728 1124.27 18.368 1126.42 19.296C1128.56 20.224 1130.54 21.504 1132.37 23.136C1134.22 24.768 1135.84 26.816 1137.22 29.28C1138.62 31.744 1139.71 34.72 1140.48 38.208C1141.28 41.664 1141.68 45.728 1141.68 50.4C1141.68 55.04 1141.28 59.104 1140.48 62.592C1139.71 66.08 1138.62 69.056 1137.22 71.52C1135.84 73.984 1134.22 76.032 1132.37 77.664C1130.54 79.296 1128.56 80.576 1126.42 81.504C1124.27 82.432 1122.06 83.088 1119.79 83.472C1117.52 83.824 1115.25 84 1112.98 84H1095.46ZM1104.96 76.704H1112.26C1114.98 76.704 1117.5 76.288 1119.84 75.456C1122.21 74.624 1124.3 73.216 1126.13 71.232C1127.95 69.248 1129.36 66.56 1130.35 63.168C1131.38 59.776 1131.89 55.52 1131.89 50.4C1131.89 45.28 1131.38 41.024 1130.35 37.632C1129.36 34.24 1127.95 31.552 1126.13 29.568C1124.3 27.584 1122.21 26.176 1119.84 25.344C1117.5 24.512 1114.98 24.096 1112.26 24.096H1104.96V76.704Z"/>
</mask>
<g filter="url(#filter0_i_82_60)">
<path d="M0.456001 84V16.8H17.976C20.248 16.8 22.52 16.992 24.792 17.376C27.064 17.728 29.272 18.368 31.416 19.296C33.56 20.224 35.544 21.504 37.368 23.136C39.224 24.768 40.84 26.816 42.216 29.28C43.624 31.744 44.712 34.72 45.48 38.208C46.28 41.664 46.68 45.728 46.68 50.4C46.68 55.04 46.28 59.104 45.48 62.592C44.712 66.08 43.624 69.056 42.216 71.52C40.84 73.984 39.224 76.032 37.368 77.664C35.544 79.296 33.56 80.576 31.416 81.504C29.272 82.432 27.064 83.088 24.792 83.472C22.52 83.824 20.248 84 17.976 84H0.456001ZM9.96 76.704H17.256C19.976 76.704 22.504 76.288 24.84 75.456C27.208 74.624 29.304 73.216 31.128 71.232C32.952 69.248 34.36 66.56 35.352 63.168C36.376 59.776 36.888 55.52 36.888 50.4C36.888 45.28 36.376 41.024 35.352 37.632C34.36 34.24 32.952 31.552 31.128 29.568C29.304 27.584 27.208 26.176 24.84 25.344C22.504 24.512 19.976 24.096 17.256 24.096H9.96V76.704ZM65.9655 84V76.704H79.8375V24.096H65.9655V16.8H103.31V24.096H89.3415V76.704H103.31V84H65.9655ZM147.219 85.056C143.251 85.056 139.587 84.496 136.227 83.376C132.867 82.256 129.987 80.64 127.587 78.528C125.219 76.416 123.507 73.888 122.451 70.944L131.619 66.96C132.387 69.008 133.539 70.832 135.075 72.432C136.611 74 138.451 75.232 140.595 76.128C142.739 77.024 145.139 77.472 147.795 77.472C150.579 77.472 152.995 77.024 155.043 76.128C157.123 75.2 158.723 73.904 159.843 72.24C160.963 70.576 161.523 68.576 161.523 66.24C161.523 64.48 161.043 62.912 160.083 61.536C159.155 60.128 157.875 58.912 156.243 57.888C154.611 56.832 152.787 55.936 150.771 55.2C148.787 54.432 146.755 53.792 144.675 53.28C141.731 52.512 139.027 51.584 136.563 50.496C134.131 49.408 132.003 48.096 130.179 46.56C128.387 44.992 126.995 43.136 126.003 40.992C125.043 38.848 124.563 36.336 124.563 33.456C124.563 31.152 124.995 29.072 125.859 27.216C126.723 25.36 127.907 23.744 129.411 22.368C130.947 20.992 132.691 19.856 134.643 18.96C136.627 18.032 138.755 17.344 141.027 16.896C143.299 16.448 145.587 16.224 147.891 16.224C151.539 16.224 154.915 16.768 158.019 17.856C161.123 18.912 163.747 20.384 165.891 22.272C168.035 24.128 169.507 26.24 170.307 28.608L161.331 32.64C160.659 30.752 159.667 29.152 158.355 27.84C157.075 26.528 155.507 25.536 153.651 24.864C151.827 24.16 149.795 23.808 147.555 23.808C145.859 23.808 144.227 24.016 142.659 24.432C141.123 24.816 139.731 25.408 138.483 26.208C137.267 26.976 136.291 27.952 135.555 29.136C134.851 30.288 134.499 31.648 134.499 33.216C134.499 35.424 135.091 37.296 136.275 38.832C137.459 40.368 139.091 41.664 141.171 42.72C143.283 43.744 145.715 44.608 148.467 45.312C150.611 45.888 152.771 46.56 154.947 47.328C157.155 48.064 159.235 48.96 161.187 50.016C163.171 51.072 164.931 52.336 166.467 53.808C168.035 55.248 169.267 56.944 170.163 58.896C171.059 60.816 171.507 63.024 171.507 65.52C171.507 68.208 171.059 70.608 170.163 72.72C169.299 74.832 168.099 76.672 166.563 78.24C165.027 79.776 163.235 81.056 161.187 82.08C159.139 83.072 156.915 83.808 154.515 84.288C152.147 84.8 149.715 85.056 147.219 85.056ZM189.497 84V16.8H231.497V24.096H199.001V47.328H227.656V54.624H199.001V76.704H231.497V84H189.497ZM248.19 84V16.8H262.206L287.406 75.648H285.822V16.8H295.326V84H283.038L257.262 25.344H257.694V84H248.19ZM276.942 11.136C275.438 11.136 274.206 10.832 273.246 10.224C272.286 9.616 271.406 8.976 270.606 8.304C269.934 7.728 269.262 7.232 268.59 6.816C267.918 6.368 267.134 6.144 266.238 6.144C264.67 6.144 263.438 6.70399 262.542 7.82399C261.678 8.944 261.07 9.888 260.718 10.656L256.494 7.152C256.686 6.512 257.182 5.648 257.982 4.56C258.814 3.44 259.902 2.432 261.246 1.536C262.59 0.639997 264.158 0.191998 265.95 0.191998C267.39 0.191998 268.606 0.495996 269.598 1.10399C270.59 1.67999 271.486 2.32 272.286 3.024C272.99 3.632 273.678 4.16 274.35 4.608C275.054 5.056 275.854 5.27999 276.75 5.27999C278.286 5.27999 279.502 4.70399 280.398 3.55199C281.294 2.39999 281.902 1.43999 282.222 0.671997L286.302 4.27199C286.11 4.94399 285.646 5.824 284.91 6.912C284.174 7.968 283.15 8.944 281.838 9.84C280.526 10.704 278.894 11.136 276.942 11.136ZM360.068 84H350.228L345.908 67.008H323.06L318.74 84H308.9L326.564 16.8H342.404L360.068 84ZM333.86 24.096L324.596 59.712H344.372L335.108 24.096H333.86ZM375.081 84V16.8H392.601C394.873 16.8 397.145 16.992 399.417 17.376C401.689 17.728 403.897 18.368 406.041 19.296C408.185 20.224 410.169 21.504 411.993 23.136C413.849 24.768 415.465 26.816 416.841 29.28C418.249 31.744 419.337 34.72 420.105 38.208C420.905 41.664 421.305 45.728 421.305 50.4C421.305 55.04 420.905 59.104 420.105 62.592C419.337 66.08 418.249 69.056 416.841 71.52C415.465 73.984 413.849 76.032 411.993 77.664C410.169 79.296 408.185 80.576 406.041 81.504C403.897 82.432 401.689 83.088 399.417 83.472C397.145 83.824 394.873 84 392.601 84H375.081ZM384.585 76.704H391.881C394.601 76.704 397.129 76.288 399.465 75.456C401.833 74.624 403.929 73.216 405.753 71.232C407.577 69.248 408.985 66.56 409.977 63.168C411.001 59.776 411.513 55.52 411.513 50.4C411.513 45.28 411.001 41.024 409.977 37.632C408.985 34.24 407.577 31.552 405.753 29.568C403.929 27.584 401.833 26.176 399.465 25.344C397.129 24.512 394.601 24.096 391.881 24.096H384.585V76.704ZM459.167 85.056C456.415 85.056 453.711 84.656 451.055 83.856C448.431 83.024 445.967 81.744 443.663 80.016C441.391 78.288 439.391 76.064 437.663 73.344C435.935 70.624 434.575 67.392 433.583 63.648C432.623 59.872 432.143 55.52 432.143 50.592C432.143 45.696 432.623 41.376 433.583 37.632C434.575 33.856 435.935 30.624 437.663 27.936C439.391 25.216 441.391 22.992 443.663 21.264C445.967 19.536 448.431 18.272 451.055 17.472C453.711 16.64 456.415 16.224 459.167 16.224C461.919 16.224 464.607 16.64 467.231 17.472C469.855 18.272 472.303 19.536 474.575 21.264C476.879 22.992 478.879 25.216 480.575 27.936C482.303 30.624 483.663 33.856 484.655 37.632C485.647 41.376 486.143 45.696 486.143 50.592C486.143 55.52 485.647 59.872 484.655 63.648C483.663 67.392 482.303 70.624 480.575 73.344C478.879 76.064 476.879 78.288 474.575 80.016C472.303 81.744 469.855 83.024 467.231 83.856C464.607 84.656 461.919 85.056 459.167 85.056ZM459.167 77.616C461.343 77.616 463.455 77.104 465.503 76.08C467.551 75.056 469.391 73.456 471.023 71.28C472.687 69.104 473.999 66.32 474.959 62.928C475.951 59.504 476.447 55.392 476.447 50.592C476.447 45.824 475.951 41.744 474.959 38.352C473.999 34.928 472.687 32.144 471.023 30C469.391 27.824 467.551 26.224 465.503 25.2C463.455 24.176 461.343 23.664 459.167 23.664C456.991 23.664 454.863 24.176 452.783 25.2C450.735 26.224 448.879 27.824 447.215 30C445.583 32.144 444.271 34.928 443.279 38.352C442.319 41.744 441.839 45.824 441.839 50.592C441.839 55.392 442.319 59.504 443.279 62.928C444.271 66.32 445.583 69.104 447.215 71.28C448.879 73.456 450.735 75.056 452.783 76.08C454.863 77.104 456.991 77.616 459.167 77.616ZM501.156 84V16.8H525.204C526.9 16.8 528.644 16.976 530.436 17.328C532.26 17.648 534.02 18.208 535.716 19.008C537.412 19.808 538.932 20.896 540.276 22.272C541.652 23.648 542.74 25.392 543.54 27.504C544.34 29.616 544.74 32.144 544.74 35.088C544.74 38.096 544.308 40.688 543.444 42.864C542.612 45.008 541.492 46.816 540.084 48.288C538.676 49.728 537.108 50.88 535.38 51.744C533.684 52.576 531.94 53.184 530.148 53.568C528.388 53.92 526.74 54.096 525.204 54.096H510.66V84H501.156ZM535.812 84L522.9 51.408L532.308 50.4L545.94 84H535.812ZM510.66 46.992H523.524C525.604 46.992 527.524 46.608 529.284 45.84C531.076 45.072 532.516 43.84 533.604 42.144C534.692 40.416 535.236 38.144 535.236 35.328C535.236 32.352 534.66 30.064 533.508 28.464C532.388 26.832 530.916 25.696 529.092 25.056C527.268 24.416 525.332 24.096 523.284 24.096H510.66V46.992ZM614.33 84V16.8H653.93V24.096H623.834V50.832H649.466V58.128H623.834V84H614.33ZM674.031 84V16.8H698.079C699.775 16.8 701.519 16.976 703.311 17.328C705.135 17.648 706.895 18.208 708.591 19.008C710.287 19.808 711.807 20.896 713.151 22.272C714.527 23.648 715.615 25.392 716.415 27.504C717.215 29.616 717.615 32.144 717.615 35.088C717.615 38.096 717.183 40.688 716.319 42.864C715.487 45.008 714.367 46.816 712.959 48.288C711.551 49.728 709.983 50.88 708.255 51.744C706.559 52.576 704.815 53.184 703.023 53.568C701.263 53.92 699.615 54.096 698.079 54.096H683.535V84H674.031ZM708.687 84L695.775 51.408L705.183 50.4L718.815 84H708.687ZM683.535 46.992H696.399C698.479 46.992 700.399 46.608 702.159 45.84C703.951 45.072 705.391 43.84 706.479 42.144C707.567 40.416 708.111 38.144 708.111 35.328C708.111 32.352 707.535 30.064 706.383 28.464C705.263 26.832 703.791 25.696 701.967 25.056C700.143 24.416 698.207 24.096 696.159 24.096H683.535V46.992ZM756.917 85.056C754.165 85.056 751.461 84.656 748.805 83.856C746.181 83.024 743.717 81.744 741.413 80.016C739.141 78.288 737.141 76.064 735.413 73.344C733.685 70.624 732.325 67.392 731.333 63.648C730.373 59.872 729.893 55.52 729.893 50.592C729.893 45.696 730.373 41.376 731.333 37.632C732.325 33.856 733.685 30.624 735.413 27.936C737.141 25.216 739.141 22.992 741.413 21.264C743.717 19.536 746.181 18.272 748.805 17.472C751.461 16.64 754.165 16.224 756.917 16.224C759.669 16.224 762.357 16.64 764.981 17.472C767.605 18.272 770.053 19.536 772.325 21.264C774.629 22.992 776.629 25.216 778.325 27.936C780.053 30.624 781.413 33.856 782.405 37.632C783.397 41.376 783.893 45.696 783.893 50.592C783.893 55.52 783.397 59.872 782.405 63.648C781.413 67.392 780.053 70.624 778.325 73.344C776.629 76.064 774.629 78.288 772.325 80.016C770.053 81.744 767.605 83.024 764.981 83.856C762.357 84.656 759.669 85.056 756.917 85.056ZM756.917 77.616C759.093 77.616 761.205 77.104 763.253 76.08C765.301 75.056 767.141 73.456 768.773 71.28C770.437 69.104 771.749 66.32 772.709 62.928C773.701 59.504 774.197 55.392 774.197 50.592C774.197 45.824 773.701 41.744 772.709 38.352C771.749 34.928 770.437 32.144 768.773 30C767.141 27.824 765.301 26.224 763.253 25.2C761.205 24.176 759.093 23.664 756.917 23.664C754.741 23.664 752.613 24.176 750.533 25.2C748.485 26.224 746.629 27.824 744.965 30C743.333 32.144 742.021 34.928 741.029 38.352C740.069 41.744 739.589 45.824 739.589 50.592C739.589 55.392 740.069 59.504 741.029 62.928C742.021 66.32 743.333 69.104 744.965 71.28C746.629 73.456 748.485 75.056 750.533 76.08C752.613 77.104 754.741 77.616 756.917 77.616ZM795.69 84V16.8H809.706L834.906 75.648H833.322V16.8H842.826V84H830.538L804.762 25.344H805.194V84H795.69ZM877.088 84V24.096H857.456V16.8H906.224V24.096H886.592V84H877.088ZM972.309 84V16.8H1014.31V24.096H981.813V47.328H1010.47V54.624H981.813V76.704H1014.31V84H972.309ZM1031 84V16.8H1045.02L1070.22 75.648H1068.63V16.8H1078.14V84H1065.85L1040.07 25.344H1040.51V84H1031ZM1095.46 84V16.8H1112.98C1115.25 16.8 1117.52 16.992 1119.79 17.376C1122.06 17.728 1124.27 18.368 1126.42 19.296C1128.56 20.224 1130.54 21.504 1132.37 23.136C1134.22 24.768 1135.84 26.816 1137.22 29.28C1138.62 31.744 1139.71 34.72 1140.48 38.208C1141.28 41.664 1141.68 45.728 1141.68 50.4C1141.68 55.04 1141.28 59.104 1140.48 62.592C1139.71 66.08 1138.62 69.056 1137.22 71.52C1135.84 73.984 1134.22 76.032 1132.37 77.664C1130.54 79.296 1128.56 80.576 1126.42 81.504C1124.27 82.432 1122.06 83.088 1119.79 83.472C1117.52 83.824 1115.25 84 1112.98 84H1095.46ZM1104.96 76.704H1112.26C1114.98 76.704 1117.5 76.288 1119.84 75.456C1122.21 74.624 1124.3 73.216 1126.13 71.232C1127.95 69.248 1129.36 66.56 1130.35 63.168C1131.38 59.776 1131.89 55.52 1131.89 50.4C1131.89 45.28 1131.38 41.024 1130.35 37.632C1129.36 34.24 1127.95 31.552 1126.13 29.568C1124.3 27.584 1122.21 26.176 1119.84 25.344C1117.5 24.512 1114.98 24.096 1112.26 24.096H1104.96V76.704Z" fill="white"/>
</g>
<path d="M0.456 84H-0.544V85H0.456V84ZM0.456 16.8V15.8H-0.544V16.8H0.456ZM24.792 17.376L24.6253 18.3621L24.6389 18.3642L24.792 17.376ZM31.416 19.296L31.8132 18.3783H31.8132L31.416 19.296ZM37.368 23.136L36.7012 23.8813L36.7077 23.887L37.368 23.136ZM42.216 29.28L41.3429 29.7676L41.3478 29.7761L42.216 29.28ZM45.48 38.208L44.5033 38.423L44.5058 38.4335L45.48 38.208ZM45.48 62.592L44.5053 62.3684L44.5034 62.377L45.48 62.592ZM42.216 71.52L41.3477 71.0238L41.3429 71.0324L42.216 71.52ZM37.368 77.664L36.7076 76.913L36.7012 76.9188L37.368 77.664ZM31.416 81.504L31.8132 82.4217L31.416 81.504ZM24.792 83.472L24.9451 84.4603L24.9587 84.458L24.792 83.472ZM9.96 76.704H8.96V77.704H9.96V76.704ZM24.84 75.456L24.5085 74.5125L24.5045 74.514L24.84 75.456ZM31.128 71.232L30.3918 70.5552L31.128 71.232ZM35.352 63.168L34.3946 62.879L34.3922 62.8873L35.352 63.168ZM35.352 37.632L34.3922 37.9127L34.3947 37.921L35.352 37.632ZM31.128 29.568L30.3918 30.2448L31.128 29.568ZM24.84 25.344L24.5045 26.286L24.5085 26.2875L24.84 25.344ZM9.96 24.096V23.096H8.96V24.096H9.96ZM1.456 84V16.8H-0.544V84H1.456ZM0.456 17.8H17.976V15.8H0.456V17.8ZM17.976 17.8C20.1914 17.8 22.4076 17.9872 24.6254 18.362L24.9587 16.39C22.6324 15.9968 20.3046 15.8 17.976 15.8V17.8ZM24.6389 18.3642C26.8255 18.703 28.9516 19.3189 31.0188 20.2137L31.8132 18.3783C29.5924 17.417 27.3025 16.753 24.9451 16.3878L24.6389 18.3642ZM31.0188 20.2137C33.0596 21.0971 34.9534 22.3174 36.7012 23.8812L38.0348 22.3908C36.1346 20.6906 34.0604 19.3509 31.8132 18.3783L31.0188 20.2137ZM36.7077 23.887C38.4671 25.4341 40.0146 27.3889 41.3429 29.7676L43.0891 28.7924C41.6654 26.2431 39.9809 24.1019 38.0283 22.385L36.7077 23.887ZM41.3478 29.7761C42.6946 32.1332 43.7518 35.0094 44.5034 38.423L46.4566 37.993C45.6722 34.4306 44.5534 31.3548 43.0842 28.7839L41.3478 29.7761ZM44.5058 38.4335C45.2842 41.7965 45.68 45.7815 45.68 50.4H47.68C47.68 45.6745 47.2758 41.5315 46.4542 37.9825L44.5058 38.4335ZM45.68 50.4C45.68 54.9856 45.2844 58.9717 44.5053 62.3684L46.4547 62.8156C47.2756 59.2363 47.68 55.0943 47.68 50.4H45.68ZM44.5034 62.377C43.7518 65.7906 42.6946 68.6668 41.3478 71.0239L43.0842 72.0161C44.5534 69.4452 45.6722 66.3694 46.4566 62.807L44.5034 62.377ZM41.3429 71.0324C40.0146 73.4111 38.4671 75.3659 36.7077 76.913L38.0283 78.415C39.9809 76.6981 41.6654 74.5569 43.0891 72.0076L41.3429 71.0324ZM36.7012 76.9188C34.9534 78.4826 33.0596 79.7029 31.0188 80.5863L31.8132 82.4217C34.0604 81.4491 36.1346 80.1094 38.0348 78.4092L36.7012 76.9188ZM31.0188 80.5863C28.9476 81.4828 26.8169 82.1156 24.6254 82.486L24.9587 84.458C27.3111 84.0604 29.5964 83.3812 31.8132 82.4217L31.0188 80.5863ZM24.6389 82.4838C22.417 82.828 20.1961 83 17.976 83V85C20.2999 85 22.6231 84.82 24.9451 84.4602L24.6389 82.4838ZM17.976 83H0.456V85H17.976V83ZM9.96 77.704H17.256V75.704H9.96V77.704ZM17.256 77.704C20.0793 77.704 22.7219 77.2719 25.1755 76.398L24.5045 74.514C22.2861 75.3041 19.8727 75.704 17.256 75.704V77.704ZM25.1715 76.3995C27.7055 75.5091 29.9376 74.0044 31.8642 71.9088L30.3918 70.5552C28.6704 72.4276 26.7105 73.7389 24.5085 74.5125L25.1715 76.3995ZM31.8642 71.9088C33.8193 69.7821 35.2896 66.9441 36.3118 63.4487L34.3922 62.8873C33.4304 66.1759 32.0847 68.7139 30.3918 70.5552L31.8642 71.9088ZM36.3093 63.457C37.3711 59.9398 37.888 55.5784 37.888 50.4H35.888C35.888 55.4616 35.3809 59.6122 34.3947 62.879L36.3093 63.457ZM37.888 50.4C37.888 45.2216 37.3711 40.8602 36.3093 37.343L34.3947 37.921C35.3809 41.1878 35.888 45.3384 35.888 50.4H37.888ZM36.3118 37.3513C35.2896 33.8559 33.8193 31.0179 31.8642 28.8912L30.3918 30.2448C32.0847 32.0861 33.4304 34.6241 34.3922 37.9127L36.3118 37.3513ZM31.8642 28.8912C29.9376 26.7956 27.7055 25.2909 25.1715 24.4005L24.5085 26.2875C26.7105 27.0611 28.6704 28.3724 30.3918 30.2448L31.8642 28.8912ZM25.1755 24.402C22.7219 23.5281 20.0793 23.096 17.256 23.096V25.096C19.8727 25.096 22.2861 25.4959 24.5045 26.286L25.1755 24.402ZM17.256 23.096H9.96V25.096H17.256V23.096ZM8.96 24.096V76.704H10.96V24.096H8.96ZM65.9655 84H64.9655V85H65.9655V84ZM65.9655 76.704V75.704H64.9655V76.704H65.9655ZM79.8375 76.704V77.704H80.8375V76.704H79.8375ZM79.8375 24.096H80.8375V23.096H79.8375V24.096ZM65.9655 24.096H64.9655V25.096H65.9655V24.096ZM65.9655 16.8V15.8H64.9655V16.8H65.9655ZM103.31 16.8H104.31V15.8H103.31V16.8ZM103.31 24.096V25.096H104.31V24.096H103.31ZM89.3415 24.096V23.096H88.3415V24.096H89.3415ZM89.3415 76.704H88.3415V77.704H89.3415V76.704ZM103.31 76.704H104.31V75.704H103.31V76.704ZM103.31 84V85H104.31V84H103.31ZM66.9655 84V76.704H64.9655V84H66.9655ZM65.9655 77.704H79.8375V75.704H65.9655V77.704ZM80.8375 76.704V24.096H78.8375V76.704H80.8375ZM79.8375 23.096H65.9655V25.096H79.8375V23.096ZM66.9655 24.096V16.8H64.9655V24.096H66.9655ZM65.9655 17.8H103.31V15.8H65.9655V17.8ZM102.31 16.8V24.096H104.31V16.8H102.31ZM103.31 23.096H89.3415V25.096H103.31V23.096ZM88.3415 24.096V76.704H90.3415V24.096H88.3415ZM89.3415 77.704H103.31V75.704H89.3415V77.704ZM102.31 76.704V84H104.31V76.704H102.31ZM103.31 83H65.9655V85H103.31V83ZM136.227 83.376L136.543 82.4273L136.227 83.376ZM127.587 78.528L126.921 79.2743L126.926 79.2787L127.587 78.528ZM122.451 70.944L122.052 70.0269L121.194 70.4001L121.51 71.2816L122.451 70.944ZM131.619 66.96L132.555 66.6089L132.186 65.6234L131.22 66.0429L131.619 66.96ZM135.075 72.432L134.354 73.1246L134.361 73.1318L135.075 72.432ZM140.595 76.128L140.981 75.2053L140.595 76.128ZM155.043 76.128L155.444 77.0442L155.45 77.0412L155.043 76.128ZM159.843 72.24L160.673 72.7984L159.843 72.24ZM160.083 61.536L159.248 62.0863L159.255 62.0973L159.263 62.1082L160.083 61.536ZM156.243 57.888L155.7 58.7276L155.712 58.7351L156.243 57.888ZM150.771 55.2L150.41 56.1326L150.419 56.136L150.428 56.1394L150.771 55.2ZM144.675 53.28L144.423 54.2477L144.436 54.251L144.675 53.28ZM136.563 50.496L136.155 51.4088L136.159 51.4108L136.563 50.496ZM130.179 46.56L129.52 47.3126L129.528 47.3188L129.535 47.3249L130.179 46.56ZM126.003 40.992L125.09 41.4007L125.095 41.4119L126.003 40.992ZM125.859 27.216L124.952 26.794L125.859 27.216ZM129.411 22.368L128.744 21.6231L128.736 21.6302L129.411 22.368ZM134.643 18.96L135.06 19.8689L135.067 19.8658L134.643 18.96ZM141.027 16.896L140.834 15.9149V15.9149L141.027 16.896ZM158.019 17.856L157.688 18.7997L157.697 18.8027L158.019 17.856ZM165.891 22.272L165.23 23.0225L165.236 23.0281L165.891 22.272ZM170.307 28.608L170.717 29.5202L171.545 29.1481L171.254 28.2879L170.307 28.608ZM161.331 32.64L160.389 32.9753L160.752 33.9962L161.741 33.5522L161.331 32.64ZM158.355 27.84L157.639 28.5384L157.648 28.5471L158.355 27.84ZM153.651 24.864L153.291 25.7969L153.301 25.8007L153.311 25.8043L153.651 24.864ZM142.659 24.432L142.902 25.4021L142.908 25.4004L142.915 25.3986L142.659 24.432ZM138.483 26.208L139.017 27.0535L139.023 27.0499L138.483 26.208ZM135.555 29.136L134.706 28.6081L134.702 28.6145L135.555 29.136ZM141.171 42.72L140.718 43.6117L140.726 43.6158L140.735 43.6198L141.171 42.72ZM148.467 45.312L148.726 44.3462L148.715 44.3432L148.467 45.312ZM154.947 47.328L154.614 48.271L154.622 48.2739L154.631 48.2767L154.947 47.328ZM161.187 50.016L160.711 50.8956L160.717 50.8987L161.187 50.016ZM166.467 53.808L165.775 54.53L165.783 54.5373L165.791 54.5445L166.467 53.808ZM170.163 58.896L169.254 59.3132L169.257 59.3189L170.163 58.896ZM170.163 72.72L169.242 72.3294L169.237 72.3414L170.163 72.72ZM166.563 78.24L167.27 78.9471L167.277 78.9398L166.563 78.24ZM161.187 82.08L161.623 82.98L161.634 82.9744L161.187 82.08ZM154.515 84.288L154.319 83.3074L154.311 83.3089L154.304 83.3106L154.515 84.288ZM147.219 84.056C143.346 84.056 139.79 83.5095 136.543 82.4273L135.911 84.3247C139.384 85.4825 143.156 86.056 147.219 86.056V84.056ZM136.543 82.4273C133.296 81.345 130.537 79.7918 128.248 77.7773L126.926 79.2787C129.437 81.4882 132.438 83.167 135.911 84.3247L136.543 82.4273ZM128.253 77.7817C126.007 75.7791 124.391 73.3909 123.392 70.6064L121.51 71.2816C122.623 74.3851 124.431 77.0529 126.921 79.2743L128.253 77.7817ZM122.85 71.8611L132.018 67.8771L131.22 66.0429L122.052 70.0269L122.85 71.8611ZM130.683 67.3111C131.499 69.4882 132.725 71.4279 134.354 73.1245L135.796 71.7395C134.353 70.2361 133.275 68.5278 132.555 66.6089L130.683 67.3111ZM134.361 73.1318C135.996 74.8008 137.949 76.1062 140.209 77.0507L140.981 75.2053C138.953 74.3578 137.226 73.1992 135.789 71.7322L134.361 73.1318ZM140.209 77.0507C142.492 78.0045 145.025 78.472 147.795 78.472V76.472C145.253 76.472 142.986 76.0435 140.981 75.2053L140.209 77.0507ZM147.795 78.472C150.684 78.472 153.242 78.0072 155.444 77.0442L154.642 75.2118C152.748 76.0407 150.474 76.472 147.795 76.472V78.472ZM155.45 77.0412C157.678 76.0475 159.434 74.6382 160.673 72.7984L159.013 71.6816C158.012 73.1698 156.568 74.3525 154.636 75.2148L155.45 77.0412ZM160.673 72.7984C161.921 70.9435 162.523 68.7414 162.523 66.24H160.523C160.523 68.4106 160.005 70.2085 159.013 71.6816L160.673 72.7984ZM162.523 66.24C162.523 64.286 161.986 62.5162 160.903 60.9638L159.263 62.1082C160.1 63.3078 160.523 64.674 160.523 66.24H162.523ZM160.918 60.9857C159.901 59.4423 158.51 58.1302 156.774 57.0409L155.712 58.7351C157.24 59.6938 158.409 60.8137 159.248 62.0863L160.918 60.9857ZM156.786 57.0484C155.085 55.9478 153.193 55.0197 151.114 54.2606L150.428 56.1394C152.381 56.8523 154.137 57.7162 155.7 58.7276L156.786 57.0484ZM151.132 54.2674C149.108 53.4839 147.035 52.8311 144.914 52.309L144.436 54.251C146.475 54.7529 148.466 55.3801 150.41 56.1326L151.132 54.2674ZM144.927 52.3124C142.029 51.5562 139.376 50.645 136.967 49.5812L136.159 51.4108C138.678 52.523 141.433 53.4678 144.423 54.2476L144.927 52.3124ZM136.971 49.5832C134.615 48.5289 132.568 47.2645 130.823 45.7951L129.535 47.3249C131.438 48.9275 133.647 50.2871 136.155 51.4088L136.971 49.5832ZM130.838 45.8074C129.15 44.3309 127.843 42.5879 126.911 40.5721L125.095 41.4119C126.147 43.6841 127.624 45.6531 129.52 47.3126L130.838 45.8074ZM126.916 40.5833C126.025 38.5935 125.563 36.2262 125.563 33.456H123.563C123.563 36.4458 124.061 39.1025 125.09 41.4007L126.916 40.5833ZM125.563 33.456C125.563 31.2794 125.97 29.3462 126.766 27.638L124.952 26.794C124.02 28.7978 123.563 31.0246 123.563 33.456H125.563ZM126.766 27.638C127.574 25.901 128.68 24.3924 130.086 23.1058L128.736 21.6302C127.134 23.0956 125.872 24.819 124.952 26.794L126.766 27.638ZM130.078 23.1128C131.537 21.8065 133.195 20.7248 135.06 19.8688L134.226 18.0512C132.187 18.9872 130.357 20.1775 128.744 21.6232L130.078 23.1128ZM135.067 19.8658C136.973 18.974 139.023 18.3103 141.22 17.8771L140.834 15.9149C138.487 16.3777 136.281 17.0899 134.219 18.0542L135.067 19.8658ZM141.22 17.8771C143.429 17.4416 145.652 17.224 147.891 17.224V15.224C145.522 15.224 143.169 15.4544 140.834 15.9149L141.22 17.8771ZM147.891 17.224C151.439 17.224 154.701 17.7528 157.688 18.7997L158.35 16.9123C155.129 15.7832 151.639 15.224 147.891 15.224V17.224ZM157.697 18.8027C160.694 19.8225 163.199 21.2335 165.23 23.0225L166.552 21.5215C164.295 19.5345 161.552 18.0015 158.341 16.9093L157.697 18.8027ZM165.236 23.0281C167.264 24.7834 168.624 26.7506 169.36 28.9281L171.254 28.2879C170.39 25.7294 168.806 23.4726 166.546 21.5159L165.236 23.0281ZM169.897 27.6958L160.921 31.7278L161.741 33.5522L170.717 29.5202L169.897 27.6958ZM162.273 32.3047C161.555 30.2882 160.487 28.5581 159.062 27.1329L157.648 28.5471C158.847 29.7459 159.763 31.2158 160.389 32.9753L162.273 32.3047ZM159.071 27.1417C157.678 25.7136 155.978 24.643 153.991 23.9237L153.311 25.8043C155.036 26.429 156.472 27.3424 157.639 28.5383L159.071 27.1417ZM154.011 23.9311C152.057 23.1768 149.9 22.808 147.555 22.808V24.808C149.69 24.808 151.597 25.1432 153.291 25.7969L154.011 23.9311ZM147.555 22.808C145.776 22.808 144.058 23.0262 142.403 23.4654L142.915 25.3986C144.396 25.0057 145.942 24.808 147.555 24.808V22.808ZM142.416 23.4619C140.782 23.8704 139.289 24.5036 137.943 25.3661L139.023 27.0499C140.173 26.3123 141.464 25.7616 142.902 25.4021L142.416 23.4619ZM137.949 25.3625C136.609 26.2086 135.524 27.2916 134.706 28.6081L136.404 29.6639C137.058 28.6124 137.925 27.7434 139.017 27.0535L137.949 25.3625ZM134.702 28.6145C133.887 29.9475 133.499 31.4942 133.499 33.216H135.499C135.499 31.8018 135.815 30.6285 136.408 29.6575L134.702 28.6145ZM133.499 33.216C133.499 35.6128 134.146 37.7077 135.483 39.4425L137.067 38.2215C136.036 36.8843 135.499 35.2352 135.499 33.216H133.499ZM135.483 39.4425C136.774 41.1178 138.532 42.5018 140.718 43.6117L141.624 41.8283C139.65 40.8262 138.144 39.6182 137.067 38.2215L135.483 39.4425ZM140.735 43.6198C142.918 44.6784 145.415 45.5635 148.219 46.2808L148.715 44.3432C146.015 43.6525 143.648 42.8096 141.607 41.8202L140.735 43.6198ZM148.208 46.2778C150.326 46.8469 152.461 47.5112 154.614 48.271L155.28 46.385C153.081 45.6088 150.896 44.9291 148.726 44.3462L148.208 46.2778ZM154.631 48.2767C156.786 48.9952 158.813 49.8685 160.711 50.8955L161.663 49.1365C159.657 48.0515 157.524 47.1328 155.263 46.3793L154.631 48.2767ZM160.717 50.8987C162.625 51.914 164.309 53.125 165.775 54.53L167.159 53.086C165.553 51.547 163.717 50.23 161.657 49.1333L160.717 50.8987ZM165.791 54.5445C167.26 55.8938 168.413 57.4809 169.254 59.3132L171.072 58.4788C170.121 56.4071 168.81 54.6022 167.143 53.0715L165.791 54.5445ZM169.257 59.3189C170.081 61.0849 170.507 63.1443 170.507 65.52H172.507C172.507 62.9036 172.037 60.5471 171.069 58.4731L169.257 59.3189ZM170.507 65.52C170.507 68.0965 170.078 70.3603 169.242 72.3295L171.084 73.1105C172.04 70.8557 172.507 68.3195 172.507 65.52H170.507ZM169.237 72.3414C168.42 74.3385 167.291 76.0683 165.849 77.5402L167.277 78.9398C168.907 77.2757 170.178 75.3255 171.089 73.0986L169.237 72.3414ZM165.856 77.5329C164.4 78.9889 162.697 80.207 160.74 81.1856L161.634 82.9744C163.773 81.905 165.654 80.5631 167.27 78.9471L165.856 77.5329ZM160.751 81.18C158.785 82.1324 156.642 82.8428 154.319 83.3074L154.711 85.2686C157.188 84.7732 159.493 84.0116 161.623 82.98L160.751 81.18ZM154.304 83.3106C152.007 83.8071 149.646 84.056 147.219 84.056V86.056C149.784 86.056 152.287 85.7929 154.726 85.2654L154.304 83.3106ZM189.497 84H188.497V85H189.497V84ZM189.497 16.8V15.8H188.497V16.8H189.497ZM231.497 16.8H232.497V15.8H231.497V16.8ZM231.497 24.096V25.096H232.497V24.096H231.497ZM199.001 24.096V23.096H198.001V24.096H199.001ZM199.001 47.328H198.001V48.328H199.001V47.328ZM227.656 47.328H228.656V46.328H227.656V47.328ZM227.656 54.624V55.624H228.656V54.624H227.656ZM199.001 54.624V53.624H198.001V54.624H199.001ZM199.001 76.704H198.001V77.704H199.001V76.704ZM231.497 76.704H232.497V75.704H231.497V76.704ZM231.497 84V85H232.497V84H231.497ZM190.497 84V16.8H188.497V84H190.497ZM189.497 17.8H231.497V15.8H189.497V17.8ZM230.497 16.8V24.096H232.497V16.8H230.497ZM231.497 23.096H199.001V25.096H231.497V23.096ZM198.001 24.096V47.328H200.001V24.096H198.001ZM199.001 48.328H227.656V46.328H199.001V48.328ZM226.656 47.328V54.624H228.656V47.328H226.656ZM227.656 53.624H199.001V55.624H227.656V53.624ZM198.001 54.624V76.704H200.001V54.624H198.001ZM199.001 77.704H231.497V75.704H199.001V77.704ZM230.497 76.704V84H232.497V76.704H230.497ZM231.497 83H189.497V85H231.497V83ZM248.19 84H247.19V85H248.19V84ZM248.19 16.8V15.8H247.19V16.8H248.19ZM262.206 16.8L263.125 16.4063L262.866 15.8H262.206V16.8ZM287.406 75.648V76.648H288.922L288.325 75.2543L287.406 75.648ZM285.822 75.648H284.822V76.648H285.822V75.648ZM285.822 16.8V15.8H284.822V16.8H285.822ZM295.326 16.8H296.326V15.8H295.326V16.8ZM295.326 84V85H296.326V84H295.326ZM283.038 84L282.122 84.4023L282.385 85H283.038V84ZM257.262 25.344V24.344H255.73L256.346 25.7463L257.262 25.344ZM257.694 25.344H258.694V24.344H257.694V25.344ZM257.694 84V85H258.694V84H257.694ZM273.246 10.224L272.711 11.0688V11.0688L273.246 10.224ZM270.606 8.304L269.955 9.06329L269.963 9.06971L270.606 8.304ZM268.59 6.816L268.035 7.64805L268.049 7.65739L268.064 7.66626L268.59 6.816ZM262.542 7.82399L261.761 7.1993L261.756 7.2062L261.75 7.21319L262.542 7.82399ZM260.718 10.656L260.08 11.4256L261.084 12.2585L261.627 11.0726L260.718 10.656ZM256.494 7.152L255.536 6.86465L255.346 7.49888L255.856 7.92165L256.494 7.152ZM257.982 4.56L257.179 3.96366L257.176 3.96761L257.982 4.56ZM269.598 1.10399L269.075 1.9566L269.086 1.96281L269.096 1.96878L269.598 1.10399ZM272.286 3.024L271.625 3.77474L271.632 3.78082L272.286 3.024ZM274.35 4.608L273.795 5.44005L273.804 5.44595L273.813 5.45166L274.35 4.608ZM282.222 0.671997L282.884 -0.0778413L281.836 -1.00205L281.299 0.287381L282.222 0.671997ZM286.302 4.27199L287.264 4.54672L287.437 3.93978L286.964 3.52216L286.302 4.27199ZM284.91 6.912L285.73 7.48384L285.738 7.47231L284.91 6.912ZM281.838 9.84L282.388 10.6752L282.395 10.6705L282.402 10.6658L281.838 9.84ZM249.19 84V16.8H247.19V84H249.19ZM248.19 17.8H262.206V15.8H248.19V17.8ZM261.287 17.1936L286.487 76.0416L288.325 75.2543L263.125 16.4063L261.287 17.1936ZM287.406 74.648H285.822V76.648H287.406V74.648ZM286.822 75.648V16.8H284.822V75.648H286.822ZM285.822 17.8H295.326V15.8H285.822V17.8ZM294.326 16.8V84H296.326V16.8H294.326ZM295.326 83H283.038V85H295.326V83ZM283.953 83.5977L258.177 24.9417L256.346 25.7463L282.122 84.4023L283.953 83.5977ZM257.262 26.344H257.694V24.344H257.262V26.344ZM256.694 25.344V84H258.694V25.344H256.694ZM257.694 83H248.19V85H257.694V83ZM276.942 10.136C275.568 10.136 274.537 9.85792 273.781 9.37918L272.711 11.0688C273.875 11.8061 275.308 12.136 276.942 12.136V10.136ZM273.781 9.37918C272.856 8.79304 272.012 8.17916 271.249 7.53829L269.963 9.06971C270.8 9.77283 271.716 10.4389 272.711 11.0688L273.781 9.37918ZM271.257 7.54474C270.55 6.93916 269.837 6.41181 269.116 5.96573L268.064 7.66626C268.687 8.05218 269.318 8.51684 269.955 9.06326L271.257 7.54474ZM269.145 5.98395C268.291 5.41462 267.309 5.144 266.238 5.144V7.144C266.959 7.144 267.545 7.32138 268.035 7.64805L269.145 5.98395ZM266.238 5.144C264.399 5.144 262.866 5.81792 261.761 7.1993L263.323 8.44869C264.01 7.59007 264.941 7.144 266.238 7.144V5.144ZM261.75 7.21319C260.866 8.35883 260.207 9.37171 259.809 10.2393L261.627 11.0726C261.933 10.4043 262.49 9.52917 263.334 8.4348L261.75 7.21319ZM261.356 9.88634L257.132 6.38234L255.856 7.92165L260.08 11.4256L261.356 9.88634ZM257.452 7.43935C257.592 6.97186 258.001 6.22254 258.788 5.15239L257.176 3.96761C256.363 5.07346 255.78 6.05214 255.536 6.86465L257.452 7.43935ZM258.785 5.15632C259.538 4.14185 260.538 3.21018 261.801 2.36805L260.691 0.703947C259.267 1.65381 258.09 2.73814 257.179 3.96367L258.785 5.15632ZM261.801 2.36805C262.963 1.59338 264.333 1.192 265.95 1.192V-0.808002C263.983 -0.808002 262.217 -0.313383 260.691 0.703947L261.801 2.36805ZM265.95 1.192C267.249 1.192 268.274 1.46551 269.075 1.9566L270.121 0.251393C268.938 -0.473517 267.531 -0.808002 265.95 -0.808002V1.192ZM269.096 1.96878C270.036 2.51449 270.878 3.11695 271.625 3.77471L272.947 2.27329C272.094 1.52304 271.144 0.845495 270.1 0.239205L269.096 1.96878ZM271.632 3.78082C272.363 4.41195 273.084 4.96591 273.795 5.44005L274.905 3.77595C274.272 3.35409 273.617 2.85204 272.94 2.26717L271.632 3.78082ZM273.813 5.45166C274.689 6.00935 275.678 6.27999 276.75 6.27999V4.27999C276.03 4.27999 275.419 4.10264 274.887 3.76434L273.813 5.45166ZM276.75 6.27999C278.576 6.27999 280.091 5.57598 281.187 4.16593L279.609 2.93805C278.913 3.83201 277.996 4.27999 276.75 4.27999V6.27999ZM281.187 4.16593C282.104 2.98801 282.775 1.94593 283.145 1.05661L281.299 0.287381C281.029 0.934059 280.484 1.81198 279.609 2.93805L281.187 4.16593ZM281.56 1.42184L285.64 5.02183L286.964 3.52216L282.884 -0.0778413L281.56 1.42184ZM285.34 3.99727C285.193 4.51408 284.801 5.28849 284.082 6.35169L285.738 7.47231C286.491 6.3595 287.027 5.37391 287.264 4.54672L285.34 3.99727ZM284.09 6.3402C283.437 7.27641 282.509 8.17113 281.274 9.0142L282.402 10.6658C283.791 9.71686 284.911 8.65958 285.73 7.48379L284.09 6.3402ZM281.288 9.00482C280.175 9.73784 278.746 10.136 276.942 10.136V12.136C279.042 12.136 280.877 11.6702 282.388 10.6752L281.288 9.00482ZM360.068 84V85H361.364L361.035 83.7458L360.068 84ZM350.228 84L349.258 84.2464L349.45 85H350.228V84ZM345.908 67.008L346.877 66.7616L346.685 66.008H345.908V67.008ZM323.06 67.008V66.008H322.282L322.09 66.7616L323.06 67.008ZM318.74 84V85H319.517L319.709 84.2464L318.74 84ZM308.9 84L307.932 83.7458L307.603 85H308.9V84ZM326.564 16.8V15.8H325.792L325.596 16.5458L326.564 16.8ZM342.404 16.8L343.371 16.5458L343.175 15.8H342.404V16.8ZM333.859 24.096V23.096H333.086L332.892 23.8443L333.859 24.096ZM324.595 59.712L323.628 59.4603L323.302 60.712H324.595V59.712ZM344.371 59.712V60.712H345.665L345.339 59.4603L344.371 59.712ZM335.108 24.096L336.075 23.8443L335.881 23.096H335.108V24.096ZM360.068 83H350.228V85H360.068V83ZM351.197 83.7536L346.877 66.7616L344.938 67.2544L349.258 84.2464L351.197 83.7536ZM345.908 66.008H323.06V68.008H345.908V66.008ZM322.09 66.7616L317.77 83.7536L319.709 84.2464L324.029 67.2544L322.09 66.7616ZM318.74 83H308.9V85H318.74V83ZM309.867 84.2542L327.531 17.0542L325.596 16.5458L307.932 83.7458L309.867 84.2542ZM326.564 17.8H342.404V15.8H326.564V17.8ZM341.436 17.0542L359.1 84.2542L361.035 83.7458L343.371 16.5458L341.436 17.0542ZM332.892 23.8443L323.628 59.4603L325.563 59.9637L334.827 24.3477L332.892 23.8443ZM324.595 60.712H344.371V58.712H324.595V60.712ZM345.339 59.4603L336.075 23.8443L334.14 24.3477L343.404 59.9637L345.339 59.4603ZM335.108 23.096H333.859V25.096H335.108V23.096ZM375.081 84H374.081V85H375.081V84ZM375.081 16.8V15.8H374.081V16.8H375.081ZM399.417 17.376L399.25 18.3621L399.264 18.3642L399.417 17.376ZM406.041 19.296L406.438 18.3783L406.041 19.296ZM411.993 23.136L411.326 23.8813L411.333 23.887L411.993 23.136ZM416.841 29.28L415.968 29.7676L415.973 29.7761L416.841 29.28ZM420.105 38.208L419.128 38.423L419.131 38.4335L420.105 38.208ZM420.105 62.592L419.13 62.3684L419.128 62.377L420.105 62.592ZM416.841 71.52L415.973 71.0238L415.968 71.0324L416.841 71.52ZM411.993 77.664L411.333 76.913L411.326 76.9188L411.993 77.664ZM406.041 81.504L406.438 82.4217L406.041 81.504ZM399.417 83.472L399.57 84.4603L399.584 84.458L399.417 83.472ZM384.585 76.704H383.585V77.704H384.585V76.704ZM399.465 75.456L399.134 74.5125L399.129 74.514L399.465 75.456ZM405.753 71.232L405.017 70.5552L405.753 71.232ZM409.977 63.168L409.02 62.879L409.017 62.8873L409.977 63.168ZM409.977 37.632L409.017 37.9127L409.02 37.921L409.977 37.632ZM405.753 29.568L405.017 30.2448L405.753 29.568ZM399.465 25.344L399.129 26.286L399.134 26.2875L399.465 25.344ZM384.585 24.096V23.096H383.585V24.096H384.585ZM376.081 84V16.8H374.081V84H376.081ZM375.081 17.8H392.601V15.8H375.081V17.8ZM392.601 17.8C394.816 17.8 397.033 17.9872 399.25 18.362L399.584 16.39C397.257 15.9968 394.93 15.8 392.601 15.8V17.8ZM399.264 18.3642C401.451 18.703 403.577 19.3189 405.644 20.2137L406.438 18.3783C404.217 17.417 401.927 16.753 399.57 16.3878L399.264 18.3642ZM405.644 20.2137C407.685 21.0971 409.578 22.3174 411.326 23.8812L412.66 22.3908C410.76 20.6906 408.685 19.3509 406.438 18.3783L405.644 20.2137ZM411.333 23.887C413.092 25.4341 414.64 27.3889 415.968 29.7676L417.714 28.7924C416.29 26.2431 414.606 24.1019 412.653 22.385L411.333 23.887ZM415.973 29.7761C417.32 32.1332 418.377 35.0094 419.128 38.423L421.082 37.993C420.297 34.4306 419.178 31.3548 417.709 28.7839L415.973 29.7761ZM419.131 38.4335C419.909 41.7965 420.305 45.7815 420.305 50.4H422.305C422.305 45.6745 421.901 41.5315 421.079 37.9825L419.131 38.4335ZM420.305 50.4C420.305 54.9856 419.909 58.9717 419.13 62.3684L421.08 62.8156C421.901 59.2363 422.305 55.0943 422.305 50.4H420.305ZM419.128 62.377C418.377 65.7906 417.32 68.6668 415.973 71.0239L417.709 72.0161C419.178 69.4452 420.297 66.3694 421.082 62.807L419.128 62.377ZM415.968 71.0324C414.64 73.4111 413.092 75.3659 411.333 76.913L412.653 78.415C414.606 76.6981 416.29 74.5569 417.714 72.0076L415.968 71.0324ZM411.326 76.9188C409.578 78.4826 407.685 79.7029 405.644 80.5863L406.438 82.4217C408.685 81.4491 410.76 80.1094 412.66 78.4092L411.326 76.9188ZM405.644 80.5863C403.573 81.4828 401.442 82.1156 399.25 82.486L399.584 84.458C401.936 84.0604 404.221 83.3812 406.438 82.4217L405.644 80.5863ZM399.264 82.4838C397.042 82.828 394.821 83 392.601 83V85C394.925 85 397.248 84.82 399.57 84.4602L399.264 82.4838ZM392.601 83H375.081V85H392.601V83ZM384.585 77.704H391.881V75.704H384.585V77.704ZM391.881 77.704C394.704 77.704 397.347 77.2719 399.801 76.398L399.129 74.514C396.911 75.3041 394.498 75.704 391.881 75.704V77.704ZM399.796 76.3995C402.331 75.5091 404.563 74.0044 406.489 71.9088L405.017 70.5552C403.295 72.4276 401.335 73.7389 399.134 74.5125L399.796 76.3995ZM406.489 71.9088C408.444 69.7821 409.915 66.9441 410.937 63.4487L409.017 62.8873C408.055 66.1759 406.71 68.7139 405.017 70.5552L406.489 71.9088ZM410.934 63.457C411.996 59.9398 412.513 55.5784 412.513 50.4H410.513C410.513 55.4616 410.006 59.6122 409.02 62.879L410.934 63.457ZM412.513 50.4C412.513 45.2216 411.996 40.8602 410.934 37.343L409.02 37.921C410.006 41.1878 410.513 45.3384 410.513 50.4H412.513ZM410.937 37.3513C409.915 33.8559 408.444 31.0179 406.489 28.8912L405.017 30.2448C406.71 32.0861 408.055 34.6241 409.017 37.9127L410.937 37.3513ZM406.489 28.8912C404.563 26.7956 402.331 25.2909 399.796 24.4005L399.134 26.2875C401.335 27.0611 403.295 28.3724 405.017 30.2448L406.489 28.8912ZM399.801 24.402C397.347 23.5281 394.704 23.096 391.881 23.096V25.096C394.498 25.096 396.911 25.4959 399.129 26.286L399.801 24.402ZM391.881 23.096H384.585V25.096H391.881V23.096ZM383.585 24.096V76.704H385.585V24.096H383.585ZM451.055 83.856L450.752 84.8092L450.759 84.8114L450.766 84.8135L451.055 83.856ZM443.663 80.016L443.057 80.812L443.062 80.816L443.663 80.016ZM437.663 73.344L436.818 73.8802L437.663 73.344ZM433.582 63.648L432.613 63.8944L432.616 63.9041L433.582 63.648ZM433.582 37.632L432.615 37.3779L432.614 37.3836L433.582 37.632ZM437.663 27.936L438.504 28.4768L438.507 28.4722L437.663 27.936ZM443.663 21.264L443.062 20.464L443.057 20.4681L443.663 21.264ZM451.055 17.472L451.346 18.4286L451.353 18.4263L451.055 17.472ZM467.23 17.472L466.928 18.4253L466.939 18.4285L467.23 17.472ZM474.574 21.264L473.969 22.06L473.974 22.064L474.574 21.264ZM480.574 27.936L479.726 28.4651L479.733 28.4768L480.574 27.936ZM484.655 37.632L483.687 37.8861L483.688 37.8881L484.655 37.632ZM484.655 63.648L485.621 63.9041L485.622 63.9021L484.655 63.648ZM480.574 73.344L479.73 72.8077L479.726 72.8149L480.574 73.344ZM474.574 80.016L473.974 79.216L473.969 79.2201L474.574 80.016ZM467.23 83.856L467.522 84.8126L467.533 84.8092L467.23 83.856ZM471.022 71.28L470.228 70.6725L470.223 70.68L471.022 71.28ZM474.958 62.928L473.998 62.6497L473.996 62.6557L474.958 62.928ZM474.958 38.352L473.996 38.622L473.999 38.6327L474.958 38.352ZM471.022 30L470.223 30.6L470.227 30.6066L470.233 30.6131L471.022 30ZM465.503 25.2L465.055 26.0944V26.0944L465.503 25.2ZM452.783 25.2L452.341 24.3028L452.335 24.3056L452.783 25.2ZM447.215 30L446.42 29.3925L446.419 29.3943L447.215 30ZM443.279 38.352L442.318 38.0737L442.316 38.0797L443.279 38.352ZM443.279 62.928L442.316 63.198L442.319 63.2087L443.279 62.928ZM447.215 71.28L446.414 71.88L446.42 71.8875L447.215 71.28ZM452.783 76.08L452.335 76.9744L452.341 76.9772L452.783 76.08ZM459.167 84.056C456.513 84.056 453.906 83.6705 451.343 82.8985L450.766 84.8135C453.515 85.6415 456.316 86.056 459.167 86.056V84.056ZM451.357 82.9028C448.845 82.1063 446.481 80.8797 444.263 79.216L443.062 80.816C445.452 82.6083 448.016 83.9417 450.752 84.8092L451.357 82.9028ZM444.268 79.2201C442.102 77.5724 440.179 75.4405 438.507 72.8078L436.818 73.8802C438.602 76.6875 440.679 79.0036 443.057 80.8119L444.268 79.2201ZM438.507 72.8078C436.843 70.1897 435.52 67.0561 434.549 63.3919L432.616 63.9041C433.629 67.7279 435.026 71.0583 436.818 73.8802L438.507 72.8078ZM434.552 63.4016C433.617 59.7241 433.142 55.4577 433.142 50.592H431.142C431.142 55.5823 431.628 60.0199 432.613 63.8944L434.552 63.4016ZM433.142 50.592C433.142 45.7587 433.617 41.525 434.551 37.8804L432.614 37.3836C431.628 41.227 431.142 45.6333 431.142 50.592H433.142ZM434.55 37.8861C435.521 34.19 436.843 31.0593 438.504 28.4768L436.821 27.3952C435.026 30.1887 433.628 33.522 432.615 37.3779L434.55 37.8861ZM438.507 28.4722C440.179 25.8395 442.102 23.7076 444.268 22.0599L443.057 20.4681C440.679 22.2764 438.602 24.5925 436.818 27.3998L438.507 28.4722ZM444.263 22.064C446.478 20.4022 448.839 19.193 451.346 18.4285L450.763 16.5155C448.022 17.351 445.455 18.6698 443.062 20.464L444.263 22.064ZM451.353 18.4263C453.914 17.6242 456.517 17.224 459.167 17.224V15.224C456.312 15.224 453.507 15.6558 450.756 16.5177L451.353 18.4263ZM459.167 17.224C461.816 17.224 464.402 17.6242 466.928 18.4252L467.533 16.5188C464.811 15.6558 462.021 15.224 459.167 15.224V17.224ZM466.939 18.4285C469.445 19.1926 471.788 20.4007 473.969 22.0599L475.18 20.4681C472.818 18.6713 470.264 17.3514 467.522 16.5155L466.939 18.4285ZM473.974 22.064C476.169 23.7099 478.088 25.8382 479.726 28.4651L481.423 27.4069C479.669 24.5938 477.588 22.2741 475.174 20.464L473.974 22.064ZM479.733 28.4768C481.394 31.0593 482.716 34.19 483.687 37.8861L485.622 37.3779C484.609 33.522 483.211 30.1887 481.416 27.3952L479.733 28.4768ZM483.688 37.8881C484.653 41.53 485.143 45.7608 485.143 50.592H487.143C487.143 45.6312 486.64 41.222 485.621 37.3759L483.688 37.8881ZM485.143 50.592C485.143 55.4555 484.653 59.7192 483.687 63.3939L485.622 63.9021C486.64 60.0248 487.143 55.5845 487.143 50.592H485.143ZM483.688 63.3919C482.717 67.0561 481.394 70.1897 479.73 72.8078L481.419 73.8802C483.211 71.0583 484.608 67.7279 485.621 63.9041L483.688 63.3919ZM479.726 72.8149C478.088 75.4418 476.169 77.5701 473.974 79.216L475.174 80.816C477.588 79.0059 479.669 76.6862 481.423 73.8731L479.726 72.8149ZM473.969 79.2201C471.785 80.8812 469.439 82.1067 466.928 82.9028L467.533 84.8092C470.27 83.9413 472.82 82.6068 475.18 80.8119L473.969 79.2201ZM466.939 82.8995C464.41 83.6706 461.82 84.056 459.167 84.056V86.056C462.017 86.056 464.803 85.6414 467.522 84.8125L466.939 82.8995ZM459.167 78.616C461.506 78.616 463.77 78.0641 465.95 76.9744L465.055 75.1856C463.139 76.1439 461.179 76.616 459.167 76.616V78.616ZM465.95 76.9744C468.16 75.8691 470.115 74.157 471.823 71.88L470.223 70.68C468.666 72.755 466.941 74.2429 465.055 75.1856L465.95 76.9744ZM471.817 71.8875C473.576 69.5871 474.936 66.6804 475.921 63.2003L473.996 62.6557C473.061 65.9596 471.797 68.6209 470.228 70.6725L471.817 71.8875ZM475.919 63.2063C476.944 59.6667 477.447 55.4559 477.447 50.592H475.447C475.447 55.3281 474.957 59.3413 473.998 62.6497L475.919 63.2063ZM477.447 50.592C477.447 45.7598 476.944 41.58 475.918 38.0713L473.999 38.6327C474.957 41.908 475.447 45.8882 475.447 50.592H477.447ZM475.921 38.082C474.937 34.5702 473.576 31.6593 471.812 29.3869L470.233 30.6131C471.797 32.6287 473.06 35.2858 473.996 38.622L475.921 38.082ZM471.823 29.4C470.115 27.123 468.16 25.4109 465.95 24.3056L465.055 26.0944C466.941 27.0371 468.666 28.525 470.223 30.6L471.823 29.4ZM465.95 24.3056C463.77 23.2159 461.506 22.664 459.167 22.664V24.664C461.179 24.664 463.139 25.1361 465.055 26.0944L465.95 24.3056ZM459.167 22.664C456.827 22.664 454.549 23.2157 452.341 24.3028L453.224 26.0972C455.176 25.1363 457.154 24.664 459.167 24.664V22.664ZM452.335 24.3056C450.127 25.4097 448.159 27.1192 446.42 29.3926L448.009 30.6074C449.598 28.5288 451.342 27.0383 453.23 26.0944L452.335 24.3056ZM446.419 29.3943C444.692 31.6624 443.334 34.5675 442.318 38.0737L444.239 38.6303C445.207 35.2885 446.473 32.6256 448.01 30.6057L446.419 29.3943ZM442.316 38.0797C441.324 41.5852 440.839 45.762 440.839 50.592H442.839C442.839 45.886 443.313 41.9028 444.241 38.6243L442.316 38.0797ZM440.839 50.592C440.839 55.4537 441.324 59.6615 442.316 63.198L444.241 62.658C443.313 59.3465 442.839 55.3303 442.839 50.592H440.839ZM442.319 63.2087C443.335 66.6831 444.693 69.5841 446.414 71.88L448.014 70.68C446.472 68.6239 445.206 65.9569 444.238 62.6473L442.319 63.2087ZM446.42 71.8875C448.159 74.1608 450.127 75.8703 452.335 76.9744L453.23 75.1856C451.342 74.2417 449.598 72.7512 448.009 70.6725L446.42 71.8875ZM452.341 76.9772C454.549 78.0643 456.827 78.616 459.167 78.616V76.616C457.154 76.616 455.176 76.1437 453.224 75.1828L452.341 76.9772ZM501.156 84H500.156V85H501.156V84ZM501.156 16.8V15.8H500.156V16.8H501.156ZM530.436 17.328L530.243 18.3092L530.253 18.3112L530.263 18.313L530.436 17.328ZM535.716 19.008L535.289 19.9124L535.716 19.008ZM540.276 22.272L539.561 22.9708L539.569 22.9791L540.276 22.272ZM543.444 42.864L542.515 42.495L542.512 42.5022L543.444 42.864ZM540.084 48.288L540.799 48.9872L540.807 48.9792L540.084 48.288ZM535.38 51.744L535.82 52.6418L535.827 52.6384L535.38 51.744ZM530.148 53.568L530.344 54.5487L530.358 54.5458L530.148 53.568ZM510.66 54.096V53.096H509.66V54.096H510.66ZM510.66 84V85H511.66V84H510.66ZM535.812 84L534.882 84.3683L535.133 85H535.812V84ZM522.9 51.408L522.793 50.4137L521.486 50.5538L521.97 51.7763L522.9 51.408ZM532.308 50.4L533.235 50.024L532.951 49.3254L532.201 49.4057L532.308 50.4ZM545.94 84V85H547.425L546.867 83.624L545.94 84ZM510.66 46.992H509.66V47.992H510.66V46.992ZM529.284 45.84L528.89 44.9208L528.884 44.9235L529.284 45.84ZM533.604 42.144L534.446 42.684L534.45 42.6768L533.604 42.144ZM533.508 28.464L532.683 29.0298L532.69 29.0391L532.696 29.0483L533.508 28.464ZM529.092 25.056L528.761 25.9996L529.092 25.056ZM510.66 24.096V23.096H509.66V24.096H510.66ZM502.156 84V16.8H500.156V84H502.156ZM501.156 17.8H525.204V15.8H501.156V17.8ZM525.204 17.8C526.831 17.8 528.51 17.9688 530.243 18.3092L530.629 16.3467C528.778 15.9832 526.969 15.8 525.204 15.8V17.8ZM530.263 18.313C531.998 18.6174 533.673 19.15 535.289 19.9124L536.143 18.1036C534.367 17.266 532.522 16.6786 530.609 16.343L530.263 18.313ZM535.289 19.9124C536.875 20.6603 538.298 21.6777 539.561 22.9707L540.991 21.5733C539.566 20.1143 537.949 18.9557 536.143 18.1036L535.289 19.9124ZM539.569 22.9791C540.83 24.2401 541.847 25.8576 542.605 27.8582L544.475 27.1498C543.633 24.9264 542.474 23.0559 540.983 21.5649L539.569 22.9791ZM542.605 27.8582C543.351 29.8285 543.74 32.2302 543.74 35.088H545.74C545.74 32.0578 545.329 29.4035 544.475 27.1498L542.605 27.8582ZM543.74 35.088C543.74 38.004 543.321 40.4646 542.515 42.495L544.373 43.233C545.295 40.9114 545.74 38.188 545.74 35.088H543.74ZM542.512 42.5022C541.721 44.5395 540.668 46.2312 539.361 47.5968L540.807 48.9792C542.316 47.4008 543.503 45.4765 544.376 43.2258L542.512 42.5022ZM539.369 47.5889C538.035 48.9527 536.557 50.0374 534.933 50.8496L535.827 52.6384C537.659 51.7226 539.317 50.5033 540.799 48.9871L539.369 47.5889ZM534.94 50.8462C533.315 51.6433 531.648 52.2239 529.938 52.5902L530.358 54.5458C532.232 54.1441 534.053 53.5087 535.82 52.6418L534.94 50.8462ZM529.952 52.5874C528.246 52.9286 526.664 53.096 525.204 53.096V55.096C526.816 55.096 528.53 54.9114 530.344 54.5486L529.952 52.5874ZM525.204 53.096H510.66V55.096H525.204V53.096ZM509.66 54.096V84H511.66V54.096H509.66ZM510.66 83H501.156V85H510.66V83ZM536.742 83.6317L523.83 51.0397L521.97 51.7763L534.882 84.3683L536.742 83.6317ZM523.007 52.4023L532.415 51.3943L532.201 49.4057L522.793 50.4137L523.007 52.4023ZM531.381 50.7759L545.013 84.376L546.867 83.624L533.235 50.024L531.381 50.7759ZM545.94 83H535.812V85H545.94V83ZM510.66 47.992H523.524V45.992H510.66V47.992ZM523.524 47.992C525.73 47.992 527.788 47.584 529.684 46.7565L528.884 44.9235C527.26 45.632 525.478 45.992 523.524 45.992V47.992ZM529.678 46.7591C531.66 45.9096 533.254 44.5423 534.446 42.684L532.762 41.604C531.778 43.1377 530.492 44.2344 528.89 44.9209L529.678 46.7591ZM534.45 42.6768C535.67 40.7396 536.236 38.2637 536.236 35.328H534.236C534.236 38.0243 533.714 40.0924 532.758 41.6112L534.45 42.6768ZM536.236 35.328C536.236 32.2431 535.642 29.7166 534.32 27.8797L532.696 29.0483C533.678 30.4114 534.236 32.4609 534.236 35.328H536.236ZM534.333 27.8982C533.095 26.0955 531.453 24.8245 529.423 24.1124L528.761 25.9996C530.379 26.5675 531.681 27.5685 532.683 29.0298L534.333 27.8982ZM529.423 24.1124C527.487 23.4329 525.438 23.096 523.284 23.096V25.096C525.226 25.096 527.049 25.3991 528.761 25.9996L529.423 24.1124ZM523.284 23.096H510.66V25.096H523.284V23.096ZM509.66 24.096V46.992H511.66V24.096H509.66ZM614.33 84H613.33V85H614.33V84ZM614.33 16.8V15.8H613.33V16.8H614.33ZM653.93 16.8H654.93V15.8H653.93V16.8ZM653.93 24.096V25.096H654.93V24.096H653.93ZM623.833 24.096V23.096H622.833V24.096H623.833ZM623.833 50.832H622.833V51.832H623.833V50.832ZM649.466 50.832H650.466V49.832H649.466V50.832ZM649.466 58.128V59.128H650.466V58.128H649.466ZM623.833 58.128V57.128H622.833V58.128H623.833ZM623.833 84V85H624.833V84H623.833ZM615.33 84V16.8H613.33V84H615.33ZM614.33 17.8H653.93V15.8H614.33V17.8ZM652.93 16.8V24.096H654.93V16.8H652.93ZM653.93 23.096H623.833V25.096H653.93V23.096ZM622.833 24.096V50.832H624.833V24.096H622.833ZM623.833 51.832H649.466V49.832H623.833V51.832ZM648.466 50.832V58.128H650.466V50.832H648.466ZM649.466 57.128H623.833V59.128H649.466V57.128ZM622.833 58.128V84H624.833V58.128H622.833ZM623.833 83H614.33V85H623.833V83ZM674.031 84H673.031V85H674.031V84ZM674.031 16.8V15.8H673.031V16.8H674.031ZM703.311 17.328L703.118 18.3092L703.128 18.3112L703.138 18.313L703.311 17.328ZM708.591 19.008L708.164 19.9124L708.591 19.008ZM713.151 22.272L712.436 22.9708L712.444 22.9791L713.151 22.272ZM716.319 42.864L715.39 42.495L715.387 42.5022L716.319 42.864ZM712.959 48.288L713.674 48.9872L713.682 48.9792L712.959 48.288ZM708.255 51.744L708.695 52.6418L708.702 52.6384L708.255 51.744ZM703.023 53.568L703.219 54.5487L703.233 54.5458L703.023 53.568ZM683.535 54.096V53.096H682.535V54.096H683.535ZM683.535 84V85H684.535V84H683.535ZM708.687 84L707.757 84.3683L708.008 85H708.687V84ZM695.775 51.408L695.668 50.4137L694.361 50.5538L694.845 51.7763L695.775 51.408ZM705.183 50.4L706.11 50.024L705.826 49.3254L705.076 49.4057L705.183 50.4ZM718.815 84V85H720.3L719.742 83.624L718.815 84ZM683.535 46.992H682.535V47.992H683.535V46.992ZM702.159 45.84L701.765 44.9208L701.759 44.9235L702.159 45.84ZM706.479 42.144L707.321 42.684L707.325 42.6768L706.479 42.144ZM706.383 28.464L705.558 29.0298L705.565 29.0391L705.571 29.0483L706.383 28.464ZM701.967 25.056L701.636 25.9996L701.967 25.056ZM683.535 24.096V23.096H682.535V24.096H683.535ZM675.031 84V16.8H673.031V84H675.031ZM674.031 17.8H698.079V15.8H674.031V17.8ZM698.079 17.8C699.706 17.8 701.385 17.9688 703.118 18.3092L703.504 16.3467C701.653 15.9832 699.844 15.8 698.079 15.8V17.8ZM703.138 18.313C704.873 18.6174 706.548 19.15 708.164 19.9124L709.018 18.1036C707.242 17.266 705.397 16.6786 703.484 16.343L703.138 18.313ZM708.164 19.9124C709.75 20.6603 711.173 21.6777 712.436 22.9707L713.866 21.5733C712.441 20.1143 710.824 18.9557 709.018 18.1036L708.164 19.9124ZM712.444 22.9791C713.705 24.2401 714.722 25.8576 715.48 27.8582L717.35 27.1498C716.508 24.9264 715.349 23.0559 713.858 21.5649L712.444 22.9791ZM715.48 27.8582C716.226 29.8285 716.615 32.2302 716.615 35.088H718.615C718.615 32.0578 718.204 29.4035 717.35 27.1498L715.48 27.8582ZM716.615 35.088C716.615 38.004 716.196 40.4646 715.39 42.495L717.248 43.233C718.17 40.9114 718.615 38.188 718.615 35.088H716.615ZM715.387 42.5022C714.596 44.5395 713.543 46.2312 712.236 47.5968L713.682 48.9792C715.191 47.4008 716.378 45.4765 717.251 43.2258L715.387 42.5022ZM712.244 47.5889C710.91 48.9527 709.432 50.0374 707.808 50.8496L708.702 52.6384C710.534 51.7226 712.192 50.5033 713.674 48.9871L712.244 47.5889ZM707.815 50.8462C706.19 51.6433 704.523 52.2239 702.813 52.5902L703.233 54.5458C705.107 54.1441 706.928 53.5087 708.695 52.6418L707.815 50.8462ZM702.827 52.5874C701.121 52.9286 699.539 53.096 698.079 53.096V55.096C699.691 55.096 701.405 54.9114 703.219 54.5486L702.827 52.5874ZM698.079 53.096H683.535V55.096H698.079V53.096ZM682.535 54.096V84H684.535V54.096H682.535ZM683.535 83H674.031V85H683.535V83ZM709.617 83.6317L696.705 51.0397L694.845 51.7763L707.757 84.3683L709.617 83.6317ZM695.882 52.4023L705.29 51.3943L705.076 49.4057L695.668 50.4137L695.882 52.4023ZM704.256 50.7759L717.888 84.376L719.742 83.624L706.11 50.024L704.256 50.7759ZM718.815 83H708.687V85H718.815V83ZM683.535 47.992H696.399V45.992H683.535V47.992ZM696.399 47.992C698.605 47.992 700.663 47.584 702.559 46.7565L701.759 44.9235C700.135 45.632 698.353 45.992 696.399 45.992V47.992ZM702.553 46.7591C704.535 45.9096 706.129 44.5423 707.321 42.684L705.637 41.604C704.653 43.1377 703.367 44.2344 701.765 44.9209L702.553 46.7591ZM707.325 42.6768C708.545 40.7396 709.111 38.2637 709.111 35.328H707.111C707.111 38.0243 706.589 40.0924 705.633 41.6112L707.325 42.6768ZM709.111 35.328C709.111 32.2431 708.517 29.7166 707.195 27.8797L705.571 29.0483C706.553 30.4114 707.111 32.4609 707.111 35.328H709.111ZM707.208 27.8982C705.97 26.0955 704.328 24.8245 702.298 24.1124L701.636 25.9996C703.254 26.5675 704.556 27.5685 705.558 29.0298L707.208 27.8982ZM702.298 24.1124C700.362 23.4329 698.313 23.096 696.159 23.096V25.096C698.101 25.096 699.924 25.3991 701.636 25.9996L702.298 24.1124ZM696.159 23.096H683.535V25.096H696.159V23.096ZM682.535 24.096V46.992H684.535V24.096H682.535ZM748.805 83.856L748.502 84.8092L748.509 84.8114L748.516 84.8135L748.805 83.856ZM741.412 80.016L740.807 80.812L740.812 80.816L741.412 80.016ZM735.412 73.344L734.568 73.8802L735.412 73.344ZM731.333 63.648L730.363 63.8944L730.366 63.9041L731.333 63.648ZM731.333 37.632L730.365 37.3779L730.364 37.3836L731.333 37.632ZM735.412 27.936L736.254 28.4768L736.257 28.4722L735.412 27.936ZM741.412 21.264L740.812 20.464L740.807 20.4681L741.412 21.264ZM748.805 17.472L749.096 18.4286L749.103 18.4263L748.805 17.472ZM764.981 17.472L764.678 18.4253L764.689 18.4285L764.981 17.472ZM772.325 21.264L771.719 22.06L771.724 22.064L772.325 21.264ZM778.325 27.936L777.476 28.4651L777.483 28.4768L778.325 27.936ZM782.404 37.632L781.437 37.8861L781.438 37.8881L782.404 37.632ZM782.404 63.648L783.371 63.9041L783.372 63.9021L782.404 63.648ZM778.325 73.344L777.48 72.8077L777.476 72.8149L778.325 73.344ZM772.325 80.016L771.724 79.216L771.719 79.2201L772.325 80.016ZM764.981 83.856L765.272 84.8126L765.283 84.8092L764.981 83.856ZM768.773 71.28L767.978 70.6725L767.972 70.68L768.773 71.28ZM772.708 62.928L771.748 62.6497L771.746 62.6557L772.708 62.928ZM772.708 38.352L771.746 38.622L771.749 38.6327L772.708 38.352ZM768.773 30L767.972 30.6L767.977 30.6066L767.983 30.6131L768.773 30ZM763.253 25.2L762.805 26.0944V26.0944L763.253 25.2ZM750.533 25.2L750.091 24.3028L750.085 24.3056L750.533 25.2ZM744.964 30L744.17 29.3925L744.169 29.3943L744.964 30ZM741.029 38.352L740.068 38.0737L740.066 38.0797L741.029 38.352ZM741.029 62.928L740.066 63.198L740.069 63.2087L741.029 62.928ZM744.964 71.28L744.164 71.88L744.17 71.8875L744.964 71.28ZM750.533 76.08L750.085 76.9744L750.091 76.9772L750.533 76.08ZM756.917 84.056C754.263 84.056 751.656 83.6705 749.093 82.8985L748.516 84.8135C751.265 85.6415 754.066 86.056 756.917 86.056V84.056ZM749.107 82.9028C746.595 82.1063 744.231 80.8797 742.013 79.216L740.812 80.816C743.202 82.6083 745.766 83.9417 748.502 84.8092L749.107 82.9028ZM742.018 79.2201C739.852 77.5724 737.929 75.4405 736.257 72.8078L734.568 73.8802C736.352 76.6875 738.429 79.0036 740.807 80.8119L742.018 79.2201ZM736.257 72.8078C734.593 70.1897 733.27 67.0561 732.299 63.3919L730.366 63.9041C731.379 67.7279 732.776 71.0583 734.568 73.8802L736.257 72.8078ZM732.302 63.4016C731.367 59.7241 730.893 55.4577 730.893 50.592H728.893C728.893 55.5823 729.378 60.0199 730.363 63.8944L732.302 63.4016ZM730.893 50.592C730.893 45.7587 731.367 41.525 732.301 37.8804L730.364 37.3836C729.378 41.227 728.893 45.6333 728.893 50.592H730.893ZM732.3 37.8861C733.271 34.19 734.593 31.0593 736.254 28.4768L734.571 27.3952C732.776 30.1887 731.378 33.522 730.365 37.3779L732.3 37.8861ZM736.257 28.4722C737.929 25.8395 739.852 23.7076 742.018 22.0599L740.807 20.4681C738.429 22.2764 736.352 24.5925 734.568 27.3998L736.257 28.4722ZM742.013 22.064C744.228 20.4022 746.589 19.193 749.096 18.4285L748.513 16.5155C745.772 17.351 743.205 18.6698 740.812 20.464L742.013 22.064ZM749.103 18.4263C751.664 17.6242 754.267 17.224 756.917 17.224V15.224C754.062 15.224 751.257 15.6558 748.506 16.5177L749.103 18.4263ZM756.917 17.224C759.566 17.224 762.152 17.6242 764.678 18.4252L765.283 16.5188C762.561 15.6558 759.771 15.224 756.917 15.224V17.224ZM764.689 18.4285C767.195 19.1926 769.538 20.4007 771.719 22.0599L772.93 20.4681C770.568 18.6713 768.014 17.3514 765.272 16.5155L764.689 18.4285ZM771.724 22.064C773.919 23.7099 775.838 25.8382 777.476 28.4651L779.173 27.4069C777.419 24.5938 775.338 22.2741 772.924 20.464L771.724 22.064ZM777.483 28.4768C779.144 31.0593 780.466 34.19 781.437 37.8861L783.372 37.3779C782.359 33.522 780.961 30.1887 779.166 27.3952L777.483 28.4768ZM781.438 37.8881C782.403 41.53 782.893 45.7608 782.893 50.592H784.893C784.893 45.6312 784.39 41.222 783.371 37.3759L781.438 37.8881ZM782.893 50.592C782.893 55.4555 782.403 59.7192 781.437 63.3939L783.372 63.9021C784.39 60.0248 784.893 55.5845 784.893 50.592H782.893ZM781.438 63.3919C780.467 67.0561 779.144 70.1897 777.48 72.8078L779.169 73.8802C780.961 71.0583 782.358 67.7279 783.371 63.9041L781.438 63.3919ZM777.476 72.8149C775.838 75.4418 773.919 77.5701 771.724 79.216L772.924 80.816C775.338 79.0059 777.419 76.6862 779.173 73.8731L777.476 72.8149ZM771.719 79.2201C769.535 80.8812 767.189 82.1067 764.678 82.9028L765.283 84.8092C768.02 83.9413 770.57 82.6068 772.93 80.8119L771.719 79.2201ZM764.689 82.8995C762.16 83.6706 759.57 84.056 756.917 84.056V86.056C759.767 86.056 762.553 85.6414 765.272 84.8125L764.689 82.8995ZM756.917 78.616C759.256 78.616 761.52 78.0641 763.7 76.9744L762.805 75.1856C760.889 76.1439 758.929 76.616 756.917 76.616V78.616ZM763.7 76.9744C765.91 75.8691 767.865 74.157 769.573 71.88L767.972 70.68C766.416 72.755 764.691 74.2429 762.805 75.1856L763.7 76.9744ZM769.567 71.8875C771.326 69.5871 772.686 66.6804 773.671 63.2003L771.746 62.6557C770.811 65.9596 769.547 68.6209 767.978 70.6725L769.567 71.8875ZM773.669 63.2063C774.694 59.6667 775.196 55.4559 775.196 50.592H773.196C773.196 55.3281 772.707 59.3413 771.748 62.6497L773.669 63.2063ZM775.196 50.592C775.196 45.7598 774.694 41.58 773.668 38.0713L771.749 38.6327C772.707 41.908 773.196 45.8882 773.196 50.592H775.196ZM773.671 38.082C772.687 34.5702 771.326 31.6593 769.562 29.3869L767.983 30.6131C769.547 32.6287 770.81 35.2858 771.746 38.622L773.671 38.082ZM769.573 29.4C767.865 27.123 765.91 25.4109 763.7 24.3056L762.805 26.0944C764.691 27.0371 766.416 28.525 767.972 30.6L769.573 29.4ZM763.7 24.3056C761.52 23.2159 759.256 22.664 756.917 22.664V24.664C758.929 24.664 760.889 25.1361 762.805 26.0944L763.7 24.3056ZM756.917 22.664C754.577 22.664 752.299 23.2157 750.091 24.3028L750.974 26.0972C752.926 25.1363 754.904 24.664 756.917 24.664V22.664ZM750.085 24.3056C747.877 25.4097 745.909 27.1192 744.17 29.3926L745.759 30.6074C747.348 28.5288 749.092 27.0383 750.98 26.0944L750.085 24.3056ZM744.169 29.3943C742.442 31.6624 741.084 34.5675 740.068 38.0737L741.989 38.6303C742.957 35.2885 744.223 32.6256 745.76 30.6057L744.169 29.3943ZM740.066 38.0797C739.074 41.5852 738.589 45.762 738.589 50.592H740.589C740.589 45.886 741.063 41.9028 741.991 38.6243L740.066 38.0797ZM738.589 50.592C738.589 55.4537 739.074 59.6615 740.066 63.198L741.991 62.658C741.063 59.3465 740.589 55.3303 740.589 50.592H738.589ZM740.069 63.2087C741.085 66.6831 742.443 69.5841 744.164 71.88L745.765 70.68C744.222 68.6239 742.956 65.9569 741.988 62.6473L740.069 63.2087ZM744.17 71.8875C745.909 74.1608 747.877 75.8703 750.085 76.9744L750.98 75.1856C749.092 74.2417 747.348 72.7512 745.759 70.6725L744.17 71.8875ZM750.091 76.9772C752.299 78.0643 754.577 78.616 756.917 78.616V76.616C754.904 76.616 752.926 76.1437 750.974 75.1828L750.091 76.9772ZM795.69 84H794.69V85H795.69V84ZM795.69 16.8V15.8H794.69V16.8H795.69ZM809.706 16.8L810.625 16.4063L810.366 15.8H809.706V16.8ZM834.906 75.648V76.648H836.422L835.825 75.2543L834.906 75.648ZM833.322 75.648H832.322V76.648H833.322V75.648ZM833.322 16.8V15.8H832.322V16.8H833.322ZM842.826 16.8H843.826V15.8H842.826V16.8ZM842.826 84V85H843.826V84H842.826ZM830.538 84L829.622 84.4023L829.885 85H830.538V84ZM804.762 25.344V24.344H803.23L803.846 25.7463L804.762 25.344ZM805.194 25.344H806.194V24.344H805.194V25.344ZM805.194 84V85H806.194V84H805.194ZM796.69 84V16.8H794.69V84H796.69ZM795.69 17.8H809.706V15.8H795.69V17.8ZM808.787 17.1936L833.987 76.0416L835.825 75.2543L810.625 16.4063L808.787 17.1936ZM834.906 74.648H833.322V76.648H834.906V74.648ZM834.322 75.648V16.8H832.322V75.648H834.322ZM833.322 17.8H842.826V15.8H833.322V17.8ZM841.826 16.8V84H843.826V16.8H841.826ZM842.826 83H830.538V85H842.826V83ZM831.453 83.5977L805.677 24.9417L803.846 25.7463L829.622 84.4023L831.453 83.5977ZM804.762 26.344H805.194V24.344H804.762V26.344ZM804.194 25.344V84H806.194V25.344H804.194ZM805.194 83H795.69V85H805.194V83ZM877.088 84H876.088V85H877.088V84ZM877.088 24.096H878.088V23.096H877.088V24.096ZM857.456 24.096H856.456V25.096H857.456V24.096ZM857.456 16.8V15.8H856.456V16.8H857.456ZM906.224 16.8H907.224V15.8H906.224V16.8ZM906.224 24.096V25.096H907.224V24.096H906.224ZM886.591 24.096V23.096H885.591V24.096H886.591ZM886.591 84V85H887.591V84H886.591ZM878.088 84V24.096H876.088V84H878.088ZM877.088 23.096H857.456V25.096H877.088V23.096ZM858.456 24.096V16.8H856.456V24.096H858.456ZM857.456 17.8H906.224V15.8H857.456V17.8ZM905.224 16.8V24.096H907.224V16.8H905.224ZM906.224 23.096H886.591V25.096H906.224V23.096ZM885.591 24.096V84H887.591V24.096H885.591ZM886.591 83H877.088V85H886.591V83ZM972.309 84H971.309V85H972.309V84ZM972.309 16.8V15.8H971.309V16.8H972.309ZM1014.31 16.8H1015.31V15.8H1014.31V16.8ZM1014.31 24.096V25.096H1015.31V24.096H1014.31ZM981.813 24.096V23.096H980.813V24.096H981.813ZM981.813 47.328H980.813V48.328H981.813V47.328ZM1010.47 47.328H1011.47V46.328H1010.47V47.328ZM1010.47 54.624V55.624H1011.47V54.624H1010.47ZM981.813 54.624V53.624H980.813V54.624H981.813ZM981.813 76.704H980.813V77.704H981.813V76.704ZM1014.31 76.704H1015.31V75.704H1014.31V76.704ZM1014.31 84V85H1015.31V84H1014.31ZM973.309 84V16.8H971.309V84H973.309ZM972.309 17.8H1014.31V15.8H972.309V17.8ZM1013.31 16.8V24.096H1015.31V16.8H1013.31ZM1014.31 23.096H981.813V25.096H1014.31V23.096ZM980.813 24.096V47.328H982.813V24.096H980.813ZM981.813 48.328H1010.47V46.328H981.813V48.328ZM1009.47 47.328V54.624H1011.47V47.328H1009.47ZM1010.47 53.624H981.813V55.624H1010.47V53.624ZM980.813 54.624V76.704H982.813V54.624H980.813ZM981.813 77.704H1014.31V75.704H981.813V77.704ZM1013.31 76.704V84H1015.31V76.704H1013.31ZM1014.31 83H972.309V85H1014.31V83ZM1031 84H1030V85H1031V84ZM1031 16.8V15.8H1030V16.8H1031ZM1045.02 16.8L1045.94 16.4063L1045.68 15.8H1045.02V16.8ZM1070.22 75.648V76.648H1071.73L1071.14 75.2543L1070.22 75.648ZM1068.63 75.648H1067.63V76.648H1068.63V75.648ZM1068.63 16.8V15.8H1067.63V16.8H1068.63ZM1078.14 16.8H1079.14V15.8H1078.14V16.8ZM1078.14 84V85H1079.14V84H1078.14ZM1065.85 84L1064.94 84.4023L1065.2 85H1065.85V84ZM1040.07 25.344V24.344H1038.54L1039.16 25.7463L1040.07 25.344ZM1040.51 25.344H1041.51V24.344H1040.51V25.344ZM1040.51 84V85H1041.51V84H1040.51ZM1032 84V16.8H1030V84H1032ZM1031 17.8H1045.02V15.8H1031V17.8ZM1044.1 17.1936L1069.3 76.0416L1071.14 75.2543L1045.94 16.4063L1044.1 17.1936ZM1070.22 74.648H1068.63V76.648H1070.22V74.648ZM1069.63 75.648V16.8H1067.63V75.648H1069.63ZM1068.63 17.8H1078.14V15.8H1068.63V17.8ZM1077.14 16.8V84H1079.14V16.8H1077.14ZM1078.14 83H1065.85V85H1078.14V83ZM1066.77 83.5977L1040.99 24.9417L1039.16 25.7463L1064.94 84.4023L1066.77 83.5977ZM1040.07 26.344H1040.51V24.344H1040.07V26.344ZM1039.51 25.344V84H1041.51V25.344H1039.51ZM1040.51 83H1031V85H1040.51V83ZM1095.46 84H1094.46V85H1095.46V84ZM1095.46 16.8V15.8H1094.46V16.8H1095.46ZM1119.79 17.376L1119.63 18.3621L1119.64 18.3642L1119.79 17.376ZM1126.42 19.296L1126.81 18.3783L1126.42 19.296ZM1132.37 23.136L1131.7 23.8813L1131.71 23.887L1132.37 23.136ZM1137.22 29.28L1136.34 29.7676L1136.35 29.7761L1137.22 29.28ZM1140.48 38.208L1139.5 38.423L1139.51 38.4335L1140.48 38.208ZM1140.48 62.592L1139.51 62.3684L1139.5 62.377L1140.48 62.592ZM1137.22 71.52L1136.35 71.0238L1136.34 71.0324L1137.22 71.52ZM1132.37 77.664L1131.71 76.913L1131.7 76.9188L1132.37 77.664ZM1126.42 81.504L1126.81 82.4217L1126.42 81.504ZM1119.79 83.472L1119.95 84.4603L1119.96 84.458L1119.79 83.472ZM1104.96 76.704H1103.96V77.704H1104.96V76.704ZM1119.84 75.456L1119.51 74.5125L1119.5 74.514L1119.84 75.456ZM1126.13 71.232L1125.39 70.5552L1126.13 71.232ZM1130.35 63.168L1129.39 62.879L1129.39 62.8873L1130.35 63.168ZM1130.35 37.632L1129.39 37.9127L1129.39 37.921L1130.35 37.632ZM1126.13 29.568L1125.39 30.2448L1126.13 29.568ZM1119.84 25.344L1119.5 26.286L1119.51 26.2875L1119.84 25.344ZM1104.96 24.096V23.096H1103.96V24.096H1104.96ZM1096.46 84V16.8H1094.46V84H1096.46ZM1095.46 17.8H1112.98V15.8H1095.46V17.8ZM1112.98 17.8C1115.19 17.8 1117.41 17.9872 1119.63 18.362L1119.96 16.39C1117.63 15.9968 1115.3 15.8 1112.98 15.8V17.8ZM1119.64 18.3642C1121.83 18.703 1123.95 19.3189 1126.02 20.2137L1126.81 18.3783C1124.59 17.417 1122.3 16.753 1119.95 16.3878L1119.64 18.3642ZM1126.02 20.2137C1128.06 21.0971 1129.95 22.3174 1131.7 23.8812L1133.03 22.3908C1131.13 20.6906 1129.06 19.3509 1126.81 18.3783L1126.02 20.2137ZM1131.71 23.887C1133.47 25.4341 1135.01 27.3889 1136.34 29.7676L1138.09 28.7924C1136.67 26.2431 1134.98 24.1019 1133.03 22.385L1131.71 23.887ZM1136.35 29.7761C1137.69 32.1332 1138.75 35.0094 1139.5 38.423L1141.46 37.993C1140.67 34.4306 1139.55 31.3548 1138.08 28.7839L1136.35 29.7761ZM1139.51 38.4335C1140.28 41.7965 1140.68 45.7815 1140.68 50.4H1142.68C1142.68 45.6745 1142.28 41.5315 1141.45 37.9825L1139.51 38.4335ZM1140.68 50.4C1140.68 54.9856 1140.28 58.9717 1139.51 62.3684L1141.45 62.8156C1142.28 59.2363 1142.68 55.0943 1142.68 50.4H1140.68ZM1139.5 62.377C1138.75 65.7906 1137.69 68.6668 1136.35 71.0239L1138.08 72.0161C1139.55 69.4452 1140.67 66.3694 1141.46 62.807L1139.5 62.377ZM1136.34 71.0324C1135.01 73.4111 1133.47 75.3659 1131.71 76.913L1133.03 78.415C1134.98 76.6981 1136.67 74.5569 1138.09 72.0076L1136.34 71.0324ZM1131.7 76.9188C1129.95 78.4826 1128.06 79.7029 1126.02 80.5863L1126.81 82.4217C1129.06 81.4491 1131.13 80.1094 1133.03 78.4092L1131.7 76.9188ZM1126.02 80.5863C1123.95 81.4828 1121.82 82.1156 1119.63 82.486L1119.96 84.458C1122.31 84.0604 1124.6 83.3812 1126.81 82.4217L1126.02 80.5863ZM1119.64 82.4838C1117.42 82.828 1115.2 83 1112.98 83V85C1115.3 85 1117.62 84.82 1119.95 84.4602L1119.64 82.4838ZM1112.98 83H1095.46V85H1112.98V83ZM1104.96 77.704H1112.26V75.704H1104.96V77.704ZM1112.26 77.704C1115.08 77.704 1117.72 77.2719 1120.18 76.398L1119.5 74.514C1117.29 75.3041 1114.87 75.704 1112.26 75.704V77.704ZM1120.17 76.3995C1122.71 75.5091 1124.94 74.0044 1126.86 71.9088L1125.39 70.5552C1123.67 72.4276 1121.71 73.7389 1119.51 74.5125L1120.17 76.3995ZM1126.86 71.9088C1128.82 69.7821 1130.29 66.9441 1131.31 63.4487L1129.39 62.8873C1128.43 66.1759 1127.08 68.7139 1125.39 70.5552L1126.86 71.9088ZM1131.31 63.457C1132.37 59.9398 1132.89 55.5784 1132.89 50.4H1130.89C1130.89 55.4616 1130.38 59.6122 1129.39 62.879L1131.31 63.457ZM1132.89 50.4C1132.89 45.2216 1132.37 40.8602 1131.31 37.343L1129.39 37.921C1130.38 41.1878 1130.89 45.3384 1130.89 50.4H1132.89ZM1131.31 37.3513C1130.29 33.8559 1128.82 31.0179 1126.86 28.8912L1125.39 30.2448C1127.08 32.0861 1128.43 34.6241 1129.39 37.9127L1131.31 37.3513ZM1126.86 28.8912C1124.94 26.7956 1122.71 25.2909 1120.17 24.4005L1119.51 26.2875C1121.71 27.0611 1123.67 28.3724 1125.39 30.2448L1126.86 28.8912ZM1120.18 24.402C1117.72 23.5281 1115.08 23.096 1112.26 23.096V25.096C1114.87 25.096 1117.29 25.4959 1119.5 26.286L1120.18 24.402ZM1112.26 23.096H1104.96V25.096H1112.26V23.096ZM1103.96 24.096V76.704H1105.96V24.096H1103.96Z" fill="#FF0000" mask="url(#path-1-outside-1_82_60)"/>
<defs>
<filter id="filter0_i_82_60" x="0.456055" y="0.192017" width="1141.22" height="88.864" filterUnits="userSpaceOnUse" color-interpolation-filters="sRGB">
<feFlood flood-opacity="0" result="BackgroundImageFix"/>
<feBlend mode="normal" in="SourceGraphic" in2="BackgroundImageFix" result="shape"/>
<feColorMatrix in="SourceAlpha" type="matrix" values="0 0 0 0 0 0 0 0 0 0 0 0 0 0 0 0 0 0 127 0" result="hardAlpha"/>
<feOffset dy="4"/>
<feGaussianBlur stdDeviation="2"/>
<feComposite in2="hardAlpha" operator="arithmetic" k2="-1" k3="1"/>
<feColorMatrix type="matrix" values="0 0 0 0 0 0 0 0 0 0 0 0 0 0 0 0 0 0 0.25 0"/>
<feBlend mode="normal" in2="shape" result="effect1_innerShadow_82_60"/>
</filter>
</defs>
</svg>
