<svg width="1075" height="70" viewBox="0 0 1075 70" fill="none" xmlns="http://www.w3.org/2000/svg">
<mask id="path-1-outside-1_82_60" maskUnits="userSpaceOnUse" x="-1" y="-1" width="1078" height="72" fill="black">
<rect fill="white" x="-1" y="-1" width="1078" height="72"/>
<path d="M0.392001 68V0.799995H39.992V8.096H9.896V34.832H35.528V42.128H9.896V68H0.392001ZM60.0935 68V0.799995H84.1415C85.8375 0.799995 87.5815 0.975996 89.3735 1.328C91.1975 1.648 92.9575 2.208 94.6535 3.008C96.3495 3.80799 97.8695 4.896 99.2135 6.272C100.59 7.648 101.678 9.392 102.478 11.504C103.278 13.616 103.677 16.144 103.677 19.088C103.677 22.096 103.246 24.688 102.382 26.864C101.55 29.008 100.43 30.816 99.0215 32.288C97.6135 33.728 96.0455 34.88 94.3175 35.744C92.6215 36.576 90.8775 37.184 89.0855 37.568C87.3255 37.92 85.6775 38.096 84.1415 38.096H69.5975V68H60.0935ZM94.7495 68L81.8375 35.408L91.2455 34.4L104.878 68H94.7495ZM69.5975 30.992H82.4615C84.5415 30.992 86.4615 30.608 88.2215 29.84C90.0135 29.072 91.4535 27.84 92.5415 26.144C93.6295 24.416 94.1735 22.144 94.1735 19.328C94.1735 16.352 93.5975 14.064 92.4455 12.464C91.3255 10.832 89.8535 9.696 88.0295 9.056C86.2055 8.416 84.2695 8.096 82.2215 8.096H69.5975V30.992ZM142.979 69.056C140.227 69.056 137.523 68.656 134.867 67.856C132.243 67.024 129.779 65.744 127.475 64.016C125.203 62.288 123.203 60.064 121.475 57.344C119.747 54.624 118.387 51.392 117.395 47.648C116.435 43.872 115.955 39.52 115.955 34.592C115.955 29.696 116.435 25.376 117.395 21.632C118.387 17.856 119.747 14.624 121.475 11.936C123.203 9.216 125.203 6.992 127.475 5.264C129.779 3.536 132.243 2.272 134.867 1.472C137.523 0.639997 140.227 0.223997 142.979 0.223997C145.731 0.223997 148.419 0.639997 151.043 1.472C153.667 2.272 156.115 3.536 158.387 5.264C160.691 6.992 162.691 9.216 164.387 11.936C166.115 14.624 167.475 17.856 168.467 21.632C169.459 25.376 169.955 29.696 169.955 34.592C169.955 39.52 169.459 43.872 168.467 47.648C167.475 51.392 166.115 54.624 164.387 57.344C162.691 60.064 160.691 62.288 158.387 64.016C156.115 65.744 153.667 67.024 151.043 67.856C148.419 68.656 145.731 69.056 142.979 69.056ZM142.979 61.616C145.155 61.616 147.267 61.104 149.315 60.08C151.363 59.056 153.203 57.456 154.835 55.28C156.499 53.104 157.811 50.32 158.771 46.928C159.763 43.504 160.259 39.392 160.259 34.592C160.259 29.824 159.763 25.744 158.771 22.352C157.811 18.928 156.499 16.144 154.835 14C153.203 11.824 151.363 10.224 149.315 9.2C147.267 8.176 145.155 7.664 142.979 7.664C140.803 7.664 138.675 8.176 136.595 9.2C134.547 10.224 132.691 11.824 131.027 14C129.395 16.144 128.083 18.928 127.091 22.352C126.131 25.744 125.651 29.824 125.651 34.592C125.651 39.392 126.131 43.504 127.091 46.928C128.083 50.32 129.395 53.104 131.027 55.28C132.691 57.456 134.547 59.056 136.595 60.08C138.675 61.104 140.803 61.616 142.979 61.616ZM181.753 68V0.799995H195.769L220.969 59.648H219.385V0.799995H228.889V68H216.601L190.825 9.344H191.257V68H181.753ZM263.15 68V8.096H243.518V0.799995H292.286V8.096H272.654V68H263.15ZM358.372 68V0.799995H400.372V8.096H367.876V31.328H396.531V38.624H367.876V60.704H400.372V68H358.372ZM417.065 68V0.799995H431.081L456.281 59.648H454.697V0.799995H464.201V68H451.913L426.137 9.344H426.569V68H417.065ZM481.519 68V0.799995H499.039C501.311 0.799995 503.583 0.991997 505.855 1.376C508.127 1.728 510.335 2.368 512.479 3.296C514.623 4.224 516.607 5.504 518.431 7.136C520.287 8.768 521.903 10.816 523.279 13.28C524.687 15.744 525.775 18.72 526.543 22.208C527.343 25.664 527.743 29.728 527.743 34.4C527.743 39.04 527.343 43.104 526.543 46.592C525.775 50.08 524.687 53.056 523.279 55.52C521.903 57.984 520.287 60.032 518.431 61.664C516.607 63.296 514.623 64.576 512.479 65.504C510.335 66.432 508.127 67.088 505.855 67.472C503.583 67.824 501.311 68 499.039 68H481.519ZM491.023 60.704H498.319C501.039 60.704 503.567 60.288 505.903 59.456C508.271 58.624 510.367 57.216 512.191 55.232C514.015 53.248 515.423 50.56 516.415 47.168C517.439 43.776 517.951 39.52 517.951 34.4C517.951 29.28 517.439 25.024 516.415 21.632C515.423 18.24 514.015 15.552 512.191 13.568C510.367 11.584 508.271 10.176 505.903 9.344C503.567 8.512 501.039 8.096 498.319 8.096H491.023V60.704ZM591.956 68V0.799995H609.476C611.748 0.799995 614.02 0.991997 616.292 1.376C618.564 1.728 620.772 2.368 622.916 3.296C625.06 4.224 627.044 5.504 628.868 7.136C630.724 8.768 632.34 10.816 633.716 13.28C635.124 15.744 636.212 18.72 636.98 22.208C637.78 25.664 638.18 29.728 638.18 34.4C638.18 39.04 637.78 43.104 636.98 46.592C636.212 50.08 635.124 53.056 633.716 55.52C632.34 57.984 630.724 60.032 628.868 61.664C627.044 63.296 625.06 64.576 622.916 65.504C620.772 66.432 618.564 67.088 616.292 67.472C614.02 67.824 611.748 68 609.476 68H591.956ZM601.46 60.704H608.756C611.476 60.704 614.004 60.288 616.34 59.456C618.708 58.624 620.804 57.216 622.628 55.232C624.452 53.248 625.86 50.56 626.852 47.168C627.876 43.776 628.388 39.52 628.388 34.4C628.388 29.28 627.876 25.024 626.852 21.632C625.86 18.24 624.452 15.552 622.628 13.568C620.804 11.584 618.708 10.176 616.34 9.344C614.004 8.512 611.476 8.096 608.756 8.096H601.46V60.704ZM656.122 68V0.799995H698.122V8.096H665.626V31.328H694.281V38.624H665.626V60.704H698.122V68H656.122ZM738.719 69.056C734.751 69.056 731.087 68.496 727.727 67.376C724.367 66.256 721.487 64.64 719.087 62.528C716.719 60.416 715.007 57.888 713.951 54.944L723.119 50.96C723.887 53.008 725.039 54.832 726.575 56.432C728.111 58 729.951 59.232 732.095 60.128C734.239 61.024 736.639 61.472 739.295 61.472C742.079 61.472 744.495 61.024 746.543 60.128C748.623 59.2 750.223 57.904 751.343 56.24C752.463 54.576 753.023 52.576 753.023 50.24C753.023 48.48 752.543 46.912 751.583 45.536C750.655 44.128 749.375 42.912 747.743 41.888C746.111 40.832 744.287 39.936 742.271 39.2C740.287 38.432 738.255 37.792 736.175 37.28C733.231 36.512 730.527 35.584 728.063 34.496C725.631 33.408 723.503 32.096 721.679 30.56C719.887 28.992 718.495 27.136 717.503 24.992C716.543 22.848 716.063 20.336 716.063 17.456C716.063 15.152 716.495 13.072 717.359 11.216C718.223 9.36 719.407 7.744 720.911 6.368C722.447 4.992 724.191 3.856 726.143 2.96C728.127 2.032 730.255 1.344 732.527 0.895994C734.799 0.447996 737.087 0.223997 739.391 0.223997C743.039 0.223997 746.415 0.767998 749.519 1.856C752.623 2.912 755.247 4.384 757.391 6.272C759.535 8.128 761.007 10.24 761.807 12.608L752.831 16.64C752.159 14.752 751.167 13.152 749.855 11.84C748.575 10.528 747.007 9.536 745.151 8.86399C743.327 8.16 741.295 7.808 739.055 7.808C737.359 7.808 735.727 8.016 734.159 8.432C732.623 8.816 731.231 9.408 729.983 10.208C728.767 10.976 727.791 11.952 727.055 13.136C726.351 14.288 725.999 15.648 725.999 17.216C725.999 19.424 726.591 21.296 727.775 22.832C728.959 24.368 730.591 25.664 732.671 26.72C734.783 27.744 737.215 28.608 739.967 29.312C742.111 29.888 744.271 30.56 746.447 31.328C748.655 32.064 750.735 32.96 752.687 34.016C754.671 35.072 756.431 36.336 757.967 37.808C759.535 39.248 760.767 40.944 761.663 42.896C762.559 44.816 763.007 47.024 763.007 49.52C763.007 52.208 762.559 54.608 761.663 56.72C760.799 58.832 759.599 60.672 758.063 62.24C756.527 63.776 754.735 65.056 752.687 66.08C750.639 67.072 748.415 67.808 746.015 68.288C743.647 68.8 741.215 69.056 738.719 69.056ZM782.341 68V60.704H796.213V8.096H782.341V0.799995H819.685V8.096H805.717V60.704H819.685V68H782.341ZM865.418 69.056C862.922 69.056 860.378 68.688 857.786 67.952C855.194 67.216 852.714 66.032 850.346 64.4C847.978 62.768 845.85 60.624 843.962 57.968C842.074 55.28 840.586 52.016 839.498 48.176C838.41 44.336 837.866 39.808 837.866 34.592C837.866 29.472 838.394 25.008 839.45 21.2C840.538 17.36 841.994 14.112 843.818 11.456C845.674 8.768 847.77 6.608 850.106 4.976C852.474 3.312 854.954 2.112 857.546 1.376C860.17 0.607998 862.762 0.223997 865.322 0.223997C868.298 0.223997 871.034 0.591997 873.53 1.328C876.058 2.064 878.282 3.088 880.202 4.4C882.154 5.68 883.77 7.2 885.05 8.96C886.33 10.688 887.226 12.56 887.738 14.576L878.858 18.272C878.538 16.896 878.01 15.584 877.274 14.336C876.538 13.056 875.594 11.92 874.442 10.928C873.29 9.936 871.93 9.152 870.362 8.576C868.826 7.968 867.082 7.664 865.13 7.664C863.402 7.664 861.69 7.984 859.994 8.62399C858.298 9.264 856.698 10.272 855.194 11.648C853.69 12.992 852.346 14.72 851.162 16.832C850.01 18.944 849.098 21.472 848.426 24.416C847.786 27.36 847.466 30.752 847.466 34.592C847.466 39.456 847.994 43.6 849.05 47.024C850.106 50.448 851.498 53.248 853.226 55.424C854.986 57.568 856.938 59.136 859.082 60.128C861.226 61.12 863.37 61.616 865.514 61.616C867.626 61.616 869.594 61.216 871.418 60.416C873.242 59.616 874.826 58.384 876.17 56.72C877.546 55.024 878.602 52.88 879.338 50.288C880.106 47.664 880.49 44.528 880.49 40.88H864.842V33.44H889.61V38.672C889.61 43.056 889.178 46.928 888.314 50.288C887.45 53.616 886.25 56.464 884.714 58.832C883.178 61.2 881.386 63.152 879.338 64.688C877.29 66.192 875.082 67.296 872.714 68C870.378 68.704 867.946 69.056 865.418 69.056ZM902.128 68V0.799995H916.144L941.344 59.648H939.76V0.799995H949.264V68H936.976L911.2 9.344H911.632V68H902.128ZM968.309 68V0.799995H1010.31V8.096H977.813V31.328H1006.47V38.624H977.813V60.704H1010.31V68H968.309ZM1030.22 68V0.799995H1054.27C1055.96 0.799995 1057.71 0.975996 1059.5 1.328C1061.32 1.648 1063.08 2.208 1064.78 3.008C1066.47 3.80799 1067.99 4.896 1069.34 6.272C1070.71 7.648 1071.8 9.392 1072.6 11.504C1073.4 13.616 1073.8 16.144 1073.8 19.088C1073.8 22.096 1073.37 24.688 1072.51 26.864C1071.67 29.008 1070.55 30.816 1069.15 32.288C1067.74 33.728 1066.17 34.88 1064.44 35.744C1062.75 36.576 1061 37.184 1059.21 37.568C1057.45 37.92 1055.8 38.096 1054.27 38.096H1039.72V68H1030.22ZM1064.87 68L1051.96 35.408L1061.37 34.4L1075 68H1064.87ZM1039.72 30.992H1052.59C1054.67 30.992 1056.59 30.608 1058.35 29.84C1060.14 29.072 1061.58 27.84 1062.67 26.144C1063.75 24.416 1064.3 22.144 1064.3 19.328C1064.3 16.352 1063.72 14.064 1062.57 12.464C1061.45 10.832 1059.98 9.696 1058.15 9.056C1056.33 8.416 1054.39 8.096 1052.35 8.096H1039.72V30.992Z"/>
</mask>
<g filter="url(#filter0_i_82_60)">
<path d="M0.392001 68V0.799995H39.992V8.096H9.896V34.832H35.528V42.128H9.896V68H0.392001ZM60.0935 68V0.799995H84.1415C85.8375 0.799995 87.5815 0.975996 89.3735 1.328C91.1975 1.648 92.9575 2.208 94.6535 3.008C96.3495 3.80799 97.8695 4.896 99.2135 6.272C100.59 7.648 101.678 9.392 102.478 11.504C103.278 13.616 103.677 16.144 103.677 19.088C103.677 22.096 103.246 24.688 102.382 26.864C101.55 29.008 100.43 30.816 99.0215 32.288C97.6135 33.728 96.0455 34.88 94.3175 35.744C92.6215 36.576 90.8775 37.184 89.0855 37.568C87.3255 37.92 85.6775 38.096 84.1415 38.096H69.5975V68H60.0935ZM94.7495 68L81.8375 35.408L91.2455 34.4L104.878 68H94.7495ZM69.5975 30.992H82.4615C84.5415 30.992 86.4615 30.608 88.2215 29.84C90.0135 29.072 91.4535 27.84 92.5415 26.144C93.6295 24.416 94.1735 22.144 94.1735 19.328C94.1735 16.352 93.5975 14.064 92.4455 12.464C91.3255 10.832 89.8535 9.696 88.0295 9.056C86.2055 8.416 84.2695 8.096 82.2215 8.096H69.5975V30.992ZM142.979 69.056C140.227 69.056 137.523 68.656 134.867 67.856C132.243 67.024 129.779 65.744 127.475 64.016C125.203 62.288 123.203 60.064 121.475 57.344C119.747 54.624 118.387 51.392 117.395 47.648C116.435 43.872 115.955 39.52 115.955 34.592C115.955 29.696 116.435 25.376 117.395 21.632C118.387 17.856 119.747 14.624 121.475 11.936C123.203 9.216 125.203 6.992 127.475 5.264C129.779 3.536 132.243 2.272 134.867 1.472C137.523 0.639997 140.227 0.223997 142.979 0.223997C145.731 0.223997 148.419 0.639997 151.043 1.472C153.667 2.272 156.115 3.536 158.387 5.264C160.691 6.992 162.691 9.216 164.387 11.936C166.115 14.624 167.475 17.856 168.467 21.632C169.459 25.376 169.955 29.696 169.955 34.592C169.955 39.52 169.459 43.872 168.467 47.648C167.475 51.392 166.115 54.624 164.387 57.344C162.691 60.064 160.691 62.288 158.387 64.016C156.115 65.744 153.667 67.024 151.043 67.856C148.419 68.656 145.731 69.056 142.979 69.056ZM142.979 61.616C145.155 61.616 147.267 61.104 149.315 60.08C151.363 59.056 153.203 57.456 154.835 55.28C156.499 53.104 157.811 50.32 158.771 46.928C159.763 43.504 160.259 39.392 160.259 34.592C160.259 29.824 159.763 25.744 158.771 22.352C157.811 18.928 156.499 16.144 154.835 14C153.203 11.824 151.363 10.224 149.315 9.2C147.267 8.176 145.155 7.664 142.979 7.664C140.803 7.664 138.675 8.176 136.595 9.2C134.547 10.224 132.691 11.824 131.027 14C129.395 16.144 128.083 18.928 127.091 22.352C126.131 25.744 125.651 29.824 125.651 34.592C125.651 39.392 126.131 43.504 127.091 46.928C128.083 50.32 129.395 53.104 131.027 55.28C132.691 57.456 134.547 59.056 136.595 60.08C138.675 61.104 140.803 61.616 142.979 61.616ZM181.753 68V0.799995H195.769L220.969 59.648H219.385V0.799995H228.889V68H216.601L190.825 9.344H191.257V68H181.753ZM263.15 68V8.096H243.518V0.799995H292.286V8.096H272.654V68H263.15ZM358.372 68V0.799995H400.372V8.096H367.876V31.328H396.531V38.624H367.876V60.704H400.372V68H358.372ZM417.065 68V0.799995H431.081L456.281 59.648H454.697V0.799995H464.201V68H451.913L426.137 9.344H426.569V68H417.065ZM481.519 68V0.799995H499.039C501.311 0.799995 503.583 0.991997 505.855 1.376C508.127 1.728 510.335 2.368 512.479 3.296C514.623 4.224 516.607 5.504 518.431 7.136C520.287 8.768 521.903 10.816 523.279 13.28C524.687 15.744 525.775 18.72 526.543 22.208C527.343 25.664 527.743 29.728 527.743 34.4C527.743 39.04 527.343 43.104 526.543 46.592C525.775 50.08 524.687 53.056 523.279 55.52C521.903 57.984 520.287 60.032 518.431 61.664C516.607 63.296 514.623 64.576 512.479 65.504C510.335 66.432 508.127 67.088 505.855 67.472C503.583 67.824 501.311 68 499.039 68H481.519ZM491.023 60.704H498.319C501.039 60.704 503.567 60.288 505.903 59.456C508.271 58.624 510.367 57.216 512.191 55.232C514.015 53.248 515.423 50.56 516.415 47.168C517.439 43.776 517.951 39.52 517.951 34.4C517.951 29.28 517.439 25.024 516.415 21.632C515.423 18.24 514.015 15.552 512.191 13.568C510.367 11.584 508.271 10.176 505.903 9.344C503.567 8.512 501.039 8.096 498.319 8.096H491.023V60.704ZM591.956 68V0.799995H609.476C611.748 0.799995 614.02 0.991997 616.292 1.376C618.564 1.728 620.772 2.368 622.916 3.296C625.06 4.224 627.044 5.504 628.868 7.136C630.724 8.768 632.34 10.816 633.716 13.28C635.124 15.744 636.212 18.72 636.98 22.208C637.78 25.664 638.18 29.728 638.18 34.4C638.18 39.04 637.78 43.104 636.98 46.592C636.212 50.08 635.124 53.056 633.716 55.52C632.34 57.984 630.724 60.032 628.868 61.664C627.044 63.296 625.06 64.576 622.916 65.504C620.772 66.432 618.564 67.088 616.292 67.472C614.02 67.824 611.748 68 609.476 68H591.956ZM601.46 60.704H608.756C611.476 60.704 614.004 60.288 616.34 59.456C618.708 58.624 620.804 57.216 622.628 55.232C624.452 53.248 625.86 50.56 626.852 47.168C627.876 43.776 628.388 39.52 628.388 34.4C628.388 29.28 627.876 25.024 626.852 21.632C625.86 18.24 624.452 15.552 622.628 13.568C620.804 11.584 618.708 10.176 616.34 9.344C614.004 8.512 611.476 8.096 608.756 8.096H601.46V60.704ZM656.122 68V0.799995H698.122V8.096H665.626V31.328H694.281V38.624H665.626V60.704H698.122V68H656.122ZM738.719 69.056C734.751 69.056 731.087 68.496 727.727 67.376C724.367 66.256 721.487 64.64 719.087 62.528C716.719 60.416 715.007 57.888 713.951 54.944L723.119 50.96C723.887 53.008 725.039 54.832 726.575 56.432C728.111 58 729.951 59.232 732.095 60.128C734.239 61.024 736.639 61.472 739.295 61.472C742.079 61.472 744.495 61.024 746.543 60.128C748.623 59.2 750.223 57.904 751.343 56.24C752.463 54.576 753.023 52.576 753.023 50.24C753.023 48.48 752.543 46.912 751.583 45.536C750.655 44.128 749.375 42.912 747.743 41.888C746.111 40.832 744.287 39.936 742.271 39.2C740.287 38.432 738.255 37.792 736.175 37.28C733.231 36.512 730.527 35.584 728.063 34.496C725.631 33.408 723.503 32.096 721.679 30.56C719.887 28.992 718.495 27.136 717.503 24.992C716.543 22.848 716.063 20.336 716.063 17.456C716.063 15.152 716.495 13.072 717.359 11.216C718.223 9.36 719.407 7.744 720.911 6.368C722.447 4.992 724.191 3.856 726.143 2.96C728.127 2.032 730.255 1.344 732.527 0.895994C734.799 0.447996 737.087 0.223997 739.391 0.223997C743.039 0.223997 746.415 0.767998 749.519 1.856C752.623 2.912 755.247 4.384 757.391 6.272C759.535 8.128 761.007 10.24 761.807 12.608L752.831 16.64C752.159 14.752 751.167 13.152 749.855 11.84C748.575 10.528 747.007 9.536 745.151 8.86399C743.327 8.16 741.295 7.808 739.055 7.808C737.359 7.808 735.727 8.016 734.159 8.432C732.623 8.816 731.231 9.408 729.983 10.208C728.767 10.976 727.791 11.952 727.055 13.136C726.351 14.288 725.999 15.648 725.999 17.216C725.999 19.424 726.591 21.296 727.775 22.832C728.959 24.368 730.591 25.664 732.671 26.72C734.783 27.744 737.215 28.608 739.967 29.312C742.111 29.888 744.271 30.56 746.447 31.328C748.655 32.064 750.735 32.96 752.687 34.016C754.671 35.072 756.431 36.336 757.967 37.808C759.535 39.248 760.767 40.944 761.663 42.896C762.559 44.816 763.007 47.024 763.007 49.52C763.007 52.208 762.559 54.608 761.663 56.72C760.799 58.832 759.599 60.672 758.063 62.24C756.527 63.776 754.735 65.056 752.687 66.08C750.639 67.072 748.415 67.808 746.015 68.288C743.647 68.8 741.215 69.056 738.719 69.056ZM782.341 68V60.704H796.213V8.096H782.341V0.799995H819.685V8.096H805.717V60.704H819.685V68H782.341ZM865.418 69.056C862.922 69.056 860.378 68.688 857.786 67.952C855.194 67.216 852.714 66.032 850.346 64.4C847.978 62.768 845.85 60.624 843.962 57.968C842.074 55.28 840.586 52.016 839.498 48.176C838.41 44.336 837.866 39.808 837.866 34.592C837.866 29.472 838.394 25.008 839.45 21.2C840.538 17.36 841.994 14.112 843.818 11.456C845.674 8.768 847.77 6.608 850.106 4.976C852.474 3.312 854.954 2.112 857.546 1.376C860.17 0.607998 862.762 0.223997 865.322 0.223997C868.298 0.223997 871.034 0.591997 873.53 1.328C876.058 2.064 878.282 3.088 880.202 4.4C882.154 5.68 883.77 7.2 885.05 8.96C886.33 10.688 887.226 12.56 887.738 14.576L878.858 18.272C878.538 16.896 878.01 15.584 877.274 14.336C876.538 13.056 875.594 11.92 874.442 10.928C873.29 9.936 871.93 9.152 870.362 8.576C868.826 7.968 867.082 7.664 865.13 7.664C863.402 7.664 861.69 7.984 859.994 8.62399C858.298 9.264 856.698 10.272 855.194 11.648C853.69 12.992 852.346 14.72 851.162 16.832C850.01 18.944 849.098 21.472 848.426 24.416C847.786 27.36 847.466 30.752 847.466 34.592C847.466 39.456 847.994 43.6 849.05 47.024C850.106 50.448 851.498 53.248 853.226 55.424C854.986 57.568 856.938 59.136 859.082 60.128C861.226 61.12 863.37 61.616 865.514 61.616C867.626 61.616 869.594 61.216 871.418 60.416C873.242 59.616 874.826 58.384 876.17 56.72C877.546 55.024 878.602 52.88 879.338 50.288C880.106 47.664 880.49 44.528 880.49 40.88H864.842V33.44H889.61V38.672C889.61 43.056 889.178 46.928 888.314 50.288C887.45 53.616 886.25 56.464 884.714 58.832C883.178 61.2 881.386 63.152 879.338 64.688C877.29 66.192 875.082 67.296 872.714 68C870.378 68.704 867.946 69.056 865.418 69.056ZM902.128 68V0.799995H916.144L941.344 59.648H939.76V0.799995H949.264V68H936.976L911.2 9.344H911.632V68H902.128ZM968.309 68V0.799995H1010.31V8.096H977.813V31.328H1006.47V38.624H977.813V60.704H1010.31V68H968.309ZM1030.22 68V0.799995H1054.27C1055.96 0.799995 1057.71 0.975996 1059.5 1.328C1061.32 1.648 1063.08 2.208 1064.78 3.008C1066.47 3.80799 1067.99 4.896 1069.34 6.272C1070.71 7.648 1071.8 9.392 1072.6 11.504C1073.4 13.616 1073.8 16.144 1073.8 19.088C1073.8 22.096 1073.37 24.688 1072.51 26.864C1071.67 29.008 1070.55 30.816 1069.15 32.288C1067.74 33.728 1066.17 34.88 1064.44 35.744C1062.75 36.576 1061 37.184 1059.21 37.568C1057.45 37.92 1055.8 38.096 1054.27 38.096H1039.72V68H1030.22ZM1064.87 68L1051.96 35.408L1061.37 34.4L1075 68H1064.87ZM1039.72 30.992H1052.59C1054.67 30.992 1056.59 30.608 1058.35 29.84C1060.14 29.072 1061.58 27.84 1062.67 26.144C1063.75 24.416 1064.3 22.144 1064.3 19.328C1064.3 16.352 1063.72 14.064 1062.57 12.464C1061.45 10.832 1059.98 9.696 1058.15 9.056C1056.33 8.416 1054.39 8.096 1052.35 8.096H1039.72V30.992Z" fill="white"/>
</g>
<path d="M0.392001 68H-0.607999V69H0.392001V68ZM0.392001 0.799995V-0.200005H-0.607999V0.799995H0.392001ZM39.992 0.799995H40.992V-0.200005H39.992V0.799995ZM39.992 8.096V9.096H40.992V8.096H39.992ZM9.896 8.096V7.096H8.896V8.096H9.896ZM9.896 34.832H8.896V35.832H9.896V34.832ZM35.528 34.832H36.528V33.832H35.528V34.832ZM35.528 42.128V43.128H36.528V42.128H35.528ZM9.896 42.128V41.128H8.896V42.128H9.896ZM9.896 68V69H10.896V68H9.896ZM1.392 68V0.799995H-0.607999V68H1.392ZM0.392001 1.8H39.992V-0.200005H0.392001V1.8ZM38.992 0.799995V8.096H40.992V0.799995H38.992ZM39.992 7.096H9.896V9.096H39.992V7.096ZM8.896 8.096V34.832H10.896V8.096H8.896ZM9.896 35.832H35.528V33.832H9.896V35.832ZM34.528 34.832V42.128H36.528V34.832H34.528ZM35.528 41.128H9.896V43.128H35.528V41.128ZM8.896 42.128V68H10.896V42.128H8.896ZM9.896 67H0.392001V69H9.896V67ZM60.0935 68H59.0935V69H60.0935V68ZM60.0935 0.799995V-0.200005H59.0935V0.799995H60.0935ZM89.3735 1.328L89.1808 2.30925L89.1907 2.3112L89.2007 2.31295L89.3735 1.328ZM94.6535 3.008L94.2269 3.91243L94.2269 3.91243L94.6535 3.008ZM99.2135 6.272L98.4981 6.97079L98.5064 6.97911L99.2135 6.272ZM102.382 26.864L101.452 26.495L101.449 26.5022L102.382 26.864ZM99.0215 32.288L99.7365 32.9872L99.7441 32.9792L99.0215 32.288ZM94.3175 35.744L94.7579 36.6418L94.7647 36.6384L94.3175 35.744ZM89.0855 37.568L89.2816 38.5487L89.295 38.5458L89.0855 37.568ZM69.5975 38.096V37.096H68.5975V38.096H69.5975ZM69.5975 68V69H70.5975V68H69.5975ZM94.7495 68L93.8198 68.3683L94.0701 69H94.7495V68ZM81.8375 35.408L81.731 34.4137L80.4235 34.5538L80.9078 35.7763L81.8375 35.408ZM91.2455 34.4L92.1721 34.024L91.8887 33.3254L91.139 33.4057L91.2455 34.4ZM104.878 68V69H106.362L105.804 67.624L104.878 68ZM69.5975 30.992H68.5975V31.992H69.5975V30.992ZM88.2215 29.84L87.8276 28.9208L87.8216 28.9235L88.2215 29.84ZM92.5415 26.144L93.3832 26.684L93.3877 26.6768L92.5415 26.144ZM92.4455 12.464L91.621 13.0298L91.6274 13.0391L91.634 13.0483L92.4455 12.464ZM88.0295 9.056L87.6984 9.9996L87.6984 9.9996L88.0295 9.056ZM69.5975 8.096V7.096H68.5975V8.096H69.5975ZM61.0935 68V0.799995H59.0935V68H61.0935ZM60.0935 1.8H84.1415V-0.200005H60.0935V1.8ZM84.1415 1.8C85.7681 1.8 87.4474 1.96877 89.1808 2.30925L89.5662 0.346749C87.7156 -0.0167781 85.9069 -0.200005 84.1415 -0.200005V1.8ZM89.2007 2.31295C90.9358 2.61735 92.6105 3.14998 94.2269 3.91243L95.0801 2.10356C93.3045 1.26601 91.4592 0.678642 89.5463 0.34304L89.2007 2.31295ZM94.2269 3.91243C95.8124 4.66029 97.2352 5.67772 98.4981 6.97074L99.9289 5.57326C98.5038 4.11427 96.8866 2.9557 95.0801 2.10356L94.2269 3.91243ZM98.5064 6.97911C99.7674 8.24013 100.785 9.85755 101.542 11.8582L103.413 11.1498C102.57 8.92644 101.412 7.05587 99.9206 5.56489L98.5064 6.97911ZM101.542 11.8582C102.289 13.8285 102.677 16.2302 102.677 19.088H104.677C104.677 16.0578 104.266 13.4035 103.413 11.1498L101.542 11.8582ZM102.677 19.088C102.677 22.004 102.258 24.4646 101.452 26.495L103.311 27.233C104.233 24.9114 104.677 22.188 104.677 19.088H102.677ZM101.449 26.5022C100.659 28.5395 99.605 30.2312 98.2989 31.5968L99.7441 32.9792C101.254 31.4008 102.44 29.4765 103.314 27.2258L101.449 26.5022ZM98.3065 31.5889C96.9729 32.9527 95.4946 34.0374 93.8703 34.8496L94.7647 36.6384C96.5964 35.7226 98.2541 34.5033 99.7365 32.9871L98.3065 31.5889ZM93.8771 34.8462C92.2522 35.6433 90.5856 36.2238 88.876 36.5902L89.295 38.5458C91.1694 38.1441 92.9908 37.5087 94.7579 36.6418L93.8771 34.8462ZM88.8894 36.5874C87.1835 36.9286 85.6017 37.096 84.1415 37.096V39.096C85.7533 39.096 87.4675 38.9114 89.2816 38.5486L88.8894 36.5874ZM84.1415 37.096H69.5975V39.096H84.1415V37.096ZM68.5975 38.096V68H70.5975V38.096H68.5975ZM69.5975 67H60.0935V69H69.5975V67ZM95.6792 67.6317L82.7672 35.0397L80.9078 35.7763L93.8198 68.3683L95.6792 67.6317ZM81.944 36.4023L91.352 35.3943L91.139 33.4057L81.731 34.4137L81.944 36.4023ZM90.3189 34.7759L103.951 68.376L105.804 67.624L92.1721 34.024L90.3189 34.7759ZM104.878 67H94.7495V69H104.878V67ZM69.5975 31.992H82.4615V29.992H69.5975V31.992ZM82.4615 31.992C84.6676 31.992 86.7251 31.584 88.6214 30.7565L87.8216 28.9235C86.1979 29.632 84.4154 29.992 82.4615 29.992V31.992ZM88.6154 30.7591C90.5977 29.9096 92.1911 28.5423 93.3832 26.684L91.6998 25.604C90.716 27.1377 89.4293 28.2344 87.8276 28.9209L88.6154 30.7591ZM93.3877 26.6768C94.6075 24.7396 95.1735 22.2637 95.1735 19.328H93.1735C93.1735 22.0243 92.6515 24.0924 91.6953 25.6112L93.3877 26.6768ZM95.1735 19.328C95.1735 16.2431 94.5796 13.7166 93.257 11.8797L91.634 13.0483C92.6154 14.4114 93.1735 16.4609 93.1735 19.328H95.1735ZM93.27 11.8982C92.0329 10.0955 90.3901 8.82451 88.3606 8.1124L87.6984 9.9996C89.3169 10.5675 90.6181 11.5685 91.621 13.0298L93.27 11.8982ZM88.3606 8.1124C86.424 7.4329 84.3755 7.096 82.2215 7.096V9.096C84.1635 9.096 85.987 9.3991 87.6984 9.9996L88.3606 8.1124ZM82.2215 7.096H69.5975V9.096H82.2215V7.096ZM68.5975 8.096V30.992H70.5975V8.096H68.5975ZM134.867 67.856L134.565 68.8092L134.572 68.8114L134.579 68.8135L134.867 67.856ZM127.475 64.016L126.87 64.812L126.875 64.816L127.475 64.016ZM121.475 57.344L120.631 57.8802L120.631 57.8802L121.475 57.344ZM117.395 47.648L116.426 47.8944L116.428 47.9041L117.395 47.648ZM117.395 21.632L116.428 21.3779L116.426 21.3836L117.395 21.632ZM121.475 11.936L122.316 12.4768L122.319 12.4722L121.475 11.936ZM127.475 5.264L126.875 4.46398L126.87 4.46805L127.475 5.264ZM134.867 1.472L135.159 2.42856L135.166 2.42627L134.867 1.472ZM151.043 1.472L150.741 2.42529L150.751 2.42853L151.043 1.472ZM158.387 5.264L157.782 6.05996L157.787 6.064L158.387 5.264ZM164.387 11.936L163.538 12.4651L163.546 12.4768L164.387 11.936ZM168.467 21.632L167.5 21.8861L167.5 21.8881L168.467 21.632ZM168.467 47.648L169.434 47.9041L169.434 47.9021L168.467 47.648ZM164.387 57.344L163.543 56.8077L163.538 56.8149L164.387 57.344ZM158.387 64.016L157.787 63.216L157.782 63.2201L158.387 64.016ZM151.043 67.856L151.335 68.8126L151.345 68.8092L151.043 67.856ZM154.835 55.28L154.041 54.6725L154.035 54.68L154.835 55.28ZM158.771 46.928L157.81 46.6497L157.809 46.6557L158.771 46.928ZM158.771 22.352L157.808 22.622L157.811 22.6327L158.771 22.352ZM154.835 14L154.035 14.6L154.04 14.6066L154.045 14.6131L154.835 14ZM149.315 9.2L148.868 10.0944L148.868 10.0944L149.315 9.2ZM136.595 9.2L136.153 8.30281L136.148 8.30557L136.595 9.2ZM131.027 14L130.233 13.3925L130.231 13.3943L131.027 14ZM127.091 22.352L126.13 22.0737L126.129 22.0797L127.091 22.352ZM127.091 46.928L126.128 47.198L126.131 47.2087L127.091 46.928ZM131.027 55.28L130.227 55.88L130.233 55.8874L131.027 55.28ZM136.595 60.08L136.148 60.9744L136.153 60.9772L136.595 60.08ZM142.979 68.056C140.325 68.056 137.719 67.6705 135.155 66.8985L134.579 68.8135C137.327 69.6415 140.129 70.056 142.979 70.056V68.056ZM135.169 66.9028C132.657 66.1063 130.293 64.8797 128.075 63.216L126.875 64.816C129.265 66.6083 131.829 67.9417 134.565 68.8092L135.169 66.9028ZM128.08 63.2201C125.914 61.5724 123.992 59.4405 122.319 56.8078L120.631 57.8802C122.414 60.6875 124.492 63.0036 126.87 64.8119L128.08 63.2201ZM122.319 56.8078C120.656 54.1897 119.333 51.0561 118.362 47.3919L116.428 47.9041C117.441 51.7279 118.838 55.0583 120.631 57.8802L122.319 56.8078ZM118.364 47.4016C117.429 43.7241 116.955 39.4577 116.955 34.592H114.955C114.955 39.5823 115.441 44.0199 116.426 47.8944L118.364 47.4016ZM116.955 34.592C116.955 29.7587 117.429 25.525 118.364 21.8804L116.426 21.3836C115.441 25.227 114.955 29.6333 114.955 34.592H116.955ZM118.362 21.8861C119.333 18.19 120.656 15.0593 122.316 12.4768L120.634 11.3952C118.838 14.1887 117.441 17.522 116.428 21.3779L118.362 21.8861ZM122.319 12.4722C123.992 9.83948 125.914 7.70757 128.08 6.05994L126.87 4.46805C124.492 6.27642 122.414 8.59251 120.631 11.3998L122.319 12.4722ZM128.075 6.064C130.291 4.40218 132.651 3.19299 135.159 2.42853L134.575 0.515466C131.835 1.351 129.267 2.66982 126.875 4.464L128.075 6.064ZM135.166 2.42627C137.726 1.62423 140.33 1.224 142.979 1.224V-0.776003C140.124 -0.776003 137.32 -0.344235 134.568 0.517723L135.166 2.42627ZM142.979 1.224C145.628 1.224 148.214 1.62421 150.741 2.42523L151.345 0.518768C148.624 -0.34422 145.834 -0.776003 142.979 -0.776003V1.224ZM150.751 2.42853C153.258 3.19261 155.6 4.40068 157.782 6.05994L158.992 4.46805C156.63 2.67132 154.076 1.35139 151.335 0.515466L150.751 2.42853ZM157.787 6.064C159.982 7.70992 161.9 9.83817 163.538 12.4651L165.236 11.4069C163.482 8.59383 161.4 6.27408 158.987 4.464L157.787 6.064ZM163.546 12.4768C165.206 15.0593 166.529 18.19 167.5 21.8861L169.434 21.3779C168.421 17.522 167.024 14.1887 165.228 11.3952L163.546 12.4768ZM167.5 21.8881C168.465 25.53 168.955 29.7608 168.955 34.592H170.955C170.955 29.6312 170.453 25.222 169.434 21.3759L167.5 21.8881ZM168.955 34.592C168.955 39.4555 168.465 43.7192 167.5 47.3939L169.434 47.9021C170.453 44.0248 170.955 39.5845 170.955 34.592H168.955ZM167.5 47.3919C166.529 51.0561 165.206 54.1897 163.543 56.8078L165.231 57.8802C167.024 55.0583 168.421 51.7279 169.434 47.9041L167.5 47.3919ZM163.538 56.8149C161.9 59.4418 159.982 61.5701 157.787 63.216L158.987 64.816C161.4 63.0059 163.482 60.6862 165.236 57.8731L163.538 56.8149ZM157.782 63.2201C155.597 64.8812 153.251 66.1067 150.741 66.9028L151.345 68.8092C154.083 67.9413 156.633 66.6068 158.992 64.8119L157.782 63.2201ZM150.751 66.8995C148.222 67.6706 145.632 68.056 142.979 68.056V70.056C145.83 70.056 148.616 69.6414 151.335 68.8125L150.751 66.8995ZM142.979 62.616C145.318 62.616 147.583 62.0641 149.762 60.9744L148.868 59.1856C146.951 60.1439 144.992 60.616 142.979 60.616V62.616ZM149.762 60.9744C151.973 59.8691 153.927 58.157 155.635 55.88L154.035 54.68C152.479 56.755 150.753 58.2429 148.868 59.1856L149.762 60.9744ZM155.629 55.8874C157.388 53.5871 158.748 50.6804 159.733 47.2003L157.809 46.6557C156.874 49.9596 155.61 52.6209 154.041 54.6725L155.629 55.8874ZM159.732 47.2063C160.757 43.6667 161.259 39.4559 161.259 34.592H159.259C159.259 39.3281 158.769 43.3413 157.811 46.6497L159.732 47.2063ZM161.259 34.592C161.259 29.7598 160.757 25.58 159.731 22.0713L157.811 22.6327C158.769 25.908 159.259 29.8882 159.259 34.592H161.259ZM159.734 22.082C158.749 18.5702 157.389 15.6593 155.625 13.3869L154.045 14.6131C155.609 16.6287 156.873 19.2858 157.808 22.622L159.734 22.082ZM155.635 13.4C153.927 11.123 151.973 9.41088 149.762 8.30557L148.868 10.0944C150.753 11.0371 152.479 12.525 154.035 14.6L155.635 13.4ZM149.762 8.30557C147.583 7.21587 145.318 6.664 142.979 6.664V8.664C144.992 8.664 146.951 9.13612 148.868 10.0944L149.762 8.30557ZM142.979 6.664C140.64 6.664 138.362 7.21571 136.153 8.30283L137.037 10.0972C138.988 9.13628 140.966 8.664 142.979 8.664V6.664ZM136.148 8.30557C133.94 9.40966 131.971 11.1192 130.233 13.3926L131.821 14.6074C133.411 12.5288 135.154 11.0383 137.042 10.0944L136.148 8.30557ZM130.231 13.3943C128.505 15.6624 127.146 18.5675 126.13 22.0737L128.052 22.6303C129.02 19.2885 130.285 16.6256 131.823 14.6057L130.231 13.3943ZM126.129 22.0797C125.137 25.5852 124.651 29.762 124.651 34.592H126.651C126.651 29.886 127.125 25.9028 128.053 22.6243L126.129 22.0797ZM124.651 34.592C124.651 39.4537 125.137 43.6615 126.128 47.198L128.054 46.658C127.125 43.3465 126.651 39.3303 126.651 34.592H124.651ZM126.131 47.2087C127.147 50.6831 128.505 53.5841 130.227 55.88L131.827 54.68C130.285 52.6239 129.019 49.9569 128.051 46.6473L126.131 47.2087ZM130.233 55.8874C131.971 58.1608 133.94 59.8703 136.148 60.9744L137.042 59.1856C135.154 58.2417 133.411 56.7512 131.821 54.6725L130.233 55.8874ZM136.153 60.9772C138.362 62.0643 140.64 62.616 142.979 62.616V60.616C140.966 60.616 138.988 60.1437 137.037 59.1828L136.153 60.9772ZM181.753 68H180.753V69H181.753V68ZM181.753 0.799995V-0.200005H180.753V0.799995H181.753ZM195.769 0.799995L196.688 0.406348L196.428 -0.200005H195.769V0.799995ZM220.969 59.648V60.648H222.485L221.888 59.2544L220.969 59.648ZM219.385 59.648H218.385V60.648H219.385V59.648ZM219.385 0.799995V-0.200005H218.385V0.799995H219.385ZM228.889 0.799995H229.889V-0.200005H228.889V0.799995ZM228.889 68V69H229.889V68H228.889ZM216.601 68L215.685 68.4023L215.948 69H216.601V68ZM190.825 9.344V8.344H189.293L189.909 9.74631L190.825 9.344ZM191.257 9.344H192.257V8.344H191.257V9.344ZM191.257 68V69H192.257V68H191.257ZM182.753 68V0.799995H180.753V68H182.753ZM181.753 1.8H195.769V-0.200005H181.753V1.8ZM194.849 1.19364L220.049 60.0416L221.888 59.2544L196.688 0.406348L194.849 1.19364ZM220.969 58.648H219.385V60.648H220.969V58.648ZM220.385 59.648V0.799995H218.385V59.648H220.385ZM219.385 1.8H228.889V-0.200005H219.385V1.8ZM227.889 0.799995V68H229.889V0.799995H227.889ZM228.889 67H216.601V69H228.889V67ZM217.516 67.5977L191.74 8.94169L189.909 9.74631L215.685 68.4023L217.516 67.5977ZM190.825 10.344H191.257V8.344H190.825V10.344ZM190.257 9.344V68H192.257V9.344H190.257ZM191.257 67H181.753V69H191.257V67ZM263.15 68H262.15V69H263.15V68ZM263.15 8.096H264.15V7.096H263.15V8.096ZM243.518 8.096H242.518V9.096H243.518V8.096ZM243.518 0.799995V-0.200005H242.518V0.799995H243.518ZM292.286 0.799995H293.286V-0.200005H292.286V0.799995ZM292.286 8.096V9.096H293.286V8.096H292.286ZM272.654 8.096V7.096H271.654V8.096H272.654ZM272.654 68V69H273.654V68H272.654ZM264.15 68V8.096H262.15V68H264.15ZM263.15 7.096H243.518V9.096H263.15V7.096ZM244.518 8.096V0.799995H242.518V8.096H244.518ZM243.518 1.8H292.286V-0.200005H243.518V1.8ZM291.286 0.799995V8.096H293.286V0.799995H291.286ZM292.286 7.096H272.654V9.096H292.286V7.096ZM271.654 8.096V68H273.654V8.096H271.654ZM272.654 67H263.15V69H272.654V67ZM358.372 68H357.372V69H358.372V68ZM358.372 0.799995V-0.200005H357.372V0.799995H358.372ZM400.372 0.799995H401.372V-0.200005H400.372V0.799995ZM400.372 8.096V9.096H401.372V8.096H400.372ZM367.876 8.096V7.096H366.876V8.096H367.876ZM367.876 31.328H366.876V32.328H367.876V31.328ZM396.531 31.328H397.531V30.328H396.531V31.328ZM396.531 38.624V39.624H397.531V38.624H396.531ZM367.876 38.624V37.624H366.876V38.624H367.876ZM367.876 60.704H366.876V61.704H367.876V60.704ZM400.372 60.704H401.372V59.704H400.372V60.704ZM400.372 68V69H401.372V68H400.372ZM359.372 68V0.799995H357.372V68H359.372ZM358.372 1.8H400.372V-0.200005H358.372V1.8ZM399.372 0.799995V8.096H401.372V0.799995H399.372ZM400.372 7.096H367.876V9.096H400.372V7.096ZM366.876 8.096V31.328H368.876V8.096H366.876ZM367.876 32.328H396.531V30.328H367.876V32.328ZM395.531 31.328V38.624H397.531V31.328H395.531ZM396.531 37.624H367.876V39.624H396.531V37.624ZM366.876 38.624V60.704H368.876V38.624H366.876ZM367.876 61.704H400.372V59.704H367.876V61.704ZM399.372 60.704V68H401.372V60.704H399.372ZM400.372 67H358.372V69H400.372V67ZM417.065 68H416.065V69H417.065V68ZM417.065 0.799995V-0.200005H416.065V0.799995H417.065ZM431.081 0.799995L432 0.406348L431.741 -0.200005H431.081V0.799995ZM456.281 59.648V60.648H457.797L457.2 59.2544L456.281 59.648ZM454.697 59.648H453.697V60.648H454.697V59.648ZM454.697 0.799995V-0.200005H453.697V0.799995H454.697ZM464.201 0.799995H465.201V-0.200005H464.201V0.799995ZM464.201 68V69H465.201V68H464.201ZM451.913 68L450.997 68.4023L451.26 69H451.913V68ZM426.137 9.344V8.344H424.605L425.221 9.74631L426.137 9.344ZM426.569 9.344H427.569V8.344H426.569V9.344ZM426.569 68V69H427.569V68H426.569ZM418.065 68V0.799995H416.065V68H418.065ZM417.065 1.8H431.081V-0.200005H417.065V1.8ZM430.162 1.19364L455.362 60.0416L457.2 59.2544L432 0.406348L430.162 1.19364ZM456.281 58.648H454.697V60.648H456.281V58.648ZM455.697 59.648V0.799995H453.697V59.648H455.697ZM454.697 1.8H464.201V-0.200005H454.697V1.8ZM463.201 0.799995V68H465.201V0.799995H463.201ZM464.201 67H451.913V69H464.201V67ZM452.829 67.5977L427.053 8.94169L425.221 9.74631L450.997 68.4023L452.829 67.5977ZM426.137 10.344H426.569V8.344H426.137V10.344ZM425.569 9.344V68H427.569V9.344H425.569ZM426.569 67H417.065V69H426.569V67ZM481.519 68H480.519V69H481.519V68ZM481.519 0.799995V-0.200005H480.519V0.799995H481.519ZM505.855 1.376L505.688 2.36211L505.701 2.36421L505.855 1.376ZM512.479 3.296L512.876 2.37828L512.876 2.37828L512.479 3.296ZM518.431 7.136L517.764 7.88127L517.77 7.88697L518.431 7.136ZM523.279 13.28L522.405 13.7676L522.41 13.7761L523.279 13.28ZM526.543 22.208L525.566 22.423L525.568 22.4335L526.543 22.208ZM526.543 46.592L525.568 46.3684L525.566 46.377L526.543 46.592ZM523.279 55.52L522.41 55.0238L522.405 55.0324L523.279 55.52ZM518.431 61.664L517.77 60.913L517.764 60.9188L518.431 61.664ZM512.479 65.504L512.876 66.4217L512.876 66.4217L512.479 65.504ZM505.855 67.472L506.008 68.4603L506.021 68.458L505.855 67.472ZM491.023 60.704H490.023V61.704H491.023V60.704ZM505.903 59.456L505.571 58.5125L505.567 58.514L505.903 59.456ZM512.191 55.232L511.454 54.5552L511.454 54.5552L512.191 55.232ZM516.415 47.168L515.457 46.879L515.455 46.8873L516.415 47.168ZM516.415 21.632L515.455 21.9127L515.457 21.921L516.415 21.632ZM512.191 13.568L511.454 14.2448L511.454 14.2448L512.191 13.568ZM505.903 9.344L505.567 10.286L505.571 10.2875L505.903 9.344ZM491.023 8.096V7.096H490.023V8.096H491.023ZM482.519 68V0.799995H480.519V68H482.519ZM481.519 1.8H499.039V-0.200005H481.519V1.8ZM499.039 1.8C501.254 1.8 503.47 1.98719 505.688 2.36202L506.021 0.389984C503.695 -0.00319327 501.367 -0.200005 499.039 -0.200005V1.8ZM505.701 2.36421C507.888 2.70298 510.014 3.31895 512.081 4.21372L512.876 2.37828C510.655 1.41704 508.365 0.753017 506.008 0.387789L505.701 2.36421ZM512.081 4.21372C514.122 5.09707 516.016 6.3174 517.764 7.88124L519.097 6.39076C517.197 4.6906 515.123 3.35093 512.876 2.37828L512.081 4.21372ZM517.77 7.88697C519.53 9.43407 521.077 11.3889 522.405 13.7676L524.152 12.7924C522.728 10.2431 521.043 8.10193 519.091 6.38503L517.77 7.88697ZM522.41 13.7761C523.757 16.1332 524.814 19.0094 525.566 22.423L527.519 21.993C526.735 18.4306 525.616 15.3548 524.147 12.7839L522.41 13.7761ZM525.568 22.4335C526.347 25.7965 526.743 29.7815 526.743 34.4H528.743C528.743 29.6745 528.338 25.5315 527.517 21.9825L525.568 22.4335ZM526.743 34.4C526.743 38.9857 526.347 42.9717 525.568 46.3684L527.517 46.8156C528.338 43.2363 528.743 39.0943 528.743 34.4H526.743ZM525.566 46.377C524.814 49.7906 523.757 52.6668 522.41 55.0239L524.147 56.0161C525.616 53.4452 526.735 50.3694 527.519 46.807L525.566 46.377ZM522.405 55.0324C521.077 57.4111 519.53 59.3659 517.77 60.913L519.091 62.415C521.043 60.6981 522.728 58.5569 524.152 56.0076L522.405 55.0324ZM517.764 60.9188C516.016 62.4826 514.122 63.7029 512.081 64.5863L512.876 66.4217C515.123 65.4491 517.197 64.1094 519.097 62.4092L517.764 60.9188ZM512.081 64.5863C510.01 65.4828 507.879 66.1156 505.688 66.486L506.021 68.458C508.374 68.0604 510.659 67.3812 512.876 66.4217L512.081 64.5863ZM505.701 66.4838C503.479 66.828 501.259 67 499.039 67V69C501.362 69 503.686 68.82 506.008 68.4602L505.701 66.4838ZM499.039 67H481.519V69H499.039V67ZM491.023 61.704H498.319V59.704H491.023V61.704ZM498.319 61.704C501.142 61.704 503.784 61.2719 506.238 60.398L505.567 58.514C503.349 59.3041 500.935 59.704 498.319 59.704V61.704ZM506.234 60.3995C508.768 59.5091 511 58.0044 512.927 55.9088L511.454 54.5552C509.733 56.4276 507.773 57.7389 505.571 58.5125L506.234 60.3995ZM512.927 55.9088C514.882 53.7821 516.352 50.9441 517.374 47.4487L515.455 46.8873C514.493 50.1759 513.147 52.7139 511.454 54.5552L512.927 55.9088ZM517.372 47.457C518.434 43.9398 518.951 39.5784 518.951 34.4H516.951C516.951 39.4616 516.443 43.6122 515.457 46.879L517.372 47.457ZM518.951 34.4C518.951 29.2216 518.434 24.8602 517.372 21.343L515.457 21.921C516.443 25.1878 516.951 29.3384 516.951 34.4H518.951ZM517.374 21.3513C516.352 17.8559 514.882 15.0179 512.927 12.8912L511.454 14.2448C513.147 16.0861 514.493 18.624 515.455 21.9127L517.374 21.3513ZM512.927 12.8912C511 10.7956 508.768 9.29087 506.234 8.40054L505.571 10.2875C507.773 11.0611 509.733 12.3724 511.454 14.2448L512.927 12.8912ZM506.238 8.40197C503.784 7.52807 501.142 7.096 498.319 7.096V9.096C500.935 9.096 503.349 9.49593 505.567 10.286L506.238 8.40197ZM498.319 7.096H491.023V9.096H498.319V7.096ZM490.023 8.096V60.704H492.023V8.096H490.023ZM591.956 68H590.956V69H591.956V68ZM591.956 0.799995V-0.200005H590.956V0.799995H591.956ZM616.292 1.376L616.125 2.36211L616.139 2.36421L616.292 1.376ZM622.916 3.296L623.313 2.37828L623.313 2.37828L622.916 3.296ZM628.868 7.136L628.201 7.88127L628.208 7.88697L628.868 7.136ZM633.716 13.28L632.843 13.7676L632.848 13.7761L633.716 13.28ZM636.98 22.208L636.003 22.423L636.006 22.4335L636.98 22.208ZM636.98 46.592L636.005 46.3684L636.003 46.377L636.98 46.592ZM633.716 55.52L632.848 55.0238L632.843 55.0324L633.716 55.52ZM628.868 61.664L628.208 60.913L628.201 60.9188L628.868 61.664ZM622.916 65.504L623.313 66.4217L623.313 66.4217L622.916 65.504ZM616.292 67.472L616.445 68.4603L616.459 68.458L616.292 67.472ZM601.46 60.704H600.46V61.704H601.46V60.704ZM616.34 59.456L616.009 58.5125L616.004 58.514L616.34 59.456ZM622.628 55.232L621.892 54.5552L621.892 54.5552L622.628 55.232ZM626.852 47.168L625.895 46.879L625.892 46.8873L626.852 47.168ZM626.852 21.632L625.892 21.9127L625.895 21.921L626.852 21.632ZM622.628 13.568L621.892 14.2448L621.892 14.2448L622.628 13.568ZM616.34 9.344L616.004 10.286L616.009 10.2875L616.34 9.344ZM601.46 8.096V7.096H600.46V8.096H601.46ZM592.956 68V0.799995H590.956V68H592.956ZM591.956 1.8H609.476V-0.200005H591.956V1.8ZM609.476 1.8C611.691 1.8 613.908 1.98719 616.125 2.36202L616.459 0.389984C614.132 -0.00319327 611.805 -0.200005 609.476 -0.200005V1.8ZM616.139 2.36421C618.326 2.70298 620.452 3.31895 622.519 4.21372L623.313 2.37828C621.092 1.41704 618.803 0.753017 616.445 0.387789L616.139 2.36421ZM622.519 4.21372C624.56 5.09707 626.453 6.3174 628.201 7.88124L629.535 6.39076C627.635 4.6906 625.56 3.35093 623.313 2.37828L622.519 4.21372ZM628.208 7.88697C629.967 9.43407 631.515 11.3889 632.843 13.7676L634.589 12.7924C633.165 10.2431 631.481 8.10193 629.528 6.38503L628.208 7.88697ZM632.848 13.7761C634.195 16.1332 635.252 19.0094 636.003 22.423L637.957 21.993C637.172 18.4306 636.053 15.3548 634.584 12.7839L632.848 13.7761ZM636.006 22.4335C636.784 25.7965 637.18 29.7815 637.18 34.4H639.18C639.18 29.6745 638.776 25.5315 637.954 21.9825L636.006 22.4335ZM637.18 34.4C637.18 38.9857 636.784 42.9717 636.005 46.3684L637.955 46.8156C638.776 43.2363 639.18 39.0943 639.18 34.4H637.18ZM636.003 46.377C635.252 49.7906 634.195 52.6668 632.848 55.0239L634.584 56.0161C636.053 53.4452 637.172 50.3694 637.957 46.807L636.003 46.377ZM632.843 55.0324C631.515 57.4111 629.967 59.3659 628.208 60.913L629.528 62.415C631.481 60.6981 633.165 58.5569 634.589 56.0076L632.843 55.0324ZM628.201 60.9188C626.453 62.4826 624.56 63.7029 622.519 64.5863L623.313 66.4217C625.56 65.4491 627.635 64.1094 629.535 62.4092L628.201 60.9188ZM622.519 64.5863C620.448 65.4828 618.317 66.1156 616.125 66.486L616.459 68.458C618.811 68.0604 621.096 67.3812 623.313 66.4217L622.519 64.5863ZM616.139 66.4838C613.917 66.828 611.696 67 609.476 67V69C611.8 69 614.123 68.82 616.445 68.4602L616.139 66.4838ZM609.476 67H591.956V69H609.476V67ZM601.46 61.704H608.756V59.704H601.46V61.704ZM608.756 61.704C611.579 61.704 614.222 61.2719 616.676 60.398L616.004 58.514C613.786 59.3041 611.373 59.704 608.756 59.704V61.704ZM616.671 60.3995C619.206 59.5091 621.438 58.0044 623.364 55.9088L621.892 54.5552C620.17 56.4276 618.21 57.7389 616.009 58.5125L616.671 60.3995ZM623.364 55.9088C625.319 53.7821 626.79 50.9441 627.812 47.4487L625.892 46.8873C624.93 50.1759 623.585 52.7139 621.892 54.5552L623.364 55.9088ZM627.809 47.457C628.871 43.9398 629.388 39.5784 629.388 34.4H627.388C627.388 39.4616 626.881 43.6122 625.895 46.879L627.809 47.457ZM629.388 34.4C629.388 29.2216 628.871 24.8602 627.809 21.343L625.895 21.921C626.881 25.1878 627.388 29.3384 627.388 34.4H629.388ZM627.812 21.3513C626.79 17.8559 625.319 15.0179 623.364 12.8912L621.892 14.2448C623.585 16.0861 624.93 18.624 625.892 21.9127L627.812 21.3513ZM623.364 12.8912C621.438 10.7956 619.206 9.29087 616.671 8.40054L616.009 10.2875C618.21 11.0611 620.17 12.3724 621.892 14.2448L623.364 12.8912ZM616.676 8.40197C614.222 7.52807 611.579 7.096 608.756 7.096V9.096C611.373 9.096 613.786 9.49593 616.004 10.286L616.676 8.40197ZM608.756 7.096H601.46V9.096H608.756V7.096ZM600.46 8.096V60.704H602.46V8.096H600.46ZM656.122 68H655.122V69H656.122V68ZM656.122 0.799995V-0.200005H655.122V0.799995H656.122ZM698.122 0.799995H699.122V-0.200005H698.122V0.799995ZM698.122 8.096V9.096H699.122V8.096H698.122ZM665.626 8.096V7.096H664.626V8.096H665.626ZM665.626 31.328H664.626V32.328H665.626V31.328ZM694.281 31.328H695.281V30.328H694.281V31.328ZM694.281 38.624V39.624H695.281V38.624H694.281ZM665.626 38.624V37.624H664.626V38.624H665.626ZM665.626 60.704H664.626V61.704H665.626V60.704ZM698.122 60.704H699.122V59.704H698.122V60.704ZM698.122 68V69H699.122V68H698.122ZM657.122 68V0.799995H655.122V68H657.122ZM656.122 1.8H698.122V-0.200005H656.122V1.8ZM697.122 0.799995V8.096H699.122V0.799995H697.122ZM698.122 7.096H665.626V9.096H698.122V7.096ZM664.626 8.096V31.328H666.626V8.096H664.626ZM665.626 32.328H694.281V30.328H665.626V32.328ZM693.281 31.328V38.624H695.281V31.328H693.281ZM694.281 37.624H665.626V39.624H694.281V37.624ZM664.626 38.624V60.704H666.626V38.624H664.626ZM665.626 61.704H698.122V59.704H665.626V61.704ZM697.122 60.704V68H699.122V60.704H697.122ZM698.122 67H656.122V69H698.122V67ZM727.727 67.376L728.043 66.4273L727.727 67.376ZM719.087 62.528L718.421 63.2743L718.426 63.2787L719.087 62.528ZM713.951 54.944L713.552 54.0269L712.694 54.4001L713.01 55.2816L713.951 54.944ZM723.119 50.96L724.055 50.6089L723.686 49.6234L722.72 50.0429L723.119 50.96ZM726.575 56.432L725.854 57.1246L725.861 57.1318L726.575 56.432ZM732.095 60.128L732.481 59.2053L732.481 59.2053L732.095 60.128ZM746.543 60.128L746.944 61.0442L746.95 61.0412L746.543 60.128ZM751.343 56.24L752.173 56.7984L752.173 56.7984L751.343 56.24ZM751.583 45.536L750.748 46.0863L750.755 46.0973L750.763 46.1082L751.583 45.536ZM747.743 41.888L747.2 42.7277L747.212 42.7351L747.743 41.888ZM742.271 39.2L741.91 40.1326L741.919 40.136L741.928 40.1394L742.271 39.2ZM736.175 37.28L735.923 38.2477L735.936 38.251L736.175 37.28ZM728.063 34.496L727.655 35.4088L727.659 35.4108L728.063 34.496ZM721.679 30.56L721.02 31.3126L721.028 31.3188L721.035 31.3249L721.679 30.56ZM717.503 24.992L716.59 25.4007L716.595 25.4119L717.503 24.992ZM717.359 11.216L716.452 10.794L716.452 10.794L717.359 11.216ZM720.911 6.368L720.244 5.62312L720.236 5.63019L720.911 6.368ZM726.143 2.96L726.56 3.86885L726.567 3.86581L726.143 2.96ZM732.527 0.895994L732.334 -0.0851145L732.334 -0.0851142L732.527 0.895994ZM749.519 1.856L749.188 2.79975L749.197 2.80271L749.519 1.856ZM757.391 6.272L756.73 7.02252L756.737 7.02806L757.391 6.272ZM761.807 12.608L762.217 13.5202L763.045 13.1481L762.754 12.2879L761.807 12.608ZM752.831 16.64L751.889 16.9753L752.252 17.9962L753.241 17.5522L752.831 16.64ZM749.855 11.84L749.139 12.5384L749.148 12.5471L749.855 11.84ZM745.151 8.86399L744.791 9.79692L744.801 9.80069L744.811 9.80426L745.151 8.86399ZM734.159 8.432L734.402 9.40214L734.408 9.4004L734.415 9.39856L734.159 8.432ZM729.983 10.208L730.517 11.0535L730.523 11.0499L729.983 10.208ZM727.055 13.136L726.206 12.6081L726.202 12.6145L727.055 13.136ZM732.671 26.72L732.218 27.6117L732.226 27.6158L732.235 27.6198L732.671 26.72ZM739.967 29.312L740.226 28.3462L740.215 28.3432L739.967 29.312ZM746.447 31.328L746.114 32.271L746.122 32.2739L746.131 32.2767L746.447 31.328ZM752.687 34.016L752.211 34.8956L752.217 34.8987L752.687 34.016ZM757.967 37.808L757.275 38.53L757.283 38.5373L757.291 38.5445L757.967 37.808ZM761.663 42.896L760.754 43.3132L760.757 43.3189L761.663 42.896ZM761.663 56.72L760.742 56.3294L760.737 56.3414L761.663 56.72ZM758.063 62.24L758.77 62.9471L758.777 62.9398L758.063 62.24ZM752.687 66.08L753.123 66.9801L753.134 66.9744L752.687 66.08ZM746.015 68.288L745.819 67.3074L745.811 67.3089L745.804 67.3106L746.015 68.288ZM738.719 68.056C734.846 68.056 731.29 67.5095 728.043 66.4273L727.411 68.3247C730.884 69.4825 734.656 70.056 738.719 70.056V68.056ZM728.043 66.4273C724.796 65.345 722.037 63.7918 719.748 61.7773L718.426 63.2787C720.937 65.4882 723.938 67.167 727.411 68.3247L728.043 66.4273ZM719.753 61.7817C717.507 59.7791 715.891 57.3909 714.892 54.6064L713.01 55.2816C714.123 58.3851 715.931 61.0529 718.421 63.2743L719.753 61.7817ZM714.35 55.8611L723.518 51.8771L722.72 50.0429L713.552 54.0269L714.35 55.8611ZM722.183 51.3111C722.999 53.4882 724.225 55.4279 725.854 57.1245L727.296 55.7395C725.853 54.2361 724.775 52.5278 724.055 50.6089L722.183 51.3111ZM725.861 57.1318C727.496 58.8008 729.449 60.1062 731.709 61.0507L732.481 59.2053C730.453 58.3578 728.726 57.1992 727.289 55.7322L725.861 57.1318ZM731.709 61.0507C733.992 62.0045 736.525 62.472 739.295 62.472V60.472C736.753 60.472 734.486 60.0435 732.481 59.2053L731.709 61.0507ZM739.295 62.472C742.184 62.472 744.742 62.0073 746.944 61.0442L746.142 59.2118C744.248 60.0407 741.974 60.472 739.295 60.472V62.472ZM746.95 61.0412C749.178 60.0475 750.934 58.6382 752.173 56.7984L750.513 55.6816C749.512 57.1698 748.068 58.3525 746.136 59.2148L746.95 61.0412ZM752.173 56.7984C753.421 54.9435 754.023 52.7414 754.023 50.24H752.023C752.023 52.4106 751.505 54.2085 750.513 55.6816L752.173 56.7984ZM754.023 50.24C754.023 48.286 753.486 46.5162 752.403 44.9638L750.763 46.1082C751.6 47.3078 752.023 48.674 752.023 50.24H754.023ZM752.418 44.9857C751.401 43.4423 750.01 42.1302 748.274 41.0409L747.212 42.7351C748.74 43.6938 749.909 44.8137 750.748 46.0863L752.418 44.9857ZM748.286 41.0484C746.585 39.9478 744.693 39.0197 742.614 38.2606L741.928 40.1394C743.881 40.8523 745.637 41.7162 747.2 42.7276L748.286 41.0484ZM742.632 38.2674C740.608 37.4839 738.535 36.8311 736.414 36.309L735.936 38.251C737.975 38.7529 739.966 39.3801 741.91 40.1326L742.632 38.2674ZM736.427 36.3124C733.529 35.5562 730.876 34.645 728.467 33.5812L727.659 35.4108C730.178 36.523 732.933 37.4678 735.923 38.2476L736.427 36.3124ZM728.471 33.5832C726.115 32.5289 724.068 31.2645 722.323 29.7951L721.035 31.3249C722.938 32.9275 725.147 34.2871 727.655 35.4088L728.471 33.5832ZM722.338 29.8074C720.65 28.3309 719.343 26.5879 718.411 24.5721L716.595 25.4119C717.647 27.6841 719.124 29.6531 721.02 31.3126L722.338 29.8074ZM718.416 24.5833C717.525 22.5935 717.063 20.2262 717.063 17.456H715.063C715.063 20.4458 715.561 23.1025 716.59 25.4007L718.416 24.5833ZM717.063 17.456C717.063 15.2794 717.47 13.3462 718.266 11.638L716.452 10.794C715.52 12.7978 715.063 15.0246 715.063 17.456H717.063ZM718.266 11.638C719.074 9.90099 720.18 8.39244 721.586 7.1058L720.236 5.63019C718.634 7.09555 717.372 8.81901 716.452 10.794L718.266 11.638ZM721.578 7.11283C723.037 5.80646 724.695 4.72476 726.56 3.86883L725.726 2.05117C723.687 2.98724 721.857 4.17753 720.244 5.62316L721.578 7.11283ZM726.567 3.86581C728.473 2.97405 730.523 2.31032 732.72 1.8771L732.334 -0.0851142C729.987 0.377671 727.781 1.08995 725.719 2.05419L726.567 3.86581ZM732.72 1.8771C734.929 1.4416 737.152 1.224 739.391 1.224V-0.776003C737.022 -0.776003 734.669 -0.545612 732.334 -0.0851145L732.72 1.8771ZM739.391 1.224C742.939 1.224 746.201 1.7528 749.188 2.79971L749.85 0.912293C746.629 -0.216806 743.139 -0.776003 739.391 -0.776003V1.224ZM749.197 2.80271C752.194 3.82249 754.699 5.23349 756.73 7.02249L758.052 5.52151C755.795 3.53451 753.052 2.00151 749.841 0.909286L749.197 2.80271ZM756.737 7.02806C758.764 8.78342 760.124 10.7506 760.86 12.9281L762.754 12.2879C761.89 9.72935 760.306 7.47257 758.046 5.51594L756.737 7.02806ZM761.397 11.6958L752.421 15.7278L753.241 17.5522L762.217 13.5202L761.397 11.6958ZM753.773 16.3047C753.055 14.2882 751.987 12.5581 750.562 11.1329L749.148 12.5471C750.347 13.7459 751.263 15.2158 751.889 16.9753L753.773 16.3047ZM750.571 11.1417C749.178 9.71361 747.478 8.64303 745.491 7.92373L744.811 9.80426C746.536 10.429 747.972 11.3424 749.139 12.5383L750.571 11.1417ZM745.511 7.93107C743.557 7.17677 741.4 6.808 739.055 6.808V8.808C741.19 8.808 743.097 9.14322 744.791 9.79692L745.511 7.93107ZM739.055 6.808C737.276 6.808 735.558 7.02625 733.903 7.46544L734.415 9.39856C735.896 9.00575 737.442 8.808 739.055 8.808V6.808ZM733.916 7.46185C732.282 7.87039 730.789 8.50364 729.443 9.36611L730.523 11.0499C731.673 10.3123 732.964 9.7616 734.402 9.40214L733.916 7.46185ZM729.449 9.36251C728.109 10.2086 727.024 11.2916 726.206 12.6081L727.904 13.6639C728.558 12.6124 729.425 11.7434 730.517 11.0535L729.449 9.36251ZM726.202 12.6145C725.387 13.9475 724.999 15.4942 724.999 17.216H726.999C726.999 15.8018 727.315 14.6285 727.908 13.6574L726.202 12.6145ZM724.999 17.216C724.999 19.6128 725.646 21.7077 726.983 23.4425L728.567 22.2215C727.536 20.8843 726.999 19.2352 726.999 17.216H724.999ZM726.983 23.4425C728.274 25.1178 730.032 26.5018 732.218 27.6117L733.124 25.8283C731.15 24.8262 729.644 23.6182 728.567 22.2215L726.983 23.4425ZM732.235 27.6198C734.418 28.6784 736.915 29.5635 739.719 30.2808L740.215 28.3432C737.515 27.6525 735.148 26.8096 733.107 25.8202L732.235 27.6198ZM739.708 30.2778C741.826 30.8469 743.961 31.5112 746.114 32.271L746.78 30.385C744.581 29.6088 742.396 28.9291 740.226 28.3462L739.708 30.2778ZM746.131 32.2767C748.286 32.9952 750.313 33.8685 752.211 34.8955L753.163 33.1365C751.157 32.0515 749.024 31.1328 746.763 30.3793L746.131 32.2767ZM752.217 34.8987C754.125 35.914 755.809 37.125 757.275 38.53L758.659 37.086C757.053 35.547 755.217 34.23 753.157 33.1333L752.217 34.8987ZM757.291 38.5445C758.76 39.8938 759.913 41.4809 760.754 43.3132L762.572 42.4788C761.621 40.4071 760.31 38.6022 758.643 37.0715L757.291 38.5445ZM760.757 43.3189C761.581 45.0849 762.007 47.1443 762.007 49.52H764.007C764.007 46.9037 763.537 44.5471 762.569 42.4731L760.757 43.3189ZM762.007 49.52C762.007 52.0965 761.578 54.3603 760.742 56.3294L762.584 57.1105C763.54 54.8557 764.007 52.3195 764.007 49.52H762.007ZM760.737 56.3414C759.92 58.3385 758.791 60.0683 757.349 61.5402L758.777 62.9398C760.407 61.2757 761.678 59.3255 762.589 57.0986L760.737 56.3414ZM757.356 61.5329C755.9 62.9889 754.197 64.207 752.24 65.1856L753.134 66.9744C755.273 65.905 757.154 64.5631 758.77 62.9471L757.356 61.5329ZM752.251 65.18C750.285 66.1324 748.142 66.8428 745.819 67.3074L746.211 69.2686C748.688 68.7732 750.993 68.0116 753.123 66.98L752.251 65.18ZM745.804 67.3106C743.507 67.8071 741.146 68.056 738.719 68.056V70.056C741.284 70.056 743.787 69.7929 746.226 69.2654L745.804 67.3106ZM782.341 68H781.341V69H782.341V68ZM782.341 60.704V59.704H781.341V60.704H782.341ZM796.213 60.704V61.704H797.213V60.704H796.213ZM796.213 8.096H797.213V7.096H796.213V8.096ZM782.341 8.096H781.341V9.096H782.341V8.096ZM782.341 0.799995V-0.200005H781.341V0.799995H782.341ZM819.685 0.799995H820.685V-0.200005H819.685V0.799995ZM819.685 8.096V9.096H820.685V8.096H819.685ZM805.717 8.096V7.096H804.717V8.096H805.717ZM805.717 60.704H804.717V61.704H805.717V60.704ZM819.685 60.704H820.685V59.704H819.685V60.704ZM819.685 68V69H820.685V68H819.685ZM783.341 68V60.704H781.341V68H783.341ZM782.341 61.704H796.213V59.704H782.341V61.704ZM797.213 60.704V8.096H795.213V60.704H797.213ZM796.213 7.096H782.341V9.096H796.213V7.096ZM783.341 8.096V0.799995H781.341V8.096H783.341ZM782.341 1.8H819.685V-0.200005H782.341V1.8ZM818.685 0.799995V8.096H820.685V0.799995H818.685ZM819.685 7.096H805.717V9.096H819.685V7.096ZM804.717 8.096V60.704H806.717V8.096H804.717ZM805.717 61.704H819.685V59.704H805.717V61.704ZM818.685 60.704V68H820.685V60.704H818.685ZM819.685 67H782.341V69H819.685V67ZM857.786 67.952L857.513 68.914L857.513 68.914L857.786 67.952ZM850.346 64.4L849.779 65.2234L849.779 65.2234L850.346 64.4ZM843.962 57.968L843.144 58.5428L843.147 58.5474L843.962 57.968ZM839.498 48.176L838.536 48.4486L839.498 48.176ZM839.45 21.2L838.488 20.9274L838.486 20.9328L839.45 21.2ZM843.818 11.456L842.995 10.8878L842.994 10.8899L843.818 11.456ZM850.106 4.976L850.679 5.79576L850.681 5.79419L850.106 4.976ZM857.546 1.376L857.819 2.338L857.827 2.33574L857.546 1.376ZM873.53 1.328L873.247 2.28717L873.25 2.28813L873.53 1.328ZM880.202 4.4L879.638 5.22564L879.646 5.23102L879.654 5.23624L880.202 4.4ZM885.05 8.96L884.241 9.54819L884.246 9.55523L885.05 8.96ZM887.738 14.576L888.122 15.4992L888.92 15.1672L888.707 14.3298L887.738 14.576ZM878.858 18.272L877.884 18.4985L878.152 19.6492L879.242 19.1952L878.858 18.272ZM877.274 14.336L876.407 14.8345L876.413 14.844L877.274 14.336ZM874.442 10.928L873.789 11.6858L873.789 11.6858L874.442 10.928ZM870.362 8.576L869.994 9.5058L870.006 9.51038L870.017 9.51467L870.362 8.576ZM859.994 8.62399L859.641 7.68839L859.641 7.68839L859.994 8.62399ZM855.194 11.648L855.86 12.3937L855.869 12.3858L855.194 11.648ZM851.162 16.832L850.29 16.343L850.284 16.3531L851.162 16.832ZM848.426 24.416L847.451 24.1934L847.449 24.2036L848.426 24.416ZM849.05 47.024L850.006 46.7293L850.006 46.7293L849.05 47.024ZM853.226 55.424L852.443 56.0459L852.448 56.0522L852.453 56.0585L853.226 55.424ZM859.082 60.128L858.662 61.0356L858.662 61.0356L859.082 60.128ZM876.17 56.72L875.393 56.09L875.392 56.0917L876.17 56.72ZM879.338 50.288L878.378 50.0071L878.376 50.0148L879.338 50.288ZM880.49 40.88H881.49V39.88H880.49V40.88ZM864.842 40.88H863.842V41.88H864.842V40.88ZM864.842 33.44V32.44H863.842V33.44H864.842ZM889.61 33.44H890.61V32.44H889.61V33.44ZM888.314 50.288L889.282 50.5393L889.282 50.537L888.314 50.288ZM884.714 58.832L883.875 58.2878L883.875 58.2878L884.714 58.832ZM879.338 64.688L879.93 65.494L879.938 65.488L879.338 64.688ZM872.714 68L872.429 67.0415L872.425 67.0425L872.714 68ZM865.418 68.056C863.021 68.056 860.569 67.7028 858.059 66.99L857.513 68.914C860.187 69.6732 862.823 70.056 865.418 70.056V68.056ZM858.059 66.99C855.579 66.2858 853.198 65.1508 850.913 63.5766L849.779 65.2234C852.23 66.9132 854.809 68.1462 857.513 68.914L858.059 66.99ZM850.913 63.5766C848.654 62.0191 846.606 59.962 844.777 57.3886L843.147 58.5474C845.094 61.286 847.302 63.5169 849.779 65.2234L850.913 63.5766ZM844.78 57.3932C842.969 54.8145 841.524 51.6578 840.46 47.9034L838.536 48.4486C839.648 52.3742 841.179 55.7455 843.144 58.5428L844.78 57.3932ZM840.46 47.9034C839.404 44.1744 838.866 39.7423 838.866 34.592H836.866C836.866 39.8736 837.416 44.4976 838.536 48.4486L840.46 47.9034ZM838.866 34.592C838.866 29.5372 839.388 25.1669 840.414 21.4672L838.486 20.9328C837.4 24.8491 836.866 29.4068 836.866 34.592H838.866ZM840.412 21.4726C841.477 17.7133 842.893 14.5699 844.642 12.0221L842.994 10.8899C841.095 13.654 839.599 17.0067 838.488 20.9274L840.412 21.4726ZM844.641 12.0242C846.439 9.42012 848.454 7.35027 850.679 5.79576L849.533 4.15624C847.086 5.86572 844.909 8.11587 842.995 10.8878L844.641 12.0242ZM850.681 5.79419C852.964 4.18992 855.343 3.04112 857.819 2.33797L857.273 0.414029C854.565 1.18288 851.984 2.43408 849.531 4.1578L850.681 5.79419ZM857.827 2.33574C860.366 1.59263 862.863 1.224 865.322 1.224V-0.776003C862.661 -0.776003 859.974 -0.376632 857.265 0.416262L857.827 2.33574ZM865.322 1.224C868.216 1.224 870.855 1.58181 873.247 2.28717L873.813 0.368828C871.213 -0.397814 868.38 -0.776003 865.322 -0.776003V1.224ZM873.25 2.28813C875.69 2.99846 877.816 3.98052 879.638 5.22564L880.766 3.57435C878.748 2.19548 876.426 1.12953 873.81 0.367861L873.25 2.28813ZM879.654 5.23624C881.512 6.45481 883.037 7.89281 884.241 9.54817L885.859 8.37183C884.503 6.50718 882.796 4.90519 880.75 3.56375L879.654 5.23624ZM884.246 9.55523C885.452 11.1824 886.29 12.9365 886.769 14.8222L888.707 14.3298C888.162 12.1835 887.208 10.1936 885.854 8.36477L884.246 9.55523ZM887.354 13.6528L878.474 17.3488L879.242 19.1952L888.122 15.4992L887.354 13.6528ZM879.832 18.0455C879.488 16.568 878.922 15.1613 878.135 13.828L876.413 14.844C877.098 16.0067 877.588 17.224 877.884 18.4985L879.832 18.0455ZM878.141 13.8375C877.347 12.4567 876.33 11.2337 875.095 10.1702L873.789 11.6858C874.858 12.6063 875.729 13.6553 876.407 14.8345L878.141 13.8375ZM875.095 10.1702C873.843 9.09259 872.376 8.2506 870.707 7.63733L870.017 9.51467C871.484 10.0534 872.737 10.7794 873.789 11.6858L875.095 10.1702ZM870.73 7.64619C869.058 6.98421 867.186 6.664 865.13 6.664V8.664C866.978 8.664 868.594 8.95178 869.994 9.5058L870.73 7.64619ZM865.13 6.664C863.276 6.664 861.444 7.00793 859.641 7.68839L860.347 9.5596C861.936 8.96006 863.528 8.664 865.13 8.664V6.664ZM859.641 7.68839C857.812 8.37852 856.105 9.45904 854.519 10.9102L855.869 12.3858C857.291 11.085 858.784 10.1495 860.347 9.5596L859.641 7.68839ZM854.528 10.9023C852.927 12.333 851.517 14.1534 850.29 16.343L852.034 17.321C853.175 15.2866 854.453 13.651 855.86 12.3937L854.528 10.9023ZM850.284 16.3531C849.079 18.5632 848.139 21.1817 847.451 24.1935L849.401 24.6385C850.057 21.7623 850.941 19.3248 852.04 17.3108L850.284 16.3531ZM847.449 24.2036C846.79 27.2333 846.466 30.699 846.466 34.592H848.466C848.466 30.805 848.782 27.4867 849.403 24.6284L847.449 24.2036ZM846.466 34.592C846.466 39.5228 847.001 43.772 848.094 47.3187L850.006 46.7293C848.987 43.428 848.466 39.3892 848.466 34.592H846.466ZM848.094 47.3187C849.177 50.8288 850.619 53.7488 852.443 56.0459L854.009 54.8021C852.377 52.7472 851.035 50.0672 850.006 46.7293L848.094 47.3187ZM852.453 56.0585C854.292 58.2988 856.359 59.9702 858.662 61.0356L859.502 59.2204C857.517 58.3018 855.68 56.8372 853.999 54.7895L852.453 56.0585ZM858.662 61.0356C860.924 62.0822 863.211 62.616 865.514 62.616V60.616C863.529 60.616 861.528 60.1578 859.502 59.2204L858.662 61.0356ZM865.514 62.616C867.756 62.616 869.861 62.1906 871.82 61.3318L871.016 59.5002C869.327 60.2414 867.496 60.616 865.514 60.616V62.616ZM871.82 61.3318C873.801 60.4628 875.511 59.1275 876.948 57.3483L875.392 56.0917C874.141 57.6405 872.683 58.7692 871.016 59.5002L871.82 61.3318ZM876.947 57.35C878.425 55.5273 879.535 53.2539 880.3 50.5612L878.376 50.0148C877.669 52.5061 876.667 54.5206 875.393 56.09L876.947 57.35ZM880.298 50.5689C881.1 47.829 881.49 44.5934 881.49 40.88H879.49C879.49 44.4625 879.112 47.499 878.378 50.0071L880.298 50.5689ZM880.49 39.88H864.842V41.88H880.49V39.88ZM865.842 40.88V33.44H863.842V40.88H865.842ZM864.842 34.44H889.61V32.44H864.842V34.44ZM888.61 33.44V38.672H890.61V33.44H888.61ZM888.61 38.672C888.61 42.9929 888.184 46.7784 887.346 50.039L889.282 50.537C890.172 47.0776 890.61 43.1191 890.61 38.672H888.61ZM887.346 50.0367C886.503 53.2827 885.341 56.0271 883.875 58.2878L885.553 59.3762C887.159 56.9009 888.397 53.9493 889.282 50.5393L887.346 50.0367ZM883.875 58.2878C882.396 60.5672 880.683 62.4294 878.738 63.888L879.938 65.488C882.089 63.8746 883.96 61.8328 885.553 59.3762L883.875 58.2878ZM878.746 63.882C876.788 65.3198 874.684 66.3712 872.429 67.0415L872.999 68.9585C875.48 68.2208 877.792 67.0642 879.93 65.494L878.746 63.882ZM872.425 67.0425C870.186 67.7173 867.852 68.056 865.418 68.056V70.056C868.04 70.056 870.57 69.6907 873.003 68.9575L872.425 67.0425ZM902.128 68H901.128V69H902.128V68ZM902.128 0.799995V-0.200005H901.128V0.799995H902.128ZM916.144 0.799995L917.063 0.406348L916.803 -0.200005H916.144V0.799995ZM941.344 59.648V60.648H942.86L942.263 59.2544L941.344 59.648ZM939.76 59.648H938.76V60.648H939.76V59.648ZM939.76 0.799995V-0.200005H938.76V0.799995H939.76ZM949.264 0.799995H950.264V-0.200005H949.264V0.799995ZM949.264 68V69H950.264V68H949.264ZM936.976 68L936.06 68.4023L936.323 69H936.976V68ZM911.2 9.344V8.344H909.668L910.284 9.74631L911.2 9.344ZM911.632 9.344H912.632V8.344H911.632V9.344ZM911.632 68V69H912.632V68H911.632ZM903.128 68V0.799995H901.128V68H903.128ZM902.128 1.8H916.144V-0.200005H902.128V1.8ZM915.224 1.19364L940.424 60.0416L942.263 59.2544L917.063 0.406348L915.224 1.19364ZM941.344 58.648H939.76V60.648H941.344V58.648ZM940.76 59.648V0.799995H938.76V59.648H940.76ZM939.76 1.8H949.264V-0.200005H939.76V1.8ZM948.264 0.799995V68H950.264V0.799995H948.264ZM949.264 67H936.976V69H949.264V67ZM937.891 67.5977L912.115 8.94169L910.284 9.74631L936.06 68.4023L937.891 67.5977ZM911.2 10.344H911.632V8.344H911.2V10.344ZM910.632 9.344V68H912.632V9.344H910.632ZM911.632 67H902.128V69H911.632V67ZM968.309 68H967.309V69H968.309V68ZM968.309 0.799995V-0.200005H967.309V0.799995H968.309ZM1010.31 0.799995H1011.31V-0.200005H1010.31V0.799995ZM1010.31 8.096V9.096H1011.31V8.096H1010.31ZM977.813 8.096V7.096H976.813V8.096H977.813ZM977.813 31.328H976.813V32.328H977.813V31.328ZM1006.47 31.328H1007.47V30.328H1006.47V31.328ZM1006.47 38.624V39.624H1007.47V38.624H1006.47ZM977.813 38.624V37.624H976.813V38.624H977.813ZM977.813 60.704H976.813V61.704H977.813V60.704ZM1010.31 60.704H1011.31V59.704H1010.31V60.704ZM1010.31 68V69H1011.31V68H1010.31ZM969.309 68V0.799995H967.309V68H969.309ZM968.309 1.8H1010.31V-0.200005H968.309V1.8ZM1009.31 0.799995V8.096H1011.31V0.799995H1009.31ZM1010.31 7.096H977.813V9.096H1010.31V7.096ZM976.813 8.096V31.328H978.813V8.096H976.813ZM977.813 32.328H1006.47V30.328H977.813V32.328ZM1005.47 31.328V38.624H1007.47V31.328H1005.47ZM1006.47 37.624H977.813V39.624H1006.47V37.624ZM976.813 38.624V60.704H978.813V38.624H976.813ZM977.813 61.704H1010.31V59.704H977.813V61.704ZM1009.31 60.704V68H1011.31V60.704H1009.31ZM1010.31 67H968.309V69H1010.31V67ZM1030.22 68H1029.22V69H1030.22V68ZM1030.22 0.799995V-0.200005H1029.22V0.799995H1030.22ZM1059.5 1.328L1059.31 2.30925L1059.32 2.3112L1059.33 2.31295L1059.5 1.328ZM1064.78 3.008L1064.35 3.91243L1064.35 3.91243L1064.78 3.008ZM1069.34 6.272L1068.62 6.97079L1068.63 6.97911L1069.34 6.272ZM1072.51 26.864L1071.58 26.495L1071.57 26.5022L1072.51 26.864ZM1069.15 32.288L1069.86 32.9872L1069.87 32.9792L1069.15 32.288ZM1064.44 35.744L1064.88 36.6418L1064.89 36.6384L1064.44 35.744ZM1059.21 37.568L1059.41 38.5487L1059.42 38.5458L1059.21 37.568ZM1039.72 38.096V37.096H1038.72V38.096H1039.72ZM1039.72 68V69H1040.72V68H1039.72ZM1064.87 68L1063.94 68.3683L1064.2 69H1064.87V68ZM1051.96 35.408L1051.86 34.4137L1050.55 34.5538L1051.03 35.7763L1051.96 35.408ZM1061.37 34.4L1062.3 34.024L1062.01 33.3254L1061.26 33.4057L1061.37 34.4ZM1075 68V69H1076.49L1075.93 67.624L1075 68ZM1039.72 30.992H1038.72V31.992H1039.72V30.992ZM1058.35 29.84L1057.95 28.9208L1057.95 28.9235L1058.35 29.84ZM1062.67 26.144L1063.51 26.684L1063.51 26.6768L1062.67 26.144ZM1062.57 12.464L1061.75 13.0298L1061.75 13.0391L1061.76 13.0483L1062.57 12.464ZM1058.15 9.056L1057.82 9.9996L1057.82 9.9996L1058.15 9.056ZM1039.72 8.096V7.096H1038.72V8.096H1039.72ZM1031.22 68V0.799995H1029.22V68H1031.22ZM1030.22 1.8H1054.27V-0.200005H1030.22V1.8ZM1054.27 1.8C1055.89 1.8 1057.57 1.96877 1059.31 2.30925L1059.69 0.346749C1057.84 -0.0167781 1056.03 -0.200005 1054.27 -0.200005V1.8ZM1059.33 2.31295C1061.06 2.61735 1062.74 3.14998 1064.35 3.91243L1065.21 2.10356C1063.43 1.26601 1061.58 0.678642 1059.67 0.34304L1059.33 2.31295ZM1064.35 3.91243C1065.94 4.66029 1067.36 5.67772 1068.62 6.97074L1070.05 5.57326C1068.63 4.11427 1067.01 2.9557 1065.21 2.10356L1064.35 3.91243ZM1068.63 6.97911C1069.89 8.24013 1070.91 9.85755 1071.67 11.8582L1073.54 11.1498C1072.7 8.92644 1071.54 7.05587 1070.05 5.56489L1068.63 6.97911ZM1071.67 11.8582C1072.41 13.8285 1072.8 16.2302 1072.8 19.088H1074.8C1074.8 16.0578 1074.39 13.4035 1073.54 11.1498L1071.67 11.8582ZM1072.8 19.088C1072.8 22.004 1072.38 24.4646 1071.58 26.495L1073.44 27.233C1074.36 24.9114 1074.8 22.188 1074.8 19.088H1072.8ZM1071.57 26.5022C1070.78 28.5395 1069.73 30.2312 1068.42 31.5968L1069.87 32.9792C1071.38 31.4008 1072.57 29.4765 1073.44 27.2258L1071.57 26.5022ZM1068.43 31.5889C1067.1 32.9527 1065.62 34.0374 1064 34.8496L1064.89 36.6384C1066.72 35.7226 1068.38 34.5033 1069.86 32.9871L1068.43 31.5889ZM1064 34.8462C1062.38 35.6433 1060.71 36.2238 1059 36.5902L1059.42 38.5458C1061.29 38.1441 1063.12 37.5087 1064.88 36.6418L1064 34.8462ZM1059.01 36.5874C1057.31 36.9286 1055.73 37.096 1054.27 37.096V39.096C1055.88 39.096 1057.59 38.9114 1059.41 38.5486L1059.01 36.5874ZM1054.27 37.096H1039.72V39.096H1054.27V37.096ZM1038.72 38.096V68H1040.72V38.096H1038.72ZM1039.72 67H1030.22V69H1039.72V67ZM1065.8 67.6317L1052.89 35.0397L1051.03 35.7763L1063.94 68.3683L1065.8 67.6317ZM1052.07 36.4023L1061.48 35.3943L1061.26 33.4057L1051.86 34.4137L1052.07 36.4023ZM1060.44 34.7759L1074.08 68.376L1075.93 67.624L1062.3 34.024L1060.44 34.7759ZM1075 67H1064.87V69H1075V67ZM1039.72 31.992H1052.59V29.992H1039.72V31.992ZM1052.59 31.992C1054.79 31.992 1056.85 31.584 1058.75 30.7565L1057.95 28.9235C1056.32 29.632 1054.54 29.992 1052.59 29.992V31.992ZM1058.74 30.7591C1060.72 29.9096 1062.32 28.5423 1063.51 26.684L1061.82 25.604C1060.84 27.1377 1059.55 28.2344 1057.95 28.9209L1058.74 30.7591ZM1063.51 26.6768C1064.73 24.7396 1065.3 22.2637 1065.3 19.328H1063.3C1063.3 22.0243 1062.78 24.0924 1061.82 25.6112L1063.51 26.6768ZM1065.3 19.328C1065.3 16.2431 1064.7 13.7166 1063.38 11.8797L1061.76 13.0483C1062.74 14.4114 1063.3 16.4609 1063.3 19.328H1065.3ZM1063.4 11.8982C1062.16 10.0955 1060.52 8.82451 1058.49 8.1124L1057.82 9.9996C1059.44 10.5675 1060.74 11.5685 1061.75 13.0298L1063.4 11.8982ZM1058.49 8.1124C1056.55 7.4329 1054.5 7.096 1052.35 7.096V9.096C1054.29 9.096 1056.11 9.3991 1057.82 9.9996L1058.49 8.1124ZM1052.35 7.096H1039.72V9.096H1052.35V7.096ZM1038.72 8.096V30.992H1040.72V8.096H1038.72Z" fill="#FF0000" mask="url(#path-1-outside-1_82_60)"/>
<defs>
<filter id="filter0_i_82_60" x="0.39209" y="0.223999" width="1074.61" height="72.832" filterUnits="userSpaceOnUse" color-interpolation-filters="sRGB">
<feFlood flood-opacity="0" result="BackgroundImageFix"/>
<feBlend mode="normal" in="SourceGraphic" in2="BackgroundImageFix" result="shape"/>
<feColorMatrix in="SourceAlpha" type="matrix" values="0 0 0 0 0 0 0 0 0 0 0 0 0 0 0 0 0 0 127 0" result="hardAlpha"/>
<feOffset dy="4"/>
<feGaussianBlur stdDeviation="2"/>
<feComposite in2="hardAlpha" operator="arithmetic" k2="-1" k3="1"/>
<feColorMatrix type="matrix" values="0 0 0 0 0 0 0 0 0 0 0 0 0 0 0 0 0 0 0.25 0"/>
<feBlend mode="normal" in2="shape" result="effect1_innerShadow_82_60"/>
</filter>
</defs>
</svg>
