<svg width="198" height="27" viewBox="0 0 198 27" fill="none" xmlns="http://www.w3.org/2000/svg">
<g filter="url(#filter0_i_82_114)">
<path d="M0.0220003 26V0.799998H14.872V3.536H3.586V13.562H13.198V16.298H3.586V26H0.0220003ZM22.4101 26V0.799998H31.4281C32.0641 0.799998 32.7181 0.865999 33.3901 0.997999C34.0741 1.118 34.7341 1.328 35.3701 1.628C36.0061 1.928 36.5761 2.336 37.0801 2.852C37.5961 3.368 38.0041 4.022 38.3041 4.814C38.6041 5.606 38.7541 6.554 38.7541 7.658C38.7541 8.786 38.5921 9.758 38.2681 10.574C37.9561 11.378 37.5361 12.056 37.0081 12.608C36.4801 13.148 35.8921 13.58 35.2441 13.904C34.6081 14.216 33.9541 14.444 33.2821 14.588C32.6221 14.72 32.0041 14.786 31.4281 14.786H25.9741V26H22.4101ZM35.4061 26L30.5641 13.778L34.0921 13.4L39.2041 26H35.4061ZM25.9741 12.122H30.7981C31.5781 12.122 32.2981 11.978 32.9581 11.69C33.6301 11.402 34.1701 10.94 34.5781 10.304C34.9861 9.656 35.1901 8.804 35.1901 7.748C35.1901 6.632 34.9741 5.774 34.5421 5.174C34.1221 4.562 33.5701 4.136 32.8861 3.896C32.2021 3.656 31.4761 3.536 30.7081 3.536H25.9741V12.122ZM53.4921 26.396C52.4601 26.396 51.4461 26.246 50.4501 25.946C49.4661 25.634 48.5421 25.154 47.6781 24.506C46.8261 23.858 46.0761 23.024 45.4281 22.004C44.7801 20.984 44.2701 19.772 43.8981 18.368C43.5381 16.952 43.3581 15.32 43.3581 13.472C43.3581 11.636 43.5381 10.016 43.8981 8.612C44.2701 7.196 44.7801 5.984 45.4281 4.976C46.0761 3.956 46.8261 3.122 47.6781 2.474C48.5421 1.826 49.4661 1.352 50.4501 1.052C51.4461 0.739999 52.4601 0.583999 53.4921 0.583999C54.5241 0.583999 55.5321 0.739999 56.5161 1.052C57.5001 1.352 58.4181 1.826 59.2701 2.474C60.1341 3.122 60.8841 3.956 61.5201 4.976C62.1681 5.984 62.6781 7.196 63.0501 8.612C63.4221 10.016 63.6081 11.636 63.6081 13.472C63.6081 15.32 63.4221 16.952 63.0501 18.368C62.6781 19.772 62.1681 20.984 61.5201 22.004C60.8841 23.024 60.1341 23.858 59.2701 24.506C58.4181 25.154 57.5001 25.634 56.5161 25.946C55.5321 26.246 54.5241 26.396 53.4921 26.396ZM53.4921 23.606C54.3081 23.606 55.1001 23.414 55.8681 23.03C56.6361 22.646 57.3261 22.046 57.9381 21.23C58.5621 20.414 59.0541 19.37 59.4141 18.098C59.7861 16.814 59.9721 15.272 59.9721 13.472C59.9721 11.684 59.7861 10.154 59.4141 8.882C59.0541 7.598 58.5621 6.554 57.9381 5.75C57.3261 4.934 56.6361 4.334 55.8681 3.95C55.1001 3.566 54.3081 3.374 53.4921 3.374C52.6761 3.374 51.8781 3.566 51.0981 3.95C50.3301 4.334 49.6341 4.934 49.0101 5.75C48.3981 6.554 47.9061 7.598 47.5341 8.882C47.1741 10.154 46.9941 11.684 46.9941 13.472C46.9941 15.272 47.1741 16.814 47.5341 18.098C47.9061 19.37 48.3981 20.414 49.0101 21.23C49.6341 22.046 50.3301 22.646 51.0981 23.03C51.8781 23.414 52.6761 23.606 53.4921 23.606ZM68.0322 26V0.799998H73.2882L82.7382 22.868H82.1442V0.799998H85.7082V26H81.1002L71.4342 4.004H71.5962V26H68.0322ZM98.5563 26V3.536H91.1943V0.799998H109.482V3.536H102.12V26H98.5563ZM134.264 26V0.799998H150.014V3.536H137.828V12.248H148.574V14.984H137.828V23.264H150.014V26H134.264ZM156.274 26V0.799998H161.53L170.98 22.868H170.386V0.799998H173.95V26H169.342L159.676 4.004H159.838V26H156.274ZM180.444 26V0.799998H187.014C187.866 0.799998 188.718 0.871999 189.57 1.016C190.422 1.148 191.25 1.388 192.054 1.736C192.858 2.084 193.602 2.564 194.286 3.176C194.982 3.788 195.588 4.556 196.104 5.48C196.632 6.404 197.04 7.52 197.328 8.828C197.628 10.124 197.778 11.648 197.778 13.4C197.778 15.14 197.628 16.664 197.328 17.972C197.04 19.28 196.632 20.396 196.104 21.32C195.588 22.244 194.982 23.012 194.286 23.624C193.602 24.236 192.858 24.716 192.054 25.064C191.25 25.412 190.422 25.658 189.57 25.802C188.718 25.934 187.866 26 187.014 26H180.444ZM184.008 23.264H186.744C187.764 23.264 188.712 23.108 189.588 22.796C190.476 22.484 191.262 21.956 191.946 21.212C192.63 20.468 193.158 19.46 193.53 18.188C193.914 16.916 194.106 15.32 194.106 13.4C194.106 11.48 193.914 9.884 193.53 8.612C193.158 7.34 192.63 6.332 191.946 5.588C191.262 4.844 190.476 4.316 189.588 4.004C188.712 3.692 187.764 3.536 186.744 3.536H184.008V23.264Z" fill="white"/>
</g>
<defs>
<filter id="filter0_i_82_114" x="0.0224609" y="0.583984" width="197.756" height="29.812" filterUnits="userSpaceOnUse" color-interpolation-filters="sRGB">
<feFlood flood-opacity="0" result="BackgroundImageFix"/>
<feBlend mode="normal" in="SourceGraphic" in2="BackgroundImageFix" result="shape"/>
<feColorMatrix in="SourceAlpha" type="matrix" values="0 0 0 0 0 0 0 0 0 0 0 0 0 0 0 0 0 0 127 0" result="hardAlpha"/>
<feOffset dy="4"/>
<feGaussianBlur stdDeviation="2"/>
<feComposite in2="hardAlpha" operator="arithmetic" k2="-1" k3="1"/>
<feColorMatrix type="matrix" values="0 0 0 0 0 0 0 0 0 0 0 0 0 0 0 0 0 0 0.25 0"/>
<feBlend mode="normal" in2="shape" result="effect1_innerShadow_82_114"/>
</filter>
</defs>
</svg>
