<svg width="1292" height="70" viewBox="0 0 1292 70" fill="none" xmlns="http://www.w3.org/2000/svg">
<mask id="path-1-outside-1_82_66" maskUnits="userSpaceOnUse" x="-1" y="-1" width="1294" height="72" fill="black">
<rect fill="white" x="-1" y="-1" width="1294" height="72"/>
<path d="M0.392001 68V0.799995H39.992V8.096H9.896V34.832H35.528V42.128H9.896V68H0.392001ZM101.818 68H91.9775L87.6575 51.008H64.8095L60.4895 68H50.6495L68.3135 0.799995H84.1535L101.818 68ZM75.6095 8.096L66.3455 43.712H86.1215L76.8575 8.096H75.6095ZM114.815 68V0.799995H128.831L154.031 59.648H152.447V0.799995H161.951V68H149.663L123.887 9.344H124.319V68H114.815ZM227.269 68V0.799995H244.789C247.061 0.799995 249.333 0.991997 251.605 1.376C253.877 1.728 256.085 2.368 258.229 3.296C260.373 4.224 262.357 5.504 264.181 7.136C266.037 8.768 267.653 10.816 269.029 13.28C270.437 15.744 271.525 18.72 272.293 22.208C273.093 25.664 273.493 29.728 273.493 34.4C273.493 39.04 273.093 43.104 272.293 46.592C271.525 50.08 270.437 53.056 269.029 55.52C267.653 57.984 266.037 60.032 264.181 61.664C262.357 63.296 260.373 64.576 258.229 65.504C256.085 66.432 253.877 67.088 251.605 67.472C249.333 67.824 247.061 68 244.789 68H227.269ZM236.773 60.704H244.069C246.789 60.704 249.317 60.288 251.653 59.456C254.021 58.624 256.117 57.216 257.941 55.232C259.765 53.248 261.173 50.56 262.165 47.168C263.189 43.776 263.701 39.52 263.701 34.4C263.701 29.28 263.189 25.024 262.165 21.632C261.173 18.24 259.765 15.552 257.941 13.568C256.117 11.584 254.021 10.176 251.653 9.344C249.317 8.512 246.789 8.096 244.069 8.096H236.773V60.704ZM291.434 68V0.799995H333.434V8.096H300.938V31.328H329.594V38.624H300.938V60.704H333.434V68H291.434ZM397.984 68V0.799995H407.536V60.704H433.552V68H397.984ZM469.792 69.056C467.04 69.056 464.336 68.656 461.68 67.856C459.056 67.024 456.592 65.744 454.288 64.016C452.016 62.288 450.016 60.064 448.288 57.344C446.56 54.624 445.2 51.392 444.208 47.648C443.248 43.872 442.768 39.52 442.768 34.592C442.768 29.696 443.248 25.376 444.208 21.632C445.2 17.856 446.56 14.624 448.288 11.936C450.016 9.216 452.016 6.992 454.288 5.264C456.592 3.536 459.056 2.272 461.68 1.472C464.336 0.639997 467.04 0.223997 469.792 0.223997C472.544 0.223997 475.232 0.639997 477.856 1.472C480.48 2.272 482.928 3.536 485.2 5.264C487.504 6.992 489.504 9.216 491.2 11.936C492.928 14.624 494.288 17.856 495.28 21.632C496.272 25.376 496.768 29.696 496.768 34.592C496.768 39.52 496.272 43.872 495.28 47.648C494.288 51.392 492.928 54.624 491.2 57.344C489.504 60.064 487.504 62.288 485.2 64.016C482.928 65.744 480.48 67.024 477.856 67.856C475.232 68.656 472.544 69.056 469.792 69.056ZM469.792 61.616C471.968 61.616 474.08 61.104 476.128 60.08C478.176 59.056 480.016 57.456 481.648 55.28C483.312 53.104 484.624 50.32 485.584 46.928C486.576 43.504 487.072 39.392 487.072 34.592C487.072 29.824 486.576 25.744 485.584 22.352C484.624 18.928 483.312 16.144 481.648 14C480.016 11.824 478.176 10.224 476.128 9.2C474.08 8.176 471.968 7.664 469.792 7.664C467.616 7.664 465.488 8.176 463.408 9.2C461.36 10.224 459.504 11.824 457.84 14C456.208 16.144 454.896 18.928 453.904 22.352C452.944 25.744 452.464 29.824 452.464 34.592C452.464 39.392 452.944 43.504 453.904 46.928C454.896 50.32 456.208 53.104 457.84 55.28C459.504 57.456 461.36 59.056 463.408 60.08C465.488 61.104 467.616 61.616 469.792 61.616ZM532.469 69.056C528.501 69.056 524.837 68.496 521.477 67.376C518.117 66.256 515.237 64.64 512.837 62.528C510.469 60.416 508.757 57.888 507.701 54.944L516.869 50.96C517.637 53.008 518.789 54.832 520.325 56.432C521.861 58 523.701 59.232 525.845 60.128C527.989 61.024 530.389 61.472 533.045 61.472C535.829 61.472 538.245 61.024 540.293 60.128C542.373 59.2 543.973 57.904 545.093 56.24C546.213 54.576 546.773 52.576 546.773 50.24C546.773 48.48 546.293 46.912 545.333 45.536C544.405 44.128 543.125 42.912 541.493 41.888C539.861 40.832 538.037 39.936 536.021 39.2C534.037 38.432 532.005 37.792 529.925 37.28C526.981 36.512 524.277 35.584 521.813 34.496C519.381 33.408 517.253 32.096 515.429 30.56C513.637 28.992 512.245 27.136 511.253 24.992C510.293 22.848 509.813 20.336 509.813 17.456C509.813 15.152 510.245 13.072 511.109 11.216C511.973 9.36 513.157 7.744 514.661 6.368C516.197 4.992 517.941 3.856 519.893 2.96C521.877 2.032 524.005 1.344 526.277 0.895994C528.549 0.447996 530.837 0.223997 533.141 0.223997C536.789 0.223997 540.165 0.767998 543.269 1.856C546.373 2.912 548.997 4.384 551.141 6.272C553.285 8.128 554.757 10.24 555.557 12.608L546.581 16.64C545.909 14.752 544.917 13.152 543.605 11.84C542.325 10.528 540.757 9.536 538.901 8.86399C537.077 8.16 535.045 7.808 532.805 7.808C531.109 7.808 529.477 8.016 527.909 8.432C526.373 8.816 524.981 9.408 523.733 10.208C522.517 10.976 521.541 11.952 520.805 13.136C520.101 14.288 519.749 15.648 519.749 17.216C519.749 19.424 520.341 21.296 521.525 22.832C522.709 24.368 524.341 25.664 526.421 26.72C528.533 27.744 530.965 28.608 533.717 29.312C535.861 29.888 538.021 30.56 540.197 31.328C542.405 32.064 544.485 32.96 546.437 34.016C548.421 35.072 550.181 36.336 551.717 37.808C553.285 39.248 554.517 40.944 555.413 42.896C556.309 44.816 556.757 47.024 556.757 49.52C556.757 52.208 556.309 54.608 555.413 56.72C554.549 58.832 553.349 60.672 551.813 62.24C550.277 63.776 548.485 65.056 546.437 66.08C544.389 67.072 542.165 67.808 539.765 68.288C537.397 68.8 534.965 69.056 532.469 69.056ZM634.267 68L616.891 0.799995H626.683L641.803 60.704H642.187L657.259 0.799995H667.099L649.723 68H634.267ZM686.528 68V60.704H700.4V8.096H686.528V0.799995H723.872V8.096H709.904V60.704H723.872V68H686.528ZM745.894 68V0.799995H763.414C765.686 0.799995 767.958 0.991997 770.23 1.376C772.502 1.728 774.71 2.368 776.854 3.296C778.998 4.224 780.982 5.504 782.806 7.136C784.662 8.768 786.278 10.816 787.654 13.28C789.062 15.744 790.15 18.72 790.918 22.208C791.718 25.664 792.118 29.728 792.118 34.4C792.118 39.04 791.718 43.104 790.918 46.592C790.15 50.08 789.062 53.056 787.654 55.52C786.278 57.984 784.662 60.032 782.806 61.664C780.982 63.296 778.998 64.576 776.854 65.504C774.71 66.432 772.502 67.088 770.23 67.472C767.958 67.824 765.686 68 763.414 68H745.894ZM755.398 60.704H762.694C765.414 60.704 767.942 60.288 770.278 59.456C772.646 58.624 774.742 57.216 776.566 55.232C778.39 53.248 779.798 50.56 780.79 47.168C781.814 43.776 782.326 39.52 782.326 34.4C782.326 29.28 781.814 25.024 780.79 21.632C779.798 18.24 778.39 15.552 776.566 13.568C774.742 11.584 772.646 10.176 770.278 9.344C767.942 8.512 765.414 8.096 762.694 8.096H755.398V60.704ZM810.059 68V0.799995H852.059V8.096H819.563V31.328H848.219V38.624H819.563V60.704H852.059V68H810.059ZM892.417 69.056C889.665 69.056 886.961 68.656 884.305 67.856C881.681 67.024 879.217 65.744 876.913 64.016C874.641 62.288 872.641 60.064 870.913 57.344C869.185 54.624 867.825 51.392 866.833 47.648C865.873 43.872 865.393 39.52 865.393 34.592C865.393 29.696 865.873 25.376 866.833 21.632C867.825 17.856 869.185 14.624 870.913 11.936C872.641 9.216 874.641 6.992 876.913 5.264C879.217 3.536 881.681 2.272 884.305 1.472C886.961 0.639997 889.665 0.223997 892.417 0.223997C895.169 0.223997 897.857 0.639997 900.481 1.472C903.105 2.272 905.553 3.536 907.825 5.264C910.129 6.992 912.129 9.216 913.825 11.936C915.553 14.624 916.913 17.856 917.905 21.632C918.897 25.376 919.393 29.696 919.393 34.592C919.393 39.52 918.897 43.872 917.905 47.648C916.913 51.392 915.553 54.624 913.825 57.344C912.129 60.064 910.129 62.288 907.825 64.016C905.553 65.744 903.105 67.024 900.481 67.856C897.857 68.656 895.169 69.056 892.417 69.056ZM892.417 61.616C894.593 61.616 896.705 61.104 898.753 60.08C900.801 59.056 902.641 57.456 904.273 55.28C905.937 53.104 907.249 50.32 908.209 46.928C909.201 43.504 909.697 39.392 909.697 34.592C909.697 29.824 909.201 25.744 908.209 22.352C907.249 18.928 905.937 16.144 904.273 14C902.641 11.824 900.801 10.224 898.753 9.2C896.705 8.176 894.593 7.664 892.417 7.664C890.241 7.664 888.113 8.176 886.033 9.2C883.985 10.224 882.129 11.824 880.465 14C878.833 16.144 877.521 18.928 876.529 22.352C875.569 25.744 875.089 29.824 875.089 34.592C875.089 39.392 875.569 43.504 876.529 46.928C877.521 50.32 878.833 53.104 880.465 55.28C882.129 57.456 883.985 59.056 886.033 60.08C888.113 61.104 890.241 61.616 892.417 61.616ZM952.694 69.056C949.59 69.056 946.694 68.56 944.006 67.568C941.35 66.544 939.03 64.944 937.046 62.768C935.062 60.56 933.526 57.68 932.438 54.128C931.35 50.576 930.806 46.256 930.806 41.168H940.31C940.31 45.776 940.79 49.584 941.75 52.592C942.742 55.568 944.15 57.792 945.974 59.264C947.83 60.704 950.07 61.424 952.694 61.424C955.382 61.424 957.638 60.704 959.462 59.264C961.318 57.792 962.71 55.568 963.638 52.592C964.566 49.584 965.03 45.776 965.03 41.168V8.096H938.87V0.799995H974.534V42.032C974.534 46.896 973.99 51.04 972.902 54.464C971.846 57.888 970.342 60.688 968.39 62.864C966.438 65.008 964.134 66.576 961.478 67.568C958.822 68.56 955.894 69.056 952.694 69.056ZM1017.48 69.056C1014.28 69.056 1011.26 68.56 1008.41 67.568C1005.56 66.576 1003.05 65.008 1000.88 62.864C998.7 60.72 996.988 57.92 995.74 54.464C994.524 50.976 993.916 46.784 993.916 41.888V0.799995H1003.42V41.456C1003.42 46.032 1003.98 49.792 1005.1 52.736C1006.25 55.68 1007.87 57.872 1009.95 59.312C1012.06 60.72 1014.57 61.424 1017.48 61.424C1020.4 61.424 1022.89 60.72 1024.97 59.312C1027.08 57.872 1028.68 55.68 1029.77 52.736C1030.89 49.792 1031.45 46.032 1031.45 41.456V0.799995H1040.96V41.888C1040.96 46.784 1040.35 50.976 1039.13 54.464C1037.92 57.92 1036.24 60.72 1034.09 62.864C1031.95 65.008 1029.45 66.576 1026.6 67.568C1023.76 68.56 1020.72 69.056 1017.48 69.056ZM1059.81 68V0.799995H1101.81V8.096H1069.31V31.328H1097.97V38.624H1069.31V60.704H1101.81V68H1059.81ZM1144.23 69.056C1141.73 69.056 1139.19 68.688 1136.6 67.952C1134.01 67.216 1131.53 66.032 1129.16 64.4C1126.79 62.768 1124.66 60.624 1122.77 57.968C1120.89 55.28 1119.4 52.016 1118.31 48.176C1117.22 44.336 1116.68 39.808 1116.68 34.592C1116.68 29.472 1117.21 25.008 1118.26 21.2C1119.35 17.36 1120.81 14.112 1122.63 11.456C1124.49 8.768 1126.58 6.608 1128.92 4.976C1131.29 3.312 1133.77 2.112 1136.36 1.376C1138.98 0.607998 1141.57 0.223997 1144.13 0.223997C1147.11 0.223997 1149.85 0.591997 1152.34 1.328C1154.87 2.064 1157.09 3.088 1159.01 4.4C1160.97 5.68 1162.58 7.2 1163.86 8.96C1165.14 10.688 1166.04 12.56 1166.55 14.576L1157.67 18.272C1157.35 16.896 1156.82 15.584 1156.09 14.336C1155.35 13.056 1154.41 11.92 1153.25 10.928C1152.1 9.936 1150.74 9.152 1149.17 8.576C1147.64 7.968 1145.89 7.664 1143.94 7.664C1142.21 7.664 1140.5 7.984 1138.81 8.62399C1137.11 9.264 1135.51 10.272 1134.01 11.648C1132.5 12.992 1131.16 14.72 1129.97 16.832C1128.82 18.944 1127.91 21.472 1127.24 24.416C1126.6 27.36 1126.28 30.752 1126.28 34.592C1126.28 39.456 1126.81 43.6 1127.86 47.024C1128.92 50.448 1130.31 53.248 1132.04 55.424C1133.8 57.568 1135.75 59.136 1137.89 60.128C1140.04 61.12 1142.18 61.616 1144.33 61.616C1146.44 61.616 1148.41 61.216 1150.23 60.416C1152.05 59.616 1153.64 58.384 1154.98 56.72C1156.36 55.024 1157.41 52.88 1158.15 50.288C1158.92 47.664 1159.3 44.528 1159.3 40.88H1143.65V33.44H1168.42V38.672C1168.42 43.056 1167.99 46.928 1167.13 50.288C1166.26 53.616 1165.06 56.464 1163.53 58.832C1161.99 61.2 1160.2 63.152 1158.15 64.688C1156.1 66.192 1153.89 67.296 1151.53 68C1149.19 68.704 1146.76 69.056 1144.23 69.056ZM1204.6 69.056C1201.85 69.056 1199.15 68.656 1196.49 67.856C1193.87 67.024 1191.4 65.744 1189.1 64.016C1186.83 62.288 1184.83 60.064 1183.1 57.344C1181.37 54.624 1180.01 51.392 1179.02 47.648C1178.06 43.872 1177.58 39.52 1177.58 34.592C1177.58 29.696 1178.06 25.376 1179.02 21.632C1180.01 17.856 1181.37 14.624 1183.1 11.936C1184.83 9.216 1186.83 6.992 1189.1 5.264C1191.4 3.536 1193.87 2.272 1196.49 1.472C1199.15 0.639997 1201.85 0.223997 1204.6 0.223997C1207.36 0.223997 1210.04 0.639997 1212.67 1.472C1215.29 2.272 1217.74 3.536 1220.01 5.264C1222.32 6.992 1224.32 9.216 1226.01 11.936C1227.74 14.624 1229.1 17.856 1230.09 21.632C1231.08 25.376 1231.58 29.696 1231.58 34.592C1231.58 39.52 1231.08 43.872 1230.09 47.648C1229.1 51.392 1227.74 54.624 1226.01 57.344C1224.32 60.064 1222.32 62.288 1220.01 64.016C1217.74 65.744 1215.29 67.024 1212.67 67.856C1210.04 68.656 1207.36 69.056 1204.6 69.056ZM1204.6 61.616C1206.78 61.616 1208.89 61.104 1210.94 60.08C1212.99 59.056 1214.83 57.456 1216.46 55.28C1218.12 53.104 1219.44 50.32 1220.4 46.928C1221.39 43.504 1221.88 39.392 1221.88 34.592C1221.88 29.824 1221.39 25.744 1220.4 22.352C1219.44 18.928 1218.12 16.144 1216.46 14C1214.83 11.824 1212.99 10.224 1210.94 9.2C1208.89 8.176 1206.78 7.664 1204.6 7.664C1202.43 7.664 1200.3 8.176 1198.22 9.2C1196.17 10.224 1194.32 11.824 1192.65 14C1191.02 16.144 1189.71 18.928 1188.72 22.352C1187.76 25.744 1187.28 29.824 1187.28 34.592C1187.28 39.392 1187.76 43.504 1188.72 46.928C1189.71 50.32 1191.02 53.104 1192.65 55.28C1194.32 57.456 1196.17 59.056 1198.22 60.08C1200.3 61.104 1202.43 61.616 1204.6 61.616ZM1267.28 69.056C1263.31 69.056 1259.65 68.496 1256.29 67.376C1252.93 66.256 1250.05 64.64 1247.65 62.528C1245.28 60.416 1243.57 57.888 1242.51 54.944L1251.68 50.96C1252.45 53.008 1253.6 54.832 1255.14 56.432C1256.67 58 1258.51 59.232 1260.66 60.128C1262.8 61.024 1265.2 61.472 1267.86 61.472C1270.64 61.472 1273.06 61.024 1275.11 60.128C1277.19 59.2 1278.79 57.904 1279.91 56.24C1281.03 54.576 1281.59 52.576 1281.59 50.24C1281.59 48.48 1281.11 46.912 1280.15 45.536C1279.22 44.128 1277.94 42.912 1276.31 41.888C1274.67 40.832 1272.85 39.936 1270.83 39.2C1268.85 38.432 1266.82 37.792 1264.74 37.28C1261.79 36.512 1259.09 35.584 1256.63 34.496C1254.19 33.408 1252.07 32.096 1250.24 30.56C1248.45 28.992 1247.06 27.136 1246.07 24.992C1245.11 22.848 1244.63 20.336 1244.63 17.456C1244.63 15.152 1245.06 13.072 1245.92 11.216C1246.79 9.36 1247.97 7.744 1249.47 6.368C1251.01 4.992 1252.75 3.856 1254.71 2.96C1256.69 2.032 1258.82 1.344 1261.09 0.895994C1263.36 0.447996 1265.65 0.223997 1267.95 0.223997C1271.6 0.223997 1274.98 0.767998 1278.08 1.856C1281.19 2.912 1283.81 4.384 1285.95 6.272C1288.1 8.128 1289.57 10.24 1290.37 12.608L1281.39 16.64C1280.72 14.752 1279.73 13.152 1278.42 11.84C1277.14 10.528 1275.57 9.536 1273.71 8.86399C1271.89 8.16 1269.86 7.808 1267.62 7.808C1265.92 7.808 1264.29 8.016 1262.72 8.432C1261.19 8.816 1259.79 9.408 1258.55 10.208C1257.33 10.976 1256.35 11.952 1255.62 13.136C1254.91 14.288 1254.56 15.648 1254.56 17.216C1254.56 19.424 1255.15 21.296 1256.34 22.832C1257.52 24.368 1259.15 25.664 1261.23 26.72C1263.35 27.744 1265.78 28.608 1268.53 29.312C1270.67 29.888 1272.83 30.56 1275.01 31.328C1277.22 32.064 1279.3 32.96 1281.25 34.016C1283.23 35.072 1284.99 36.336 1286.53 37.808C1288.1 39.248 1289.33 40.944 1290.23 42.896C1291.12 44.816 1291.57 47.024 1291.57 49.52C1291.57 52.208 1291.12 54.608 1290.23 56.72C1289.36 58.832 1288.16 60.672 1286.63 62.24C1285.09 63.776 1283.3 65.056 1281.25 66.08C1279.2 67.072 1276.98 67.808 1274.58 68.288C1272.21 68.8 1269.78 69.056 1267.28 69.056Z"/>
</mask>
<g filter="url(#filter0_i_82_66)">
<path d="M0.392001 68V0.799995H39.992V8.096H9.896V34.832H35.528V42.128H9.896V68H0.392001ZM101.818 68H91.9775L87.6575 51.008H64.8095L60.4895 68H50.6495L68.3135 0.799995H84.1535L101.818 68ZM75.6095 8.096L66.3455 43.712H86.1215L76.8575 8.096H75.6095ZM114.815 68V0.799995H128.831L154.031 59.648H152.447V0.799995H161.951V68H149.663L123.887 9.344H124.319V68H114.815ZM227.269 68V0.799995H244.789C247.061 0.799995 249.333 0.991997 251.605 1.376C253.877 1.728 256.085 2.368 258.229 3.296C260.373 4.224 262.357 5.504 264.181 7.136C266.037 8.768 267.653 10.816 269.029 13.28C270.437 15.744 271.525 18.72 272.293 22.208C273.093 25.664 273.493 29.728 273.493 34.4C273.493 39.04 273.093 43.104 272.293 46.592C271.525 50.08 270.437 53.056 269.029 55.52C267.653 57.984 266.037 60.032 264.181 61.664C262.357 63.296 260.373 64.576 258.229 65.504C256.085 66.432 253.877 67.088 251.605 67.472C249.333 67.824 247.061 68 244.789 68H227.269ZM236.773 60.704H244.069C246.789 60.704 249.317 60.288 251.653 59.456C254.021 58.624 256.117 57.216 257.941 55.232C259.765 53.248 261.173 50.56 262.165 47.168C263.189 43.776 263.701 39.52 263.701 34.4C263.701 29.28 263.189 25.024 262.165 21.632C261.173 18.24 259.765 15.552 257.941 13.568C256.117 11.584 254.021 10.176 251.653 9.344C249.317 8.512 246.789 8.096 244.069 8.096H236.773V60.704ZM291.434 68V0.799995H333.434V8.096H300.938V31.328H329.594V38.624H300.938V60.704H333.434V68H291.434ZM397.984 68V0.799995H407.536V60.704H433.552V68H397.984ZM469.792 69.056C467.04 69.056 464.336 68.656 461.68 67.856C459.056 67.024 456.592 65.744 454.288 64.016C452.016 62.288 450.016 60.064 448.288 57.344C446.56 54.624 445.2 51.392 444.208 47.648C443.248 43.872 442.768 39.52 442.768 34.592C442.768 29.696 443.248 25.376 444.208 21.632C445.2 17.856 446.56 14.624 448.288 11.936C450.016 9.216 452.016 6.992 454.288 5.264C456.592 3.536 459.056 2.272 461.68 1.472C464.336 0.639997 467.04 0.223997 469.792 0.223997C472.544 0.223997 475.232 0.639997 477.856 1.472C480.48 2.272 482.928 3.536 485.2 5.264C487.504 6.992 489.504 9.216 491.2 11.936C492.928 14.624 494.288 17.856 495.28 21.632C496.272 25.376 496.768 29.696 496.768 34.592C496.768 39.52 496.272 43.872 495.28 47.648C494.288 51.392 492.928 54.624 491.2 57.344C489.504 60.064 487.504 62.288 485.2 64.016C482.928 65.744 480.48 67.024 477.856 67.856C475.232 68.656 472.544 69.056 469.792 69.056ZM469.792 61.616C471.968 61.616 474.08 61.104 476.128 60.08C478.176 59.056 480.016 57.456 481.648 55.28C483.312 53.104 484.624 50.32 485.584 46.928C486.576 43.504 487.072 39.392 487.072 34.592C487.072 29.824 486.576 25.744 485.584 22.352C484.624 18.928 483.312 16.144 481.648 14C480.016 11.824 478.176 10.224 476.128 9.2C474.08 8.176 471.968 7.664 469.792 7.664C467.616 7.664 465.488 8.176 463.408 9.2C461.36 10.224 459.504 11.824 457.84 14C456.208 16.144 454.896 18.928 453.904 22.352C452.944 25.744 452.464 29.824 452.464 34.592C452.464 39.392 452.944 43.504 453.904 46.928C454.896 50.32 456.208 53.104 457.84 55.28C459.504 57.456 461.36 59.056 463.408 60.08C465.488 61.104 467.616 61.616 469.792 61.616ZM532.469 69.056C528.501 69.056 524.837 68.496 521.477 67.376C518.117 66.256 515.237 64.64 512.837 62.528C510.469 60.416 508.757 57.888 507.701 54.944L516.869 50.96C517.637 53.008 518.789 54.832 520.325 56.432C521.861 58 523.701 59.232 525.845 60.128C527.989 61.024 530.389 61.472 533.045 61.472C535.829 61.472 538.245 61.024 540.293 60.128C542.373 59.2 543.973 57.904 545.093 56.24C546.213 54.576 546.773 52.576 546.773 50.24C546.773 48.48 546.293 46.912 545.333 45.536C544.405 44.128 543.125 42.912 541.493 41.888C539.861 40.832 538.037 39.936 536.021 39.2C534.037 38.432 532.005 37.792 529.925 37.28C526.981 36.512 524.277 35.584 521.813 34.496C519.381 33.408 517.253 32.096 515.429 30.56C513.637 28.992 512.245 27.136 511.253 24.992C510.293 22.848 509.813 20.336 509.813 17.456C509.813 15.152 510.245 13.072 511.109 11.216C511.973 9.36 513.157 7.744 514.661 6.368C516.197 4.992 517.941 3.856 519.893 2.96C521.877 2.032 524.005 1.344 526.277 0.895994C528.549 0.447996 530.837 0.223997 533.141 0.223997C536.789 0.223997 540.165 0.767998 543.269 1.856C546.373 2.912 548.997 4.384 551.141 6.272C553.285 8.128 554.757 10.24 555.557 12.608L546.581 16.64C545.909 14.752 544.917 13.152 543.605 11.84C542.325 10.528 540.757 9.536 538.901 8.86399C537.077 8.16 535.045 7.808 532.805 7.808C531.109 7.808 529.477 8.016 527.909 8.432C526.373 8.816 524.981 9.408 523.733 10.208C522.517 10.976 521.541 11.952 520.805 13.136C520.101 14.288 519.749 15.648 519.749 17.216C519.749 19.424 520.341 21.296 521.525 22.832C522.709 24.368 524.341 25.664 526.421 26.72C528.533 27.744 530.965 28.608 533.717 29.312C535.861 29.888 538.021 30.56 540.197 31.328C542.405 32.064 544.485 32.96 546.437 34.016C548.421 35.072 550.181 36.336 551.717 37.808C553.285 39.248 554.517 40.944 555.413 42.896C556.309 44.816 556.757 47.024 556.757 49.52C556.757 52.208 556.309 54.608 555.413 56.72C554.549 58.832 553.349 60.672 551.813 62.24C550.277 63.776 548.485 65.056 546.437 66.08C544.389 67.072 542.165 67.808 539.765 68.288C537.397 68.8 534.965 69.056 532.469 69.056ZM634.267 68L616.891 0.799995H626.683L641.803 60.704H642.187L657.259 0.799995H667.099L649.723 68H634.267ZM686.528 68V60.704H700.4V8.096H686.528V0.799995H723.872V8.096H709.904V60.704H723.872V68H686.528ZM745.894 68V0.799995H763.414C765.686 0.799995 767.958 0.991997 770.23 1.376C772.502 1.728 774.71 2.368 776.854 3.296C778.998 4.224 780.982 5.504 782.806 7.136C784.662 8.768 786.278 10.816 787.654 13.28C789.062 15.744 790.15 18.72 790.918 22.208C791.718 25.664 792.118 29.728 792.118 34.4C792.118 39.04 791.718 43.104 790.918 46.592C790.15 50.08 789.062 53.056 787.654 55.52C786.278 57.984 784.662 60.032 782.806 61.664C780.982 63.296 778.998 64.576 776.854 65.504C774.71 66.432 772.502 67.088 770.23 67.472C767.958 67.824 765.686 68 763.414 68H745.894ZM755.398 60.704H762.694C765.414 60.704 767.942 60.288 770.278 59.456C772.646 58.624 774.742 57.216 776.566 55.232C778.39 53.248 779.798 50.56 780.79 47.168C781.814 43.776 782.326 39.52 782.326 34.4C782.326 29.28 781.814 25.024 780.79 21.632C779.798 18.24 778.39 15.552 776.566 13.568C774.742 11.584 772.646 10.176 770.278 9.344C767.942 8.512 765.414 8.096 762.694 8.096H755.398V60.704ZM810.059 68V0.799995H852.059V8.096H819.563V31.328H848.219V38.624H819.563V60.704H852.059V68H810.059ZM892.417 69.056C889.665 69.056 886.961 68.656 884.305 67.856C881.681 67.024 879.217 65.744 876.913 64.016C874.641 62.288 872.641 60.064 870.913 57.344C869.185 54.624 867.825 51.392 866.833 47.648C865.873 43.872 865.393 39.52 865.393 34.592C865.393 29.696 865.873 25.376 866.833 21.632C867.825 17.856 869.185 14.624 870.913 11.936C872.641 9.216 874.641 6.992 876.913 5.264C879.217 3.536 881.681 2.272 884.305 1.472C886.961 0.639997 889.665 0.223997 892.417 0.223997C895.169 0.223997 897.857 0.639997 900.481 1.472C903.105 2.272 905.553 3.536 907.825 5.264C910.129 6.992 912.129 9.216 913.825 11.936C915.553 14.624 916.913 17.856 917.905 21.632C918.897 25.376 919.393 29.696 919.393 34.592C919.393 39.52 918.897 43.872 917.905 47.648C916.913 51.392 915.553 54.624 913.825 57.344C912.129 60.064 910.129 62.288 907.825 64.016C905.553 65.744 903.105 67.024 900.481 67.856C897.857 68.656 895.169 69.056 892.417 69.056ZM892.417 61.616C894.593 61.616 896.705 61.104 898.753 60.08C900.801 59.056 902.641 57.456 904.273 55.28C905.937 53.104 907.249 50.32 908.209 46.928C909.201 43.504 909.697 39.392 909.697 34.592C909.697 29.824 909.201 25.744 908.209 22.352C907.249 18.928 905.937 16.144 904.273 14C902.641 11.824 900.801 10.224 898.753 9.2C896.705 8.176 894.593 7.664 892.417 7.664C890.241 7.664 888.113 8.176 886.033 9.2C883.985 10.224 882.129 11.824 880.465 14C878.833 16.144 877.521 18.928 876.529 22.352C875.569 25.744 875.089 29.824 875.089 34.592C875.089 39.392 875.569 43.504 876.529 46.928C877.521 50.32 878.833 53.104 880.465 55.28C882.129 57.456 883.985 59.056 886.033 60.08C888.113 61.104 890.241 61.616 892.417 61.616ZM952.694 69.056C949.59 69.056 946.694 68.56 944.006 67.568C941.35 66.544 939.03 64.944 937.046 62.768C935.062 60.56 933.526 57.68 932.438 54.128C931.35 50.576 930.806 46.256 930.806 41.168H940.31C940.31 45.776 940.79 49.584 941.75 52.592C942.742 55.568 944.15 57.792 945.974 59.264C947.83 60.704 950.07 61.424 952.694 61.424C955.382 61.424 957.638 60.704 959.462 59.264C961.318 57.792 962.71 55.568 963.638 52.592C964.566 49.584 965.03 45.776 965.03 41.168V8.096H938.87V0.799995H974.534V42.032C974.534 46.896 973.99 51.04 972.902 54.464C971.846 57.888 970.342 60.688 968.39 62.864C966.438 65.008 964.134 66.576 961.478 67.568C958.822 68.56 955.894 69.056 952.694 69.056ZM1017.48 69.056C1014.28 69.056 1011.26 68.56 1008.41 67.568C1005.56 66.576 1003.05 65.008 1000.88 62.864C998.7 60.72 996.988 57.92 995.74 54.464C994.524 50.976 993.916 46.784 993.916 41.888V0.799995H1003.42V41.456C1003.42 46.032 1003.98 49.792 1005.1 52.736C1006.25 55.68 1007.87 57.872 1009.95 59.312C1012.06 60.72 1014.57 61.424 1017.48 61.424C1020.4 61.424 1022.89 60.72 1024.97 59.312C1027.08 57.872 1028.68 55.68 1029.77 52.736C1030.89 49.792 1031.45 46.032 1031.45 41.456V0.799995H1040.96V41.888C1040.96 46.784 1040.35 50.976 1039.13 54.464C1037.92 57.92 1036.24 60.72 1034.09 62.864C1031.95 65.008 1029.45 66.576 1026.6 67.568C1023.76 68.56 1020.72 69.056 1017.48 69.056ZM1059.81 68V0.799995H1101.81V8.096H1069.31V31.328H1097.97V38.624H1069.31V60.704H1101.81V68H1059.81ZM1144.23 69.056C1141.73 69.056 1139.19 68.688 1136.6 67.952C1134.01 67.216 1131.53 66.032 1129.16 64.4C1126.79 62.768 1124.66 60.624 1122.77 57.968C1120.89 55.28 1119.4 52.016 1118.31 48.176C1117.22 44.336 1116.68 39.808 1116.68 34.592C1116.68 29.472 1117.21 25.008 1118.26 21.2C1119.35 17.36 1120.81 14.112 1122.63 11.456C1124.49 8.768 1126.58 6.608 1128.92 4.976C1131.29 3.312 1133.77 2.112 1136.36 1.376C1138.98 0.607998 1141.57 0.223997 1144.13 0.223997C1147.11 0.223997 1149.85 0.591997 1152.34 1.328C1154.87 2.064 1157.09 3.088 1159.01 4.4C1160.97 5.68 1162.58 7.2 1163.86 8.96C1165.14 10.688 1166.04 12.56 1166.55 14.576L1157.67 18.272C1157.35 16.896 1156.82 15.584 1156.09 14.336C1155.35 13.056 1154.41 11.92 1153.25 10.928C1152.1 9.936 1150.74 9.152 1149.17 8.576C1147.64 7.968 1145.89 7.664 1143.94 7.664C1142.21 7.664 1140.5 7.984 1138.81 8.62399C1137.11 9.264 1135.51 10.272 1134.01 11.648C1132.5 12.992 1131.16 14.72 1129.97 16.832C1128.82 18.944 1127.91 21.472 1127.24 24.416C1126.6 27.36 1126.28 30.752 1126.28 34.592C1126.28 39.456 1126.81 43.6 1127.86 47.024C1128.92 50.448 1130.31 53.248 1132.04 55.424C1133.8 57.568 1135.75 59.136 1137.89 60.128C1140.04 61.12 1142.18 61.616 1144.33 61.616C1146.44 61.616 1148.41 61.216 1150.23 60.416C1152.05 59.616 1153.64 58.384 1154.98 56.72C1156.36 55.024 1157.41 52.88 1158.15 50.288C1158.92 47.664 1159.3 44.528 1159.3 40.88H1143.65V33.44H1168.42V38.672C1168.42 43.056 1167.99 46.928 1167.13 50.288C1166.26 53.616 1165.06 56.464 1163.53 58.832C1161.99 61.2 1160.2 63.152 1158.15 64.688C1156.1 66.192 1153.89 67.296 1151.53 68C1149.19 68.704 1146.76 69.056 1144.23 69.056ZM1204.6 69.056C1201.85 69.056 1199.15 68.656 1196.49 67.856C1193.87 67.024 1191.4 65.744 1189.1 64.016C1186.83 62.288 1184.83 60.064 1183.1 57.344C1181.37 54.624 1180.01 51.392 1179.02 47.648C1178.06 43.872 1177.58 39.52 1177.58 34.592C1177.58 29.696 1178.06 25.376 1179.02 21.632C1180.01 17.856 1181.37 14.624 1183.1 11.936C1184.83 9.216 1186.83 6.992 1189.1 5.264C1191.4 3.536 1193.87 2.272 1196.49 1.472C1199.15 0.639997 1201.85 0.223997 1204.6 0.223997C1207.36 0.223997 1210.04 0.639997 1212.67 1.472C1215.29 2.272 1217.74 3.536 1220.01 5.264C1222.32 6.992 1224.32 9.216 1226.01 11.936C1227.74 14.624 1229.1 17.856 1230.09 21.632C1231.08 25.376 1231.58 29.696 1231.58 34.592C1231.58 39.52 1231.08 43.872 1230.09 47.648C1229.1 51.392 1227.74 54.624 1226.01 57.344C1224.32 60.064 1222.32 62.288 1220.01 64.016C1217.74 65.744 1215.29 67.024 1212.67 67.856C1210.04 68.656 1207.36 69.056 1204.6 69.056ZM1204.6 61.616C1206.78 61.616 1208.89 61.104 1210.94 60.08C1212.99 59.056 1214.83 57.456 1216.46 55.28C1218.12 53.104 1219.44 50.32 1220.4 46.928C1221.39 43.504 1221.88 39.392 1221.88 34.592C1221.88 29.824 1221.39 25.744 1220.4 22.352C1219.44 18.928 1218.12 16.144 1216.46 14C1214.83 11.824 1212.99 10.224 1210.94 9.2C1208.89 8.176 1206.78 7.664 1204.6 7.664C1202.43 7.664 1200.3 8.176 1198.22 9.2C1196.17 10.224 1194.32 11.824 1192.65 14C1191.02 16.144 1189.71 18.928 1188.72 22.352C1187.76 25.744 1187.28 29.824 1187.28 34.592C1187.28 39.392 1187.76 43.504 1188.72 46.928C1189.71 50.32 1191.02 53.104 1192.65 55.28C1194.32 57.456 1196.17 59.056 1198.22 60.08C1200.3 61.104 1202.43 61.616 1204.6 61.616ZM1267.28 69.056C1263.31 69.056 1259.65 68.496 1256.29 67.376C1252.93 66.256 1250.05 64.64 1247.65 62.528C1245.28 60.416 1243.57 57.888 1242.51 54.944L1251.68 50.96C1252.45 53.008 1253.6 54.832 1255.14 56.432C1256.67 58 1258.51 59.232 1260.66 60.128C1262.8 61.024 1265.2 61.472 1267.86 61.472C1270.64 61.472 1273.06 61.024 1275.11 60.128C1277.19 59.2 1278.79 57.904 1279.91 56.24C1281.03 54.576 1281.59 52.576 1281.59 50.24C1281.59 48.48 1281.11 46.912 1280.15 45.536C1279.22 44.128 1277.94 42.912 1276.31 41.888C1274.67 40.832 1272.85 39.936 1270.83 39.2C1268.85 38.432 1266.82 37.792 1264.74 37.28C1261.79 36.512 1259.09 35.584 1256.63 34.496C1254.19 33.408 1252.07 32.096 1250.24 30.56C1248.45 28.992 1247.06 27.136 1246.07 24.992C1245.11 22.848 1244.63 20.336 1244.63 17.456C1244.63 15.152 1245.06 13.072 1245.92 11.216C1246.79 9.36 1247.97 7.744 1249.47 6.368C1251.01 4.992 1252.75 3.856 1254.71 2.96C1256.69 2.032 1258.82 1.344 1261.09 0.895994C1263.36 0.447996 1265.65 0.223997 1267.95 0.223997C1271.6 0.223997 1274.98 0.767998 1278.08 1.856C1281.19 2.912 1283.81 4.384 1285.95 6.272C1288.1 8.128 1289.57 10.24 1290.37 12.608L1281.39 16.64C1280.72 14.752 1279.73 13.152 1278.42 11.84C1277.14 10.528 1275.57 9.536 1273.71 8.86399C1271.89 8.16 1269.86 7.808 1267.62 7.808C1265.92 7.808 1264.29 8.016 1262.72 8.432C1261.19 8.816 1259.79 9.408 1258.55 10.208C1257.33 10.976 1256.35 11.952 1255.62 13.136C1254.91 14.288 1254.56 15.648 1254.56 17.216C1254.56 19.424 1255.15 21.296 1256.34 22.832C1257.52 24.368 1259.15 25.664 1261.23 26.72C1263.35 27.744 1265.78 28.608 1268.53 29.312C1270.67 29.888 1272.83 30.56 1275.01 31.328C1277.22 32.064 1279.3 32.96 1281.25 34.016C1283.23 35.072 1284.99 36.336 1286.53 37.808C1288.1 39.248 1289.33 40.944 1290.23 42.896C1291.12 44.816 1291.57 47.024 1291.57 49.52C1291.57 52.208 1291.12 54.608 1290.23 56.72C1289.36 58.832 1288.16 60.672 1286.63 62.24C1285.09 63.776 1283.3 65.056 1281.25 66.08C1279.2 67.072 1276.98 67.808 1274.58 68.288C1272.21 68.8 1269.78 69.056 1267.28 69.056Z" fill="white"/>
</g>
<path d="M0.392 68H-0.608V69H0.392V68ZM0.392 0.799995V-0.200005H-0.608V0.799995H0.392ZM39.992 0.799995H40.992V-0.200005H39.992V0.799995ZM39.992 8.096V9.096H40.992V8.096H39.992ZM9.896 8.096V7.096H8.896V8.096H9.896ZM9.896 34.832H8.896V35.832H9.896V34.832ZM35.528 34.832H36.528V33.832H35.528V34.832ZM35.528 42.128V43.128H36.528V42.128H35.528ZM9.896 42.128V41.128H8.896V42.128H9.896ZM9.896 68V69H10.896V68H9.896ZM1.392 68V0.799995H-0.608V68H1.392ZM0.392 1.8H39.992V-0.200005H0.392V1.8ZM38.992 0.799995V8.096H40.992V0.799995H38.992ZM39.992 7.096H9.896V9.096H39.992V7.096ZM8.896 8.096V34.832H10.896V8.096H8.896ZM9.896 35.832H35.528V33.832H9.896V35.832ZM34.528 34.832V42.128H36.528V34.832H34.528ZM35.528 41.128H9.896V43.128H35.528V41.128ZM8.896 42.128V68H10.896V42.128H8.896ZM9.896 67H0.392V69H9.896V67ZM101.818 68V69H103.114L102.785 67.7458L101.818 68ZM91.9775 68L91.0083 68.2464L91.1999 69H91.9775V68ZM87.6575 51.008L88.6267 50.7616L88.4351 50.008H87.6575V51.008ZM64.8095 51.008V50.008H64.0319L63.8403 50.7616L64.8095 51.008ZM60.4895 68V69H61.2671L61.4587 68.2464L60.4895 68ZM50.6495 68L49.6824 67.7458L49.3527 69H50.6495V68ZM68.3135 0.799995V-0.200005H67.5424L67.3464 0.545774L68.3135 0.799995ZM84.1535 0.799995L85.1207 0.545774L84.9246 -0.200005H84.1535V0.799995ZM75.6095 8.096V7.096H74.8363L74.6417 7.84427L75.6095 8.096ZM66.3455 43.712L65.3777 43.4603L65.0521 44.712H66.3455V43.712ZM86.1215 43.712V44.712H87.4149L87.0893 43.4603L86.1215 43.712ZM76.8575 8.096L77.8253 7.84427L77.6307 7.096H76.8575V8.096ZM101.818 67H91.9775V69H101.818V67ZM92.9467 67.7536L88.6267 50.7616L86.6883 51.2544L91.0083 68.2464L92.9467 67.7536ZM87.6575 50.008H64.8095V52.008H87.6575V50.008ZM63.8403 50.7616L59.5203 67.7536L61.4587 68.2464L65.7787 51.2544L63.8403 50.7616ZM60.4895 67H50.6495V69H60.4895V67ZM51.6166 68.2542L69.2806 1.05422L67.3464 0.545774L49.6824 67.7458L51.6166 68.2542ZM68.3135 1.8H84.1535V-0.200005H68.3135V1.8ZM83.1864 1.05422L100.85 68.2542L102.785 67.7458L85.1207 0.545774L83.1864 1.05422ZM74.6417 7.84427L65.3777 43.4603L67.3133 43.9637L76.5773 8.34773L74.6417 7.84427ZM66.3455 44.712H86.1215V42.712H66.3455V44.712ZM87.0893 43.4603L77.8253 7.84427L75.8897 8.34773L85.1537 43.9637L87.0893 43.4603ZM76.8575 7.096H75.6095V9.096H76.8575V7.096ZM114.815 68H113.815V69H114.815V68ZM114.815 0.799995V-0.200005H113.815V0.799995H114.815ZM128.831 0.799995L129.75 0.406347L129.491 -0.200005H128.831V0.799995ZM154.031 59.648V60.648H155.547L154.95 59.2543L154.031 59.648ZM152.447 59.648H151.447V60.648H152.447V59.648ZM152.447 0.799995V-0.200005H151.447V0.799995H152.447ZM161.951 0.799995H162.951V-0.200005H161.951V0.799995ZM161.951 68V69H162.951V68H161.951ZM149.663 68L148.747 68.4023L149.01 69H149.663V68ZM123.887 9.344V8.344H122.355L122.971 9.74631L123.887 9.344ZM124.319 9.344H125.319V8.344H124.319V9.344ZM124.319 68V69H125.319V68H124.319ZM115.815 68V0.799995H113.815V68H115.815ZM114.815 1.8H128.831V-0.200005H114.815V1.8ZM127.912 1.19364L153.112 60.0416L154.95 59.2543L129.75 0.406347L127.912 1.19364ZM154.031 58.648H152.447V60.648H154.031V58.648ZM153.447 59.648V0.799995H151.447V59.648H153.447ZM152.447 1.8H161.951V-0.200005H152.447V1.8ZM160.951 0.799995V68H162.951V0.799995H160.951ZM161.951 67H149.663V69H161.951V67ZM150.579 67.5977L124.803 8.94169L122.971 9.74631L148.747 68.4023L150.579 67.5977ZM123.887 10.344H124.319V8.344H123.887V10.344ZM123.319 9.344V68H125.319V9.344H123.319ZM124.319 67H114.815V69H124.319V67ZM227.268 68H226.268V69H227.268V68ZM227.268 0.799995V-0.200005H226.268V0.799995H227.268ZM251.604 1.376L251.438 2.36211L251.451 2.36421L251.604 1.376ZM258.229 3.296L258.626 2.37827L258.229 3.296ZM264.181 7.136L263.514 7.88127L263.52 7.88697L264.181 7.136ZM269.029 13.28L268.155 13.7676L268.16 13.7761L269.029 13.28ZM272.293 22.208L271.316 22.423L271.318 22.4335L272.293 22.208ZM272.293 46.592L271.318 46.3684L271.316 46.377L272.293 46.592ZM269.029 55.52L268.16 55.0238L268.155 55.0324L269.029 55.52ZM264.181 61.664L263.52 60.913L263.514 60.9188L264.181 61.664ZM258.229 65.504L258.626 66.4217L258.229 65.504ZM251.604 67.472L251.758 68.4603L251.771 68.458L251.604 67.472ZM236.773 60.704H235.773V61.704H236.773V60.704ZM251.652 59.456L251.321 58.5125L251.317 58.514L251.652 59.456ZM257.94 55.232L257.204 54.5552L257.94 55.232ZM262.164 47.168L261.207 46.879L261.205 46.8873L262.164 47.168ZM262.164 21.632L261.205 21.9127L261.207 21.921L262.164 21.632ZM257.94 13.568L257.204 14.2448L257.94 13.568ZM251.652 9.344L251.317 10.286L251.321 10.2875L251.652 9.344ZM236.773 8.096V7.096H235.773V8.096H236.773ZM228.268 68V0.799995H226.268V68H228.268ZM227.268 1.8H244.789V-0.200005H227.268V1.8ZM244.789 1.8C247.004 1.8 249.22 1.98719 251.438 2.36201L251.771 0.389984C249.445 -0.0031929 247.117 -0.200005 244.789 -0.200005V1.8ZM251.451 2.36421C253.638 2.70298 255.764 3.31895 257.831 4.21372L258.626 2.37827C256.405 1.41704 254.115 0.753017 251.758 0.387789L251.451 2.36421ZM257.831 4.21372C259.872 5.09707 261.766 6.3174 263.514 7.88124L264.847 6.39076C262.947 4.6906 260.873 3.35093 258.626 2.37827L257.831 4.21372ZM263.52 7.88697C265.28 9.43407 266.827 11.3889 268.155 13.7676L269.902 12.7924C268.478 10.2431 266.793 8.10193 264.841 6.38503L263.52 7.88697ZM268.16 13.7761C269.507 16.1332 270.564 19.0094 271.316 22.423L273.269 21.993C272.485 18.4306 271.366 15.3548 269.897 12.7839L268.16 13.7761ZM271.318 22.4335C272.097 25.7965 272.492 29.7815 272.492 34.4H274.492C274.492 29.6745 274.088 25.5315 273.267 21.9825L271.318 22.4335ZM272.492 34.4C272.492 38.9856 272.097 42.9717 271.318 46.3684L273.267 46.8156C274.088 43.2363 274.492 39.0943 274.492 34.4H272.492ZM271.316 46.377C270.564 49.7906 269.507 52.6668 268.16 55.0239L269.897 56.0161C271.366 53.4452 272.485 50.3694 273.269 46.807L271.316 46.377ZM268.155 55.0324C266.827 57.4111 265.28 59.3659 263.52 60.913L264.841 62.415C266.793 60.6981 268.478 58.5569 269.902 56.0076L268.155 55.0324ZM263.514 60.9188C261.766 62.4826 259.872 63.7029 257.831 64.5863L258.626 66.4217C260.873 65.4491 262.947 64.1094 264.847 62.4092L263.514 60.9188ZM257.831 64.5863C255.76 65.4828 253.629 66.1156 251.438 66.486L251.771 68.458C254.124 68.0604 256.409 67.3812 258.626 66.4217L257.831 64.5863ZM251.451 66.4838C249.229 66.828 247.009 67 244.789 67V69C247.112 69 249.436 68.82 251.758 68.4602L251.451 66.4838ZM244.789 67H227.268V69H244.789V67ZM236.773 61.704H244.069V59.704H236.773V61.704ZM244.069 61.704C246.892 61.704 249.534 61.2719 251.988 60.398L251.317 58.514C249.099 59.3041 246.685 59.704 244.069 59.704V61.704ZM251.984 60.3995C254.518 59.5091 256.75 58.0044 258.677 55.9088L257.204 54.5552C255.483 56.4276 253.523 57.7389 251.321 58.5125L251.984 60.3995ZM258.677 55.9088C260.632 53.7821 262.102 50.9441 263.124 47.4487L261.205 46.8873C260.243 50.1759 258.897 52.7139 257.204 54.5552L258.677 55.9088ZM263.122 47.457C264.184 43.9398 264.701 39.5784 264.701 34.4H262.701C262.701 39.4616 262.193 43.6122 261.207 46.879L263.122 47.457ZM264.701 34.4C264.701 29.2216 264.184 24.8602 263.122 21.343L261.207 21.921C262.193 25.1878 262.701 29.3384 262.701 34.4H264.701ZM263.124 21.3513C262.102 17.8559 260.632 15.0179 258.677 12.8912L257.204 14.2448C258.897 16.0861 260.243 18.6241 261.205 21.9127L263.124 21.3513ZM258.677 12.8912C256.75 10.7956 254.518 9.29087 251.984 8.40054L251.321 10.2875C253.523 11.0611 255.483 12.3724 257.204 14.2448L258.677 12.8912ZM251.988 8.40197C249.534 7.52806 246.892 7.096 244.069 7.096V9.096C246.685 9.096 249.099 9.49593 251.317 10.286L251.988 8.40197ZM244.069 7.096H236.773V9.096H244.069V7.096ZM235.773 8.096V60.704H237.773V8.096H235.773ZM291.434 68H290.434V69H291.434V68ZM291.434 0.799995V-0.200005H290.434V0.799995H291.434ZM333.434 0.799995H334.434V-0.200005H333.434V0.799995ZM333.434 8.096V9.096H334.434V8.096H333.434ZM300.938 8.096V7.096H299.938V8.096H300.938ZM300.938 31.328H299.938V32.328H300.938V31.328ZM329.594 31.328H330.594V30.328H329.594V31.328ZM329.594 38.624V39.624H330.594V38.624H329.594ZM300.938 38.624V37.624H299.938V38.624H300.938ZM300.938 60.704H299.938V61.704H300.938V60.704ZM333.434 60.704H334.434V59.704H333.434V60.704ZM333.434 68V69H334.434V68H333.434ZM292.434 68V0.799995H290.434V68H292.434ZM291.434 1.8H333.434V-0.200005H291.434V1.8ZM332.434 0.799995V8.096H334.434V0.799995H332.434ZM333.434 7.096H300.938V9.096H333.434V7.096ZM299.938 8.096V31.328H301.938V8.096H299.938ZM300.938 32.328H329.594V30.328H300.938V32.328ZM328.594 31.328V38.624H330.594V31.328H328.594ZM329.594 37.624H300.938V39.624H329.594V37.624ZM299.938 38.624V60.704H301.938V38.624H299.938ZM300.938 61.704H333.434V59.704H300.938V61.704ZM332.434 60.704V68H334.434V60.704H332.434ZM333.434 67H291.434V69H333.434V67ZM397.983 68H396.983V69H397.983V68ZM397.983 0.799995V-0.200005H396.983V0.799995H397.983ZM407.535 0.799995H408.535V-0.200005H407.535V0.799995ZM407.535 60.704H406.535V61.704H407.535V60.704ZM433.552 60.704H434.552V59.704H433.552V60.704ZM433.552 68V69H434.552V68H433.552ZM398.983 68V0.799995H396.983V68H398.983ZM397.983 1.8H407.535V-0.200005H397.983V1.8ZM406.535 0.799995V60.704H408.535V0.799995H406.535ZM407.535 61.704H433.552V59.704H407.535V61.704ZM432.552 60.704V68H434.552V60.704H432.552ZM433.552 67H397.983V69H433.552V67ZM461.68 67.856L461.377 68.8092L461.384 68.8114L461.391 68.8135L461.68 67.856ZM454.288 64.016L453.682 64.812L453.688 64.816L454.288 64.016ZM448.288 57.344L447.443 57.8802L448.288 57.344ZM444.207 47.648L443.238 47.8944L443.241 47.9041L444.207 47.648ZM444.207 21.632L443.24 21.3779L443.239 21.3836L444.207 21.632ZM448.288 11.936L449.129 12.4768L449.132 12.4722L448.288 11.936ZM454.288 5.264L453.688 4.46398L453.682 4.46805L454.288 5.264ZM461.68 1.472L461.971 2.42856L461.978 2.42627L461.68 1.472ZM477.855 1.472L477.553 2.42529L477.564 2.42853L477.855 1.472ZM485.199 5.264L484.594 6.05996L484.599 6.064L485.199 5.264ZM491.199 11.936L490.351 12.4651L490.358 12.4768L491.199 11.936ZM495.28 21.632L494.312 21.8861L494.313 21.8881L495.28 21.632ZM495.28 47.648L496.246 47.9041L496.247 47.9021L495.28 47.648ZM491.199 57.344L490.355 56.8077L490.351 56.8149L491.199 57.344ZM485.199 64.016L484.599 63.216L484.594 63.2201L485.199 64.016ZM477.855 67.856L478.147 68.8126L478.158 68.8092L477.855 67.856ZM481.647 55.28L480.853 54.6725L480.848 54.68L481.647 55.28ZM485.583 46.928L484.623 46.6497L484.621 46.6557L485.583 46.928ZM485.583 22.352L484.621 22.622L484.624 22.6327L485.583 22.352ZM481.647 14L480.848 14.6L480.852 14.6066L480.858 14.6131L481.647 14ZM476.128 9.2L475.68 10.0944V10.0944L476.128 9.2ZM463.408 9.2L462.966 8.30281L462.96 8.30557L463.408 9.2ZM457.84 14L457.045 13.3925L457.044 13.3943L457.84 14ZM453.904 22.352L452.943 22.0737L452.941 22.0797L453.904 22.352ZM453.904 46.928L452.941 47.198L452.944 47.2087L453.904 46.928ZM457.84 55.28L457.039 55.88L457.045 55.8875L457.84 55.28ZM463.408 60.08L462.96 60.9744L462.966 60.9772L463.408 60.08ZM469.792 68.056C467.138 68.056 464.531 67.6705 461.968 66.8985L461.391 68.8135C464.14 69.6415 466.941 70.056 469.792 70.056V68.056ZM461.982 66.9028C459.47 66.1063 457.106 64.8797 454.888 63.216L453.688 64.816C456.077 66.6083 458.641 67.9417 461.377 68.8092L461.982 66.9028ZM454.893 63.2201C452.727 61.5724 450.804 59.4405 449.132 56.8078L447.443 57.8802C449.227 60.6875 451.304 63.0036 453.682 64.8119L454.893 63.2201ZM449.132 56.8078C447.468 54.1897 446.145 51.0561 445.174 47.3919L443.241 47.9041C444.254 51.7279 445.651 55.0583 447.443 57.8802L449.132 56.8078ZM445.177 47.4016C444.242 43.7241 443.767 39.4577 443.767 34.592H441.767C441.767 39.5823 442.253 44.0199 443.238 47.8944L445.177 47.4016ZM443.767 34.592C443.767 29.7587 444.242 25.525 445.176 21.8804L443.239 21.3836C442.253 25.227 441.767 29.6333 441.767 34.592H443.767ZM445.175 21.8861C446.146 18.19 447.468 15.0593 449.129 12.4768L447.446 11.3952C445.651 14.1887 444.253 17.522 443.24 21.3779L445.175 21.8861ZM449.132 12.4722C450.804 9.83948 452.727 7.70757 454.893 6.05994L453.682 4.46805C451.304 6.27642 449.227 8.59251 447.443 11.3998L449.132 12.4722ZM454.888 6.064C457.103 4.40218 459.464 3.19299 461.971 2.42853L461.388 0.515465C458.647 1.351 456.08 2.66982 453.688 4.464L454.888 6.064ZM461.978 2.42627C464.539 1.62423 467.142 1.224 469.792 1.224V-0.776003C466.937 -0.776003 464.132 -0.344234 461.381 0.517723L461.978 2.42627ZM469.792 1.224C472.441 1.224 475.027 1.62421 477.553 2.42523L478.158 0.518768C475.436 -0.344219 472.646 -0.776003 469.792 -0.776003V1.224ZM477.564 2.42853C480.07 3.19261 482.413 4.40068 484.594 6.05994L485.805 4.46805C483.443 2.67132 480.889 1.35139 478.147 0.515465L477.564 2.42853ZM484.599 6.064C486.794 7.70992 488.713 9.83817 490.351 12.4651L492.048 11.4069C490.294 8.59383 488.213 6.27408 485.799 4.464L484.599 6.064ZM490.358 12.4768C492.019 15.0593 493.341 18.19 494.312 21.8861L496.247 21.3779C495.234 17.522 493.836 14.1887 492.041 11.3952L490.358 12.4768ZM494.313 21.8881C495.278 25.53 495.768 29.7608 495.768 34.592H497.768C497.768 29.6312 497.265 25.222 496.246 21.3759L494.313 21.8881ZM495.768 34.592C495.768 39.4555 495.278 43.7192 494.312 47.3939L496.247 47.9021C497.265 44.0248 497.768 39.5845 497.768 34.592H495.768ZM494.313 47.3919C493.342 51.0561 492.019 54.1897 490.355 56.8078L492.044 57.8802C493.836 55.0583 495.233 51.7279 496.246 47.9041L494.313 47.3919ZM490.351 56.8149C488.713 59.4418 486.794 61.5701 484.599 63.216L485.799 64.816C488.213 63.0059 490.294 60.6862 492.048 57.8731L490.351 56.8149ZM484.594 63.2201C482.41 64.8812 480.064 66.1067 477.553 66.9028L478.158 68.8092C480.895 67.9413 483.445 66.6068 485.805 64.8119L484.594 63.2201ZM477.564 66.8995C475.035 67.6706 472.445 68.056 469.792 68.056V70.056C472.642 70.056 475.428 69.6414 478.147 68.8125L477.564 66.8995ZM469.792 62.616C472.131 62.616 474.395 62.0641 476.575 60.9744L475.68 59.1856C473.764 60.1439 471.804 60.616 469.792 60.616V62.616ZM476.575 60.9744C478.785 59.8691 480.74 58.157 482.448 55.88L480.848 54.68C479.291 56.755 477.566 58.2429 475.68 59.1856L476.575 60.9744ZM482.442 55.8875C484.201 53.5871 485.561 50.6804 486.546 47.2003L484.621 46.6557C483.686 49.9596 482.422 52.6209 480.853 54.6725L482.442 55.8875ZM486.544 47.2063C487.569 43.6667 488.072 39.4559 488.072 34.592H486.072C486.072 39.3281 485.582 43.3413 484.623 46.6497L486.544 47.2063ZM488.072 34.592C488.072 29.7598 487.569 25.58 486.543 22.0713L484.624 22.6327C485.582 25.908 486.072 29.8882 486.072 34.592H488.072ZM486.546 22.082C485.562 18.5702 484.201 15.6593 482.438 13.3869L480.858 14.6131C482.422 16.6287 483.685 19.2858 484.621 22.622L486.546 22.082ZM482.448 13.4C480.74 11.123 478.785 9.41088 476.575 8.30557L475.68 10.0944C477.566 11.0371 479.291 12.525 480.848 14.6L482.448 13.4ZM476.575 8.30557C474.395 7.21587 472.131 6.664 469.792 6.664V8.664C471.804 8.664 473.764 9.13612 475.68 10.0944L476.575 8.30557ZM469.792 6.664C467.452 6.664 465.174 7.21571 462.966 8.30283L463.849 10.0972C465.801 9.13629 467.779 8.664 469.792 8.664V6.664ZM462.96 8.30557C460.752 9.40966 458.784 11.1192 457.045 13.3926L458.634 14.6074C460.223 12.5288 461.967 11.0383 463.855 10.0944L462.96 8.30557ZM457.044 13.3943C455.317 15.6624 453.959 18.5675 452.943 22.0737L454.864 22.6303C455.832 19.2885 457.098 16.6256 458.635 14.6057L457.044 13.3943ZM452.941 22.0797C451.949 25.5852 451.464 29.762 451.464 34.592H453.464C453.464 29.886 453.938 25.9028 454.866 22.6243L452.941 22.0797ZM451.464 34.592C451.464 39.4537 451.949 43.6615 452.941 47.198L454.866 46.658C453.938 43.3465 453.464 39.3303 453.464 34.592H451.464ZM452.944 47.2087C453.96 50.6831 455.318 53.5841 457.039 55.88L458.639 54.68C457.097 52.6239 455.831 49.9569 454.863 46.6473L452.944 47.2087ZM457.045 55.8875C458.784 58.1608 460.752 59.8703 462.96 60.9744L463.855 59.1856C461.967 58.2417 460.223 56.7512 458.634 54.6725L457.045 55.8875ZM462.966 60.9772C465.174 62.0643 467.452 62.616 469.792 62.616V60.616C467.779 60.616 465.801 60.1437 463.849 59.1828L462.966 60.9772ZM521.477 67.376L521.793 66.4273L521.477 67.376ZM512.837 62.528L512.171 63.2743L512.176 63.2787L512.837 62.528ZM507.701 54.944L507.302 54.0269L506.444 54.4001L506.76 55.2816L507.701 54.944ZM516.869 50.96L517.805 50.6089L517.436 49.6234L516.47 50.0429L516.869 50.96ZM520.325 56.432L519.604 57.1246L519.611 57.1318L520.325 56.432ZM525.845 60.128L526.231 59.2053L525.845 60.128ZM540.293 60.128L540.694 61.0442L540.7 61.0412L540.293 60.128ZM545.093 56.24L545.923 56.7984L545.093 56.24ZM545.333 45.536L544.498 46.0863L544.505 46.0973L544.513 46.1082L545.333 45.536ZM541.493 41.888L540.95 42.7276L540.961 42.7351L541.493 41.888ZM536.021 39.2L535.66 40.1326L535.669 40.136L535.678 40.1394L536.021 39.2ZM529.925 37.28L529.673 38.2477L529.686 38.251L529.925 37.28ZM521.813 34.496L521.405 35.4088L521.409 35.4108L521.813 34.496ZM515.429 30.56L514.771 31.3126L514.778 31.3188L514.785 31.3249L515.429 30.56ZM511.253 24.992L510.34 25.4007L510.345 25.4119L511.253 24.992ZM511.109 11.216L510.202 10.794L511.109 11.216ZM514.661 6.368L513.994 5.62312L513.986 5.63019L514.661 6.368ZM519.893 2.96L520.31 3.86885L520.317 3.86581L519.893 2.96ZM526.277 0.895994L526.084 -0.0851154V-0.0851135L526.277 0.895994ZM543.269 1.856L542.938 2.79975L542.947 2.80271L543.269 1.856ZM551.141 6.272L550.48 7.02252L550.487 7.02806L551.141 6.272ZM555.557 12.608L555.967 13.5202L556.795 13.1481L556.504 12.2879L555.557 12.608ZM546.581 16.64L545.639 16.9753L546.002 17.9962L546.991 17.5522L546.581 16.64ZM543.605 11.84L542.889 12.5384L542.898 12.5471L543.605 11.84ZM538.901 8.86399L538.541 9.79692L538.551 9.80069L538.561 9.80426L538.901 8.86399ZM527.909 8.432L528.152 9.40214L528.159 9.4004L528.165 9.39856L527.909 8.432ZM523.733 10.208L524.267 11.0535L524.273 11.0499L523.733 10.208ZM520.805 13.136L519.956 12.6081L519.952 12.6145L520.805 13.136ZM526.421 26.72L525.968 27.6117L525.977 27.6158L525.985 27.6198L526.421 26.72ZM533.717 29.312L533.977 28.3462L533.965 28.3432L533.717 29.312ZM540.197 31.328L539.864 32.271L539.872 32.2739L539.881 32.2767L540.197 31.328ZM546.437 34.016L545.961 34.8956L545.967 34.8987L546.437 34.016ZM551.717 37.808L551.025 38.53L551.033 38.5373L551.041 38.5445L551.717 37.808ZM555.413 42.896L554.504 43.3132L554.507 43.3189L555.413 42.896ZM555.413 56.72L554.492 56.3294L554.487 56.3414L555.413 56.72ZM551.813 62.24L552.52 62.9471L552.527 62.9398L551.813 62.24ZM546.437 66.08L546.873 66.98L546.884 66.9744L546.437 66.08ZM539.765 68.288L539.569 67.3074L539.561 67.3089L539.554 67.3106L539.765 68.288ZM532.469 68.056C528.596 68.056 525.04 67.5095 521.793 66.4273L521.161 68.3247C524.634 69.4825 528.406 70.056 532.469 70.056V68.056ZM521.793 66.4273C518.546 65.345 515.787 63.7918 513.498 61.7773L512.176 63.2787C514.687 65.4882 517.688 67.167 521.161 68.3247L521.793 66.4273ZM513.503 61.7817C511.257 59.7791 509.641 57.3909 508.642 54.6064L506.76 55.2816C507.873 58.3851 509.681 61.0529 512.171 63.2743L513.503 61.7817ZM508.1 55.8611L517.268 51.8771L516.47 50.0429L507.302 54.0269L508.1 55.8611ZM515.933 51.3111C516.749 53.4882 517.975 55.4279 519.604 57.1245L521.046 55.7395C519.603 54.2361 518.525 52.5278 517.805 50.6089L515.933 51.3111ZM519.611 57.1318C521.246 58.8008 523.199 60.1062 525.459 61.0507L526.231 59.2053C524.203 58.3578 522.476 57.1992 521.039 55.7322L519.611 57.1318ZM525.459 61.0507C527.742 62.0045 530.275 62.472 533.045 62.472V60.472C530.503 60.472 528.236 60.0435 526.231 59.2053L525.459 61.0507ZM533.045 62.472C535.934 62.472 538.492 62.0072 540.694 61.0442L539.892 59.2118C537.998 60.0407 535.724 60.472 533.045 60.472V62.472ZM540.7 61.0412C542.928 60.0475 544.684 58.6382 545.923 56.7984L544.263 55.6816C543.262 57.1698 541.818 58.3525 539.886 59.2148L540.7 61.0412ZM545.923 56.7984C547.171 54.9435 547.773 52.7414 547.773 50.24H545.773C545.773 52.4106 545.255 54.2085 544.263 55.6816L545.923 56.7984ZM547.773 50.24C547.773 48.286 547.236 46.5162 546.153 44.9638L544.513 46.1082C545.35 47.3078 545.773 48.674 545.773 50.24H547.773ZM546.168 44.9857C545.151 43.4423 543.76 42.1302 542.024 41.0409L540.961 42.7351C542.49 43.6938 543.659 44.8137 544.498 46.0863L546.168 44.9857ZM542.036 41.0484C540.335 39.9478 538.443 39.0197 536.364 38.2606L535.678 40.1394C537.631 40.8523 539.387 41.7162 540.95 42.7276L542.036 41.0484ZM536.382 38.2674C534.358 37.4839 532.285 36.8311 530.164 36.309L529.686 38.251C531.725 38.7529 533.716 39.3801 535.66 40.1326L536.382 38.2674ZM530.177 36.3124C527.279 35.5562 524.626 34.645 522.217 33.5812L521.409 35.4108C523.928 36.523 526.683 37.4678 529.673 38.2476L530.177 36.3124ZM522.221 33.5832C519.865 32.5289 517.818 31.2645 516.073 29.7951L514.785 31.3249C516.688 32.9275 518.897 34.2871 521.405 35.4088L522.221 33.5832ZM516.088 29.8074C514.4 28.3309 513.093 26.5879 512.161 24.5721L510.345 25.4119C511.397 27.6841 512.874 29.6531 514.771 31.3126L516.088 29.8074ZM512.166 24.5833C511.275 22.5935 510.813 20.2262 510.813 17.456H508.813C508.813 20.4458 509.311 23.1025 510.34 25.4007L512.166 24.5833ZM510.813 17.456C510.813 15.2794 511.22 13.3462 512.016 11.638L510.202 10.794C509.27 12.7978 508.813 15.0246 508.813 17.456H510.813ZM512.016 11.638C512.824 9.90099 513.93 8.39244 515.336 7.1058L513.986 5.63019C512.384 7.09555 511.122 8.81901 510.202 10.794L512.016 11.638ZM515.328 7.11283C516.786 5.80646 518.445 4.72476 520.31 3.86883L519.476 2.05117C517.437 2.98724 515.607 4.17753 513.994 5.62316L515.328 7.11283ZM520.317 3.86581C522.223 2.97405 524.273 2.31032 526.47 1.8771L526.084 -0.0851135C523.737 0.37767 521.531 1.08995 519.469 2.05419L520.317 3.86581ZM526.47 1.8771C528.679 1.4416 530.902 1.224 533.141 1.224V-0.776003C530.772 -0.776003 528.419 -0.545612 526.084 -0.0851154L526.47 1.8771ZM533.141 1.224C536.689 1.224 539.951 1.7528 542.938 2.79971L543.6 0.912292C540.379 -0.216806 536.889 -0.776003 533.141 -0.776003V1.224ZM542.947 2.80271C545.944 3.82248 548.449 5.23349 550.48 7.02249L551.802 5.52151C549.545 3.53451 546.802 2.00151 543.591 0.909286L542.947 2.80271ZM550.487 7.02806C552.514 8.78342 553.874 10.7506 554.61 12.9281L556.504 12.2879C555.64 9.72935 554.056 7.47257 551.796 5.51594L550.487 7.02806ZM555.147 11.6958L546.171 15.7278L546.991 17.5522L555.967 13.5202L555.147 11.6958ZM547.523 16.3047C546.805 14.2882 545.737 12.5581 544.312 11.1329L542.898 12.5471C544.097 13.7459 545.013 15.2158 545.639 16.9753L547.523 16.3047ZM544.321 11.1417C542.928 9.71361 541.228 8.64303 539.241 7.92373L538.561 9.80426C540.286 10.429 541.722 11.3424 542.889 12.5383L544.321 11.1417ZM539.261 7.93107C537.307 7.17677 535.15 6.808 532.805 6.808V8.808C534.94 8.808 536.847 9.14322 538.541 9.79692L539.261 7.93107ZM532.805 6.808C531.026 6.808 529.308 7.02625 527.653 7.46544L528.165 9.39856C529.646 9.00574 531.192 8.808 532.805 8.808V6.808ZM527.666 7.46185C526.032 7.87039 524.539 8.50364 523.193 9.36612L524.273 11.0499C525.423 10.3123 526.714 9.7616 528.152 9.40214L527.666 7.46185ZM523.199 9.36251C521.859 10.2086 520.774 11.2916 519.956 12.6081L521.654 13.6639C522.308 12.6124 523.175 11.7434 524.267 11.0535L523.199 9.36251ZM519.952 12.6145C519.137 13.9475 518.749 15.4942 518.749 17.216H520.749C520.749 15.8018 521.065 14.6285 521.658 13.6575L519.952 12.6145ZM518.749 17.216C518.749 19.6128 519.396 21.7077 520.733 23.4425L522.317 22.2215C521.286 20.8843 520.749 19.2352 520.749 17.216H518.749ZM520.733 23.4425C522.024 25.1178 523.782 26.5018 525.968 27.6117L526.874 25.8283C524.9 24.8262 523.394 23.6182 522.317 22.2215L520.733 23.4425ZM525.985 27.6198C528.168 28.6784 530.665 29.5635 533.469 30.2808L533.965 28.3432C531.265 27.6525 528.898 26.8096 526.857 25.8202L525.985 27.6198ZM533.458 30.2778C535.576 30.8469 537.711 31.5112 539.864 32.271L540.53 30.385C538.331 29.6088 536.146 28.9291 533.976 28.3462L533.458 30.2778ZM539.881 32.2767C542.036 32.9952 544.063 33.8685 545.961 34.8955L546.913 33.1365C544.907 32.0515 542.774 31.1328 540.513 30.3793L539.881 32.2767ZM545.967 34.8987C547.875 35.914 549.559 37.125 551.025 38.53L552.409 37.086C550.803 35.547 548.967 34.23 546.907 33.1333L545.967 34.8987ZM551.041 38.5445C552.51 39.8938 553.663 41.4809 554.504 43.3132L556.322 42.4788C555.371 40.4071 554.06 38.6022 552.393 37.0715L551.041 38.5445ZM554.507 43.3189C555.331 45.0849 555.757 47.1443 555.757 49.52H557.757C557.757 46.9036 557.287 44.5471 556.319 42.4731L554.507 43.3189ZM555.757 49.52C555.757 52.0965 555.328 54.3603 554.492 56.3295L556.334 57.1105C557.29 54.8557 557.757 52.3195 557.757 49.52H555.757ZM554.487 56.3414C553.67 58.3385 552.541 60.0683 551.099 61.5402L552.527 62.9398C554.157 61.2757 555.428 59.3255 556.339 57.0986L554.487 56.3414ZM551.106 61.5329C549.65 62.9889 547.947 64.207 545.99 65.1856L546.884 66.9744C549.023 65.905 550.904 64.5631 552.52 62.9471L551.106 61.5329ZM546.001 65.18C544.035 66.1324 541.892 66.8428 539.569 67.3074L539.961 69.2686C542.438 68.7732 544.743 68.0116 546.873 66.98L546.001 65.18ZM539.554 67.3106C537.257 67.8071 534.896 68.056 532.469 68.056V70.056C535.034 70.056 537.537 69.7929 539.976 69.2654L539.554 67.3106ZM634.266 68L633.298 68.2503L633.492 69H634.266V68ZM616.891 0.799995V-0.200005H615.599L615.922 1.05033L616.891 0.799995ZM626.682 0.799995L627.652 0.555267L627.461 -0.200005H626.682V0.799995ZM641.802 60.704L640.833 60.9487L641.024 61.704H641.802V60.704ZM642.187 60.704V61.704H642.966L643.156 60.948L642.187 60.704ZM657.258 0.799995V-0.200005H656.479L656.289 0.555998L657.258 0.799995ZM667.099 0.799995L668.067 1.05033L668.39 -0.200005H667.099V0.799995ZM649.722 68V69H650.497L650.691 68.2503L649.722 68ZM635.235 67.7497L617.859 0.549658L615.922 1.05033L633.298 68.2503L635.235 67.7497ZM616.891 1.8H626.682V-0.200005H616.891V1.8ZM625.713 1.04472L640.833 60.9487L642.772 60.4593L627.652 0.555267L625.713 1.04472ZM641.802 61.704H642.187V59.704H641.802V61.704ZM643.156 60.948L658.228 1.04399L656.289 0.555998L641.217 60.46L643.156 60.948ZM657.258 1.8H667.099V-0.200005H657.258V1.8ZM666.13 0.549658L648.754 67.7497L650.691 68.2503L668.067 1.05033L666.13 0.549658ZM649.722 67H634.266V69H649.722V67ZM686.528 68H685.528V69H686.528V68ZM686.528 60.704V59.704H685.528V60.704H686.528ZM700.4 60.704V61.704H701.4V60.704H700.4ZM700.4 8.096H701.4V7.096H700.4V8.096ZM686.528 8.096H685.528V9.096H686.528V8.096ZM686.528 0.799995V-0.200005H685.528V0.799995H686.528ZM723.872 0.799995H724.872V-0.200005H723.872V0.799995ZM723.872 8.096V9.096H724.872V8.096H723.872ZM709.904 8.096V7.096H708.904V8.096H709.904ZM709.904 60.704H708.904V61.704H709.904V60.704ZM723.872 60.704H724.872V59.704H723.872V60.704ZM723.872 68V69H724.872V68H723.872ZM687.528 68V60.704H685.528V68H687.528ZM686.528 61.704H700.4V59.704H686.528V61.704ZM701.4 60.704V8.096H699.4V60.704H701.4ZM700.4 7.096H686.528V9.096H700.4V7.096ZM687.528 8.096V0.799995H685.528V8.096H687.528ZM686.528 1.8H723.872V-0.200005H686.528V1.8ZM722.872 0.799995V8.096H724.872V0.799995H722.872ZM723.872 7.096H709.904V9.096H723.872V7.096ZM708.904 8.096V60.704H710.904V8.096H708.904ZM709.904 61.704H723.872V59.704H709.904V61.704ZM722.872 60.704V68H724.872V60.704H722.872ZM723.872 67H686.528V69H723.872V67ZM745.893 68H744.893V69H745.893V68ZM745.893 0.799995V-0.200005H744.893V0.799995H745.893ZM770.229 1.376L770.063 2.36211L770.076 2.36421L770.229 1.376ZM776.854 3.296L777.251 2.37827L776.854 3.296ZM782.805 7.136L782.139 7.88127L782.145 7.88697L782.805 7.136ZM787.654 13.28L786.78 13.7676L786.785 13.7761L787.654 13.28ZM790.917 22.208L789.941 22.423L789.943 22.4335L790.917 22.208ZM790.917 46.592L789.943 46.3684L789.941 46.377L790.917 46.592ZM787.654 55.52L786.785 55.0238L786.78 55.0324L787.654 55.52ZM782.805 61.664L782.145 60.913L782.139 60.9188L782.805 61.664ZM776.854 65.504L777.251 66.4217L776.854 65.504ZM770.229 67.472L770.383 68.4603L770.396 68.458L770.229 67.472ZM755.398 60.704H754.398V61.704H755.398V60.704ZM770.278 59.456L769.946 58.5125L769.942 58.514L770.278 59.456ZM776.565 55.232L775.829 54.5552L776.565 55.232ZM780.789 47.168L779.832 46.879L779.83 46.8873L780.789 47.168ZM780.789 21.632L779.83 21.9127L779.832 21.921L780.789 21.632ZM776.565 13.568L775.829 14.2448L776.565 13.568ZM770.278 9.344L769.942 10.286L769.946 10.2875L770.278 9.344ZM755.398 8.096V7.096H754.398V8.096H755.398ZM746.893 68V0.799995H744.893V68H746.893ZM745.893 1.8H763.414V-0.200005H745.893V1.8ZM763.414 1.8C765.629 1.8 767.845 1.98719 770.063 2.36201L770.396 0.389984C768.07 -0.0031929 765.742 -0.200005 763.414 -0.200005V1.8ZM770.076 2.36421C772.263 2.70298 774.389 3.31895 776.456 4.21372L777.251 2.37827C775.03 1.41704 772.74 0.753017 770.383 0.387789L770.076 2.36421ZM776.456 4.21372C778.497 5.09707 780.391 6.3174 782.139 7.88124L783.472 6.39076C781.572 4.6906 779.498 3.35093 777.251 2.37827L776.456 4.21372ZM782.145 7.88697C783.905 9.43407 785.452 11.3889 786.78 13.7676L788.527 12.7924C787.103 10.2431 785.418 8.10193 783.466 6.38503L782.145 7.88697ZM786.785 13.7761C788.132 16.1332 789.189 19.0094 789.941 22.423L791.894 21.993C791.11 18.4306 789.991 15.3548 788.522 12.7839L786.785 13.7761ZM789.943 22.4335C790.722 25.7965 791.117 29.7815 791.117 34.4H793.117C793.117 29.6745 792.713 25.5315 791.892 21.9825L789.943 22.4335ZM791.117 34.4C791.117 38.9856 790.722 42.9717 789.943 46.3684L791.892 46.8156C792.713 43.2363 793.117 39.0943 793.117 34.4H791.117ZM789.941 46.377C789.189 49.7906 788.132 52.6668 786.785 55.0239L788.522 56.0161C789.991 53.4452 791.11 50.3694 791.894 46.807L789.941 46.377ZM786.78 55.0324C785.452 57.4111 783.905 59.3659 782.145 60.913L783.466 62.415C785.418 60.6981 787.103 58.5569 788.527 56.0076L786.78 55.0324ZM782.139 60.9188C780.391 62.4826 778.497 63.7029 776.456 64.5863L777.251 66.4217C779.498 65.4491 781.572 64.1094 783.472 62.4092L782.139 60.9188ZM776.456 64.5863C774.385 65.4828 772.254 66.1156 770.063 66.486L770.396 68.458C772.749 68.0604 775.034 67.3812 777.251 66.4217L776.456 64.5863ZM770.076 66.4838C767.854 66.828 765.634 67 763.414 67V69C765.737 69 768.061 68.82 770.383 68.4602L770.076 66.4838ZM763.414 67H745.893V69H763.414V67ZM755.398 61.704H762.693V59.704H755.398V61.704ZM762.693 61.704C765.517 61.704 768.159 61.2719 770.613 60.398L769.942 58.514C767.724 59.3041 765.31 59.704 762.693 59.704V61.704ZM770.609 60.3995C773.143 59.5091 775.375 58.0044 777.302 55.9088L775.829 54.5552C774.108 56.4276 772.148 57.7389 769.946 58.5125L770.609 60.3995ZM777.302 55.9088C779.257 53.7821 780.727 50.9441 781.749 47.4487L779.83 46.8873C778.868 50.1759 777.522 52.7139 775.829 54.5552L777.302 55.9088ZM781.747 47.457C782.809 43.9398 783.326 39.5784 783.326 34.4H781.326C781.326 39.4616 780.818 43.6122 779.832 46.879L781.747 47.457ZM783.326 34.4C783.326 29.2216 782.809 24.8602 781.747 21.343L779.832 21.921C780.818 25.1878 781.326 29.3384 781.326 34.4H783.326ZM781.749 21.3513C780.727 17.8559 779.257 15.0179 777.302 12.8912L775.829 14.2448C777.522 16.0861 778.868 18.6241 779.83 21.9127L781.749 21.3513ZM777.302 12.8912C775.375 10.7956 773.143 9.29087 770.609 8.40054L769.946 10.2875C772.148 11.0611 774.108 12.3724 775.829 14.2448L777.302 12.8912ZM770.613 8.40197C768.159 7.52806 765.517 7.096 762.693 7.096V9.096C765.31 9.096 767.724 9.49593 769.942 10.286L770.613 8.40197ZM762.693 7.096H755.398V9.096H762.693V7.096ZM754.398 8.096V60.704H756.398V8.096H754.398ZM810.059 68H809.059V69H810.059V68ZM810.059 0.799995V-0.200005H809.059V0.799995H810.059ZM852.059 0.799995H853.059V-0.200005H852.059V0.799995ZM852.059 8.096V9.096H853.059V8.096H852.059ZM819.563 8.096V7.096H818.563V8.096H819.563ZM819.563 31.328H818.563V32.328H819.563V31.328ZM848.219 31.328H849.219V30.328H848.219V31.328ZM848.219 38.624V39.624H849.219V38.624H848.219ZM819.563 38.624V37.624H818.563V38.624H819.563ZM819.563 60.704H818.563V61.704H819.563V60.704ZM852.059 60.704H853.059V59.704H852.059V60.704ZM852.059 68V69H853.059V68H852.059ZM811.059 68V0.799995H809.059V68H811.059ZM810.059 1.8H852.059V-0.200005H810.059V1.8ZM851.059 0.799995V8.096H853.059V0.799995H851.059ZM852.059 7.096H819.563V9.096H852.059V7.096ZM818.563 8.096V31.328H820.563V8.096H818.563ZM819.563 32.328H848.219V30.328H819.563V32.328ZM847.219 31.328V38.624H849.219V31.328H847.219ZM848.219 37.624H819.563V39.624H848.219V37.624ZM818.563 38.624V60.704H820.563V38.624H818.563ZM819.563 61.704H852.059V59.704H819.563V61.704ZM851.059 60.704V68H853.059V60.704H851.059ZM852.059 67H810.059V69H852.059V67ZM884.305 67.856L884.002 68.8092L884.009 68.8114L884.016 68.8135L884.305 67.856ZM876.912 64.016L876.307 64.812L876.312 64.816L876.912 64.016ZM870.912 57.344L870.068 57.8802L870.912 57.344ZM866.833 47.648L865.863 47.8944L865.866 47.9041L866.833 47.648ZM866.833 21.632L865.865 21.3779L865.864 21.3836L866.833 21.632ZM870.912 11.936L871.754 12.4768L871.757 12.4722L870.912 11.936ZM876.912 5.264L876.312 4.46398L876.307 4.46805L876.912 5.264ZM884.305 1.472L884.596 2.42856L884.603 2.42627L884.305 1.472ZM900.481 1.472L900.178 2.42529L900.189 2.42853L900.481 1.472ZM907.825 5.264L907.219 6.05996L907.224 6.064L907.825 5.264ZM913.825 11.936L912.976 12.4651L912.983 12.4768L913.825 11.936ZM917.904 21.632L916.937 21.8861L916.938 21.8881L917.904 21.632ZM917.904 47.648L918.871 47.9041L918.872 47.9021L917.904 47.648ZM913.825 57.344L912.98 56.8077L912.976 56.8149L913.825 57.344ZM907.825 64.016L907.224 63.216L907.219 63.2201L907.825 64.016ZM900.481 67.856L900.772 68.8126L900.783 68.8092L900.481 67.856ZM904.273 55.28L903.478 54.6725L903.472 54.68L904.273 55.28ZM908.208 46.928L907.248 46.6497L907.246 46.6557L908.208 46.928ZM908.208 22.352L907.246 22.622L907.249 22.6327L908.208 22.352ZM904.273 14L903.472 14.6L903.477 14.6066L903.483 14.6131L904.273 14ZM898.753 9.2L898.305 10.0944V10.0944L898.753 9.2ZM886.033 9.2L885.591 8.30281L885.585 8.30557L886.033 9.2ZM880.464 14L879.67 13.3925L879.669 13.3943L880.464 14ZM876.529 22.352L875.568 22.0737L875.566 22.0797L876.529 22.352ZM876.529 46.928L875.566 47.198L875.569 47.2087L876.529 46.928ZM880.464 55.28L879.664 55.88L879.67 55.8875L880.464 55.28ZM886.033 60.08L885.585 60.9744L885.591 60.9772L886.033 60.08ZM892.417 68.056C889.763 68.056 887.156 67.6705 884.593 66.8985L884.016 68.8135C886.765 69.6415 889.566 70.056 892.417 70.056V68.056ZM884.607 66.9028C882.095 66.1063 879.731 64.8797 877.513 63.216L876.312 64.816C878.702 66.6083 881.266 67.9417 884.002 68.8092L884.607 66.9028ZM877.518 63.2201C875.352 61.5724 873.429 59.4405 871.757 56.8078L870.068 57.8802C871.852 60.6875 873.929 63.0036 876.307 64.8119L877.518 63.2201ZM871.757 56.8078C870.093 54.1897 868.77 51.0561 867.799 47.3919L865.866 47.9041C866.879 51.7279 868.276 55.0583 870.068 57.8802L871.757 56.8078ZM867.802 47.4016C866.867 43.7241 866.393 39.4577 866.393 34.592H864.393C864.393 39.5823 864.878 44.0199 865.863 47.8944L867.802 47.4016ZM866.393 34.592C866.393 29.7587 866.867 25.525 867.801 21.8804L865.864 21.3836C864.878 25.227 864.393 29.6333 864.393 34.592H866.393ZM867.8 21.8861C868.771 18.19 870.093 15.0593 871.754 12.4768L870.071 11.3952C868.276 14.1887 866.878 17.522 865.865 21.3779L867.8 21.8861ZM871.757 12.4722C873.429 9.83948 875.352 7.70757 877.518 6.05994L876.307 4.46805C873.929 6.27642 871.852 8.59251 870.068 11.3998L871.757 12.4722ZM877.513 6.064C879.728 4.40218 882.089 3.19299 884.596 2.42853L884.013 0.515465C881.272 1.351 878.705 2.66982 876.312 4.464L877.513 6.064ZM884.603 2.42627C887.164 1.62423 889.767 1.224 892.417 1.224V-0.776003C889.562 -0.776003 886.757 -0.344234 884.006 0.517723L884.603 2.42627ZM892.417 1.224C895.066 1.224 897.652 1.62421 900.178 2.42523L900.783 0.518768C898.061 -0.344219 895.271 -0.776003 892.417 -0.776003V1.224ZM900.189 2.42853C902.695 3.19261 905.038 4.40068 907.219 6.05994L908.43 4.46805C906.068 2.67132 903.514 1.35139 900.772 0.515465L900.189 2.42853ZM907.224 6.064C909.419 7.70992 911.338 9.83817 912.976 12.4651L914.673 11.4069C912.919 8.59383 910.838 6.27408 908.424 4.464L907.224 6.064ZM912.983 12.4768C914.644 15.0593 915.966 18.19 916.937 21.8861L918.872 21.3779C917.859 17.522 916.461 14.1887 914.666 11.3952L912.983 12.4768ZM916.938 21.8881C917.903 25.53 918.393 29.7608 918.393 34.592H920.393C920.393 29.6312 919.89 25.222 918.871 21.3759L916.938 21.8881ZM918.393 34.592C918.393 39.4555 917.903 43.7192 916.937 47.3939L918.872 47.9021C919.89 44.0248 920.393 39.5845 920.393 34.592H918.393ZM916.938 47.3919C915.967 51.0561 914.644 54.1897 912.98 56.8078L914.669 57.8802C916.461 55.0583 917.858 51.7279 918.871 47.9041L916.938 47.3919ZM912.976 56.8149C911.338 59.4418 909.419 61.5701 907.224 63.216L908.424 64.816C910.838 63.0059 912.919 60.6862 914.673 57.8731L912.976 56.8149ZM907.219 63.2201C905.035 64.8812 902.689 66.1067 900.178 66.9028L900.783 68.8092C903.52 67.9413 906.07 66.6068 908.43 64.8119L907.219 63.2201ZM900.189 66.8995C897.66 67.6706 895.07 68.056 892.417 68.056V70.056C895.267 70.056 898.053 69.6414 900.772 68.8125L900.189 66.8995ZM892.417 62.616C894.756 62.616 897.02 62.0641 899.2 60.9744L898.305 59.1856C896.389 60.1439 894.429 60.616 892.417 60.616V62.616ZM899.2 60.9744C901.41 59.8691 903.365 58.157 905.073 55.88L903.472 54.68C901.916 56.755 900.191 58.2429 898.305 59.1856L899.2 60.9744ZM905.067 55.8875C906.826 53.5871 908.186 50.6804 909.171 47.2003L907.246 46.6557C906.311 49.9596 905.047 52.6209 903.478 54.6725L905.067 55.8875ZM909.169 47.2063C910.194 43.6667 910.696 39.4559 910.696 34.592H908.696C908.696 39.3281 908.207 43.3413 907.248 46.6497L909.169 47.2063ZM910.696 34.592C910.696 29.7598 910.194 25.58 909.168 22.0713L907.249 22.6327C908.207 25.908 908.696 29.8882 908.696 34.592H910.696ZM909.171 22.082C908.187 18.5702 906.826 15.6593 905.062 13.3869L903.483 14.6131C905.047 16.6287 906.31 19.2858 907.246 22.622L909.171 22.082ZM905.073 13.4C903.365 11.123 901.41 9.41088 899.2 8.30557L898.305 10.0944C900.191 11.0371 901.916 12.525 903.472 14.6L905.073 13.4ZM899.2 8.30557C897.02 7.21587 894.756 6.664 892.417 6.664V8.664C894.429 8.664 896.389 9.13612 898.305 10.0944L899.2 8.30557ZM892.417 6.664C890.077 6.664 887.799 7.21571 885.591 8.30283L886.474 10.0972C888.426 9.13629 890.404 8.664 892.417 8.664V6.664ZM885.585 8.30557C883.377 9.40966 881.409 11.1192 879.67 13.3926L881.259 14.6074C882.848 12.5288 884.592 11.0383 886.48 10.0944L885.585 8.30557ZM879.669 13.3943C877.942 15.6624 876.584 18.5675 875.568 22.0737L877.489 22.6303C878.457 19.2885 879.723 16.6256 881.26 14.6057L879.669 13.3943ZM875.566 22.0797C874.574 25.5852 874.089 29.762 874.089 34.592H876.089C876.089 29.886 876.563 25.9028 877.491 22.6243L875.566 22.0797ZM874.089 34.592C874.089 39.4537 874.574 43.6615 875.566 47.198L877.491 46.658C876.563 43.3465 876.089 39.3303 876.089 34.592H874.089ZM875.569 47.2087C876.585 50.6831 877.943 53.5841 879.664 55.88L881.265 54.68C879.722 52.6239 878.456 49.9569 877.488 46.6473L875.569 47.2087ZM879.67 55.8875C881.409 58.1608 883.377 59.8703 885.585 60.9744L886.48 59.1856C884.592 58.2417 882.848 56.7512 881.259 54.6725L879.67 55.8875ZM885.591 60.9772C887.799 62.0643 890.077 62.616 892.417 62.616V60.616C890.404 60.616 888.426 60.1437 886.474 59.1828L885.591 60.9772ZM944.006 67.568L943.646 68.5011L943.653 68.5037L943.66 68.5061L944.006 67.568ZM937.046 62.768L936.302 63.4364L936.307 63.4418L937.046 62.768ZM932.438 54.128L933.394 53.8351L932.438 54.128ZM930.806 41.168V40.168H929.806V41.168H930.806ZM940.31 41.168H941.31V40.168H940.31V41.168ZM941.75 52.592L940.797 52.8961L940.801 52.9082L941.75 52.592ZM945.974 59.264L945.346 60.0422L945.353 60.0482L945.361 60.0541L945.974 59.264ZM959.462 59.264L960.082 60.0489L960.083 60.0475L959.462 59.264ZM963.638 52.592L964.593 52.8897L964.594 52.8868L963.638 52.592ZM965.03 8.096H966.03V7.096H965.03V8.096ZM938.87 8.096H937.87V9.096H938.87V8.096ZM938.87 0.799995V-0.200005H937.87V0.799995H938.87ZM974.534 0.799995H975.534V-0.200005H974.534V0.799995ZM972.902 54.464L971.949 54.1612L971.946 54.1693L972.902 54.464ZM968.39 62.864L969.129 63.5372L969.134 63.5318L968.39 62.864ZM952.694 68.056C949.698 68.056 946.92 67.5777 944.352 66.6298L943.66 68.5061C946.468 69.5423 949.482 70.056 952.694 70.056V68.056ZM944.366 66.6349C941.86 65.6687 939.668 64.1596 937.785 62.0942L936.307 63.4418C938.392 65.7284 940.84 67.4193 943.646 68.5011L944.366 66.6349ZM937.79 62.0996C935.924 60.0235 934.45 57.282 933.394 53.8351L931.482 54.4209C932.602 58.078 934.2 61.0965 936.302 63.4364L937.79 62.0996ZM933.394 53.8351C932.344 50.4058 931.806 46.1907 931.806 41.168H929.806C929.806 46.3213 930.356 50.7462 931.482 54.4209L933.394 53.8351ZM930.806 42.168H940.31V40.168H930.806V42.168ZM939.31 41.168C939.31 45.8363 939.795 49.7559 940.797 52.896L942.703 52.288C941.785 49.4121 941.31 45.7157 941.31 41.168H939.31ZM940.801 52.9082C941.834 56.0059 943.331 58.4158 945.346 60.0422L946.602 58.4858C944.969 57.1682 943.65 55.1301 942.699 52.2758L940.801 52.9082ZM945.361 60.0541C947.413 61.646 949.875 62.424 952.694 62.424V60.424C950.265 60.424 948.247 59.762 946.587 58.4739L945.361 60.0541ZM952.694 62.424C955.57 62.424 958.054 61.6495 960.082 60.0489L958.842 58.4791C957.222 59.7585 955.194 60.424 952.694 60.424V62.424ZM960.083 60.0475C962.14 58.4168 963.624 55.9976 964.593 52.8897L962.683 52.2943C961.797 55.1384 960.496 57.1672 958.841 58.4805L960.083 60.0475ZM964.594 52.8868C965.561 49.7502 966.03 45.8341 966.03 41.168H964.03C964.03 45.7179 963.571 49.4178 962.682 52.2972L964.594 52.8868ZM966.03 41.168V8.096H964.03V41.168H966.03ZM965.03 7.096H938.87V9.096H965.03V7.096ZM939.87 8.096V0.799995H937.87V8.096H939.87ZM938.87 1.8H974.534V-0.200005H938.87V1.8ZM973.534 0.799995V42.032H975.534V0.799995H973.534ZM973.534 42.032C973.534 46.827 972.997 50.8628 971.949 54.1612L973.855 54.7668C974.983 51.2172 975.534 46.965 975.534 42.032H973.534ZM971.946 54.1693C970.924 57.4856 969.482 60.1493 967.646 62.1962L969.134 63.5318C971.202 61.2267 972.768 58.2904 973.858 54.7587L971.946 54.1693ZM967.651 62.1908C965.803 64.22 963.632 65.6961 961.128 66.6312L961.828 68.5048C964.636 67.4559 967.073 65.796 969.129 63.5372L967.651 62.1908ZM961.128 66.6312C958.597 67.5764 955.79 68.056 952.694 68.056V70.056C955.998 70.056 959.047 69.5436 961.828 68.5048L961.128 66.6312ZM1000.88 62.864L1001.58 62.1517L1000.88 62.864ZM995.74 54.464L994.795 54.7932L994.799 54.8036L995.74 54.464ZM993.916 0.799995V-0.200005H992.916V0.799995H993.916ZM1003.42 0.799995H1004.42V-0.200005H1003.42V0.799995ZM1005.1 52.736L1004.16 53.0916L1004.17 53.1004L1005.1 52.736ZM1009.95 59.312L1009.38 60.1342L1009.39 60.1392L1009.39 60.1441L1009.95 59.312ZM1024.97 59.312L1025.53 60.1401L1025.53 60.1382L1024.97 59.312ZM1029.77 52.736L1028.84 52.3804L1028.83 52.3894L1029.77 52.736ZM1031.45 0.799995V-0.200005H1030.45V0.799995H1031.45ZM1040.96 0.799995H1041.96V-0.200005H1040.96V0.799995ZM1039.13 54.464L1040.07 54.7959L1040.08 54.7932L1039.13 54.464ZM1034.09 62.864L1033.38 62.1569L1034.09 62.864ZM1026.6 67.568L1026.93 68.5124L1026.6 67.568ZM1017.48 68.056C1014.39 68.056 1011.48 67.5766 1008.74 66.6236L1008.08 68.5124C1011.04 69.5434 1014.18 70.056 1017.48 70.056V68.056ZM1008.74 66.6236C1006.03 65.681 1003.65 64.193 1001.58 62.1517L1000.17 63.5763C1002.45 65.823 1005.09 67.471 1008.08 68.5124L1008.74 66.6236ZM1001.58 62.1517C999.527 60.1316 997.887 57.468 996.68 54.1244L994.799 54.8036C996.088 58.372 997.872 61.3084 1000.17 63.5763L1001.58 62.1517ZM996.684 54.1348C995.514 50.7808 994.916 46.7062 994.916 41.888H992.916C992.916 46.8618 993.533 51.1712 994.795 54.7932L996.684 54.1348ZM994.916 41.888V0.799995H992.916V41.888H994.916ZM993.916 1.8H1003.42V-0.200005H993.916V1.8ZM1002.42 0.799995V41.456H1004.42V0.799995H1002.42ZM1002.42 41.456C1002.42 46.1033 1002.99 49.995 1004.16 53.0916L1006.03 52.3804C1004.97 49.589 1004.42 45.9607 1004.42 41.456H1002.42ZM1004.17 53.1004C1005.37 56.1832 1007.1 58.5556 1009.38 60.1342L1010.52 58.4898C1008.64 57.1884 1007.13 55.1768 1006.03 52.3716L1004.17 53.1004ZM1009.39 60.1441C1011.69 61.677 1014.4 62.424 1017.48 62.424V60.424C1014.74 60.424 1012.43 59.7629 1010.5 58.4799L1009.39 60.1441ZM1017.48 62.424C1020.56 62.424 1023.26 61.6772 1025.53 60.1401L1024.41 58.4839C1022.52 59.7628 1020.23 60.424 1017.48 60.424V62.424ZM1025.53 60.1382C1027.85 58.5567 1029.57 56.1765 1030.71 53.0826L1028.83 52.3894C1027.8 55.1835 1026.31 57.1873 1024.41 58.4858L1025.53 60.1382ZM1030.71 53.0916C1031.88 49.995 1032.45 46.1033 1032.45 41.456H1030.45C1030.45 45.9607 1029.9 49.589 1028.84 52.3804L1030.71 53.0916ZM1032.45 41.456V0.799995H1030.45V41.456H1032.45ZM1031.45 1.8H1040.96V-0.200005H1031.45V1.8ZM1039.96 0.799995V41.888H1041.96V0.799995H1039.96ZM1039.96 41.888C1039.96 46.7062 1039.36 50.7808 1038.19 54.1348L1040.08 54.7932C1041.34 51.1712 1041.96 46.8618 1041.96 41.888H1039.96ZM1038.19 54.1321C1037.01 57.4759 1035.4 60.1385 1033.38 62.1569L1034.8 63.5711C1037.07 61.3015 1038.82 58.3641 1040.07 54.7959L1038.19 54.1321ZM1033.38 62.1569C1031.35 64.1949 1028.98 65.6815 1026.27 66.6236L1026.93 68.5124C1029.92 67.4705 1032.55 65.8211 1034.8 63.5711L1033.38 62.1569ZM1026.27 66.6236C1023.54 67.5762 1020.61 68.056 1017.48 68.056V70.056C1020.82 70.056 1023.97 69.5437 1026.93 68.5124L1026.27 66.6236ZM1059.81 68H1058.81V69H1059.81V68ZM1059.81 0.799995V-0.200005H1058.81V0.799995H1059.81ZM1101.81 0.799995H1102.81V-0.200005H1101.81V0.799995ZM1101.81 8.096V9.096H1102.81V8.096H1101.81ZM1069.31 8.096V7.096H1068.31V8.096H1069.31ZM1069.31 31.328H1068.31V32.328H1069.31V31.328ZM1097.97 31.328H1098.97V30.328H1097.97V31.328ZM1097.97 38.624V39.624H1098.97V38.624H1097.97ZM1069.31 38.624V37.624H1068.31V38.624H1069.31ZM1069.31 60.704H1068.31V61.704H1069.31V60.704ZM1101.81 60.704H1102.81V59.704H1101.81V60.704ZM1101.81 68V69H1102.81V68H1101.81ZM1060.81 68V0.799995H1058.81V68H1060.81ZM1059.81 1.8H1101.81V-0.200005H1059.81V1.8ZM1100.81 0.799995V8.096H1102.81V0.799995H1100.81ZM1101.81 7.096H1069.31V9.096H1101.81V7.096ZM1068.31 8.096V31.328H1070.31V8.096H1068.31ZM1069.31 32.328H1097.97V30.328H1069.31V32.328ZM1096.97 31.328V38.624H1098.97V31.328H1096.97ZM1097.97 37.624H1069.31V39.624H1097.97V37.624ZM1068.31 38.624V60.704H1070.31V38.624H1068.31ZM1069.31 61.704H1101.81V59.704H1069.31V61.704ZM1100.81 60.704V68H1102.81V60.704H1100.81ZM1101.81 67H1059.81V69H1101.81V67ZM1136.6 67.952L1136.33 68.914L1136.6 67.952ZM1129.16 64.4L1128.59 65.2234L1129.16 64.4ZM1122.77 57.968L1121.96 58.5428L1121.96 58.5474L1122.77 57.968ZM1118.31 48.176L1117.35 48.4486L1118.31 48.176ZM1118.26 21.2L1117.3 20.9274L1117.3 20.9328L1118.26 21.2ZM1122.63 11.456L1121.81 10.8878L1121.81 10.8899L1122.63 11.456ZM1128.92 4.976L1129.49 5.79576L1129.49 5.79419L1128.92 4.976ZM1136.36 1.376L1136.63 2.338L1136.64 2.33574L1136.36 1.376ZM1152.34 1.328L1152.06 2.28717L1152.06 2.28813L1152.34 1.328ZM1159.01 4.4L1158.45 5.22564L1158.46 5.23102L1158.47 5.23624L1159.01 4.4ZM1163.86 8.96L1163.05 9.54819L1163.06 9.55523L1163.86 8.96ZM1166.55 14.576L1166.93 15.4992L1167.73 15.1672L1167.52 14.3298L1166.55 14.576ZM1157.67 18.272L1156.7 18.4985L1156.96 19.6492L1158.05 19.1952L1157.67 18.272ZM1156.09 14.336L1155.22 14.8345L1155.23 14.844L1156.09 14.336ZM1153.25 10.928L1152.6 11.6858L1153.25 10.928ZM1149.17 8.576L1148.81 9.5058L1148.82 9.51038L1148.83 9.51467L1149.17 8.576ZM1138.81 8.62399L1138.45 7.68839V7.68839L1138.81 8.62399ZM1134.01 11.648L1134.67 12.3937L1134.68 12.3858L1134.01 11.648ZM1129.97 16.832L1129.1 16.343L1129.1 16.3531L1129.97 16.832ZM1127.24 24.416L1126.26 24.1934L1126.26 24.2036L1127.24 24.416ZM1127.86 47.024L1128.82 46.7293L1127.86 47.024ZM1132.04 55.424L1131.26 56.0459L1131.26 56.0522L1131.27 56.0585L1132.04 55.424ZM1137.89 60.128L1137.47 61.0356L1137.89 60.128ZM1154.98 56.72L1154.21 56.09L1154.2 56.0917L1154.98 56.72ZM1158.15 50.288L1157.19 50.0071L1157.19 50.0148L1158.15 50.288ZM1159.3 40.88H1160.3V39.88H1159.3V40.88ZM1143.65 40.88H1142.65V41.88H1143.65V40.88ZM1143.65 33.44V32.44H1142.65V33.44H1143.65ZM1168.42 33.44H1169.42V32.44H1168.42V33.44ZM1167.13 50.288L1168.09 50.5393L1168.09 50.537L1167.13 50.288ZM1163.53 58.832L1162.69 58.2878L1163.53 58.832ZM1158.15 64.688L1158.74 65.494L1158.75 65.488L1158.15 64.688ZM1151.53 68L1151.24 67.0415L1151.24 67.0425L1151.53 68ZM1144.23 68.056C1141.83 68.056 1139.38 67.7028 1136.87 66.99L1136.33 68.914C1139 69.6732 1141.64 70.056 1144.23 70.056V68.056ZM1136.87 66.99C1134.39 66.2858 1132.01 65.1508 1129.73 63.5766L1128.59 65.2234C1131.04 66.9132 1133.62 68.1462 1136.33 68.914L1136.87 66.99ZM1129.73 63.5766C1127.47 62.0191 1125.42 59.962 1123.59 57.3886L1121.96 58.5474C1123.91 61.286 1126.11 63.5169 1128.59 65.2234L1129.73 63.5766ZM1123.59 57.3932C1121.78 54.8145 1120.34 51.6578 1119.27 47.9034L1117.35 48.4486C1118.46 52.3742 1119.99 55.7455 1121.96 58.5428L1123.59 57.3932ZM1119.27 47.9034C1118.22 44.1744 1117.68 39.7423 1117.68 34.592H1115.68C1115.68 39.8736 1116.23 44.4976 1117.35 48.4486L1119.27 47.9034ZM1117.68 34.592C1117.68 29.5372 1118.2 25.1669 1119.23 21.4672L1117.3 20.9328C1116.21 24.8491 1115.68 29.4068 1115.68 34.592H1117.68ZM1119.22 21.4726C1120.29 17.7133 1121.71 14.5699 1123.45 12.0221L1121.81 10.8899C1119.91 13.654 1118.41 17.0067 1117.3 20.9274L1119.22 21.4726ZM1123.45 12.0242C1125.25 9.42012 1127.27 7.35027 1129.49 5.79576L1128.35 4.15624C1125.9 5.86572 1123.72 8.11587 1121.81 10.8878L1123.45 12.0242ZM1129.49 5.79419C1131.78 4.18992 1134.16 3.04112 1136.63 2.33797L1136.09 0.414028C1133.38 1.18288 1130.8 2.43408 1128.34 4.1578L1129.49 5.79419ZM1136.64 2.33574C1139.18 1.59263 1141.68 1.224 1144.13 1.224V-0.776003C1141.47 -0.776003 1138.79 -0.376633 1136.08 0.416262L1136.64 2.33574ZM1144.13 1.224C1147.03 1.224 1149.67 1.58181 1152.06 2.28717L1152.63 0.368828C1150.03 -0.397814 1147.19 -0.776003 1144.13 -0.776003V1.224ZM1152.06 2.28813C1154.5 2.99846 1156.63 3.98052 1158.45 5.22564L1159.58 3.57435C1157.56 2.19548 1155.24 1.12953 1152.62 0.367861L1152.06 2.28813ZM1158.47 5.23624C1160.32 6.45481 1161.85 7.89281 1163.05 9.54817L1164.67 8.37183C1163.32 6.50718 1161.61 4.90519 1159.56 3.56375L1158.47 5.23624ZM1163.06 9.55523C1164.26 11.1824 1165.1 12.9365 1165.58 14.8222L1167.52 14.3298C1166.97 12.1835 1166.02 10.1936 1164.67 8.36477L1163.06 9.55523ZM1166.17 13.6528L1157.29 17.3488L1158.05 19.1952L1166.93 15.4992L1166.17 13.6528ZM1158.64 18.0455C1158.3 16.568 1157.73 15.1613 1156.95 13.828L1155.23 14.844C1155.91 16.0067 1156.4 17.224 1156.7 18.4985L1158.64 18.0455ZM1156.95 13.8375C1156.16 12.4567 1155.14 11.2337 1153.91 10.1702L1152.6 11.6858C1153.67 12.6063 1154.54 13.6553 1155.22 14.8345L1156.95 13.8375ZM1153.91 10.1702C1152.66 9.09259 1151.19 8.2506 1149.52 7.63733L1148.83 9.51467C1150.3 10.0534 1151.55 10.7794 1152.6 11.6858L1153.91 10.1702ZM1149.54 7.64619C1147.87 6.98421 1146 6.664 1143.94 6.664V8.664C1145.79 8.664 1147.41 8.95178 1148.81 9.5058L1149.54 7.64619ZM1143.94 6.664C1142.09 6.664 1140.26 7.00793 1138.45 7.68839L1139.16 9.5596C1140.75 8.96006 1142.34 8.664 1143.94 8.664V6.664ZM1138.45 7.68839C1136.62 8.37852 1134.92 9.45904 1133.33 10.9102L1134.68 12.3858C1136.1 11.085 1137.6 10.1495 1139.16 9.5596L1138.45 7.68839ZM1133.34 10.9023C1131.74 12.333 1130.33 14.1534 1129.1 16.343L1130.85 17.321C1131.99 15.2866 1133.27 13.651 1134.67 12.3937L1133.34 10.9023ZM1129.1 16.3531C1127.89 18.5632 1126.95 21.1817 1126.26 24.1935L1128.21 24.6385C1128.87 21.7623 1129.75 19.3248 1130.85 17.3108L1129.1 16.3531ZM1126.26 24.2036C1125.6 27.2333 1125.28 30.699 1125.28 34.592H1127.28C1127.28 30.805 1127.59 27.4867 1128.22 24.6284L1126.26 24.2036ZM1125.28 34.592C1125.28 39.5228 1125.81 43.772 1126.91 47.3187L1128.82 46.7293C1127.8 43.428 1127.28 39.3892 1127.28 34.592H1125.28ZM1126.91 47.3187C1127.99 50.8288 1129.43 53.7488 1131.26 56.0459L1132.82 54.8021C1131.19 52.7472 1129.85 50.0672 1128.82 46.7293L1126.91 47.3187ZM1131.27 56.0585C1133.1 58.2988 1135.17 59.9702 1137.47 61.0356L1138.31 59.2204C1136.33 58.3018 1134.49 56.8372 1132.81 54.7895L1131.27 56.0585ZM1137.47 61.0356C1139.74 62.0822 1142.02 62.616 1144.33 62.616V60.616C1142.34 60.616 1140.34 60.1578 1138.31 59.2204L1137.47 61.0356ZM1144.33 62.616C1146.57 62.616 1148.67 62.1906 1150.63 61.3318L1149.83 59.5002C1148.14 60.2414 1146.31 60.616 1144.33 60.616V62.616ZM1150.63 61.3318C1152.61 60.4628 1154.32 59.1275 1155.76 57.3483L1154.2 56.0917C1152.95 57.6405 1151.5 58.7692 1149.83 59.5002L1150.63 61.3318ZM1155.76 57.35C1157.24 55.5274 1158.35 53.2539 1159.11 50.5611L1157.19 50.0148C1156.48 52.5061 1155.48 54.5207 1154.21 56.09L1155.76 57.35ZM1159.11 50.5689C1159.91 47.829 1160.3 44.5935 1160.3 40.88H1158.3C1158.3 44.4625 1157.92 47.499 1157.19 50.0071L1159.11 50.5689ZM1159.3 39.88H1143.65V41.88H1159.3V39.88ZM1144.65 40.88V33.44H1142.65V40.88H1144.65ZM1143.65 34.44H1168.42V32.44H1143.65V34.44ZM1167.42 33.44V38.672H1169.42V33.44H1167.42ZM1167.42 38.672C1167.42 42.9929 1167 46.7784 1166.16 50.039L1168.09 50.537C1168.98 47.0776 1169.42 43.1191 1169.42 38.672H1167.42ZM1166.16 50.0367C1165.32 53.2827 1164.15 56.0271 1162.69 58.2878L1164.37 59.3762C1165.97 56.9009 1167.21 53.9493 1168.09 50.5393L1166.16 50.0367ZM1162.69 58.2878C1161.21 60.5672 1159.5 62.4294 1157.55 63.888L1158.75 65.488C1160.9 63.8746 1162.77 61.8328 1164.37 59.3762L1162.69 58.2878ZM1157.56 63.882C1155.6 65.3198 1153.5 66.3712 1151.24 67.0415L1151.81 68.9585C1154.29 68.2208 1156.6 67.0642 1158.74 65.494L1157.56 63.882ZM1151.24 67.0425C1149 67.7173 1146.66 68.056 1144.23 68.056V70.056C1146.85 70.056 1149.38 69.6907 1151.82 68.9575L1151.24 67.0425ZM1196.49 67.856L1196.19 68.8092L1196.2 68.8114L1196.2 68.8135L1196.49 67.856ZM1189.1 64.016L1188.49 64.812L1188.5 64.816L1189.1 64.016ZM1183.1 57.344L1182.26 57.8802L1183.1 57.344ZM1179.02 47.648L1178.05 47.8944L1178.05 47.9041L1179.02 47.648ZM1179.02 21.632L1178.05 21.3779L1178.05 21.3836L1179.02 21.632ZM1183.1 11.936L1183.94 12.4768L1183.94 12.4722L1183.1 11.936ZM1189.1 5.264L1188.5 4.46398L1188.49 4.46805L1189.1 5.264ZM1196.49 1.472L1196.78 2.42856L1196.79 2.42627L1196.49 1.472ZM1212.67 1.472L1212.37 2.42529L1212.38 2.42853L1212.67 1.472ZM1220.01 5.264L1219.41 6.05996L1219.41 6.064L1220.01 5.264ZM1226.01 11.936L1225.16 12.4651L1225.17 12.4768L1226.01 11.936ZM1230.09 21.632L1229.12 21.8861L1229.13 21.8881L1230.09 21.632ZM1230.09 47.648L1231.06 47.9041L1231.06 47.9021L1230.09 47.648ZM1226.01 57.344L1225.17 56.8077L1225.16 56.8149L1226.01 57.344ZM1220.01 64.016L1219.41 63.216L1219.41 63.2201L1220.01 64.016ZM1212.67 67.856L1212.96 68.8126L1212.97 68.8092L1212.67 67.856ZM1216.46 55.28L1215.67 54.6725L1215.66 54.68L1216.46 55.28ZM1220.4 46.928L1219.44 46.6497L1219.43 46.6557L1220.4 46.928ZM1220.4 22.352L1219.43 22.622L1219.44 22.6327L1220.4 22.352ZM1216.46 14L1215.66 14.6L1215.66 14.6066L1215.67 14.6131L1216.46 14ZM1210.94 9.2L1210.49 10.0944V10.0944L1210.94 9.2ZM1198.22 9.2L1197.78 8.30281L1197.77 8.30557L1198.22 9.2ZM1192.65 14L1191.86 13.3925L1191.86 13.3943L1192.65 14ZM1188.72 22.352L1187.76 22.0737L1187.75 22.0797L1188.72 22.352ZM1188.72 46.928L1187.75 47.198L1187.76 47.2087L1188.72 46.928ZM1192.65 55.28L1191.85 55.88L1191.86 55.8875L1192.65 55.28ZM1198.22 60.08L1197.77 60.9744L1197.78 60.9772L1198.22 60.08ZM1204.6 68.056C1201.95 68.056 1199.34 67.6705 1196.78 66.8985L1196.2 68.8135C1198.95 69.6415 1201.75 70.056 1204.6 70.056V68.056ZM1196.79 66.9028C1194.28 66.1063 1191.92 64.8797 1189.7 63.216L1188.5 64.816C1190.89 66.6083 1193.45 67.9417 1196.19 68.8092L1196.79 66.9028ZM1189.71 63.2201C1187.54 61.5724 1185.62 59.4405 1183.94 56.8078L1182.26 57.8802C1184.04 60.6875 1186.12 63.0036 1188.49 64.8119L1189.71 63.2201ZM1183.94 56.8078C1182.28 54.1897 1180.96 51.0561 1179.99 47.3919L1178.05 47.9041C1179.07 51.7279 1180.46 55.0583 1182.26 57.8802L1183.94 56.8078ZM1179.99 47.4016C1179.05 43.7241 1178.58 39.4577 1178.58 34.592H1176.58C1176.58 39.5823 1177.07 44.0199 1178.05 47.8944L1179.99 47.4016ZM1178.58 34.592C1178.58 29.7587 1179.05 25.525 1179.99 21.8804L1178.05 21.3836C1177.07 25.227 1176.58 29.6333 1176.58 34.592H1178.58ZM1179.99 21.8861C1180.96 18.19 1182.28 15.0593 1183.94 12.4768L1182.26 11.3952C1180.46 14.1887 1179.07 17.522 1178.05 21.3779L1179.99 21.8861ZM1183.94 12.4722C1185.62 9.83948 1187.54 7.70757 1189.71 6.05994L1188.49 4.46805C1186.12 6.27642 1184.04 8.59251 1182.26 11.3998L1183.94 12.4722ZM1189.7 6.064C1191.92 4.40218 1194.28 3.19299 1196.78 2.42853L1196.2 0.515465C1193.46 1.351 1190.89 2.66982 1188.5 4.464L1189.7 6.064ZM1196.79 2.42627C1199.35 1.62423 1201.95 1.224 1204.6 1.224V-0.776003C1201.75 -0.776003 1198.94 -0.344234 1196.19 0.517723L1196.79 2.42627ZM1204.6 1.224C1207.25 1.224 1209.84 1.62421 1212.37 2.42523L1212.97 0.518768C1210.25 -0.344219 1207.46 -0.776003 1204.6 -0.776003V1.224ZM1212.38 2.42853C1214.88 3.19261 1217.22 4.40068 1219.41 6.05994L1220.62 4.46805C1218.26 2.67132 1215.7 1.35139 1212.96 0.515465L1212.38 2.42853ZM1219.41 6.064C1221.61 7.70992 1223.53 9.83817 1225.16 12.4651L1226.86 11.4069C1225.11 8.59383 1223.03 6.27408 1220.61 4.464L1219.41 6.064ZM1225.17 12.4768C1226.83 15.0593 1228.15 18.19 1229.12 21.8861L1231.06 21.3779C1230.05 17.522 1228.65 14.1887 1226.85 11.3952L1225.17 12.4768ZM1229.13 21.8881C1230.09 25.53 1230.58 29.7608 1230.58 34.592H1232.58C1232.58 29.6312 1232.08 25.222 1231.06 21.3759L1229.13 21.8881ZM1230.58 34.592C1230.58 39.4555 1230.09 43.7192 1229.12 47.3939L1231.06 47.9021C1232.08 44.0248 1232.58 39.5845 1232.58 34.592H1230.58ZM1229.13 47.3919C1228.15 51.0561 1226.83 54.1897 1225.17 56.8078L1226.86 57.8802C1228.65 55.0583 1230.05 51.7279 1231.06 47.9041L1229.13 47.3919ZM1225.16 56.8149C1223.53 59.4418 1221.61 61.5701 1219.41 63.216L1220.61 64.816C1223.03 63.0059 1225.11 60.6862 1226.86 57.8731L1225.16 56.8149ZM1219.41 63.2201C1217.22 64.8812 1214.88 66.1067 1212.37 66.9028L1212.97 68.8092C1215.71 67.9413 1218.26 66.6068 1220.62 64.8119L1219.41 63.2201ZM1212.38 66.8995C1209.85 67.6706 1207.26 68.056 1204.6 68.056V70.056C1207.45 70.056 1210.24 69.6414 1212.96 68.8125L1212.38 66.8995ZM1204.6 62.616C1206.94 62.616 1209.21 62.0641 1211.39 60.9744L1210.49 59.1856C1208.58 60.1439 1206.62 60.616 1204.6 60.616V62.616ZM1211.39 60.9744C1213.6 59.8691 1215.55 58.157 1217.26 55.88L1215.66 54.68C1214.1 56.755 1212.38 58.2429 1210.49 59.1856L1211.39 60.9744ZM1217.25 55.8875C1219.01 53.5871 1220.37 50.6804 1221.36 47.2003L1219.43 46.6557C1218.5 49.9596 1217.23 52.6209 1215.67 54.6725L1217.25 55.8875ZM1221.36 47.2063C1222.38 43.6667 1222.88 39.4559 1222.88 34.592H1220.88C1220.88 39.3281 1220.39 43.3413 1219.44 46.6497L1221.36 47.2063ZM1222.88 34.592C1222.88 29.7598 1222.38 25.58 1221.36 22.0713L1219.44 22.6327C1220.39 25.908 1220.88 29.8882 1220.88 34.592H1222.88ZM1221.36 22.082C1220.37 18.5702 1219.01 15.6593 1217.25 13.3869L1215.67 14.6131C1217.23 16.6287 1218.5 19.2858 1219.43 22.622L1221.36 22.082ZM1217.26 13.4C1215.55 11.123 1213.6 9.41088 1211.39 8.30557L1210.49 10.0944C1212.38 11.0371 1214.1 12.525 1215.66 14.6L1217.26 13.4ZM1211.39 8.30557C1209.21 7.21587 1206.94 6.664 1204.6 6.664V8.664C1206.62 8.664 1208.58 9.13612 1210.49 10.0944L1211.39 8.30557ZM1204.6 6.664C1202.26 6.664 1199.99 7.21571 1197.78 8.30283L1198.66 10.0972C1200.61 9.13629 1202.59 8.664 1204.6 8.664V6.664ZM1197.77 8.30557C1195.56 9.40966 1193.6 11.1192 1191.86 13.3926L1193.45 14.6074C1195.04 12.5288 1196.78 11.0383 1198.67 10.0944L1197.77 8.30557ZM1191.86 13.3943C1190.13 15.6624 1188.77 18.5675 1187.76 22.0737L1189.68 22.6303C1190.64 19.2885 1191.91 16.6256 1193.45 14.6057L1191.86 13.3943ZM1187.75 22.0797C1186.76 25.5852 1186.28 29.762 1186.28 34.592H1188.28C1188.28 29.886 1188.75 25.9028 1189.68 22.6243L1187.75 22.0797ZM1186.28 34.592C1186.28 39.4537 1186.76 43.6615 1187.75 47.198L1189.68 46.658C1188.75 43.3465 1188.28 39.3303 1188.28 34.592H1186.28ZM1187.76 47.2087C1188.77 50.6831 1190.13 53.5841 1191.85 55.88L1193.45 54.68C1191.91 52.6239 1190.64 49.9569 1189.68 46.6473L1187.76 47.2087ZM1191.86 55.8875C1193.6 58.1608 1195.56 59.8703 1197.77 60.9744L1198.67 59.1856C1196.78 58.2417 1195.04 56.7512 1193.45 54.6725L1191.86 55.8875ZM1197.78 60.9772C1199.99 62.0643 1202.26 62.616 1204.6 62.616V60.616C1202.59 60.616 1200.61 60.1437 1198.66 59.1828L1197.78 60.9772ZM1256.29 67.376L1256.61 66.4273L1256.29 67.376ZM1247.65 62.528L1246.98 63.2743L1246.99 63.2787L1247.65 62.528ZM1242.51 54.944L1242.11 54.0269L1241.26 54.4001L1241.57 55.2816L1242.51 54.944ZM1251.68 50.96L1252.62 50.6089L1252.25 49.6234L1251.28 50.0429L1251.68 50.96ZM1255.14 56.432L1254.42 57.1246L1254.42 57.1318L1255.14 56.432ZM1260.66 60.128L1261.04 59.2053L1260.66 60.128ZM1275.11 60.128L1275.51 61.0442L1275.51 61.0412L1275.11 60.128ZM1279.91 56.24L1280.74 56.7984L1279.91 56.24ZM1280.15 45.536L1279.31 46.0863L1279.32 46.0973L1279.33 46.1082L1280.15 45.536ZM1276.31 41.888L1275.76 42.7276L1275.77 42.7351L1276.31 41.888ZM1270.83 39.2L1270.47 40.1326L1270.48 40.136L1270.49 40.1394L1270.83 39.2ZM1264.74 37.28L1264.49 38.2477L1264.5 38.251L1264.74 37.28ZM1256.63 34.496L1256.22 35.4088L1256.22 35.4108L1256.63 34.496ZM1250.24 30.56L1249.58 31.3126L1249.59 31.3188L1249.6 31.3249L1250.24 30.56ZM1246.07 24.992L1245.15 25.4007L1245.16 25.4119L1246.07 24.992ZM1245.92 11.216L1245.01 10.794L1245.92 11.216ZM1249.47 6.368L1248.81 5.62312L1248.8 5.63019L1249.47 6.368ZM1254.71 2.96L1255.12 3.86885L1255.13 3.86581L1254.71 2.96ZM1261.09 0.895994L1260.9 -0.0851154V-0.0851135L1261.09 0.895994ZM1278.08 1.856L1277.75 2.79975L1277.76 2.80271L1278.08 1.856ZM1285.95 6.272L1285.29 7.02252L1285.3 7.02806L1285.95 6.272ZM1290.37 12.608L1290.78 13.5202L1291.61 13.1481L1291.32 12.2879L1290.37 12.608ZM1281.39 16.64L1280.45 16.9753L1280.81 17.9962L1281.8 17.5522L1281.39 16.64ZM1278.42 11.84L1277.7 12.5384L1277.71 12.5471L1278.42 11.84ZM1273.71 8.86399L1273.35 9.79692L1273.36 9.80069L1273.37 9.80426L1273.71 8.86399ZM1262.72 8.432L1262.96 9.40214L1262.97 9.4004L1262.98 9.39856L1262.72 8.432ZM1258.55 10.208L1259.08 11.0535L1259.09 11.0499L1258.55 10.208ZM1255.62 13.136L1254.77 12.6081L1254.76 12.6145L1255.62 13.136ZM1261.23 26.72L1260.78 27.6117L1260.79 27.6158L1260.8 27.6198L1261.23 26.72ZM1268.53 29.312L1268.79 28.3462L1268.78 28.3432L1268.53 29.312ZM1275.01 31.328L1274.68 32.271L1274.68 32.2739L1274.69 32.2767L1275.01 31.328ZM1281.25 34.016L1280.77 34.8956L1280.78 34.8987L1281.25 34.016ZM1286.53 37.808L1285.84 38.53L1285.85 38.5373L1285.85 38.5445L1286.53 37.808ZM1290.23 42.896L1289.32 43.3132L1289.32 43.3189L1290.23 42.896ZM1290.23 56.72L1289.3 56.3294L1289.3 56.3414L1290.23 56.72ZM1286.63 62.24L1287.33 62.9471L1287.34 62.9398L1286.63 62.24ZM1281.25 66.08L1281.69 66.98L1281.7 66.9744L1281.25 66.08ZM1274.58 68.288L1274.38 67.3074L1274.37 67.3089L1274.37 67.3106L1274.58 68.288ZM1267.28 68.056C1263.41 68.056 1259.85 67.5095 1256.61 66.4273L1255.97 68.3247C1259.45 69.4825 1263.22 70.056 1267.28 70.056V68.056ZM1256.61 66.4273C1253.36 65.345 1250.6 63.7918 1248.31 61.7773L1246.99 63.2787C1249.5 65.4882 1252.5 67.167 1255.97 68.3247L1256.61 66.4273ZM1248.32 61.7817C1246.07 59.7791 1244.45 57.3909 1243.45 54.6064L1241.57 55.2816C1242.69 58.3851 1244.49 61.0529 1246.98 63.2743L1248.32 61.7817ZM1242.91 55.8611L1252.08 51.8771L1251.28 50.0429L1242.11 54.0269L1242.91 55.8611ZM1250.75 51.3111C1251.56 53.4882 1252.79 55.4279 1254.42 57.1245L1255.86 55.7395C1254.42 54.2361 1253.34 52.5278 1252.62 50.6089L1250.75 51.3111ZM1254.42 57.1318C1256.06 58.8008 1258.01 60.1062 1260.27 61.0507L1261.04 59.2053C1259.02 58.3578 1257.29 57.1992 1255.85 55.7322L1254.42 57.1318ZM1260.27 61.0507C1262.55 62.0045 1265.09 62.472 1267.86 62.472V60.472C1265.32 60.472 1263.05 60.0435 1261.04 59.2053L1260.27 61.0507ZM1267.86 62.472C1270.75 62.472 1273.3 62.0072 1275.51 61.0442L1274.7 59.2118C1272.81 60.0407 1270.54 60.472 1267.86 60.472V62.472ZM1275.51 61.0412C1277.74 60.0475 1279.5 58.6382 1280.74 56.7984L1279.08 55.6816C1278.07 57.1698 1276.63 58.3525 1274.7 59.2148L1275.51 61.0412ZM1280.74 56.7984C1281.98 54.9435 1282.59 52.7414 1282.59 50.24H1280.59C1280.59 52.4106 1280.07 54.2085 1279.08 55.6816L1280.74 56.7984ZM1282.59 50.24C1282.59 48.286 1282.05 46.5162 1280.97 44.9638L1279.33 46.1082C1280.16 47.3078 1280.59 48.674 1280.59 50.24H1282.59ZM1280.98 44.9857C1279.96 43.4423 1278.57 42.1302 1276.84 41.0409L1275.77 42.7351C1277.3 43.6938 1278.47 44.8137 1279.31 46.0863L1280.98 44.9857ZM1276.85 41.0484C1275.15 39.9478 1273.26 39.0197 1271.18 38.2606L1270.49 40.1394C1272.44 40.8523 1274.2 41.7162 1275.76 42.7276L1276.85 41.0484ZM1271.19 38.2674C1269.17 37.4839 1267.1 36.8311 1264.98 36.309L1264.5 38.251C1266.54 38.7529 1268.53 39.3801 1270.47 40.1326L1271.19 38.2674ZM1264.99 36.3124C1262.09 35.5562 1259.44 34.645 1257.03 33.5812L1256.22 35.4108C1258.74 36.523 1261.5 37.4678 1264.49 38.2476L1264.99 36.3124ZM1257.03 33.5832C1254.68 32.5289 1252.63 31.2645 1250.89 29.7951L1249.6 31.3249C1251.5 32.9275 1253.71 34.2871 1256.22 35.4088L1257.03 33.5832ZM1250.9 29.8074C1249.21 28.3309 1247.91 26.5879 1246.97 24.5721L1245.16 25.4119C1246.21 27.6841 1247.69 29.6531 1249.58 31.3126L1250.9 29.8074ZM1246.98 24.5833C1246.09 22.5935 1245.63 20.2262 1245.63 17.456H1243.63C1243.63 20.4458 1244.12 23.1025 1245.15 25.4007L1246.98 24.5833ZM1245.63 17.456C1245.63 15.2794 1246.03 13.3462 1246.83 11.638L1245.01 10.794C1244.08 12.7978 1243.63 15.0246 1243.63 17.456H1245.63ZM1246.83 11.638C1247.64 9.90099 1248.74 8.39244 1250.15 7.1058L1248.8 5.63019C1247.2 7.09555 1245.93 8.81901 1245.01 10.794L1246.83 11.638ZM1250.14 7.11283C1251.6 5.80646 1253.26 4.72476 1255.12 3.86883L1254.29 2.05117C1252.25 2.98724 1250.42 4.17753 1248.81 5.62316L1250.14 7.11283ZM1255.13 3.86581C1257.04 2.97405 1259.09 2.31032 1261.28 1.8771L1260.9 -0.0851135C1258.55 0.37767 1256.34 1.08995 1254.28 2.05419L1255.13 3.86581ZM1261.28 1.8771C1263.49 1.4416 1265.71 1.224 1267.95 1.224V-0.776003C1265.58 -0.776003 1263.23 -0.545612 1260.9 -0.0851154L1261.28 1.8771ZM1267.95 1.224C1271.5 1.224 1274.76 1.7528 1277.75 2.79971L1278.41 0.912292C1275.19 -0.216806 1271.7 -0.776003 1267.95 -0.776003V1.224ZM1277.76 2.80271C1280.76 3.82248 1283.26 5.23349 1285.29 7.02249L1286.61 5.52151C1284.36 3.53451 1281.61 2.00151 1278.4 0.909286L1277.76 2.80271ZM1285.3 7.02806C1287.33 8.78342 1288.69 10.7506 1289.42 12.9281L1291.32 12.2879C1290.45 9.72935 1288.87 7.47257 1286.61 5.51594L1285.3 7.02806ZM1289.96 11.6958L1280.98 15.7278L1281.8 17.5522L1290.78 13.5202L1289.96 11.6958ZM1282.34 16.3047C1281.62 14.2882 1280.55 12.5581 1279.12 11.1329L1277.71 12.5471C1278.91 13.7459 1279.83 15.2158 1280.45 16.9753L1282.34 16.3047ZM1279.13 11.1417C1277.74 9.71361 1276.04 8.64303 1274.05 7.92373L1273.37 9.80426C1275.1 10.429 1276.53 11.3424 1277.7 12.5383L1279.13 11.1417ZM1274.07 7.93107C1272.12 7.17677 1269.96 6.808 1267.62 6.808V8.808C1269.75 8.808 1271.66 9.14322 1273.35 9.79692L1274.07 7.93107ZM1267.62 6.808C1265.84 6.808 1264.12 7.02625 1262.47 7.46544L1262.98 9.39856C1264.46 9.00574 1266 8.808 1267.62 8.808V6.808ZM1262.48 7.46185C1260.84 7.87039 1259.35 8.50364 1258.01 9.36612L1259.09 11.0499C1260.24 10.3123 1261.53 9.7616 1262.96 9.40214L1262.48 7.46185ZM1258.01 9.36251C1256.67 10.2086 1255.59 11.2916 1254.77 12.6081L1256.47 13.6639C1257.12 12.6124 1257.99 11.7434 1259.08 11.0535L1258.01 9.36251ZM1254.76 12.6145C1253.95 13.9475 1253.56 15.4942 1253.56 17.216H1255.56C1255.56 15.8018 1255.88 14.6285 1256.47 13.6575L1254.76 12.6145ZM1253.56 17.216C1253.56 19.6128 1254.21 21.7077 1255.55 23.4425L1257.13 22.2215C1256.1 20.8843 1255.56 19.2352 1255.56 17.216H1253.56ZM1255.55 23.4425C1256.84 25.1178 1258.59 26.5018 1260.78 27.6117L1261.69 25.8283C1259.71 24.8262 1258.21 23.6182 1257.13 22.2215L1255.55 23.4425ZM1260.8 27.6198C1262.98 28.6784 1265.48 29.5635 1268.28 30.2808L1268.78 28.3432C1266.08 27.6525 1263.71 26.8096 1261.67 25.8202L1260.8 27.6198ZM1268.27 30.2778C1270.39 30.8469 1272.52 31.5112 1274.68 32.271L1275.34 30.385C1273.14 29.6088 1270.96 28.9291 1268.79 28.3462L1268.27 30.2778ZM1274.69 32.2767C1276.85 32.9952 1278.88 33.8685 1280.77 34.8955L1281.73 33.1365C1279.72 32.0515 1277.59 31.1328 1275.33 30.3793L1274.69 32.2767ZM1280.78 34.8987C1282.69 35.914 1284.37 37.125 1285.84 38.53L1287.22 37.086C1285.62 35.547 1283.78 34.23 1281.72 33.1333L1280.78 34.8987ZM1285.85 38.5445C1287.32 39.8938 1288.48 41.4809 1289.32 43.3132L1291.13 42.4788C1290.18 40.4071 1288.87 38.6022 1287.21 37.0715L1285.85 38.5445ZM1289.32 43.3189C1290.14 45.0849 1290.57 47.1443 1290.57 49.52H1292.57C1292.57 46.9036 1292.1 44.5471 1291.13 42.4731L1289.32 43.3189ZM1290.57 49.52C1290.57 52.0965 1290.14 54.3603 1289.3 56.3295L1291.15 57.1105C1292.1 54.8557 1292.57 52.3195 1292.57 49.52H1290.57ZM1289.3 56.3414C1288.48 58.3385 1287.35 60.0683 1285.91 61.5402L1287.34 62.9398C1288.97 61.2757 1290.24 59.3255 1291.15 57.0986L1289.3 56.3414ZM1285.92 61.5329C1284.46 62.9889 1282.76 64.207 1280.8 65.1856L1281.7 66.9744C1283.84 65.905 1285.72 64.5631 1287.33 62.9471L1285.92 61.5329ZM1280.81 65.18C1278.85 66.1324 1276.7 66.8428 1274.38 67.3074L1274.77 69.2686C1277.25 68.7732 1279.56 68.0116 1281.69 66.98L1280.81 65.18ZM1274.37 67.3106C1272.07 67.8071 1269.71 68.056 1267.28 68.056V70.056C1269.85 70.056 1272.35 69.7929 1274.79 69.2654L1274.37 67.3106Z" fill="#FF0000" mask="url(#path-1-outside-1_82_66)"/>
<defs>
<filter id="filter0_i_82_66" x="0.39209" y="0.223999" width="1291.18" height="72.832" filterUnits="userSpaceOnUse" color-interpolation-filters="sRGB">
<feFlood flood-opacity="0" result="BackgroundImageFix"/>
<feBlend mode="normal" in="SourceGraphic" in2="BackgroundImageFix" result="shape"/>
<feColorMatrix in="SourceAlpha" type="matrix" values="0 0 0 0 0 0 0 0 0 0 0 0 0 0 0 0 0 0 127 0" result="hardAlpha"/>
<feOffset dy="4"/>
<feGaussianBlur stdDeviation="2"/>
<feComposite in2="hardAlpha" operator="arithmetic" k2="-1" k3="1"/>
<feColorMatrix type="matrix" values="0 0 0 0 0 0 0 0 0 0 0 0 0 0 0 0 0 0 0.25 0"/>
<feBlend mode="normal" in2="shape" result="effect1_innerShadow_82_66"/>
</filter>
</defs>
</svg>
