<svg width="800" height="70" viewBox="0 0 800 70" fill="none" xmlns="http://www.w3.org/2000/svg">
<mask id="path-1-outside-1_82_66" maskUnits="userSpaceOnUse" x="-1" y="-1" width="802" height="72" fill="black">
<rect fill="white" x="-1" y="-1" width="802" height="72"/>
<path d="M17.704 68L0.328 0.799995H10.12L25.24 60.704H25.624L40.696 0.799995H50.536L33.16 68H17.704ZM69.9655 68V60.704H83.8375V8.096H69.9655V0.799995H107.31V8.096H93.3415V60.704H107.31V68H69.9655ZM129.331 68V0.799995H146.851C149.123 0.799995 151.395 0.991997 153.667 1.376C155.939 1.728 158.147 2.368 160.291 3.296C162.435 4.224 164.419 5.504 166.243 7.136C168.099 8.768 169.715 10.816 171.091 13.28C172.499 15.744 173.587 18.72 174.355 22.208C175.155 25.664 175.555 29.728 175.555 34.4C175.555 39.04 175.155 43.104 174.355 46.592C173.587 50.08 172.499 53.056 171.091 55.52C169.715 57.984 168.099 60.032 166.243 61.664C164.419 63.296 162.435 64.576 160.291 65.504C158.147 66.432 155.939 67.088 153.667 67.472C151.395 67.824 149.123 68 146.851 68H129.331ZM138.835 60.704H146.131C148.851 60.704 151.379 60.288 153.715 59.456C156.083 58.624 158.179 57.216 160.003 55.232C161.827 53.248 163.235 50.56 164.227 47.168C165.251 43.776 165.763 39.52 165.763 34.4C165.763 29.28 165.251 25.024 164.227 21.632C163.235 18.24 161.827 15.552 160.003 13.568C158.179 11.584 156.083 10.176 153.715 9.344C151.379 8.512 148.851 8.096 146.131 8.096H138.835V60.704ZM193.497 68V0.799995H235.497V8.096H203.001V31.328H231.656V38.624H203.001V60.704H235.497V68H193.497ZM277.918 69.056C275.422 69.056 272.878 68.688 270.286 67.952C267.694 67.216 265.214 66.032 262.846 64.4C260.478 62.768 258.35 60.624 256.462 57.968C254.574 55.28 253.086 52.016 251.998 48.176C250.91 44.336 250.366 39.808 250.366 34.592C250.366 29.472 250.894 25.008 251.95 21.2C253.038 17.36 254.494 14.112 256.318 11.456C258.174 8.768 260.27 6.608 262.606 4.976C264.974 3.312 267.454 2.112 270.046 1.376C272.67 0.607998 275.262 0.223997 277.822 0.223997C280.798 0.223997 283.534 0.591997 286.03 1.328C288.558 2.064 290.782 3.088 292.702 4.4C294.654 5.68 296.27 7.2 297.55 8.96C298.83 10.688 299.726 12.56 300.238 14.576L291.358 18.272C291.038 16.896 290.51 15.584 289.774 14.336C289.038 13.056 288.094 11.92 286.942 10.928C285.79 9.936 284.43 9.152 282.862 8.576C281.326 7.968 279.582 7.664 277.63 7.664C275.902 7.664 274.19 7.984 272.494 8.62399C270.798 9.264 269.198 10.272 267.694 11.648C266.19 12.992 264.846 14.72 263.662 16.832C262.51 18.944 261.598 21.472 260.926 24.416C260.286 27.36 259.966 30.752 259.966 34.592C259.966 39.456 260.494 43.6 261.55 47.024C262.606 50.448 263.998 53.248 265.726 55.424C267.486 57.568 269.438 59.136 271.582 60.128C273.726 61.12 275.87 61.616 278.014 61.616C280.126 61.616 282.094 61.216 283.918 60.416C285.742 59.616 287.326 58.384 288.67 56.72C290.046 55.024 291.102 52.88 291.838 50.288C292.606 47.664 292.99 44.528 292.99 40.88H277.342V33.44H302.11V38.672C302.11 43.056 301.678 46.928 300.814 50.288C299.95 53.616 298.75 56.464 297.214 58.832C295.678 61.2 293.886 63.152 291.838 64.688C289.79 66.192 287.582 67.296 285.214 68C282.878 68.704 280.446 69.056 277.918 69.056ZM364.068 68H354.228L349.908 51.008H327.06L322.74 68H312.9L330.564 0.799995H346.404L364.068 68ZM337.86 8.096L328.596 43.712H348.372L339.108 8.096H337.86ZM408.505 61.616L411.289 48.272L425.449 0.799995H430.921L430.777 9.296L414.649 61.616H408.505ZM375.913 68L382.825 0.799995H391.657L385.705 68H375.913ZM406.057 61.616L389.929 9.296L389.881 0.799995H395.257L409.513 48.272L412.105 61.616H406.057ZM435.001 68L429.049 0.799995H437.881L444.793 68H435.001ZM462.372 68V0.799995H504.372V8.096H471.876V31.328H500.531V38.624H471.876V60.704H504.372V68H462.372ZM544.969 69.056C541.001 69.056 537.337 68.496 533.977 67.376C530.617 66.256 527.737 64.64 525.337 62.528C522.969 60.416 521.257 57.888 520.201 54.944L529.369 50.96C530.137 53.008 531.289 54.832 532.825 56.432C534.361 58 536.201 59.232 538.345 60.128C540.489 61.024 542.889 61.472 545.545 61.472C548.329 61.472 550.745 61.024 552.793 60.128C554.873 59.2 556.473 57.904 557.593 56.24C558.713 54.576 559.273 52.576 559.273 50.24C559.273 48.48 558.793 46.912 557.833 45.536C556.905 44.128 555.625 42.912 553.993 41.888C552.361 40.832 550.537 39.936 548.521 39.2C546.537 38.432 544.505 37.792 542.425 37.28C539.481 36.512 536.777 35.584 534.313 34.496C531.881 33.408 529.753 32.096 527.929 30.56C526.137 28.992 524.745 27.136 523.753 24.992C522.793 22.848 522.313 20.336 522.313 17.456C522.313 15.152 522.745 13.072 523.609 11.216C524.473 9.36 525.657 7.744 527.161 6.368C528.697 4.992 530.441 3.856 532.393 2.96C534.377 2.032 536.505 1.344 538.777 0.895994C541.049 0.447996 543.337 0.223997 545.641 0.223997C549.289 0.223997 552.665 0.767998 555.769 1.856C558.873 2.912 561.497 4.384 563.641 6.272C565.785 8.128 567.257 10.24 568.057 12.608L559.081 16.64C558.409 14.752 557.417 13.152 556.105 11.84C554.825 10.528 553.257 9.536 551.401 8.86399C549.577 8.16 547.545 7.808 545.305 7.808C543.609 7.808 541.977 8.016 540.409 8.432C538.873 8.816 537.481 9.408 536.233 10.208C535.017 10.976 534.041 11.952 533.305 13.136C532.601 14.288 532.249 15.648 532.249 17.216C532.249 19.424 532.841 21.296 534.025 22.832C535.209 24.368 536.841 25.664 538.921 26.72C541.033 27.744 543.465 28.608 546.217 29.312C548.361 29.888 550.521 30.56 552.697 31.328C554.905 32.064 556.985 32.96 558.937 34.016C560.921 35.072 562.681 36.336 564.217 37.808C565.785 39.248 567.017 40.944 567.913 42.896C568.809 44.816 569.257 47.024 569.257 49.52C569.257 52.208 568.809 54.608 567.913 56.72C567.049 58.832 565.849 60.672 564.313 62.24C562.777 63.776 560.985 65.056 558.937 66.08C556.889 67.072 554.665 67.808 552.265 68.288C549.897 68.8 547.465 69.056 544.969 69.056ZM637.455 68V0.799995H677.055V8.096H646.959V34.832H672.591V42.128H646.959V68H637.455ZM738.88 68H729.04L724.72 51.008H701.872L697.552 68H687.712L705.376 0.799995H721.216L738.88 68ZM712.672 8.096L703.408 43.712H723.184L713.92 8.096H712.672ZM751.878 68V0.799995H765.894L791.094 59.648H789.51V0.799995H799.014V68H786.726L760.95 9.344H761.382V68H751.878Z"/>
</mask>
<g filter="url(#filter0_i_82_66)">
<path d="M17.704 68L0.328 0.799995H10.12L25.24 60.704H25.624L40.696 0.799995H50.536L33.16 68H17.704ZM69.9655 68V60.704H83.8375V8.096H69.9655V0.799995H107.31V8.096H93.3415V60.704H107.31V68H69.9655ZM129.331 68V0.799995H146.851C149.123 0.799995 151.395 0.991997 153.667 1.376C155.939 1.728 158.147 2.368 160.291 3.296C162.435 4.224 164.419 5.504 166.243 7.136C168.099 8.768 169.715 10.816 171.091 13.28C172.499 15.744 173.587 18.72 174.355 22.208C175.155 25.664 175.555 29.728 175.555 34.4C175.555 39.04 175.155 43.104 174.355 46.592C173.587 50.08 172.499 53.056 171.091 55.52C169.715 57.984 168.099 60.032 166.243 61.664C164.419 63.296 162.435 64.576 160.291 65.504C158.147 66.432 155.939 67.088 153.667 67.472C151.395 67.824 149.123 68 146.851 68H129.331ZM138.835 60.704H146.131C148.851 60.704 151.379 60.288 153.715 59.456C156.083 58.624 158.179 57.216 160.003 55.232C161.827 53.248 163.235 50.56 164.227 47.168C165.251 43.776 165.763 39.52 165.763 34.4C165.763 29.28 165.251 25.024 164.227 21.632C163.235 18.24 161.827 15.552 160.003 13.568C158.179 11.584 156.083 10.176 153.715 9.344C151.379 8.512 148.851 8.096 146.131 8.096H138.835V60.704ZM193.497 68V0.799995H235.497V8.096H203.001V31.328H231.656V38.624H203.001V60.704H235.497V68H193.497ZM277.918 69.056C275.422 69.056 272.878 68.688 270.286 67.952C267.694 67.216 265.214 66.032 262.846 64.4C260.478 62.768 258.35 60.624 256.462 57.968C254.574 55.28 253.086 52.016 251.998 48.176C250.91 44.336 250.366 39.808 250.366 34.592C250.366 29.472 250.894 25.008 251.95 21.2C253.038 17.36 254.494 14.112 256.318 11.456C258.174 8.768 260.27 6.608 262.606 4.976C264.974 3.312 267.454 2.112 270.046 1.376C272.67 0.607998 275.262 0.223997 277.822 0.223997C280.798 0.223997 283.534 0.591997 286.03 1.328C288.558 2.064 290.782 3.088 292.702 4.4C294.654 5.68 296.27 7.2 297.55 8.96C298.83 10.688 299.726 12.56 300.238 14.576L291.358 18.272C291.038 16.896 290.51 15.584 289.774 14.336C289.038 13.056 288.094 11.92 286.942 10.928C285.79 9.936 284.43 9.152 282.862 8.576C281.326 7.968 279.582 7.664 277.63 7.664C275.902 7.664 274.19 7.984 272.494 8.62399C270.798 9.264 269.198 10.272 267.694 11.648C266.19 12.992 264.846 14.72 263.662 16.832C262.51 18.944 261.598 21.472 260.926 24.416C260.286 27.36 259.966 30.752 259.966 34.592C259.966 39.456 260.494 43.6 261.55 47.024C262.606 50.448 263.998 53.248 265.726 55.424C267.486 57.568 269.438 59.136 271.582 60.128C273.726 61.12 275.87 61.616 278.014 61.616C280.126 61.616 282.094 61.216 283.918 60.416C285.742 59.616 287.326 58.384 288.67 56.72C290.046 55.024 291.102 52.88 291.838 50.288C292.606 47.664 292.99 44.528 292.99 40.88H277.342V33.44H302.11V38.672C302.11 43.056 301.678 46.928 300.814 50.288C299.95 53.616 298.75 56.464 297.214 58.832C295.678 61.2 293.886 63.152 291.838 64.688C289.79 66.192 287.582 67.296 285.214 68C282.878 68.704 280.446 69.056 277.918 69.056ZM364.068 68H354.228L349.908 51.008H327.06L322.74 68H312.9L330.564 0.799995H346.404L364.068 68ZM337.86 8.096L328.596 43.712H348.372L339.108 8.096H337.86ZM408.505 61.616L411.289 48.272L425.449 0.799995H430.921L430.777 9.296L414.649 61.616H408.505ZM375.913 68L382.825 0.799995H391.657L385.705 68H375.913ZM406.057 61.616L389.929 9.296L389.881 0.799995H395.257L409.513 48.272L412.105 61.616H406.057ZM435.001 68L429.049 0.799995H437.881L444.793 68H435.001ZM462.372 68V0.799995H504.372V8.096H471.876V31.328H500.531V38.624H471.876V60.704H504.372V68H462.372ZM544.969 69.056C541.001 69.056 537.337 68.496 533.977 67.376C530.617 66.256 527.737 64.64 525.337 62.528C522.969 60.416 521.257 57.888 520.201 54.944L529.369 50.96C530.137 53.008 531.289 54.832 532.825 56.432C534.361 58 536.201 59.232 538.345 60.128C540.489 61.024 542.889 61.472 545.545 61.472C548.329 61.472 550.745 61.024 552.793 60.128C554.873 59.2 556.473 57.904 557.593 56.24C558.713 54.576 559.273 52.576 559.273 50.24C559.273 48.48 558.793 46.912 557.833 45.536C556.905 44.128 555.625 42.912 553.993 41.888C552.361 40.832 550.537 39.936 548.521 39.2C546.537 38.432 544.505 37.792 542.425 37.28C539.481 36.512 536.777 35.584 534.313 34.496C531.881 33.408 529.753 32.096 527.929 30.56C526.137 28.992 524.745 27.136 523.753 24.992C522.793 22.848 522.313 20.336 522.313 17.456C522.313 15.152 522.745 13.072 523.609 11.216C524.473 9.36 525.657 7.744 527.161 6.368C528.697 4.992 530.441 3.856 532.393 2.96C534.377 2.032 536.505 1.344 538.777 0.895994C541.049 0.447996 543.337 0.223997 545.641 0.223997C549.289 0.223997 552.665 0.767998 555.769 1.856C558.873 2.912 561.497 4.384 563.641 6.272C565.785 8.128 567.257 10.24 568.057 12.608L559.081 16.64C558.409 14.752 557.417 13.152 556.105 11.84C554.825 10.528 553.257 9.536 551.401 8.86399C549.577 8.16 547.545 7.808 545.305 7.808C543.609 7.808 541.977 8.016 540.409 8.432C538.873 8.816 537.481 9.408 536.233 10.208C535.017 10.976 534.041 11.952 533.305 13.136C532.601 14.288 532.249 15.648 532.249 17.216C532.249 19.424 532.841 21.296 534.025 22.832C535.209 24.368 536.841 25.664 538.921 26.72C541.033 27.744 543.465 28.608 546.217 29.312C548.361 29.888 550.521 30.56 552.697 31.328C554.905 32.064 556.985 32.96 558.937 34.016C560.921 35.072 562.681 36.336 564.217 37.808C565.785 39.248 567.017 40.944 567.913 42.896C568.809 44.816 569.257 47.024 569.257 49.52C569.257 52.208 568.809 54.608 567.913 56.72C567.049 58.832 565.849 60.672 564.313 62.24C562.777 63.776 560.985 65.056 558.937 66.08C556.889 67.072 554.665 67.808 552.265 68.288C549.897 68.8 547.465 69.056 544.969 69.056ZM637.455 68V0.799995H677.055V8.096H646.959V34.832H672.591V42.128H646.959V68H637.455ZM738.88 68H729.04L724.72 51.008H701.872L697.552 68H687.712L705.376 0.799995H721.216L738.88 68ZM712.672 8.096L703.408 43.712H723.184L713.92 8.096H712.672ZM751.878 68V0.799995H765.894L791.094 59.648H789.51V0.799995H799.014V68H786.726L760.95 9.344H761.382V68H751.878Z" fill="white"/>
</g>
<path d="M17.704 68L16.7358 68.2503L16.9297 69H17.704V68ZM0.328 0.799995V-0.200005H-0.96346L-0.640158 1.05033L0.328 0.799995ZM10.12 0.799995L11.0896 0.555267L10.899 -0.200005H10.12V0.799995ZM25.24 60.704L24.2704 60.9487L24.461 61.704H25.24V60.704ZM25.624 60.704V61.704H26.4036L26.5938 60.948L25.624 60.704ZM40.696 0.799995V-0.200005H39.9164L39.7262 0.555997L40.696 0.799995ZM50.536 0.799995L51.5042 1.05033L51.8275 -0.200005H50.536V0.799995ZM33.16 68V69H33.9343L34.1282 68.2503L33.16 68ZM18.6722 67.7497L1.29616 0.549657L-0.640158 1.05033L16.7358 68.2503L18.6722 67.7497ZM0.328 1.8H10.12V-0.200005H0.328V1.8ZM9.15041 1.04472L24.2704 60.9487L26.2096 60.4593L11.0896 0.555267L9.15041 1.04472ZM25.24 61.704H25.624V59.704H25.24V61.704ZM26.5938 60.948L41.6658 1.04399L39.7262 0.555997L24.6542 60.46L26.5938 60.948ZM40.696 1.8H50.536V-0.200005H40.696V1.8ZM49.5678 0.549657L32.1918 67.7497L34.1282 68.2503L51.5042 1.05033L49.5678 0.549657ZM33.16 67H17.704V69H33.16V67ZM69.9655 68H68.9655V69H69.9655V68ZM69.9655 60.704V59.704H68.9655V60.704H69.9655ZM83.8375 60.704V61.704H84.8375V60.704H83.8375ZM83.8375 8.096H84.8375V7.096H83.8375V8.096ZM69.9655 8.096H68.9655V9.096H69.9655V8.096ZM69.9655 0.799995V-0.200005H68.9655V0.799995H69.9655ZM107.31 0.799995H108.31V-0.200005H107.31V0.799995ZM107.31 8.096V9.096H108.31V8.096H107.31ZM93.3415 8.096V7.096H92.3415V8.096H93.3415ZM93.3415 60.704H92.3415V61.704H93.3415V60.704ZM107.31 60.704H108.31V59.704H107.31V60.704ZM107.31 68V69H108.31V68H107.31ZM70.9655 68V60.704H68.9655V68H70.9655ZM69.9655 61.704H83.8375V59.704H69.9655V61.704ZM84.8375 60.704V8.096H82.8375V60.704H84.8375ZM83.8375 7.096H69.9655V9.096H83.8375V7.096ZM70.9655 8.096V0.799995H68.9655V8.096H70.9655ZM69.9655 1.8H107.31V-0.200005H69.9655V1.8ZM106.31 0.799995V8.096H108.31V0.799995H106.31ZM107.31 7.096H93.3415V9.096H107.31V7.096ZM92.3415 8.096V60.704H94.3415V8.096H92.3415ZM93.3415 61.704H107.31V59.704H93.3415V61.704ZM106.31 60.704V68H108.31V60.704H106.31ZM107.31 67H69.9655V69H107.31V67ZM129.331 68H128.331V69H129.331V68ZM129.331 0.799995V-0.200005H128.331V0.799995H129.331ZM153.667 1.376L153.5 2.36211L153.514 2.36421L153.667 1.376ZM160.291 3.296L160.688 2.37828L160.688 2.37828L160.291 3.296ZM166.243 7.136L165.576 7.88127L165.583 7.88697L166.243 7.136ZM171.091 13.28L170.218 13.7676L170.223 13.7761L171.091 13.28ZM174.355 22.208L173.378 22.423L173.381 22.4335L174.355 22.208ZM174.355 46.592L173.38 46.3684L173.378 46.377L174.355 46.592ZM171.091 55.52L170.223 55.0238L170.218 55.0324L171.091 55.52ZM166.243 61.664L165.583 60.913L165.576 60.9188L166.243 61.664ZM160.291 65.504L160.688 66.4217L160.688 66.4217L160.291 65.504ZM153.667 67.472L153.82 68.4603L153.834 68.458L153.667 67.472ZM138.835 60.704H137.835V61.704H138.835V60.704ZM153.715 59.456L153.384 58.5125L153.379 58.514L153.715 59.456ZM160.003 55.232L159.267 54.5552L159.267 54.5552L160.003 55.232ZM164.227 47.168L163.27 46.879L163.267 46.8873L164.227 47.168ZM164.227 21.632L163.267 21.9127L163.27 21.921L164.227 21.632ZM160.003 13.568L159.267 14.2448L159.267 14.2448L160.003 13.568ZM153.715 9.344L153.379 10.286L153.384 10.2875L153.715 9.344ZM138.835 8.096V7.096H137.835V8.096H138.835ZM130.331 68V0.799995H128.331V68H130.331ZM129.331 1.8H146.851V-0.200005H129.331V1.8ZM146.851 1.8C149.066 1.8 151.283 1.98719 153.5 2.36202L153.834 0.389984C151.507 -0.00319327 149.18 -0.200005 146.851 -0.200005V1.8ZM153.514 2.36421C155.701 2.70298 157.827 3.31895 159.894 4.21372L160.688 2.37828C158.467 1.41704 156.178 0.753017 153.82 0.387789L153.514 2.36421ZM159.894 4.21372C161.935 5.09707 163.828 6.3174 165.576 7.88124L166.91 6.39076C165.01 4.6906 162.935 3.35093 160.688 2.37828L159.894 4.21372ZM165.583 7.88697C167.342 9.43407 168.89 11.3889 170.218 13.7676L171.964 12.7924C170.54 10.2431 168.856 8.10193 166.903 6.38503L165.583 7.88697ZM170.223 13.7761C171.57 16.1332 172.627 19.0094 173.378 22.423L175.332 21.993C174.547 18.4306 173.428 15.3548 171.959 12.7839L170.223 13.7761ZM173.381 22.4335C174.159 25.7965 174.555 29.7815 174.555 34.4H176.555C176.555 29.6745 176.151 25.5315 175.329 21.9825L173.381 22.4335ZM174.555 34.4C174.555 38.9857 174.159 42.9717 173.38 46.3684L175.33 46.8156C176.151 43.2363 176.555 39.0943 176.555 34.4H174.555ZM173.378 46.377C172.627 49.7906 171.57 52.6668 170.223 55.0239L171.959 56.0161C173.428 53.4452 174.547 50.3694 175.332 46.807L173.378 46.377ZM170.218 55.0324C168.89 57.4111 167.342 59.3659 165.583 60.913L166.903 62.415C168.856 60.6981 170.54 58.5569 171.964 56.0076L170.218 55.0324ZM165.576 60.9188C163.828 62.4826 161.935 63.7029 159.894 64.5863L160.688 66.4217C162.935 65.4491 165.01 64.1094 166.91 62.4092L165.576 60.9188ZM159.894 64.5863C157.823 65.4828 155.692 66.1156 153.5 66.486L153.834 68.458C156.186 68.0604 158.471 67.3812 160.688 66.4217L159.894 64.5863ZM153.514 66.4838C151.292 66.828 149.071 67 146.851 67V69C149.175 69 151.498 68.82 153.82 68.4602L153.514 66.4838ZM146.851 67H129.331V69H146.851V67ZM138.835 61.704H146.131V59.704H138.835V61.704ZM146.131 61.704C148.954 61.704 151.597 61.2719 154.051 60.398L153.379 58.514C151.161 59.3041 148.748 59.704 146.131 59.704V61.704ZM154.046 60.3995C156.581 59.5091 158.813 58.0044 160.739 55.9088L159.267 54.5552C157.545 56.4276 155.585 57.7389 153.384 58.5125L154.046 60.3995ZM160.739 55.9088C162.694 53.7821 164.165 50.9441 165.187 47.4487L163.267 46.8873C162.305 50.1759 160.96 52.7139 159.267 54.5552L160.739 55.9088ZM165.184 47.457C166.246 43.9398 166.763 39.5784 166.763 34.4H164.763C164.763 39.4616 164.256 43.6122 163.27 46.879L165.184 47.457ZM166.763 34.4C166.763 29.2216 166.246 24.8602 165.184 21.343L163.27 21.921C164.256 25.1878 164.763 29.3384 164.763 34.4H166.763ZM165.187 21.3513C164.165 17.8559 162.694 15.0179 160.739 12.8912L159.267 14.2448C160.96 16.0861 162.305 18.624 163.267 21.9127L165.187 21.3513ZM160.739 12.8912C158.813 10.7956 156.581 9.29087 154.046 8.40054L153.384 10.2875C155.585 11.0611 157.545 12.3724 159.267 14.2448L160.739 12.8912ZM154.051 8.40197C151.597 7.52807 148.954 7.096 146.131 7.096V9.096C148.748 9.096 151.161 9.49593 153.379 10.286L154.051 8.40197ZM146.131 7.096H138.835V9.096H146.131V7.096ZM137.835 8.096V60.704H139.835V8.096H137.835ZM193.497 68H192.497V69H193.497V68ZM193.497 0.799995V-0.200005H192.497V0.799995H193.497ZM235.497 0.799995H236.497V-0.200005H235.497V0.799995ZM235.497 8.096V9.096H236.497V8.096H235.497ZM203.001 8.096V7.096H202.001V8.096H203.001ZM203.001 31.328H202.001V32.328H203.001V31.328ZM231.656 31.328H232.656V30.328H231.656V31.328ZM231.656 38.624V39.624H232.656V38.624H231.656ZM203.001 38.624V37.624H202.001V38.624H203.001ZM203.001 60.704H202.001V61.704H203.001V60.704ZM235.497 60.704H236.497V59.704H235.497V60.704ZM235.497 68V69H236.497V68H235.497ZM194.497 68V0.799995H192.497V68H194.497ZM193.497 1.8H235.497V-0.200005H193.497V1.8ZM234.497 0.799995V8.096H236.497V0.799995H234.497ZM235.497 7.096H203.001V9.096H235.497V7.096ZM202.001 8.096V31.328H204.001V8.096H202.001ZM203.001 32.328H231.656V30.328H203.001V32.328ZM230.656 31.328V38.624H232.656V31.328H230.656ZM231.656 37.624H203.001V39.624H231.656V37.624ZM202.001 38.624V60.704H204.001V38.624H202.001ZM203.001 61.704H235.497V59.704H203.001V61.704ZM234.497 60.704V68H236.497V60.704H234.497ZM235.497 67H193.497V69H235.497V67ZM270.286 67.952L270.013 68.914L270.013 68.914L270.286 67.952ZM262.846 64.4L262.279 65.2234L262.279 65.2234L262.846 64.4ZM256.462 57.968L255.644 58.5428L255.647 58.5474L256.462 57.968ZM251.998 48.176L251.036 48.4486L251.998 48.176ZM251.95 21.2L250.988 20.9274L250.986 20.9328L251.95 21.2ZM256.318 11.456L255.495 10.8878L255.494 10.8899L256.318 11.456ZM262.606 4.976L263.179 5.79576L263.181 5.79419L262.606 4.976ZM270.046 1.376L270.319 2.338L270.327 2.33574L270.046 1.376ZM286.03 1.328L285.747 2.28717L285.75 2.28813L286.03 1.328ZM292.702 4.4L292.138 5.22564L292.146 5.23102L292.154 5.23624L292.702 4.4ZM297.55 8.96L296.741 9.54819L296.746 9.55523L297.55 8.96ZM300.238 14.576L300.622 15.4992L301.42 15.1672L301.207 14.3298L300.238 14.576ZM291.358 18.272L290.384 18.4985L290.652 19.6492L291.742 19.1952L291.358 18.272ZM289.774 14.336L288.907 14.8345L288.913 14.844L289.774 14.336ZM286.942 10.928L286.289 11.6858L286.289 11.6858L286.942 10.928ZM282.862 8.576L282.494 9.5058L282.506 9.51038L282.517 9.51467L282.862 8.576ZM272.494 8.62399L272.141 7.68839L272.141 7.68839L272.494 8.62399ZM267.694 11.648L268.36 12.3937L268.369 12.3858L267.694 11.648ZM263.662 16.832L262.79 16.343L262.784 16.3531L263.662 16.832ZM260.926 24.416L259.951 24.1934L259.949 24.2036L260.926 24.416ZM261.55 47.024L262.506 46.7293L262.506 46.7293L261.55 47.024ZM265.726 55.424L264.943 56.0459L264.948 56.0522L264.953 56.0585L265.726 55.424ZM271.582 60.128L271.162 61.0356L271.162 61.0356L271.582 60.128ZM288.67 56.72L287.893 56.09L287.892 56.0917L288.67 56.72ZM291.838 50.288L290.878 50.0071L290.876 50.0148L291.838 50.288ZM292.99 40.88H293.99V39.88H292.99V40.88ZM277.342 40.88H276.342V41.88H277.342V40.88ZM277.342 33.44V32.44H276.342V33.44H277.342ZM302.11 33.44H303.11V32.44H302.11V33.44ZM300.814 50.288L301.782 50.5393L301.782 50.537L300.814 50.288ZM297.214 58.832L296.375 58.2878L296.375 58.2878L297.214 58.832ZM291.838 64.688L292.43 65.494L292.438 65.488L291.838 64.688ZM285.214 68L284.929 67.0415L284.925 67.0425L285.214 68ZM277.918 68.056C275.521 68.056 273.069 67.7028 270.559 66.99L270.013 68.914C272.687 69.6732 275.323 70.056 277.918 70.056V68.056ZM270.559 66.99C268.079 66.2858 265.698 65.1508 263.413 63.5766L262.279 65.2234C264.73 66.9132 267.309 68.1462 270.013 68.914L270.559 66.99ZM263.413 63.5766C261.154 62.0191 259.106 59.962 257.277 57.3886L255.647 58.5474C257.594 61.286 259.802 63.5169 262.279 65.2234L263.413 63.5766ZM257.28 57.3932C255.469 54.8145 254.024 51.6578 252.96 47.9034L251.036 48.4486C252.148 52.3742 253.679 55.7455 255.644 58.5428L257.28 57.3932ZM252.96 47.9034C251.904 44.1744 251.366 39.7423 251.366 34.592H249.366C249.366 39.8736 249.916 44.4976 251.036 48.4486L252.96 47.9034ZM251.366 34.592C251.366 29.5372 251.888 25.1669 252.914 21.4672L250.986 20.9328C249.9 24.8491 249.366 29.4068 249.366 34.592H251.366ZM252.912 21.4726C253.977 17.7133 255.393 14.5699 257.142 12.0221L255.494 10.8899C253.595 13.654 252.099 17.0067 250.988 20.9274L252.912 21.4726ZM257.141 12.0242C258.939 9.42012 260.954 7.35027 263.179 5.79576L262.033 4.15624C259.586 5.86572 257.409 8.11587 255.495 10.8878L257.141 12.0242ZM263.181 5.79419C265.464 4.18992 267.843 3.04112 270.319 2.33797L269.773 0.414029C267.065 1.18288 264.484 2.43408 262.031 4.1578L263.181 5.79419ZM270.327 2.33574C272.866 1.59263 275.363 1.224 277.822 1.224V-0.776003C275.161 -0.776003 272.474 -0.376632 269.765 0.416262L270.327 2.33574ZM277.822 1.224C280.716 1.224 283.355 1.58181 285.747 2.28717L286.313 0.368828C283.713 -0.397814 280.88 -0.776003 277.822 -0.776003V1.224ZM285.75 2.28813C288.19 2.99846 290.316 3.98052 292.138 5.22564L293.266 3.57435C291.248 2.19548 288.926 1.12953 286.31 0.367861L285.75 2.28813ZM292.154 5.23624C294.012 6.45481 295.537 7.89281 296.741 9.54817L298.359 8.37183C297.003 6.50718 295.296 4.90519 293.25 3.56375L292.154 5.23624ZM296.746 9.55523C297.952 11.1824 298.79 12.9365 299.269 14.8222L301.207 14.3298C300.662 12.1835 299.708 10.1936 298.354 8.36477L296.746 9.55523ZM299.854 13.6528L290.974 17.3488L291.742 19.1952L300.622 15.4992L299.854 13.6528ZM292.332 18.0455C291.988 16.568 291.422 15.1613 290.635 13.828L288.913 14.844C289.598 16.0067 290.088 17.224 290.384 18.4985L292.332 18.0455ZM290.641 13.8375C289.847 12.4567 288.83 11.2337 287.595 10.1702L286.289 11.6858C287.358 12.6063 288.229 13.6553 288.907 14.8345L290.641 13.8375ZM287.595 10.1702C286.343 9.09259 284.876 8.2506 283.207 7.63733L282.517 9.51467C283.984 10.0534 285.237 10.7794 286.289 11.6858L287.595 10.1702ZM283.23 7.64619C281.558 6.98421 279.686 6.664 277.63 6.664V8.664C279.478 8.664 281.094 8.95178 282.494 9.5058L283.23 7.64619ZM277.63 6.664C275.776 6.664 273.944 7.00793 272.141 7.68839L272.847 9.5596C274.436 8.96006 276.028 8.664 277.63 8.664V6.664ZM272.141 7.68839C270.312 8.37852 268.605 9.45904 267.019 10.9102L268.369 12.3858C269.791 11.085 271.284 10.1495 272.847 9.5596L272.141 7.68839ZM267.028 10.9023C265.427 12.333 264.017 14.1534 262.79 16.343L264.534 17.321C265.675 15.2866 266.953 13.651 268.36 12.3937L267.028 10.9023ZM262.784 16.3531C261.579 18.5632 260.639 21.1817 259.951 24.1935L261.901 24.6385C262.557 21.7623 263.441 19.3248 264.54 17.3108L262.784 16.3531ZM259.949 24.2036C259.29 27.2333 258.966 30.699 258.966 34.592H260.966C260.966 30.805 261.282 27.4867 261.903 24.6284L259.949 24.2036ZM258.966 34.592C258.966 39.5228 259.501 43.772 260.594 47.3187L262.506 46.7293C261.487 43.428 260.966 39.3892 260.966 34.592H258.966ZM260.594 47.3187C261.677 50.8288 263.119 53.7488 264.943 56.0459L266.509 54.8021C264.877 52.7472 263.535 50.0672 262.506 46.7293L260.594 47.3187ZM264.953 56.0585C266.792 58.2988 268.859 59.9702 271.162 61.0356L272.002 59.2204C270.017 58.3018 268.18 56.8372 266.499 54.7895L264.953 56.0585ZM271.162 61.0356C273.424 62.0822 275.711 62.616 278.014 62.616V60.616C276.029 60.616 274.028 60.1578 272.002 59.2204L271.162 61.0356ZM278.014 62.616C280.256 62.616 282.361 62.1906 284.32 61.3318L283.516 59.5002C281.827 60.2414 279.996 60.616 278.014 60.616V62.616ZM284.32 61.3318C286.301 60.4628 288.011 59.1275 289.448 57.3483L287.892 56.0917C286.641 57.6405 285.183 58.7692 283.516 59.5002L284.32 61.3318ZM289.447 57.35C290.925 55.5273 292.035 53.2539 292.8 50.5612L290.876 50.0148C290.169 52.5061 289.167 54.5206 287.893 56.09L289.447 57.35ZM292.798 50.5689C293.6 47.829 293.99 44.5934 293.99 40.88H291.99C291.99 44.4625 291.612 47.499 290.878 50.0071L292.798 50.5689ZM292.99 39.88H277.342V41.88H292.99V39.88ZM278.342 40.88V33.44H276.342V40.88H278.342ZM277.342 34.44H302.11V32.44H277.342V34.44ZM301.11 33.44V38.672H303.11V33.44H301.11ZM301.11 38.672C301.11 42.9929 300.684 46.7784 299.846 50.039L301.782 50.537C302.672 47.0776 303.11 43.1191 303.11 38.672H301.11ZM299.846 50.0367C299.003 53.2827 297.841 56.0271 296.375 58.2878L298.053 59.3762C299.659 56.9009 300.897 53.9493 301.782 50.5393L299.846 50.0367ZM296.375 58.2878C294.896 60.5672 293.183 62.4294 291.238 63.888L292.438 65.488C294.589 63.8746 296.46 61.8328 298.053 59.3762L296.375 58.2878ZM291.246 63.882C289.288 65.3198 287.184 66.3712 284.929 67.0415L285.499 68.9585C287.98 68.2208 290.292 67.0642 292.43 65.494L291.246 63.882ZM284.925 67.0425C282.686 67.7173 280.352 68.056 277.918 68.056V70.056C280.54 70.056 283.07 69.6907 285.503 68.9575L284.925 67.0425ZM364.068 68V69H365.364L365.035 67.7458L364.068 68ZM354.228 68L353.258 68.2464L353.45 69H354.228V68ZM349.908 51.008L350.877 50.7616L350.685 50.008H349.908V51.008ZM327.06 51.008V50.008H326.282L326.09 50.7616L327.06 51.008ZM322.74 68V69H323.517L323.709 68.2464L322.74 68ZM312.9 68L311.932 67.7458L311.603 69H312.9V68ZM330.564 0.799995V-0.200005H329.792L329.596 0.545774L330.564 0.799995ZM346.404 0.799995L347.371 0.545774L347.175 -0.200005H346.404V0.799995ZM337.86 8.096V7.096H337.086L336.892 7.84427L337.86 8.096ZM328.596 43.712L327.628 43.4603L327.302 44.712H328.596V43.712ZM348.372 43.712V44.712H349.665L349.339 43.4603L348.372 43.712ZM339.108 8.096L340.075 7.84427L339.881 7.096H339.108V8.096ZM364.068 67H354.228V69H364.068V67ZM355.197 67.7536L350.877 50.7616L348.938 51.2544L353.258 68.2464L355.197 67.7536ZM349.908 50.008H327.06V52.008H349.908V50.008ZM326.09 50.7616L321.77 67.7536L323.709 68.2464L328.029 51.2544L326.09 50.7616ZM322.74 67H312.9V69H322.74V67ZM313.867 68.2542L331.531 1.05422L329.596 0.545774L311.932 67.7458L313.867 68.2542ZM330.564 1.8H346.404V-0.200005H330.564V1.8ZM345.436 1.05422L363.1 68.2542L365.035 67.7458L347.371 0.545774L345.436 1.05422ZM336.892 7.84427L327.628 43.4603L329.563 43.9637L338.827 8.34773L336.892 7.84427ZM328.596 44.712H348.372V42.712H328.596V44.712ZM349.339 43.4603L340.075 7.84427L338.14 8.34773L347.404 43.9637L349.339 43.4603ZM339.108 7.096H337.86V9.096H339.108V7.096ZM408.505 61.616L407.526 61.4118L407.275 62.616H408.505V61.616ZM411.289 48.272L410.331 47.9862L410.319 48.0265L410.31 48.0678L411.289 48.272ZM425.449 0.799995V-0.200005H424.704L424.491 0.514159L425.449 0.799995ZM430.921 0.799995L431.921 0.816942L431.938 -0.200005H430.921V0.799995ZM430.777 9.296L431.733 9.59058L431.774 9.4549L431.777 9.31294L430.777 9.296ZM414.649 61.616V62.616H415.387L415.605 61.9106L414.649 61.616ZM375.913 68L374.918 67.8977L374.805 69H375.913V68ZM382.825 0.799995V-0.200005H381.923L381.83 0.697678L382.825 0.799995ZM391.657 0.799995L392.653 0.888221L392.749 -0.200005H391.657V0.799995ZM385.705 68V69H386.62L386.701 68.0882L385.705 68ZM406.057 61.616L405.101 61.9106L405.319 62.616H406.057V61.616ZM389.929 9.296L388.929 9.30165L388.93 9.44939L388.973 9.59058L389.929 9.296ZM389.881 0.799995V-0.200005H388.875L388.881 0.805645L389.881 0.799995ZM395.257 0.799995L396.215 0.512381L396.001 -0.200005H395.257V0.799995ZM409.513 48.272L410.495 48.0813L410.485 48.0323L410.471 47.9844L409.513 48.272ZM412.105 61.616V62.616H413.318L413.087 61.4253L412.105 61.616ZM435.001 68L434.005 68.0882L434.086 69H435.001V68ZM429.049 0.799995V-0.200005H427.957L428.053 0.888222L429.049 0.799995ZM437.881 0.799995L438.876 0.697678L438.783 -0.200005H437.881V0.799995ZM444.793 68V69H445.901L445.788 67.8977L444.793 68ZM409.484 61.8202L412.268 48.4762L410.31 48.0678L407.526 61.4118L409.484 61.8202ZM412.247 48.5578L426.407 1.08583L424.491 0.514159L410.331 47.9862L412.247 48.5578ZM425.449 1.8H430.921V-0.200005H425.449V1.8ZM429.921 0.783049L429.777 9.27905L431.777 9.31294L431.921 0.816942L429.921 0.783049ZM429.821 9.00142L413.693 61.3214L415.605 61.9106L431.733 9.59058L429.821 9.00142ZM414.649 60.616H408.505V62.616H414.649V60.616ZM376.908 68.1023L383.82 0.902313L381.83 0.697678L374.918 67.8977L376.908 68.1023ZM382.825 1.8H391.657V-0.200005H382.825V1.8ZM390.661 0.711769L384.709 67.9118L386.701 68.0882L392.653 0.888221L390.661 0.711769ZM385.705 67H375.913V69H385.705V67ZM407.013 61.3214L390.885 9.00142L388.973 9.59058L405.101 61.9106L407.013 61.3214ZM390.929 9.29035L390.881 0.794346L388.881 0.805645L388.929 9.30165L390.929 9.29035ZM389.881 1.8H395.257V-0.200005H389.881V1.8ZM394.299 1.08761L408.555 48.5596L410.471 47.9844L396.215 0.512381L394.299 1.08761ZM408.531 48.4627L411.123 61.8067L413.087 61.4253L410.495 48.0813L408.531 48.4627ZM412.105 60.616H406.057V62.616H412.105V60.616ZM435.997 67.9118L430.045 0.711769L428.053 0.888222L434.005 68.0882L435.997 67.9118ZM429.049 1.8H437.881V-0.200005H429.049V1.8ZM436.886 0.902313L443.798 68.1023L445.788 67.8977L438.876 0.697678L436.886 0.902313ZM444.793 67H435.001V69H444.793V67ZM462.372 68H461.372V69H462.372V68ZM462.372 0.799995V-0.200005H461.372V0.799995H462.372ZM504.372 0.799995H505.372V-0.200005H504.372V0.799995ZM504.372 8.096V9.096H505.372V8.096H504.372ZM471.876 8.096V7.096H470.876V8.096H471.876ZM471.876 31.328H470.876V32.328H471.876V31.328ZM500.531 31.328H501.531V30.328H500.531V31.328ZM500.531 38.624V39.624H501.531V38.624H500.531ZM471.876 38.624V37.624H470.876V38.624H471.876ZM471.876 60.704H470.876V61.704H471.876V60.704ZM504.372 60.704H505.372V59.704H504.372V60.704ZM504.372 68V69H505.372V68H504.372ZM463.372 68V0.799995H461.372V68H463.372ZM462.372 1.8H504.372V-0.200005H462.372V1.8ZM503.372 0.799995V8.096H505.372V0.799995H503.372ZM504.372 7.096H471.876V9.096H504.372V7.096ZM470.876 8.096V31.328H472.876V8.096H470.876ZM471.876 32.328H500.531V30.328H471.876V32.328ZM499.531 31.328V38.624H501.531V31.328H499.531ZM500.531 37.624H471.876V39.624H500.531V37.624ZM470.876 38.624V60.704H472.876V38.624H470.876ZM471.876 61.704H504.372V59.704H471.876V61.704ZM503.372 60.704V68H505.372V60.704H503.372ZM504.372 67H462.372V69H504.372V67ZM533.977 67.376L534.293 66.4273L533.977 67.376ZM525.337 62.528L524.671 63.2743L524.676 63.2787L525.337 62.528ZM520.201 54.944L519.802 54.0269L518.944 54.4001L519.26 55.2816L520.201 54.944ZM529.369 50.96L530.305 50.6089L529.936 49.6234L528.97 50.0429L529.369 50.96ZM532.825 56.432L532.104 57.1246L532.111 57.1318L532.825 56.432ZM538.345 60.128L538.731 59.2053L538.731 59.2053L538.345 60.128ZM552.793 60.128L553.194 61.0442L553.2 61.0412L552.793 60.128ZM557.593 56.24L558.423 56.7984L558.423 56.7984L557.593 56.24ZM557.833 45.536L556.998 46.0863L557.005 46.0973L557.013 46.1082L557.833 45.536ZM553.993 41.888L553.45 42.7277L553.462 42.7351L553.993 41.888ZM548.521 39.2L548.16 40.1326L548.169 40.136L548.178 40.1394L548.521 39.2ZM542.425 37.28L542.173 38.2477L542.186 38.251L542.425 37.28ZM534.313 34.496L533.905 35.4088L533.909 35.4108L534.313 34.496ZM527.929 30.56L527.27 31.3126L527.278 31.3188L527.285 31.3249L527.929 30.56ZM523.753 24.992L522.84 25.4007L522.845 25.4119L523.753 24.992ZM523.609 11.216L522.702 10.794L522.702 10.794L523.609 11.216ZM527.161 6.368L526.494 5.62312L526.486 5.63019L527.161 6.368ZM532.393 2.96L532.81 3.86885L532.817 3.86581L532.393 2.96ZM538.777 0.895994L538.584 -0.0851145L538.584 -0.0851142L538.777 0.895994ZM555.769 1.856L555.438 2.79975L555.447 2.80271L555.769 1.856ZM563.641 6.272L562.98 7.02252L562.987 7.02806L563.641 6.272ZM568.057 12.608L568.467 13.5202L569.295 13.1481L569.004 12.2879L568.057 12.608ZM559.081 16.64L558.139 16.9753L558.502 17.9962L559.491 17.5522L559.081 16.64ZM556.105 11.84L555.389 12.5384L555.398 12.5471L556.105 11.84ZM551.401 8.86399L551.041 9.79692L551.051 9.80069L551.061 9.80426L551.401 8.86399ZM540.409 8.432L540.652 9.40214L540.658 9.4004L540.665 9.39856L540.409 8.432ZM536.233 10.208L536.767 11.0535L536.773 11.0499L536.233 10.208ZM533.305 13.136L532.456 12.6081L532.452 12.6145L533.305 13.136ZM538.921 26.72L538.468 27.6117L538.476 27.6158L538.485 27.6198L538.921 26.72ZM546.217 29.312L546.476 28.3462L546.465 28.3432L546.217 29.312ZM552.697 31.328L552.364 32.271L552.372 32.2739L552.381 32.2767L552.697 31.328ZM558.937 34.016L558.461 34.8956L558.467 34.8987L558.937 34.016ZM564.217 37.808L563.525 38.53L563.533 38.5373L563.541 38.5445L564.217 37.808ZM567.913 42.896L567.004 43.3132L567.007 43.3189L567.913 42.896ZM567.913 56.72L566.992 56.3294L566.987 56.3414L567.913 56.72ZM564.313 62.24L565.02 62.9471L565.027 62.9398L564.313 62.24ZM558.937 66.08L559.373 66.9801L559.384 66.9744L558.937 66.08ZM552.265 68.288L552.069 67.3074L552.061 67.3089L552.054 67.3106L552.265 68.288ZM544.969 68.056C541.096 68.056 537.54 67.5095 534.293 66.4273L533.661 68.3247C537.134 69.4825 540.906 70.056 544.969 70.056V68.056ZM534.293 66.4273C531.046 65.345 528.287 63.7918 525.998 61.7773L524.676 63.2787C527.187 65.4882 530.188 67.167 533.661 68.3247L534.293 66.4273ZM526.003 61.7817C523.757 59.7791 522.141 57.3909 521.142 54.6064L519.26 55.2816C520.373 58.3851 522.181 61.0529 524.671 63.2743L526.003 61.7817ZM520.6 55.8611L529.768 51.8771L528.97 50.0429L519.802 54.0269L520.6 55.8611ZM528.433 51.3111C529.249 53.4882 530.475 55.4279 532.104 57.1245L533.546 55.7395C532.103 54.2361 531.025 52.5278 530.305 50.6089L528.433 51.3111ZM532.111 57.1318C533.746 58.8008 535.699 60.1062 537.959 61.0507L538.731 59.2053C536.703 58.3578 534.976 57.1992 533.539 55.7322L532.111 57.1318ZM537.959 61.0507C540.242 62.0045 542.775 62.472 545.545 62.472V60.472C543.003 60.472 540.736 60.0435 538.731 59.2053L537.959 61.0507ZM545.545 62.472C548.434 62.472 550.992 62.0073 553.194 61.0442L552.392 59.2118C550.498 60.0407 548.224 60.472 545.545 60.472V62.472ZM553.2 61.0412C555.428 60.0475 557.184 58.6382 558.423 56.7984L556.763 55.6816C555.762 57.1698 554.318 58.3525 552.386 59.2148L553.2 61.0412ZM558.423 56.7984C559.671 54.9435 560.273 52.7414 560.273 50.24H558.273C558.273 52.4106 557.755 54.2085 556.763 55.6816L558.423 56.7984ZM560.273 50.24C560.273 48.286 559.736 46.5162 558.653 44.9638L557.013 46.1082C557.85 47.3078 558.273 48.674 558.273 50.24H560.273ZM558.668 44.9857C557.651 43.4423 556.26 42.1302 554.524 41.0409L553.462 42.7351C554.99 43.6938 556.159 44.8137 556.998 46.0863L558.668 44.9857ZM554.536 41.0484C552.835 39.9478 550.943 39.0197 548.864 38.2606L548.178 40.1394C550.131 40.8523 551.887 41.7162 553.45 42.7276L554.536 41.0484ZM548.882 38.2674C546.858 37.4839 544.785 36.8311 542.664 36.309L542.186 38.251C544.225 38.7529 546.216 39.3801 548.16 40.1326L548.882 38.2674ZM542.677 36.3124C539.779 35.5562 537.126 34.645 534.717 33.5812L533.909 35.4108C536.428 36.523 539.183 37.4678 542.173 38.2476L542.677 36.3124ZM534.721 33.5832C532.365 32.5289 530.318 31.2645 528.573 29.7951L527.285 31.3249C529.188 32.9275 531.397 34.2871 533.905 35.4088L534.721 33.5832ZM528.588 29.8074C526.9 28.3309 525.593 26.5879 524.661 24.5721L522.845 25.4119C523.897 27.6841 525.374 29.6531 527.27 31.3126L528.588 29.8074ZM524.666 24.5833C523.775 22.5935 523.313 20.2262 523.313 17.456H521.313C521.313 20.4458 521.811 23.1025 522.84 25.4007L524.666 24.5833ZM523.313 17.456C523.313 15.2794 523.72 13.3462 524.516 11.638L522.702 10.794C521.77 12.7978 521.313 15.0246 521.313 17.456H523.313ZM524.516 11.638C525.324 9.90099 526.43 8.39244 527.836 7.1058L526.486 5.63019C524.884 7.09555 523.622 8.81901 522.702 10.794L524.516 11.638ZM527.828 7.11283C529.287 5.80646 530.945 4.72476 532.81 3.86883L531.976 2.05117C529.937 2.98724 528.107 4.17753 526.494 5.62316L527.828 7.11283ZM532.817 3.86581C534.723 2.97405 536.773 2.31032 538.97 1.8771L538.584 -0.0851142C536.237 0.377671 534.031 1.08995 531.969 2.05419L532.817 3.86581ZM538.97 1.8771C541.179 1.4416 543.402 1.224 545.641 1.224V-0.776003C543.272 -0.776003 540.919 -0.545612 538.584 -0.0851145L538.97 1.8771ZM545.641 1.224C549.189 1.224 552.451 1.7528 555.438 2.79971L556.1 0.912293C552.879 -0.216806 549.389 -0.776003 545.641 -0.776003V1.224ZM555.447 2.80271C558.444 3.82249 560.949 5.23349 562.98 7.02249L564.302 5.52151C562.045 3.53451 559.302 2.00151 556.091 0.909286L555.447 2.80271ZM562.987 7.02806C565.014 8.78342 566.374 10.7506 567.11 12.9281L569.004 12.2879C568.14 9.72935 566.556 7.47257 564.296 5.51594L562.987 7.02806ZM567.647 11.6958L558.671 15.7278L559.491 17.5522L568.467 13.5202L567.647 11.6958ZM560.023 16.3047C559.305 14.2882 558.237 12.5581 556.812 11.1329L555.398 12.5471C556.597 13.7459 557.513 15.2158 558.139 16.9753L560.023 16.3047ZM556.821 11.1417C555.428 9.71361 553.728 8.64303 551.741 7.92373L551.061 9.80426C552.786 10.429 554.222 11.3424 555.389 12.5383L556.821 11.1417ZM551.761 7.93107C549.807 7.17677 547.65 6.808 545.305 6.808V8.808C547.44 8.808 549.347 9.14322 551.041 9.79692L551.761 7.93107ZM545.305 6.808C543.526 6.808 541.808 7.02625 540.153 7.46544L540.665 9.39856C542.146 9.00575 543.692 8.808 545.305 8.808V6.808ZM540.166 7.46185C538.532 7.87039 537.039 8.50364 535.693 9.36611L536.773 11.0499C537.923 10.3123 539.214 9.7616 540.652 9.40214L540.166 7.46185ZM535.699 9.36251C534.359 10.2086 533.274 11.2916 532.456 12.6081L534.154 13.6639C534.808 12.6124 535.675 11.7434 536.767 11.0535L535.699 9.36251ZM532.452 12.6145C531.637 13.9475 531.249 15.4942 531.249 17.216H533.249C533.249 15.8018 533.565 14.6285 534.158 13.6574L532.452 12.6145ZM531.249 17.216C531.249 19.6128 531.896 21.7077 533.233 23.4425L534.817 22.2215C533.786 20.8843 533.249 19.2352 533.249 17.216H531.249ZM533.233 23.4425C534.524 25.1178 536.282 26.5018 538.468 27.6117L539.374 25.8283C537.4 24.8262 535.894 23.6182 534.817 22.2215L533.233 23.4425ZM538.485 27.6198C540.668 28.6784 543.165 29.5635 545.969 30.2808L546.465 28.3432C543.765 27.6525 541.398 26.8096 539.357 25.8202L538.485 27.6198ZM545.958 30.2778C548.076 30.8469 550.211 31.5112 552.364 32.271L553.03 30.385C550.831 29.6088 548.646 28.9291 546.476 28.3462L545.958 30.2778ZM552.381 32.2767C554.536 32.9952 556.563 33.8685 558.461 34.8955L559.413 33.1365C557.407 32.0515 555.274 31.1328 553.013 30.3793L552.381 32.2767ZM558.467 34.8987C560.375 35.914 562.059 37.125 563.525 38.53L564.909 37.086C563.303 35.547 561.467 34.23 559.407 33.1333L558.467 34.8987ZM563.541 38.5445C565.01 39.8938 566.163 41.4809 567.004 43.3132L568.822 42.4788C567.871 40.4071 566.56 38.6022 564.893 37.0715L563.541 38.5445ZM567.007 43.3189C567.831 45.0849 568.257 47.1443 568.257 49.52H570.257C570.257 46.9037 569.787 44.5471 568.819 42.4731L567.007 43.3189ZM568.257 49.52C568.257 52.0965 567.828 54.3603 566.992 56.3294L568.834 57.1105C569.79 54.8557 570.257 52.3195 570.257 49.52H568.257ZM566.987 56.3414C566.17 58.3385 565.041 60.0683 563.599 61.5402L565.027 62.9398C566.657 61.2757 567.928 59.3255 568.839 57.0986L566.987 56.3414ZM563.606 61.5329C562.15 62.9889 560.447 64.207 558.49 65.1856L559.384 66.9744C561.523 65.905 563.404 64.5631 565.02 62.9471L563.606 61.5329ZM558.501 65.18C556.535 66.1324 554.392 66.8428 552.069 67.3074L552.461 69.2686C554.938 68.7732 557.243 68.0116 559.373 66.98L558.501 65.18ZM552.054 67.3106C549.757 67.8071 547.396 68.056 544.969 68.056V70.056C547.534 70.056 550.037 69.7929 552.476 69.2654L552.054 67.3106ZM637.455 68H636.455V69H637.455V68ZM637.455 0.799995V-0.200005H636.455V0.799995H637.455ZM677.055 0.799995H678.055V-0.200005H677.055V0.799995ZM677.055 8.096V9.096H678.055V8.096H677.055ZM646.959 8.096V7.096H645.959V8.096H646.959ZM646.959 34.832H645.959V35.832H646.959V34.832ZM672.591 34.832H673.591V33.832H672.591V34.832ZM672.591 42.128V43.128H673.591V42.128H672.591ZM646.959 42.128V41.128H645.959V42.128H646.959ZM646.959 68V69H647.959V68H646.959ZM638.455 68V0.799995H636.455V68H638.455ZM637.455 1.8H677.055V-0.200005H637.455V1.8ZM676.055 0.799995V8.096H678.055V0.799995H676.055ZM677.055 7.096H646.959V9.096H677.055V7.096ZM645.959 8.096V34.832H647.959V8.096H645.959ZM646.959 35.832H672.591V33.832H646.959V35.832ZM671.591 34.832V42.128H673.591V34.832H671.591ZM672.591 41.128H646.959V43.128H672.591V41.128ZM645.959 42.128V68H647.959V42.128H645.959ZM646.959 67H637.455V69H646.959V67ZM738.88 68V69H740.177L739.847 67.7458L738.88 68ZM729.04 68L728.071 68.2464L728.262 69H729.04V68ZM724.72 51.008L725.689 50.7616L725.498 50.008H724.72V51.008ZM701.872 51.008V50.008H701.094L700.903 50.7616L701.872 51.008ZM697.552 68V69H698.33L698.521 68.2464L697.552 68ZM687.712 68L686.745 67.7458L686.415 69H687.712V68ZM705.376 0.799995V-0.200005H704.605L704.409 0.545774L705.376 0.799995ZM721.216 0.799995L722.183 0.545774L721.987 -0.200005H721.216V0.799995ZM712.672 8.096V7.096H711.899L711.704 7.84427L712.672 8.096ZM703.408 43.712L702.44 43.4603L702.115 44.712H703.408V43.712ZM723.184 43.712V44.712H724.477L724.152 43.4603L723.184 43.712ZM713.92 8.096L714.888 7.84427L714.693 7.096H713.92V8.096ZM738.88 67H729.04V69H738.88V67ZM730.009 67.7536L725.689 50.7616L723.751 51.2544L728.071 68.2464L730.009 67.7536ZM724.72 50.008H701.872V52.008H724.72V50.008ZM700.903 50.7616L696.583 67.7536L698.521 68.2464L702.841 51.2544L700.903 50.7616ZM697.552 67H687.712V69H697.552V67ZM688.679 68.2542L706.343 1.05422L704.409 0.545774L686.745 67.7458L688.679 68.2542ZM705.376 1.8H721.216V-0.200005H705.376V1.8ZM720.249 1.05422L737.913 68.2542L739.847 67.7458L722.183 0.545774L720.249 1.05422ZM711.704 7.84427L702.44 43.4603L704.376 43.9637L713.64 8.34773L711.704 7.84427ZM703.408 44.712H723.184V42.712H703.408V44.712ZM724.152 43.4603L714.888 7.84427L712.952 8.34773L722.216 43.9637L724.152 43.4603ZM713.92 7.096H712.672V9.096H713.92V7.096ZM751.878 68H750.878V69H751.878V68ZM751.878 0.799995V-0.200005H750.878V0.799995H751.878ZM765.894 0.799995L766.813 0.406348L766.553 -0.200005H765.894V0.799995ZM791.094 59.648V60.648H792.61L792.013 59.2544L791.094 59.648ZM789.51 59.648H788.51V60.648H789.51V59.648ZM789.51 0.799995V-0.200005H788.51V0.799995H789.51ZM799.014 0.799995H800.014V-0.200005H799.014V0.799995ZM799.014 68V69H800.014V68H799.014ZM786.726 68L785.81 68.4023L786.073 69H786.726V68ZM760.95 9.344V8.344H759.418L760.034 9.74631L760.95 9.344ZM761.382 9.344H762.382V8.344H761.382V9.344ZM761.382 68V69H762.382V68H761.382ZM752.878 68V0.799995H750.878V68H752.878ZM751.878 1.8H765.894V-0.200005H751.878V1.8ZM764.974 1.19364L790.174 60.0416L792.013 59.2544L766.813 0.406348L764.974 1.19364ZM791.094 58.648H789.51V60.648H791.094V58.648ZM790.51 59.648V0.799995H788.51V59.648H790.51ZM789.51 1.8H799.014V-0.200005H789.51V1.8ZM798.014 0.799995V68H800.014V0.799995H798.014ZM799.014 67H786.726V69H799.014V67ZM787.641 67.5977L761.865 8.94169L760.034 9.74631L785.81 68.4023L787.641 67.5977ZM760.95 10.344H761.382V8.344H760.95V10.344ZM760.382 9.344V68H762.382V9.344H760.382ZM761.382 67H751.878V69H761.382V67Z" fill="#FF0000" mask="url(#path-1-outside-1_82_66)"/>
<defs>
<filter id="filter0_i_82_66" x="0.328125" y="0.223999" width="798.686" height="72.832" filterUnits="userSpaceOnUse" color-interpolation-filters="sRGB">
<feFlood flood-opacity="0" result="BackgroundImageFix"/>
<feBlend mode="normal" in="SourceGraphic" in2="BackgroundImageFix" result="shape"/>
<feColorMatrix in="SourceAlpha" type="matrix" values="0 0 0 0 0 0 0 0 0 0 0 0 0 0 0 0 0 0 127 0" result="hardAlpha"/>
<feOffset dy="4"/>
<feGaussianBlur stdDeviation="2"/>
<feComposite in2="hardAlpha" operator="arithmetic" k2="-1" k3="1"/>
<feColorMatrix type="matrix" values="0 0 0 0 0 0 0 0 0 0 0 0 0 0 0 0 0 0 0.25 0"/>
<feBlend mode="normal" in2="shape" result="effect1_innerShadow_82_66"/>
</filter>
</defs>
</svg>
